<svg width="180" height="35" viewBox="0 0 180 35" fill="none" xmlns="http://www.w3.org/2000/svg">
<g clip-path="url(#clip0_1091_9713)">
<path d="M147.418 7.76427C148.234 7.83693 149.056 7.74263 149.835 7.48712C150.613 7.2316 151.331 6.82022 151.946 6.27806C152.56 5.7359 153.057 5.07432 153.407 4.33365C153.758 3.59298 153.953 2.78874 153.983 1.96997H150.491C150.13 3.37385 149.285 4.07578 147.418 4.07578C145.551 4.07578 144.587 3.37385 144.287 1.96997H140.795C140.83 2.79182 141.032 3.59792 141.388 4.33949C141.745 5.08106 142.247 5.74269 142.866 6.28435C143.486 6.82601 144.208 7.23645 144.99 7.49082C145.773 7.74519 146.599 7.83822 147.418 7.76427Z" fill="black"/>
<path d="M75.7283 23.9553V9.57886H71.3301V30.5343H75.9087L84.7596 15.9162V30.5343H89.1543V9.57886H84.5789L75.7283 23.9553Z" fill="black"/>
<path d="M57.4949 9.75427C55.8751 9.68087 54.2673 10.0641 52.8548 10.8603C51.4423 11.6565 50.282 12.8335 49.5061 14.2573C49.7241 9.50926 50.6949 6.68495 56.3501 5.9499L65.143 4.7778L64.782 0.0960083L55.6279 1.3244C47.7379 2.3773 45.5098 8.2908 45.5098 17.5948C45.5098 25.73 49.305 30.9382 56.3501 30.9382C63.2148 30.9382 66.9487 25.7863 66.9487 19.7602C67.0329 18.471 66.8504 17.1783 66.4124 15.9628C65.9744 14.7474 65.2904 13.6354 64.4031 12.6963C63.5158 11.7572 62.4444 11.0112 61.2557 10.505C60.0671 9.99881 58.7868 9.74323 57.4949 9.75427ZM56.3501 26.3193C52.3746 26.3193 50.0272 23.5116 50.0272 19.2966V17.1312C50.8687 15.4923 53.1002 14.2043 56.3501 14.2043C59.7841 14.2043 62.4313 15.7836 62.4313 19.7635C62.4313 23.7434 60.3258 26.3193 56.3501 26.3193Z" fill="black"/>
<path d="M174.864 9.57886V17.4227H166.308V9.57886H161.914V30.5343H166.308V21.7535H174.864V30.5343H179.258V9.57886H174.864Z" fill="black"/>
<path d="M142.963 23.9553V9.57886H138.564V30.5343H143.143L151.994 15.9162V30.5343H156.392V9.57886H151.814L142.963 23.9553Z" fill="black"/>
<path d="M97.0617 22.3991C96.5814 24.74 95.9171 25.7366 94.5918 25.7366C94.0445 25.7569 93.4972 25.6978 92.9668 25.5611V30.4184C93.6455 30.7274 94.3888 30.8683 95.1335 30.8289C96.1631 30.8516 97.1731 30.5462 98.0176 29.957C98.8621 29.3677 99.4973 28.5251 99.8314 27.551C100.38 25.902 100.725 24.1917 100.857 22.4587C101.151 19.6596 101.292 16.8465 101.279 14.0321H107.122V30.5376H111.517V9.58539H97.6068C97.703 13.8639 97.5209 18.1442 97.0617 22.3991Z" fill="black"/>
<path d="M132.259 24.8558L132.32 16.5452C132.382 11.2773 129.067 9.11191 124.25 9.11191C123.254 9.03417 122.252 9.15462 121.303 9.4663C120.354 9.77798 119.476 10.2747 118.721 10.9278C117.965 11.5808 117.346 12.3772 116.9 13.2709C116.453 14.1647 116.189 15.138 116.121 16.1346H120.335C120.577 14.2043 122.141 13.5586 124.25 13.5586C126.41 13.5586 127.857 14.2043 128.075 16.3597L122.686 18.4755C119.013 19.939 116.244 21.5779 116.244 25.0313C116.244 28.6006 118.291 30.8852 122.386 30.8852C123.658 30.9158 124.91 30.5701 125.986 29.8915C127.062 29.2129 127.913 28.2317 128.433 27.0709C128.648 29.5939 130.368 30.7097 133.346 30.7097H134.552V26.6703H134.191C132.801 26.6703 132.259 26.1438 132.259 24.8558ZM124.008 26.4948C121.96 26.4948 120.455 25.9683 120.455 24.1539C120.455 22.5745 121.718 21.8726 123.889 20.9919L128.086 19.2966L128.041 24.9717C127.517 25.499 126.885 25.9077 126.19 26.1704C125.494 26.4331 124.75 26.5437 124.008 26.4948Z" fill="black"/>
<path d="M17.5672 34.1301C22.1592 34.1955 26.5892 32.4345 29.8831 29.2344C33.177 26.0343 35.0652 21.657 35.1325 17.0651C35.0652 12.4731 33.177 8.09586 29.8831 4.89576C26.5892 1.69565 22.1592 -0.0653173 17.5672 4.80674e-05C12.9752 -0.0653217 8.54527 1.69565 5.25135 4.89575C1.95744 8.09586 0.0692484 12.4731 0.00195312 17.0651C0.0692615 21.657 1.95746 26.0343 5.25137 29.2344C8.54528 32.4345 12.9752 34.1955 17.5672 34.1301Z" fill="#FFC800"/>
<path d="M25.1257 29.7793C19.1604 33.1235 12.691 33.7228 8.55859 31.7196C11.2597 33.2795 14.3196 34.1112 17.4387 34.1332C20.5578 34.1553 23.6292 33.367 26.3521 31.8454C29.0379 30.3663 31.2729 28.1874 32.8198 25.5401C34.3668 22.8928 35.1679 19.876 35.1381 16.8101C34.8588 21.2866 31.0876 26.4319 25.1257 29.7793Z" fill="black"/>
<path d="M19.7945 1.25153C21.0038 3.2845 18.0809 7.12529 13.2637 9.82378C8.44653 12.5256 3.56462 13.0653 2.35523 11.029C2.30144 10.9296 2.25696 10.8254 2.22236 10.7178C2.11136 10.1051 2.14043 9.47535 2.3074 8.87557C2.47436 8.27578 2.7749 7.72156 3.18648 7.25442C3.33298 7.05245 3.48289 6.85379 3.63619 6.65844C5.04832 4.87672 6.79746 3.3905 8.7838 2.28457C10.7835 1.16077 12.9813 0.433397 15.2567 0.14234C15.5156 0.105919 15.7677 0.0794303 16.013 0.0628752C16.6385 -0.0494614 17.2809 -0.0256866 17.8964 0.132581C18.5119 0.290848 19.086 0.579892 19.5798 0.980029C19.6591 1.06409 19.731 1.15494 19.7945 1.25153Z" fill="black"/>
<path d="M27.2632 3.45011C29.3753 7.00284 25.1135 13.2309 17.7481 17.363C10.3827 21.4952 2.69701 21.9653 0.588212 18.4126C0.239238 17.8159 0.0415756 17.143 0.0124747 16.4524C-0.0825866 18.8935 0.366599 21.3251 1.32748 23.5711C1.47398 23.9155 1.6341 24.2565 1.80444 24.5942L1.82827 24.6373C2.48972 25.7188 3.44255 26.5921 4.57754 27.157C8.70994 29.3058 15.6972 28.5675 22.2314 24.9022C28.7621 21.2369 32.915 15.7306 33.0683 11.1813C33.1303 9.93548 32.831 8.69831 32.2064 7.61861C31.968 7.27096 31.7192 6.92992 31.457 6.60544C29.9293 4.69153 28.0136 3.12298 25.8358 2.00311C26.4185 2.36676 26.9075 2.86242 27.2632 3.45003L27.2665 3.45665L27.2632 3.45011Z" fill="black"/>
<path d="M17.5672 34.1301C22.1592 34.1955 26.5892 32.4345 29.8831 29.2344C33.177 26.0343 35.0652 21.657 35.1325 17.0651C35.0652 12.4731 33.177 8.09586 29.8831 4.89576C26.5892 1.69565 22.1592 -0.0653173 17.5672 4.80674e-05C12.9752 -0.0653217 8.54527 1.69565 5.25135 4.89575C1.95744 8.09586 0.0692484 12.4731 0.00195312 17.0651C0.0692615 21.657 1.95746 26.0343 5.25137 29.2344C8.54528 32.4345 12.9752 34.1955 17.5672 34.1301Z" fill="url(#paint0_radial_1091_9713)"/>
</g>
<defs>
<radialGradient id="paint0_radial_1091_9713" cx="0" cy="0" r="1" gradientUnits="userSpaceOnUse" gradientTransform="translate(17.5678 17.065) scale(17.5618 17.0684)">
<stop offset="0.5" stop-color="white" stop-opacity="0"/>
<stop offset="1" stop-color="white" stop-opacity="0.35"/>
</radialGradient>
<clipPath id="clip0_1091_9713">
<rect width="179.258" height="34.134" fill="white"/>
</clipPath>
</defs>
</svg>
