<svg width="36" height="36" viewBox="0 0 36 36" fill="none" xmlns="http://www.w3.org/2000/svg">
<circle cx="18" cy="18" r="18" fill="#FFF6F2"/>
<path d="M25 10H11C10.2044 10 9.44129 10.3161 8.87868 10.8787C8.31607 11.4413 8 12.2044 8 13V23C8 23.7956 8.31607 24.5587 8.87868 25.1213C9.44129 25.6839 10.2044 26 11 26H25C25.7956 26 26.5587 25.6839 27.1213 25.1213C27.6839 24.5587 28 23.7956 28 23V13C28 12.2044 27.6839 11.4413 27.1213 10.8787C26.5587 10.3161 25.7956 10 25 10V10ZM24.59 12L18.71 17.88C18.617 17.9737 18.5064 18.0481 18.3846 18.0989C18.2627 18.1497 18.132 18.1758 18 18.1758C17.868 18.1758 17.7373 18.1497 17.6154 18.0989C17.4936 18.0481 17.383 17.9737 17.29 17.88L11.41 12H24.59ZM26 23C26 23.2652 25.8946 23.5196 25.7071 23.7071C25.5196 23.8946 25.2652 24 25 24H11C10.7348 24 10.4804 23.8946 10.2929 23.7071C10.1054 23.5196 10 23.2652 10 23V13.41L15.88 19.29C16.4425 19.8518 17.205 20.1674 18 20.1674C18.795 20.1674 19.5575 19.8518 20.12 19.29L26 13.41V23Z" fill="#FB6B1A"/>
</svg>
