<svg width="552" height="121" viewBox="0 0 552 121" fill="none" xmlns="http://www.w3.org/2000/svg">
<path d="M7.99006 97V24.2727H53.5866V33.7188H18.9631V55.8778H51.2074V65.2884H18.9631V87.554H54.0128V97H7.99006ZM68.244 97V24.2727H94.1673C99.8017 24.2727 104.477 25.2434 108.194 27.1847C111.935 29.1259 114.728 31.813 116.575 35.2457C118.422 38.6548 119.345 42.5966 119.345 47.071C119.345 51.5218 118.41 55.4399 116.539 58.8253C114.693 62.187 111.899 64.803 108.159 66.6733C104.442 68.5436 99.7662 69.4787 94.1317 69.4787H74.494V60.0327H93.1374C96.6886 60.0327 99.5768 59.5237 101.802 58.5057C104.051 57.4877 105.697 56.008 106.738 54.0668C107.78 52.1255 108.301 49.7936 108.301 47.071C108.301 44.3248 107.768 41.9455 106.703 39.9332C105.661 37.9209 104.016 36.3821 101.767 35.3168C99.5413 34.2277 96.6175 33.6832 92.9954 33.6832H79.217V97H68.244ZM104.146 64.1875L122.115 97H109.615L92.0011 64.1875H104.146ZM132.697 97V24.2727H158.62C164.255 24.2727 168.931 25.2434 172.647 27.1847C176.388 29.1259 179.181 31.813 181.028 35.2457C182.875 38.6548 183.798 42.5966 183.798 47.071C183.798 51.5218 182.863 55.4399 180.993 58.8253C179.146 62.187 176.352 64.803 172.612 66.6733C168.895 68.5436 164.219 69.4787 158.585 69.4787H138.947V60.0327H157.591C161.142 60.0327 164.03 59.5237 166.255 58.5057C168.504 57.4877 170.15 56.008 171.191 54.0668C172.233 52.1255 172.754 49.7936 172.754 47.071C172.754 44.3248 172.221 41.9455 171.156 39.9332C170.114 37.9209 168.469 36.3821 166.22 35.3168C163.994 34.2277 161.071 33.6832 157.449 33.6832H143.67V97H132.697ZM168.599 64.1875L186.568 97H174.068L156.454 64.1875H168.599ZM260.325 60.6364C260.325 68.4015 258.904 75.0777 256.064 80.6648C253.223 86.2282 249.328 90.5133 244.38 93.5199C239.456 96.5028 233.857 97.9943 227.583 97.9943C221.286 97.9943 215.663 96.5028 210.716 93.5199C205.791 90.5133 201.909 86.2164 199.068 80.6293C196.227 75.0421 194.806 68.3778 194.806 60.6364C194.806 52.8712 196.227 46.2069 199.068 40.6435C201.909 35.0563 205.791 30.7713 210.716 27.7884C215.663 24.7817 221.286 23.2784 227.583 23.2784C233.857 23.2784 239.456 24.7817 244.38 27.7884C249.328 30.7713 253.223 35.0563 256.064 40.6435C258.904 46.2069 260.325 52.8712 260.325 60.6364ZM249.458 60.6364C249.458 54.7178 248.5 49.7344 246.582 45.6861C244.688 41.6141 242.084 38.5365 238.77 36.4531C235.479 34.3461 231.75 33.2926 227.583 33.2926C223.393 33.2926 219.653 34.3461 216.362 36.4531C213.071 38.5365 210.467 41.6141 208.549 45.6861C206.655 49.7344 205.708 54.7178 205.708 60.6364C205.708 66.5549 206.655 71.5502 208.549 75.6222C210.467 79.6705 213.071 82.7481 216.362 84.8551C219.653 86.9384 223.393 87.9801 227.583 87.9801C231.75 87.9801 235.479 86.9384 238.77 84.8551C242.084 82.7481 244.688 79.6705 246.582 75.6222C248.5 71.5502 249.458 66.5549 249.458 60.6364ZM274.006 97V24.2727H299.929C305.563 24.2727 310.239 25.2434 313.956 27.1847C317.696 29.1259 320.49 31.813 322.337 35.2457C324.183 38.6548 325.107 42.5966 325.107 47.071C325.107 51.5218 324.171 55.4399 322.301 58.8253C320.455 62.187 317.661 64.803 313.92 66.6733C310.204 68.5436 305.528 69.4787 299.893 69.4787H280.256V60.0327H298.899C302.45 60.0327 305.339 59.5237 307.564 58.5057C309.813 57.4877 311.458 56.008 312.5 54.0668C313.542 52.1255 314.062 49.7936 314.062 47.071C314.062 44.3248 313.53 41.9455 312.464 39.9332C311.423 37.9209 309.777 36.3821 307.528 35.3168C305.303 34.2277 302.379 33.6832 298.757 33.6832H284.979V97H274.006ZM309.908 64.1875L327.876 97H315.376L297.763 64.1875H309.908Z" fill="#CFD7E7"/>
<path d="M352.097 84.2159V72.1065L382.459 24.2727H392.899V41.0341H386.72L367.58 71.3253V71.8935H410.726V84.2159H352.097ZM387.004 97V80.5227L387.289 75.1605V24.2727H401.706V97H387.004ZM449.487 98.598C443.379 98.5743 438.123 97.071 433.72 94.0881C429.34 91.1051 425.966 86.7846 423.599 81.1264C421.255 75.4683 420.095 68.6619 420.119 60.7074C420.119 52.7765 421.291 46.0175 423.634 40.4304C426.002 34.8433 429.375 30.5937 433.755 27.6818C438.159 24.7462 443.402 23.2784 449.487 23.2784C455.571 23.2784 460.803 24.7462 465.183 27.6818C469.586 30.6174 472.972 34.8788 475.339 40.4659C477.706 46.0294 478.878 52.7765 478.855 60.7074C478.855 68.6856 477.671 75.5038 475.303 81.1619C472.96 86.8201 469.598 91.1406 465.218 94.1236C460.838 97.1065 455.595 98.598 449.487 98.598ZM449.487 85.8494C453.653 85.8494 456.98 83.7543 459.465 79.5639C461.951 75.3736 463.182 69.0881 463.159 60.7074C463.159 55.1913 462.59 50.5985 461.454 46.929C460.341 43.2595 458.755 40.5014 456.695 38.6548C454.66 36.8082 452.257 35.8849 449.487 35.8849C445.344 35.8849 442.029 37.9564 439.544 42.0994C437.058 46.2424 435.803 52.4451 435.779 60.7074C435.779 66.2945 436.336 70.9583 437.448 74.6989C438.585 78.4157 440.183 81.2093 442.242 83.0795C444.302 84.9261 446.717 85.8494 449.487 85.8494ZM488.718 84.2159V72.1065L519.08 24.2727H529.52V41.0341H523.341L504.201 71.3253V71.8935H547.347V84.2159H488.718ZM523.626 97V80.5227L523.91 75.1605V24.2727H538.327V97H523.626Z" fill="url(#paint0_linear_963_514)"/>
<defs>
<linearGradient id="paint0_linear_963_514" x1="467.784" y1="17.1069" x2="424.294" y2="20.4173" gradientUnits="userSpaceOnUse">
<stop stop-color="#6762F1"/>
<stop offset="1" stop-color="#7BD1EA"/>
</linearGradient>
</defs>
</svg>
