<svg width="24" height="24" viewBox="0 0 24 24" fill="none" xmlns="http://www.w3.org/2000/svg">
<path fill-rule="evenodd" clip-rule="evenodd" d="M12.4982 1.07634C12.377 1.04016 12.217 1 12.0588 1C11.9006 1 11.7407 1.04016 11.6194 1.07634C11.4846 1.11655 11.3342 1.17187 11.1757 1.2361C10.858 1.36484 10.4716 1.54432 10.0486 1.75312C9.20073 2.17168 8.16911 2.72651 7.17536 3.27716C6.18005 3.82867 5.216 4.37974 4.50124 4.79265C4.14372 4.99919 3.84825 5.17134 3.64205 5.29193C3.53894 5.35223 3.45813 5.39965 3.40302 5.43204L3.34004 5.46908L3.3238 5.47865L3.31963 5.48111L3.31855 5.48175L3.31827 5.48192C3.3182 5.48196 3.31815 5.48199 3.64706 6.03922L3.31815 5.48199L3 5.66978V6.03922C3 12.4428 4.81866 16.6639 6.85581 19.2978C7.87127 20.6107 8.93661 21.5233 9.84724 22.112C10.302 22.406 10.7232 22.6224 11.0854 22.7674C11.4308 22.9056 11.7743 23 12.0588 23C12.3433 23 12.6868 22.9056 13.0322 22.7674C13.3945 22.6224 13.8156 22.406 14.2704 22.112C15.181 21.5233 16.2464 20.6107 17.2618 19.2978C19.299 16.6639 21.1176 12.4428 21.1176 6.03922V5.66978L20.7995 5.48199L20.4706 6.03922C20.7995 5.48199 20.7994 5.48196 20.7994 5.48192L20.7991 5.48175L20.798 5.48111L20.7938 5.47865L20.7776 5.46908L20.7146 5.43204C20.6595 5.39965 20.5787 5.35223 20.4756 5.29193C20.2694 5.17134 19.9739 4.99919 19.6164 4.79265C18.9016 4.37974 17.9376 3.82867 16.9423 3.27716C15.9485 2.72651 14.9169 2.17168 14.0691 1.75312C13.6461 1.54432 13.2596 1.36484 12.942 1.2361C12.7835 1.17187 12.633 1.11655 12.4982 1.07634ZM12.5514 21.5659C12.2599 21.6826 12.0979 21.7059 12.0588 21.7059C12.0198 21.7059 11.8578 21.6826 11.5662 21.5659C11.2915 21.456 10.9443 21.2802 10.5498 21.0252C9.76192 20.5159 8.80521 19.703 7.87948 18.5061C6.07151 16.1685 4.36439 12.3428 4.29623 6.40853C4.50072 6.28895 4.79384 6.11816 5.14858 5.91323C5.85937 5.50261 6.81628 4.95564 7.80259 4.40911C8.79045 3.86173 9.8011 3.31852 10.6214 2.91354C11.0326 2.71058 11.3867 2.54693 11.6617 2.43547C11.7996 2.3796 11.9086 2.34056 11.9894 2.31643C12.0218 2.30676 12.0445 2.30111 12.0588 2.29784C12.0732 2.30111 12.0958 2.30676 12.1282 2.31643C12.2091 2.34056 12.318 2.3796 12.4559 2.43547C12.7309 2.54693 13.0851 2.71058 13.4962 2.91354C14.3165 3.31852 15.3272 3.86173 16.3151 4.40911C17.3014 4.95564 18.2583 5.50261 18.9691 5.91323C19.3238 6.11816 19.6169 6.28895 19.8214 6.40853C19.7533 12.3428 18.0461 16.1685 16.2382 18.5061C15.3124 19.703 14.3557 20.5159 13.5678 21.0252C13.1734 21.2802 12.8261 21.456 12.5514 21.5659ZM11.9344 15.6159L17.1108 8.49826L16.0642 7.73709L11.3332 14.2423L8.63332 11.5425L7.71824 12.4576L10.9535 15.6929L11.489 16.2283L11.9344 15.6159Z" fill="#0F2756"/>
</svg>
