<svg width="306" height="286" viewBox="0 0 306 286" fill="none" xmlns="http://www.w3.org/2000/svg">
<rect x="1" y="1" width="304" height="284" rx="17" fill="url(#paint0_linear_1149_60547)" stroke="#FB6B1A" stroke-width="2"/>
<mask id="mask0_1149_60547" style="mask-type:alpha" maskUnits="userSpaceOnUse" x="2" y="2" width="302" height="282">
<rect x="2" y="2" width="302" height="282" rx="16" fill="#7AD4E6"/>
<rect x="2" y="2" width="302" height="282" rx="16" stroke="black"/>
</mask>
<g mask="url(#mask0_1149_60547)">
<circle cx="222.5" cy="239.5" r="121.5" fill="url(#paint1_linear_1149_60547)"/>
<rect x="24" y="29" width="161" height="44" rx="22" fill="#FF8E4E"/>
<path d="M161.002 177.654L304.579 187.694C309.745 188.055 313.64 192.536 313.278 197.702L313.042 201.079L306.938 288.368C306.577 293.534 302.096 297.429 296.93 297.068L153.354 287.028C148.188 286.667 144.293 282.186 144.654 277.02L150.758 189.731L150.994 186.354C151.356 181.188 155.836 177.293 161.002 177.654Z" fill="url(#paint2_linear_1149_60547)"/>
<path d="M150.758 189.731L144.654 277.02C144.293 282.186 148.188 286.667 153.354 287.028L296.93 297.068C302.096 297.429 306.577 293.534 306.938 288.368L313.042 201.079M150.758 189.731L150.994 186.354C151.356 181.188 155.836 177.293 161.002 177.654L304.579 187.694C309.745 188.055 313.64 192.536 313.278 197.702L313.042 201.079M150.758 189.731L224.382 235.59C227.01 237.227 230.278 237.461 233.113 236.215L313.042 201.079" stroke="#FB7022" stroke-width="2"/>
</g>
<path d="M28.69 95H27.178V86.306H24.182V85.004H31.686V86.306H28.69V95ZM38.7163 91.22C38.7163 91.8453 38.6323 92.4007 38.4643 92.886C38.2963 93.3713 38.0583 93.782 37.7503 94.118C37.4423 94.454 37.069 94.7107 36.6303 94.888C36.1916 95.056 35.697 95.14 35.1463 95.14C34.6423 95.14 34.1756 95.056 33.7463 94.888C33.317 94.7107 32.9436 94.454 32.6263 94.118C32.3183 93.782 32.0756 93.3713 31.8983 92.886C31.721 92.4007 31.6323 91.8407 31.6323 91.206C31.6323 90.3753 31.7723 89.6707 32.0523 89.092C32.3416 88.5133 32.7523 88.0747 33.2843 87.776C33.8256 87.468 34.4603 87.314 35.1883 87.314C35.879 87.314 36.4856 87.468 37.0083 87.776C37.5403 88.0747 37.9556 88.5133 38.2543 89.092C38.5623 89.6707 38.7163 90.38 38.7163 91.22ZM33.1583 91.22C33.1583 91.78 33.2283 92.2653 33.3683 92.676C33.5083 93.0773 33.7276 93.3853 34.0263 93.6C34.325 93.8147 34.7076 93.922 35.1743 93.922C35.641 93.922 36.0236 93.8147 36.3223 93.6C36.621 93.3853 36.8403 93.0773 36.9803 92.676C37.1203 92.2653 37.1903 91.78 37.1903 91.22C37.1903 90.6413 37.1156 90.156 36.9663 89.764C36.8263 89.372 36.607 89.0733 36.3083 88.868C36.019 88.6533 35.6363 88.546 35.1603 88.546C34.4603 88.546 33.9516 88.7793 33.6343 89.246C33.317 89.7127 33.1583 90.3707 33.1583 91.22ZM46.6455 95H45.1475V88.644H43.0195C42.9262 89.8013 42.8095 90.7953 42.6695 91.626C42.5389 92.4473 42.3662 93.1147 42.1515 93.628C41.9462 94.1413 41.6895 94.5193 41.3815 94.762C41.0829 94.9953 40.7235 95.112 40.3035 95.112C40.1542 95.112 40.0095 95.098 39.8695 95.07C39.7295 95.0513 39.6082 95.0187 39.5055 94.972V93.838C39.5709 93.8567 39.6409 93.8753 39.7155 93.894C39.7995 93.9033 39.8835 93.908 39.9675 93.908C40.1542 93.908 40.3222 93.8333 40.4715 93.684C40.6302 93.5347 40.7702 93.3013 40.8915 92.984C41.0222 92.6667 41.1389 92.256 41.2415 91.752C41.3535 91.2387 41.4469 90.6273 41.5215 89.918C41.6055 89.2087 41.6802 88.3873 41.7455 87.454H46.6455V95ZM52.4507 90.492C53.1414 90.492 53.7107 90.576 54.1587 90.744C54.6161 90.9027 54.9567 91.1407 55.1807 91.458C55.4141 91.7753 55.5307 92.1767 55.5307 92.662C55.5307 93.138 55.4234 93.5533 55.2087 93.908C54.9941 94.2533 54.6581 94.524 54.2007 94.72C53.7434 94.9067 53.1554 95 52.4367 95H48.9647V87.454H50.4487V90.492H52.4507ZM54.0467 92.718C54.0467 92.3073 53.8974 92.0273 53.5987 91.878C53.3094 91.7193 52.8894 91.64 52.3387 91.64H50.4487V93.88H52.3667C52.8614 93.88 53.2627 93.7913 53.5707 93.614C53.8881 93.4367 54.0467 93.138 54.0467 92.718ZM61.9653 87.454H63.5893L60.4393 91.08L63.8553 95H62.1473L58.8433 91.178V95H57.3593V87.454H58.8433V91.122L61.9653 87.454ZM71.5151 91.22C71.5151 91.8453 71.4311 92.4007 71.2631 92.886C71.0951 93.3713 70.8571 93.782 70.5491 94.118C70.2411 94.454 69.8678 94.7107 69.4291 94.888C68.9905 95.056 68.4958 95.14 67.9451 95.14C67.4411 95.14 66.9745 95.056 66.5451 94.888C66.1158 94.7107 65.7425 94.454 65.4251 94.118C65.1171 93.782 64.8745 93.3713 64.6971 92.886C64.5198 92.4007 64.4311 91.8407 64.4311 91.206C64.4311 90.3753 64.5711 89.6707 64.8511 89.092C65.1405 88.5133 65.5511 88.0747 66.0831 87.776C66.6245 87.468 67.2591 87.314 67.9871 87.314C68.6778 87.314 69.2845 87.468 69.8071 87.776C70.3391 88.0747 70.7545 88.5133 71.0531 89.092C71.3611 89.6707 71.5151 90.38 71.5151 91.22ZM65.9571 91.22C65.9571 91.78 66.0271 92.2653 66.1671 92.676C66.3071 93.0773 66.5265 93.3853 66.8251 93.6C67.1238 93.8147 67.5065 93.922 67.9731 93.922C68.4398 93.922 68.8225 93.8147 69.1211 93.6C69.4198 93.3853 69.6391 93.0773 69.7791 92.676C69.9191 92.2653 69.9891 91.78 69.9891 91.22C69.9891 90.6413 69.9145 90.156 69.7651 89.764C69.6251 89.372 69.4058 89.0733 69.1071 88.868C68.8178 88.6533 68.4351 88.546 67.9591 88.546C67.2591 88.546 66.7505 88.7793 66.4331 89.246C66.1158 89.7127 65.9571 90.3707 65.9571 91.22ZM79.2451 87.314C79.8051 87.314 80.3044 87.3887 80.7431 87.538C81.1818 87.6873 81.5271 87.9113 81.7791 88.21C82.0311 88.5087 82.1571 88.8727 82.1571 89.302C82.1571 89.7593 82.0264 90.1233 81.7651 90.394C81.5131 90.6647 81.1631 90.8607 80.7151 90.982V91.038C81.0231 91.122 81.3031 91.2387 81.5551 91.388C81.8071 91.528 82.0078 91.7193 82.1571 91.962C82.3158 92.1953 82.3951 92.5033 82.3951 92.886C82.3951 93.2967 82.2738 93.6747 82.0311 94.02C81.7978 94.3653 81.4338 94.6407 80.9391 94.846C80.4444 95.042 79.8051 95.14 79.0211 95.14C78.6571 95.14 78.3071 95.1213 77.9711 95.084C77.6351 95.0467 77.3318 94.9907 77.0611 94.916C76.7904 94.8413 76.5524 94.7527 76.3471 94.65V93.362C76.6644 93.5113 77.0424 93.6467 77.4811 93.768C77.9291 93.8893 78.4144 93.95 78.9371 93.95C79.3104 93.95 79.6464 93.9127 79.9451 93.838C80.2531 93.7633 80.4958 93.642 80.6731 93.474C80.8504 93.306 80.9391 93.082 80.9391 92.802C80.9391 92.5313 80.8598 92.312 80.7011 92.144C80.5424 91.976 80.3044 91.85 79.9871 91.766C79.6791 91.682 79.2824 91.64 78.7971 91.64H77.8451V90.506H78.6431C79.2964 90.506 79.8144 90.4313 80.1971 90.282C80.5891 90.1233 80.7851 89.848 80.7851 89.456C80.7851 89.1387 80.6451 88.9007 80.3651 88.742C80.0851 88.574 79.6698 88.49 79.1191 88.49C78.7178 88.49 78.3444 88.532 77.9991 88.616C77.6538 88.6907 77.2944 88.8073 76.9211 88.966L76.4311 87.846C76.8418 87.678 77.2758 87.5473 77.7331 87.454C78.1998 87.3607 78.7038 87.314 79.2451 87.314ZM87.0821 87.314C88.0341 87.314 88.7435 87.524 89.2101 87.944C89.6768 88.3547 89.9101 89.0033 89.9101 89.89V95H88.8601L88.5661 93.95H88.5101C88.2955 94.2207 88.0715 94.4447 87.8381 94.622C87.6141 94.7993 87.3528 94.93 87.0541 95.014C86.7648 95.098 86.4101 95.14 85.9901 95.14C85.5421 95.14 85.1361 95.0607 84.7721 94.902C84.4175 94.734 84.1375 94.482 83.9321 94.146C83.7268 93.8007 83.6241 93.3713 83.6241 92.858C83.6241 92.0927 83.9135 91.5093 84.4921 91.108C85.0801 90.7067 85.9715 90.4873 87.1661 90.45L88.4541 90.408V89.988C88.4541 89.428 88.3281 89.036 88.0761 88.812C87.8241 88.588 87.4695 88.476 87.0121 88.476C86.6201 88.476 86.2468 88.532 85.8921 88.644C85.5375 88.756 85.2015 88.8913 84.8841 89.05L84.4081 87.972C84.7628 87.7853 85.1688 87.6313 85.6261 87.51C86.0928 87.3793 86.5781 87.314 87.0821 87.314ZM87.4321 91.402C86.5735 91.4393 85.9761 91.584 85.6401 91.836C85.3135 92.0787 85.1501 92.424 85.1501 92.872C85.1501 93.264 85.2668 93.5487 85.5001 93.726C85.7428 93.9033 86.0461 93.992 86.4101 93.992C86.9981 93.992 87.4835 93.8287 87.8661 93.502C88.2488 93.1753 88.4401 92.6853 88.4401 92.032V91.374L87.4321 91.402ZM102.482 91.22C102.482 91.8453 102.398 92.4007 102.23 92.886C102.062 93.3713 101.824 93.782 101.516 94.118C101.208 94.454 100.835 94.7107 100.396 94.888C99.9573 95.056 99.4626 95.14 98.9119 95.14C98.4079 95.14 97.9413 95.056 97.5119 94.888C97.0826 94.7107 96.7093 94.454 96.3919 94.118C96.0839 93.782 95.8413 93.3713 95.6639 92.886C95.4866 92.4007 95.3979 91.8407 95.3979 91.206C95.3979 90.3753 95.5379 89.6707 95.8179 89.092C96.1073 88.5133 96.5179 88.0747 97.0499 87.776C97.5913 87.468 98.2259 87.314 98.9539 87.314C99.6446 87.314 100.251 87.468 100.774 87.776C101.306 88.0747 101.721 88.5133 102.02 89.092C102.328 89.6707 102.482 90.38 102.482 91.22ZM96.9239 91.22C96.9239 91.78 96.9939 92.2653 97.1339 92.676C97.2739 93.0773 97.4933 93.3853 97.7919 93.6C98.0906 93.8147 98.4733 93.922 98.9399 93.922C99.4066 93.922 99.7893 93.8147 100.088 93.6C100.387 93.3853 100.606 93.0773 100.746 92.676C100.886 92.2653 100.956 91.78 100.956 91.22C100.956 90.6413 100.881 90.156 100.732 89.764C100.592 89.372 100.373 89.0733 100.074 88.868C99.7846 88.6533 99.4019 88.546 98.9259 88.546C98.2259 88.546 97.7173 88.7793 97.3999 89.246C97.0826 89.7127 96.9239 90.3707 96.9239 91.22ZM109.742 88.644H107.278V95H105.808V88.644H103.358V87.454H109.742V88.644ZM117.737 87.454V95H116.253V88.658H112.697V95H111.213V87.454H117.737ZM123.824 87.314C124.73 87.314 125.458 87.6407 126.008 88.294C126.568 88.9473 126.848 89.9227 126.848 91.22C126.848 92.0693 126.722 92.788 126.47 93.376C126.218 93.964 125.864 94.4073 125.406 94.706C124.949 94.9953 124.417 95.14 123.81 95.14C123.428 95.14 123.092 95.0933 122.802 95C122.513 94.8973 122.266 94.7667 122.06 94.608C121.864 94.44 121.692 94.2627 121.542 94.076H121.444C121.472 94.244 121.496 94.4447 121.514 94.678C121.533 94.902 121.542 95.1027 121.542 95.28V98.36H120.058V87.454H121.262L121.472 88.462H121.542C121.692 88.2567 121.869 88.0653 122.074 87.888C122.28 87.7107 122.527 87.5707 122.816 87.468C123.106 87.3653 123.442 87.314 123.824 87.314ZM123.474 88.532C123.008 88.532 122.634 88.6253 122.354 88.812C122.074 88.9893 121.869 89.26 121.738 89.624C121.617 89.9787 121.552 90.4313 121.542 90.982V91.206C121.542 91.7847 121.603 92.2793 121.724 92.69C121.846 93.0913 122.046 93.3993 122.326 93.614C122.616 93.8193 123.008 93.922 123.502 93.922C123.922 93.922 124.263 93.81 124.524 93.586C124.795 93.3527 124.996 93.0307 125.126 92.62C125.257 92.2093 125.322 91.7333 125.322 91.192C125.322 90.3707 125.173 89.722 124.874 89.246C124.576 88.77 124.109 88.532 123.474 88.532ZM131.666 87.314C132.618 87.314 133.327 87.524 133.794 87.944C134.261 88.3547 134.494 89.0033 134.494 89.89V95H133.444L133.15 93.95H133.094C132.879 94.2207 132.655 94.4447 132.422 94.622C132.198 94.7993 131.937 94.93 131.638 95.014C131.349 95.098 130.994 95.14 130.574 95.14C130.126 95.14 129.72 95.0607 129.356 94.902C129.001 94.734 128.721 94.482 128.516 94.146C128.311 93.8007 128.208 93.3713 128.208 92.858C128.208 92.0927 128.497 91.5093 129.076 91.108C129.664 90.7067 130.555 90.4873 131.75 90.45L133.038 90.408V89.988C133.038 89.428 132.912 89.036 132.66 88.812C132.408 88.588 132.053 88.476 131.596 88.476C131.204 88.476 130.831 88.532 130.476 88.644C130.121 88.756 129.785 88.8913 129.468 89.05L128.992 87.972C129.347 87.7853 129.753 87.6313 130.21 87.51C130.677 87.3793 131.162 87.314 131.666 87.314ZM132.016 91.402C131.157 91.4393 130.56 91.584 130.224 91.836C129.897 92.0787 129.734 92.424 129.734 92.872C129.734 93.264 129.851 93.5487 130.084 93.726C130.327 93.9033 130.63 93.992 130.994 93.992C131.582 93.992 132.067 93.8287 132.45 93.502C132.833 93.1753 133.024 92.6853 133.024 92.032V91.374L132.016 91.402ZM143.037 89.372C143.037 89.8293 142.897 90.1933 142.617 90.464C142.347 90.7253 141.983 90.9027 141.525 90.996V91.052C142.011 91.1173 142.421 91.29 142.757 91.57C143.103 91.8407 143.275 92.242 143.275 92.774C143.275 93.1007 143.215 93.3993 143.093 93.67C142.972 93.9407 142.785 94.1787 142.533 94.384C142.281 94.58 141.955 94.734 141.553 94.846C141.161 94.9487 140.685 95 140.125 95H136.779V87.454H140.125C140.676 87.454 141.171 87.5147 141.609 87.636C142.048 87.7573 142.393 87.958 142.645 88.238C142.907 88.518 143.037 88.896 143.037 89.372ZM141.735 92.746C141.735 92.354 141.586 92.074 141.287 91.906C140.989 91.7287 140.545 91.64 139.957 91.64H138.263V93.88H139.985C140.536 93.88 140.965 93.796 141.273 93.628C141.581 93.4507 141.735 93.1567 141.735 92.746ZM141.525 89.54C141.525 89.2133 141.409 88.9753 141.175 88.826C140.942 88.6767 140.564 88.602 140.041 88.602H138.263V90.506H139.817C140.377 90.506 140.802 90.4313 141.091 90.282C141.381 90.1233 141.525 89.876 141.525 89.54ZM149.67 87.454H151.294L148.144 91.08L151.56 95H149.852L146.548 91.178V95H145.064V87.454H146.548V91.122L149.67 87.454ZM151.696 87.454H153.292L154.86 91.738C154.944 91.9527 155.018 92.1627 155.084 92.368C155.149 92.5733 155.205 92.7787 155.252 92.984C155.308 93.18 155.35 93.376 155.378 93.572H155.434C155.48 93.3293 155.555 93.0447 155.658 92.718C155.76 92.382 155.868 92.0507 155.98 91.724L157.464 87.454H159.06L155.826 96.022C155.648 96.5073 155.429 96.9227 155.168 97.268C154.906 97.6227 154.594 97.8933 154.23 98.08C153.875 98.2667 153.455 98.36 152.97 98.36C152.736 98.36 152.536 98.346 152.368 98.318C152.2 98.2993 152.055 98.276 151.934 98.248V97.072C152.036 97.0907 152.158 97.1093 152.298 97.128C152.447 97.1467 152.601 97.156 152.76 97.156C153.049 97.156 153.296 97.1 153.502 96.988C153.716 96.876 153.894 96.7173 154.034 96.512C154.183 96.3067 154.309 96.0733 154.412 95.812L154.72 95L151.696 87.454ZM28.2 115.14C27.5093 115.14 26.9027 115.005 26.38 114.734C25.8573 114.463 25.4513 114.043 25.162 113.474C24.8727 112.895 24.728 112.163 24.728 111.276C24.728 110.343 24.882 109.587 25.19 109.008C25.5073 108.429 25.932 108.005 26.464 107.734C27.0053 107.454 27.6213 107.314 28.312 107.314C28.732 107.314 29.124 107.361 29.488 107.454C29.8613 107.538 30.1693 107.636 30.412 107.748L29.964 108.952C29.7027 108.849 29.4227 108.761 29.124 108.686C28.8347 108.611 28.5593 108.574 28.298 108.574C27.8313 108.574 27.444 108.677 27.136 108.882C26.8373 109.078 26.6133 109.377 26.464 109.778C26.324 110.17 26.254 110.665 26.254 111.262C26.254 111.831 26.3287 112.312 26.478 112.704C26.6273 113.096 26.8467 113.395 27.136 113.6C27.4347 113.796 27.8033 113.894 28.242 113.894C28.662 113.894 29.0307 113.847 29.348 113.754C29.6653 113.661 29.964 113.539 30.244 113.39V114.678C29.9733 114.837 29.6793 114.953 29.362 115.028C29.0447 115.103 28.6573 115.14 28.2 115.14ZM40.5373 107.454V115H39.1933V110.52C39.1933 110.268 39.1979 110.016 39.2073 109.764C39.2259 109.503 39.2446 109.255 39.2633 109.022H39.2213L36.8693 115H35.6793L33.3693 109.022H33.3133C33.3413 109.255 33.3599 109.503 33.3693 109.764C33.3786 110.016 33.3833 110.282 33.3833 110.562V115H32.0253V107.454H34.0553L36.2813 113.236L38.5493 107.454H40.5373ZM45.9188 115.14C45.2281 115.14 44.6214 115.005 44.0988 114.734C43.5761 114.463 43.1701 114.043 42.8808 113.474C42.5914 112.895 42.4468 112.163 42.4468 111.276C42.4468 110.343 42.6008 109.587 42.9088 109.008C43.2261 108.429 43.6508 108.005 44.1828 107.734C44.7241 107.454 45.3401 107.314 46.0308 107.314C46.4508 107.314 46.8428 107.361 47.2068 107.454C47.5801 107.538 47.8881 107.636 48.1308 107.748L47.6828 108.952C47.4214 108.849 47.1414 108.761 46.8428 108.686C46.5534 108.611 46.2781 108.574 46.0168 108.574C45.5501 108.574 45.1628 108.677 44.8548 108.882C44.5561 109.078 44.3321 109.377 44.1828 109.778C44.0428 110.17 43.9728 110.665 43.9728 111.262C43.9728 111.831 44.0474 112.312 44.1968 112.704C44.3461 113.096 44.5654 113.395 44.8548 113.6C45.1534 113.796 45.5221 113.894 45.9608 113.894C46.3808 113.894 46.7494 113.847 47.0668 113.754C47.3841 113.661 47.6828 113.539 47.9628 113.39V114.678C47.6921 114.837 47.3981 114.953 47.0808 115.028C46.7634 115.103 46.3761 115.14 45.9188 115.14ZM51.396 113.53C51.312 113.857 51.2047 114.211 51.074 114.594C50.9434 114.977 50.8034 115.355 50.654 115.728C50.5047 116.111 50.3507 116.47 50.192 116.806H49.114C49.2074 116.442 49.296 116.055 49.38 115.644C49.4734 115.243 49.5574 114.846 49.632 114.454C49.7067 114.062 49.7674 113.703 49.814 113.376H51.298L51.396 113.53ZM63.7329 107.454V115H62.2489V108.658H58.6929V115H57.2089V107.454H63.7329ZM72.7046 111.22C72.7046 111.845 72.6206 112.401 72.4526 112.886C72.2846 113.371 72.0466 113.782 71.7386 114.118C71.4306 114.454 71.0572 114.711 70.6186 114.888C70.1799 115.056 69.6852 115.14 69.1346 115.14C68.6306 115.14 68.1639 115.056 67.7346 114.888C67.3052 114.711 66.9319 114.454 66.6146 114.118C66.3066 113.782 66.0639 113.371 65.8866 112.886C65.7092 112.401 65.6206 111.841 65.6206 111.206C65.6206 110.375 65.7606 109.671 66.0406 109.092C66.3299 108.513 66.7406 108.075 67.2726 107.776C67.8139 107.468 68.4486 107.314 69.1766 107.314C69.8672 107.314 70.4739 107.468 70.9966 107.776C71.5286 108.075 71.9439 108.513 72.2426 109.092C72.5506 109.671 72.7046 110.38 72.7046 111.22ZM67.1466 111.22C67.1466 111.78 67.2166 112.265 67.3566 112.676C67.4966 113.077 67.7159 113.385 68.0146 113.6C68.3132 113.815 68.6959 113.922 69.1626 113.922C69.6292 113.922 70.0119 113.815 70.3106 113.6C70.6092 113.385 70.8286 113.077 70.9686 112.676C71.1086 112.265 71.1786 111.78 71.1786 111.22C71.1786 110.641 71.1039 110.156 70.9546 109.764C70.8146 109.372 70.5952 109.073 70.2966 108.868C70.0072 108.653 69.6246 108.546 69.1486 108.546C68.4486 108.546 67.9399 108.779 67.6226 109.246C67.3052 109.713 67.1466 110.371 67.1466 111.22ZM84.8725 111.22C84.8725 111.845 84.7885 112.401 84.6205 112.886C84.4525 113.371 84.2145 113.782 83.9065 114.118C83.5985 114.454 83.2252 114.711 82.7865 114.888C82.3479 115.056 81.8532 115.14 81.3025 115.14C80.7985 115.14 80.3319 115.056 79.9025 114.888C79.4732 114.711 79.0999 114.454 78.7825 114.118C78.4745 113.782 78.2319 113.371 78.0545 112.886C77.8772 112.401 77.7885 111.841 77.7885 111.206C77.7885 110.375 77.9285 109.671 78.2085 109.092C78.4979 108.513 78.9085 108.075 79.4405 107.776C79.9819 107.468 80.6165 107.314 81.3445 107.314C82.0352 107.314 82.6419 107.468 83.1645 107.776C83.6965 108.075 84.1119 108.513 84.4105 109.092C84.7185 109.671 84.8725 110.38 84.8725 111.22ZM79.3145 111.22C79.3145 111.78 79.3845 112.265 79.5245 112.676C79.6645 113.077 79.8839 113.385 80.1825 113.6C80.4812 113.815 80.8639 113.922 81.3305 113.922C81.7972 113.922 82.1799 113.815 82.4785 113.6C82.7772 113.385 82.9965 113.077 83.1365 112.676C83.2765 112.265 83.3465 111.78 83.3465 111.22C83.3465 110.641 83.2719 110.156 83.1225 109.764C82.9825 109.372 82.7632 109.073 82.4645 108.868C82.1752 108.653 81.7925 108.546 81.3165 108.546C80.6165 108.546 80.1079 108.779 79.7905 109.246C79.4732 109.713 79.3145 110.371 79.3145 111.22ZM92.1331 108.644H89.6691V115H88.1991V108.644H85.7491V107.454H92.1331V108.644ZM99.1296 107.454V113.824H100.236V117.646H98.8496V115H93.6416V117.646H92.2696V113.824H92.8716C93.2729 113.245 93.6089 112.611 93.8796 111.92C94.1502 111.229 94.3556 110.506 94.4956 109.75C94.6449 108.985 94.7336 108.219 94.7616 107.454H99.1296ZM96.0496 108.602C95.9936 109.209 95.8909 109.829 95.7416 110.464C95.6016 111.099 95.4196 111.705 95.1956 112.284C94.9809 112.863 94.7242 113.376 94.4256 113.824H97.6736V108.602H96.0496ZM104.624 107.314C105.287 107.314 105.856 107.454 106.332 107.734C106.808 108.005 107.172 108.397 107.424 108.91C107.685 109.423 107.816 110.03 107.816 110.73V111.542H102.748C102.767 112.317 102.967 112.909 103.35 113.32C103.742 113.731 104.288 113.936 104.988 113.936C105.473 113.936 105.903 113.894 106.276 113.81C106.659 113.717 107.051 113.581 107.452 113.404V114.636C107.079 114.804 106.696 114.93 106.304 115.014C105.921 115.098 105.464 115.14 104.932 115.14C104.204 115.14 103.56 114.995 103 114.706C102.44 114.417 102.001 113.987 101.684 113.418C101.376 112.839 101.222 112.13 101.222 111.29C101.222 110.441 101.362 109.722 101.642 109.134C101.931 108.546 102.328 108.098 102.832 107.79C103.345 107.473 103.943 107.314 104.624 107.314ZM104.624 108.462C104.092 108.462 103.663 108.635 103.336 108.98C103.019 109.325 102.832 109.815 102.776 110.45H106.332C106.332 110.058 106.271 109.713 106.15 109.414C106.029 109.115 105.842 108.882 105.59 108.714C105.338 108.546 105.016 108.462 104.624 108.462ZM115.716 115H114.218V108.644H112.09C111.997 109.801 111.88 110.795 111.74 111.626C111.609 112.447 111.437 113.115 111.222 113.628C111.017 114.141 110.76 114.519 110.452 114.762C110.153 114.995 109.794 115.112 109.374 115.112C109.225 115.112 109.08 115.098 108.94 115.07C108.8 115.051 108.679 115.019 108.576 114.972V113.838C108.641 113.857 108.711 113.875 108.786 113.894C108.87 113.903 108.954 113.908 109.038 113.908C109.225 113.908 109.393 113.833 109.542 113.684C109.701 113.535 109.841 113.301 109.962 112.984C110.093 112.667 110.209 112.256 110.312 111.752C110.424 111.239 110.517 110.627 110.592 109.918C110.676 109.209 110.751 108.387 110.816 107.454H115.716V115ZM121.521 110.492C122.212 110.492 122.781 110.576 123.229 110.744C123.686 110.903 124.027 111.141 124.251 111.458C124.484 111.775 124.601 112.177 124.601 112.662C124.601 113.138 124.494 113.553 124.279 113.908C124.064 114.253 123.728 114.524 123.271 114.72C122.814 114.907 122.226 115 121.507 115H118.035V107.454H119.519V110.492H121.521ZM123.117 112.718C123.117 112.307 122.968 112.027 122.669 111.878C122.38 111.719 121.96 111.64 121.409 111.64H119.519V113.88H121.437C121.932 113.88 122.333 113.791 122.641 113.614C122.958 113.437 123.117 113.138 123.117 112.718ZM127.914 107.454V110.52H131.638V107.454H133.122V115H131.638V111.71H127.914V115H126.43V107.454H127.914ZM135.439 115V107.454H136.923V110.492H138.589C139.28 110.492 139.849 110.576 140.297 110.744C140.745 110.903 141.077 111.141 141.291 111.458C141.506 111.775 141.613 112.177 141.613 112.662C141.613 113.138 141.506 113.553 141.291 113.908C141.086 114.253 140.759 114.524 140.311 114.72C139.873 114.907 139.294 115 138.575 115H135.439ZM138.463 113.88C138.958 113.88 139.359 113.796 139.667 113.628C139.985 113.451 140.143 113.147 140.143 112.718C140.143 112.307 139.999 112.027 139.709 111.878C139.42 111.719 139.005 111.64 138.463 111.64H136.923V113.88H138.463ZM142.817 115V107.454H144.301V115H142.817ZM155.135 107.454V115H153.791V110.52C153.791 110.268 153.796 110.016 153.805 109.764C153.824 109.503 153.842 109.255 153.861 109.022H153.819L151.467 115H150.277L147.967 109.022H147.911C147.939 109.255 147.958 109.503 147.967 109.764C147.976 110.016 147.981 110.282 147.981 110.562V115H146.623V107.454H148.653L150.879 113.236L153.147 107.454H155.135ZM30.678 128.644H28.214V135H26.744V128.644H24.294V127.454H30.678V128.644ZM35.0743 127.314C36.0263 127.314 36.7357 127.524 37.2023 127.944C37.669 128.355 37.9023 129.003 37.9023 129.89V135H36.8523L36.5583 133.95H36.5023C36.2877 134.221 36.0637 134.445 35.8303 134.622C35.6063 134.799 35.345 134.93 35.0463 135.014C34.757 135.098 34.4023 135.14 33.9823 135.14C33.5343 135.14 33.1283 135.061 32.7643 134.902C32.4097 134.734 32.1297 134.482 31.9243 134.146C31.719 133.801 31.6163 133.371 31.6163 132.858C31.6163 132.093 31.9057 131.509 32.4843 131.108C33.0723 130.707 33.9637 130.487 35.1583 130.45L36.4463 130.408V129.988C36.4463 129.428 36.3203 129.036 36.0683 128.812C35.8163 128.588 35.4617 128.476 35.0043 128.476C34.6123 128.476 34.239 128.532 33.8843 128.644C33.5297 128.756 33.1937 128.891 32.8763 129.05L32.4003 127.972C32.755 127.785 33.161 127.631 33.6183 127.51C34.085 127.379 34.5703 127.314 35.0743 127.314ZM35.4243 131.402C34.5657 131.439 33.9683 131.584 33.6323 131.836C33.3057 132.079 33.1423 132.424 33.1423 132.872C33.1423 133.264 33.259 133.549 33.4923 133.726C33.735 133.903 34.0383 133.992 34.4023 133.992C34.9903 133.992 35.4757 133.829 35.8583 133.502C36.241 133.175 36.4323 132.685 36.4323 132.032V131.374L35.4243 131.402ZM43.9534 127.314C44.8587 127.314 45.5867 127.641 46.1374 128.294C46.6974 128.947 46.9774 129.923 46.9774 131.22C46.9774 132.069 46.8514 132.788 46.5994 133.376C46.3474 133.964 45.9927 134.407 45.5354 134.706C45.0781 134.995 44.5461 135.14 43.9394 135.14C43.5567 135.14 43.2207 135.093 42.9314 135C42.6421 134.897 42.3947 134.767 42.1894 134.608C41.9934 134.44 41.8207 134.263 41.6714 134.076H41.5734C41.6014 134.244 41.6247 134.445 41.6434 134.678C41.6621 134.902 41.6714 135.103 41.6714 135.28V138.36H40.1874V127.454H41.3914L41.6014 128.462H41.6714C41.8207 128.257 41.9981 128.065 42.2034 127.888C42.4087 127.711 42.6561 127.571 42.9454 127.468C43.2347 127.365 43.5707 127.314 43.9534 127.314ZM43.6034 128.532C43.1367 128.532 42.7634 128.625 42.4834 128.812C42.2034 128.989 41.9981 129.26 41.8674 129.624C41.7461 129.979 41.6807 130.431 41.6714 130.982V131.206C41.6714 131.785 41.7321 132.279 41.8534 132.69C41.9747 133.091 42.1754 133.399 42.4554 133.614C42.7447 133.819 43.1367 133.922 43.6314 133.922C44.0514 133.922 44.3921 133.81 44.6534 133.586C44.9241 133.353 45.1247 133.031 45.2554 132.62C45.3861 132.209 45.4514 131.733 45.4514 131.192C45.4514 130.371 45.3021 129.722 45.0034 129.246C44.7047 128.77 44.2381 128.532 43.6034 128.532ZM50.283 131.57C50.283 131.682 50.2784 131.827 50.269 132.004C50.2597 132.181 50.2504 132.368 50.241 132.564C50.2317 132.751 50.2177 132.928 50.199 133.096C50.1897 133.255 50.1804 133.381 50.171 133.474L54.049 127.454H55.855V135H54.455V130.982C54.455 130.805 54.4597 130.585 54.469 130.324C54.4784 130.063 54.4877 129.811 54.497 129.568C54.5157 129.316 54.5297 129.125 54.539 128.994L50.689 135H48.869V127.454H50.283V131.57ZM62.9953 127.37C63.7886 127.435 64.4699 127.636 65.0393 127.972C65.6086 128.299 66.0473 128.737 66.3553 129.288C66.6633 129.839 66.8173 130.487 66.8173 131.234C66.8173 131.971 66.6679 132.62 66.3693 133.18C66.0706 133.731 65.6366 134.174 65.0673 134.51C64.5072 134.837 63.8166 135.033 62.9953 135.098V138.36H61.5813V135.098C60.7973 135.023 60.1159 134.823 59.5373 134.496C58.9679 134.169 58.5246 133.731 58.2073 133.18C57.8993 132.62 57.7453 131.971 57.7453 131.234C57.7453 130.478 57.8946 129.82 58.1933 129.26C58.4919 128.7 58.9259 128.261 59.4953 127.944C60.0739 127.617 60.7786 127.426 61.6093 127.37V124.36H62.9953V127.37ZM61.6093 128.546C61.0866 128.602 60.6526 128.747 60.3073 128.98C59.9619 129.204 59.7053 129.507 59.5373 129.89C59.3693 130.263 59.2853 130.711 59.2853 131.234C59.2853 131.747 59.3693 132.195 59.5373 132.578C59.7053 132.961 59.9619 133.269 60.3073 133.502C60.6526 133.726 61.0866 133.866 61.6093 133.922V128.546ZM62.9953 133.922C63.5179 133.857 63.9473 133.712 64.2833 133.488C64.6193 133.264 64.8713 132.961 65.0393 132.578C65.2073 132.195 65.2913 131.747 65.2913 131.234C65.2913 130.711 65.2026 130.263 65.0253 129.89C64.8573 129.507 64.6053 129.204 64.2693 128.98C63.9333 128.756 63.5086 128.616 62.9953 128.56V133.922ZM71.6329 127.314C72.5849 127.314 73.2943 127.524 73.7609 127.944C74.2276 128.355 74.4609 129.003 74.4609 129.89V135H73.4109L73.1169 133.95H73.0609C72.8463 134.221 72.6223 134.445 72.3889 134.622C72.1649 134.799 71.9036 134.93 71.6049 135.014C71.3156 135.098 70.9609 135.14 70.5409 135.14C70.0929 135.14 69.6869 135.061 69.3229 134.902C68.9683 134.734 68.6883 134.482 68.4829 134.146C68.2776 133.801 68.1749 133.371 68.1749 132.858C68.1749 132.093 68.4643 131.509 69.0429 131.108C69.6309 130.707 70.5223 130.487 71.7169 130.45L73.0049 130.408V129.988C73.0049 129.428 72.8789 129.036 72.6269 128.812C72.3749 128.588 72.0203 128.476 71.5629 128.476C71.1709 128.476 70.7976 128.532 70.4429 128.644C70.0883 128.756 69.7523 128.891 69.4349 129.05L68.9589 127.972C69.3136 127.785 69.7196 127.631 70.1769 127.51C70.6436 127.379 71.1289 127.314 71.6329 127.314ZM71.9829 131.402C71.1243 131.439 70.5269 131.584 70.1909 131.836C69.8643 132.079 69.7009 132.424 69.7009 132.872C69.7009 133.264 69.8176 133.549 70.0509 133.726C70.2936 133.903 70.5969 133.992 70.9609 133.992C71.5489 133.992 72.0343 133.829 72.4169 133.502C72.7996 133.175 72.9909 132.685 72.9909 132.032V131.374L71.9829 131.402ZM85.258 127.454V135H83.914V130.52C83.914 130.268 83.9187 130.016 83.928 129.764C83.9467 129.503 83.9653 129.255 83.984 129.022H83.942L81.59 135H80.4L78.09 129.022H78.034C78.062 129.255 78.0807 129.503 78.09 129.764C78.0993 130.016 78.104 130.282 78.104 130.562V135H76.746V127.454H78.776L81.002 133.236L83.27 127.454H85.258ZM87.3915 134.174C87.3915 133.81 87.4848 133.553 87.6715 133.404C87.8581 133.255 88.0821 133.18 88.3435 133.18C88.6141 133.18 88.8428 133.255 89.0295 133.404C89.2161 133.553 89.3095 133.81 89.3095 134.174C89.3095 134.538 89.2161 134.799 89.0295 134.958C88.8428 135.117 88.6141 135.196 88.3435 135.196C88.0821 135.196 87.8581 135.117 87.6715 134.958C87.4848 134.799 87.3915 134.538 87.3915 134.174Z" fill="#FB6B1A"/>
<path d="M42.128 40.72L41.568 45.984L46.86 44.5L47.28 47.328L42.268 47.748L45.516 52.06L42.912 53.46L40.588 48.756L38.516 53.46L35.828 52.06L39.02 47.748L34.064 47.328L34.512 44.5L39.72 45.984L39.132 40.72H42.128ZM70.0672 51.976C70.0672 53.5253 69.8712 54.9347 69.4792 56.204C69.1059 57.4547 68.5272 58.5373 67.7432 59.452C66.9779 60.3667 66.0072 61.0667 64.8312 61.552C63.6739 62.0373 62.3205 62.28 60.7712 62.28C59.1845 62.28 57.8032 62.0373 56.6272 61.552C55.4699 61.048 54.4992 60.348 53.7152 59.452C52.9499 58.5373 52.3805 57.4453 52.0072 56.176C51.6339 54.9067 51.4472 53.4973 51.4472 51.948C51.4472 49.8947 51.7832 48.1027 52.4552 46.572C53.1272 45.0413 54.1539 43.8467 55.5352 42.988C56.9352 42.1293 58.6899 41.7 60.7992 41.7C62.8525 41.7 64.5605 42.1293 65.9232 42.988C67.3045 43.828 68.3405 45.0227 69.0312 46.572C69.7219 48.1027 70.0672 49.904 70.0672 51.976ZM54.6392 51.976C54.6392 53.5813 54.8539 54.9627 55.2832 56.12C55.7125 57.2587 56.3845 58.1453 57.2992 58.78C58.2139 59.396 59.3712 59.704 60.7712 59.704C62.1899 59.704 63.3472 59.396 64.2432 58.78C65.1392 58.1453 65.8019 57.2587 66.2312 56.12C66.6605 54.9627 66.8752 53.5813 66.8752 51.976C66.8752 49.568 66.3899 47.692 65.4192 46.348C64.4672 44.9853 62.9272 44.304 60.7992 44.304C59.3805 44.304 58.2139 44.612 57.2992 45.228C56.3845 45.844 55.7125 46.7213 55.2832 47.86C54.8539 48.9987 54.6392 50.3707 54.6392 51.976ZM75.8116 62V42.008H91.0436V62H88.0476V44.612H78.8356V62H75.8116ZM112.613 62H109.589V44.612H103.681C103.551 45.5827 103.411 46.6187 103.261 47.72C103.131 48.8027 102.991 49.8853 102.841 50.968C102.692 52.0507 102.543 53.0773 102.393 54.048C102.244 55 102.095 55.84 101.945 56.568C101.703 57.7813 101.395 58.8173 101.021 59.676C100.648 60.5347 100.153 61.188 99.5374 61.636C98.9214 62.084 98.1094 62.308 97.1014 62.308C96.7654 62.308 96.4294 62.2707 96.0934 62.196C95.7761 62.14 95.4867 62.0653 95.2254 61.972V59.48C95.4494 59.5547 95.6827 59.6293 95.9254 59.704C96.1867 59.76 96.4574 59.788 96.7374 59.788C97.2601 59.788 97.6707 59.592 97.9694 59.2C98.2681 58.808 98.5107 58.2853 98.6974 57.632C98.8841 56.9787 99.0521 56.26 99.2014 55.476C99.2947 54.9533 99.4161 54.2533 99.5654 53.376C99.7147 52.4987 99.8734 51.4627 100.041 50.268C100.228 49.0733 100.415 47.776 100.601 46.376C100.807 44.976 100.993 43.52 101.161 42.008H112.613V62ZM131.786 62L129.658 56.232H121.93L119.802 62H116.666L124.254 41.924H127.39L134.95 62H131.786ZM126.802 47.972C126.746 47.7667 126.644 47.4587 126.494 47.048C126.364 46.6187 126.233 46.1893 126.102 45.76C125.972 45.312 125.869 44.948 125.794 44.668C125.701 45.0413 125.589 45.452 125.458 45.9C125.346 46.3293 125.234 46.7307 125.122 47.104C125.01 47.4587 124.917 47.748 124.842 47.972L122.826 53.6H128.818L126.802 47.972ZM143.798 62H140.774V44.612H134.782V42.008H149.79V44.612H143.798V62ZM164.747 62L162.619 56.232H154.891L152.763 62H149.627L157.215 41.924H160.351L167.911 62H164.747ZM159.763 47.972C159.707 47.7667 159.604 47.4587 159.455 47.048C159.324 46.6187 159.193 46.1893 159.063 45.76C158.932 45.312 158.829 44.948 158.755 44.668C158.661 45.0413 158.549 45.452 158.419 45.9C158.307 46.3293 158.195 46.7307 158.083 47.104C157.971 47.4587 157.877 47.748 157.803 47.972L155.787 53.6H161.779L159.763 47.972Z" fill="white"/>
<path d="M214.145 150.282L197.885 149.145L198.029 147.09L214.289 148.227C216.06 148.351 217.621 148.093 218.971 147.451C220.322 146.798 221.396 145.853 222.195 144.615C222.993 143.378 223.451 141.927 223.567 140.262C223.685 138.573 223.436 137.054 222.818 135.706C222.2 134.358 221.268 133.272 220.02 132.449C218.772 131.626 217.263 131.153 215.491 131.029L206.387 130.392L203.994 164.613L201.78 164.458L204.317 128.183L215.635 128.974C217.879 129.131 219.783 129.733 221.347 130.78C222.912 131.815 224.075 133.172 224.836 134.85C225.597 136.517 225.906 138.372 225.764 140.415C225.622 142.434 225.059 144.216 224.073 145.761C223.087 147.294 221.747 148.47 220.053 149.289C218.358 150.108 216.389 150.439 214.145 150.282ZM213.917 153.541L213.773 155.596L197.513 154.459L197.657 152.404L213.917 153.541Z" fill="#FB7022"/>
<path d="M267.799 133.212L251.539 132.075L251.683 130.021L267.943 131.158C269.714 131.282 271.275 131.023 272.625 130.382C273.976 129.728 275.051 128.783 275.849 127.546C276.648 126.308 277.105 124.857 277.222 123.192C277.34 121.503 277.09 119.985 276.472 118.636C275.855 117.288 274.922 116.202 273.674 115.379C272.426 114.556 270.917 114.083 269.146 113.959L260.041 113.322L257.649 147.543L255.435 147.388L257.971 111.113L269.289 111.904C271.533 112.061 273.437 112.663 275.001 113.71C276.566 114.745 277.729 116.102 278.49 117.781C279.251 119.448 279.561 121.302 279.418 123.345C279.277 125.365 278.713 127.147 277.727 128.691C276.742 130.224 275.402 131.4 273.707 132.219C272.012 133.038 270.043 133.369 267.799 133.212ZM267.571 136.471L267.428 138.526L251.168 137.389L251.311 135.334L267.571 136.471Z" fill="#FB7022"/>
<path d="M240.799 92.2123L224.539 91.0753L224.683 89.0207L240.943 90.1577C242.714 90.2815 244.275 90.0228 245.625 89.3815C246.976 88.7284 248.051 87.7831 248.849 86.5455C249.648 85.308 250.105 83.8567 250.222 82.1917C250.34 80.5032 250.09 78.9846 249.472 77.6362C248.855 76.2877 247.922 75.202 246.674 74.3791C245.426 73.5562 243.917 73.0828 242.146 72.9589L233.041 72.3223L230.649 106.543L228.435 106.388L230.971 70.1128L242.289 70.9043C244.533 71.0611 246.437 71.663 248.001 72.7098C249.566 73.7448 250.729 75.1017 251.49 76.7805C252.251 78.4476 252.561 80.3025 252.418 82.3453C252.277 84.3646 251.713 86.1466 250.727 87.6914C249.742 89.2244 248.402 90.4004 246.707 91.2193C245.012 92.0382 243.043 92.3692 240.799 92.2123ZM240.571 95.4714L240.428 97.526L224.168 96.389L224.311 94.3344L240.571 95.4714Z" fill="#FB7022"/>
<defs>
<linearGradient id="paint0_linear_1149_60547" x1="153" y1="0" x2="153" y2="286" gradientUnits="userSpaceOnUse">
<stop stop-color="#FFFAF8"/>
<stop offset="1" stop-color="#FFFAF8" stop-opacity="0"/>
</linearGradient>
<linearGradient id="paint1_linear_1149_60547" x1="222.5" y1="118" x2="222.5" y2="285" gradientUnits="userSpaceOnUse">
<stop stop-color="#FFF1EC" stop-opacity="0"/>
<stop offset="1" stop-color="#FFF1EC"/>
</linearGradient>
<linearGradient id="paint2_linear_1149_60547" x1="232.79" y1="182.674" x2="225.142" y2="292.048" gradientUnits="userSpaceOnUse">
<stop stop-color="white"/>
<stop offset="1" stop-color="#FFFAF8"/>
</linearGradient>
</defs>
</svg>
