<svg width="36" height="36" viewBox="0 0 36 36" fill="none" xmlns="http://www.w3.org/2000/svg">
<circle cx="18" cy="18" r="18" fill="#FFF6F2"/>
<path d="M23.0899 8.82007C22.1702 8.06365 21.0933 7.5221 19.9376 7.23491C18.7819 6.94773 17.5767 6.92216 16.4099 7.16007C14.8563 7.47389 13.4309 8.24214 12.3146 9.36735C11.1983 10.4926 10.4414 11.924 10.1399 13.4801C9.91979 14.6468 9.95979 15.8477 10.2571 16.9972C10.5544 18.1467 11.1017 19.2164 11.8599 20.1301C12.5636 20.9241 12.967 21.9396 12.9999 23.0001V26.0001C12.9999 26.7957 13.316 27.5588 13.8786 28.1214C14.4412 28.684 15.2043 29.0001 15.9999 29.0001H19.9999C20.7956 29.0001 21.5587 28.684 22.1213 28.1214C22.6839 27.5588 22.9999 26.7957 22.9999 26.0001V23.1901C23.0335 22.0192 23.4637 20.8945 24.2199 20.0001C25.5451 18.3608 26.1697 16.2649 25.9581 14.1677C25.7465 12.0705 24.7158 10.1416 23.0899 8.80007V8.82007ZM20.9999 26.0001C20.9999 26.2653 20.8946 26.5196 20.707 26.7072C20.5195 26.8947 20.2652 27.0001 19.9999 27.0001H15.9999C15.7347 27.0001 15.4804 26.8947 15.2928 26.7072C15.1053 26.5196 14.9999 26.2653 14.9999 26.0001V25.0001H20.9999V26.0001ZM22.6699 18.7601C21.6644 19.9527 21.0778 21.4421 20.9999 23.0001H18.9999V20.0001C18.9999 19.7349 18.8946 19.4805 18.707 19.293C18.5195 19.1054 18.2652 19.0001 17.9999 19.0001C17.7347 19.0001 17.4804 19.1054 17.2928 19.293C17.1053 19.4805 16.9999 19.7349 16.9999 20.0001V23.0001H14.9999C14.9736 21.4682 14.4069 19.9948 13.3999 18.8401C12.7356 18.0441 12.2888 17.0895 12.1033 16.0694C11.9177 15.0493 11.9996 13.9986 12.341 13.0196C12.6825 12.0406 13.2718 11.1668 14.0515 10.4834C14.8312 9.79998 15.7747 9.33027 16.7899 9.12007C17.6625 8.94041 18.5641 8.95731 19.4293 9.16954C20.2945 9.38176 21.1016 9.78399 21.792 10.347C22.4824 10.91 23.0387 11.6197 23.4206 12.4246C23.8025 13.2294 24.0004 14.1092 23.9999 15.0001C24.0073 16.3699 23.537 17.6995 22.6699 18.7601Z" fill="#FB6B1A"/>
</svg>
