<svg width="36" height="36" viewBox="0 0 36 36" fill="none" xmlns="http://www.w3.org/2000/svg">
<circle cx="18" cy="18" r="18" fill="#FFF6F2"/>
<path d="M26 20.9999C25.3793 21.0031 24.7748 21.1987 24.27 21.5599L21.82 20.1099C21.9356 19.7511 21.9963 19.3768 22 18.9999C21.9971 18.1153 21.7011 17.2567 21.1583 16.5582C20.6155 15.8598 19.8565 15.361 19 15.1399V12.8199C19.6672 12.584 20.2296 12.1198 20.5876 11.5094C20.9457 10.899 21.0765 10.1816 20.9568 9.48415C20.8371 8.78665 20.4747 8.15392 19.9337 7.69778C19.3926 7.24163 18.7077 6.99146 18 6.99146C17.2923 6.99146 16.6074 7.24163 16.0663 7.69778C15.5253 8.15392 15.1629 8.78665 15.0432 9.48415C14.9235 10.1816 15.0543 10.899 15.4124 11.5094C15.7704 12.1198 16.3328 12.584 17 12.8199V15.1399C16.1435 15.361 15.3845 15.8598 14.8417 16.5582C14.2989 17.2567 14.0029 18.1153 14 18.9999C14.0037 19.3768 14.0644 19.7511 14.18 20.1099L11.73 21.5599C11.2252 21.1987 10.6207 21.0031 10 20.9999C9.40666 20.9999 8.82664 21.1758 8.33329 21.5055C7.83994 21.8351 7.45543 22.3037 7.22836 22.8518C7.0013 23.4 6.94189 24.0032 7.05765 24.5852C7.1734 25.1671 7.45912 25.7016 7.87868 26.1212C8.29824 26.5408 8.83279 26.8265 9.41473 26.9422C9.99667 27.058 10.5999 26.9986 11.1481 26.7715C11.6962 26.5445 12.1648 26.1599 12.4944 25.6666C12.8241 25.1732 13 24.5932 13 23.9999C12.9963 23.729 12.9559 23.4599 12.88 23.1999L15.18 21.8299C15.9295 22.5749 16.9433 22.9931 18 22.9931C19.0567 22.9931 20.0706 22.5749 20.82 21.8299L23.12 23.1999C22.9524 23.8055 22.9793 24.4484 23.1967 25.038C23.4141 25.6275 23.8112 26.1339 24.3318 26.4857C24.8525 26.8374 25.4705 27.0169 26.0986 26.9986C26.7267 26.9803 27.3332 26.7653 27.8325 26.3839C28.3318 26.0024 28.6988 25.4738 28.8816 24.8727C29.0644 24.2715 29.0538 23.6281 28.8514 23.0332C28.6489 22.4384 28.2648 21.9221 27.7532 21.5573C27.2416 21.1925 26.6284 20.9975 26 20.9999ZM10 24.9999C9.80222 24.9999 9.60888 24.9412 9.44443 24.8314C9.27998 24.7215 9.15181 24.5653 9.07612 24.3826C9.00043 24.1998 8.98063 23.9988 9.01922 23.8048C9.0578 23.6108 9.15304 23.4326 9.29289 23.2928C9.43275 23.1529 9.61093 23.0577 9.80491 23.0191C9.99889 22.9805 10.2 23.0003 10.3827 23.076C10.5654 23.1517 10.7216 23.2799 10.8315 23.4443C10.9414 23.6088 11 23.8021 11 23.9999C11 24.2651 10.8946 24.5195 10.7071 24.707C10.5196 24.8945 10.2652 24.9999 10 24.9999ZM18 8.99988C18.1978 8.99988 18.3911 9.05853 18.5556 9.16841C18.72 9.27829 18.8482 9.43447 18.9239 9.6172C18.9996 9.79993 19.0194 10.001 18.9808 10.195C18.9422 10.389 18.847 10.5671 18.7071 10.707C18.5673 10.8468 18.3891 10.9421 18.1951 10.9807C18.0011 11.0193 17.8 10.9994 17.6173 10.9238C17.4346 10.8481 17.2784 10.7199 17.1685 10.5555C17.0587 10.391 17 10.1977 17 9.99988C17 9.73467 17.1054 9.48031 17.2929 9.29278C17.4804 9.10524 17.7348 8.99988 18 8.99988ZM18 20.9999C17.6044 20.9999 17.2178 20.8826 16.8889 20.6628C16.56 20.4431 16.3036 20.1307 16.1522 19.7652C16.0009 19.3998 15.9613 18.9977 16.0384 18.6097C16.1156 18.2217 16.3061 17.8654 16.5858 17.5857C16.8655 17.306 17.2219 17.1155 17.6098 17.0383C17.9978 16.9611 18.3999 17.0007 18.7654 17.1521C19.1308 17.3035 19.4432 17.5598 19.6629 17.8887C19.8827 18.2176 20 18.6043 20 18.9999C20 19.5303 19.7893 20.039 19.4142 20.4141C19.0391 20.7892 18.5304 20.9999 18 20.9999ZM26 24.9999C25.8022 24.9999 25.6089 24.9412 25.4444 24.8314C25.28 24.7215 25.1518 24.5653 25.0761 24.3826C25.0004 24.1998 24.9806 23.9988 25.0192 23.8048C25.0578 23.6108 25.153 23.4326 25.2929 23.2928C25.4327 23.1529 25.6109 23.0577 25.8049 23.0191C25.9989 22.9805 26.2 23.0003 26.3827 23.076C26.5654 23.1517 26.7216 23.2799 26.8315 23.4443C26.9414 23.6088 27 23.8021 27 23.9999C27 24.2651 26.8946 24.5195 26.7071 24.707C26.5196 24.8945 26.2652 24.9999 26 24.9999Z" fill="#FB6B1A"/>
</svg>
