<svg width="36" height="36" viewBox="0 0 36 36" fill="none" xmlns="http://www.w3.org/2000/svg">
<circle cx="18" cy="18" r="18" fill="#FFF6F2"/>
<path d="M18.3 18.22C18.8336 17.7581 19.2616 17.1869 19.5549 16.545C19.8482 15.9032 20 15.2057 20 14.5C20 13.1739 19.4732 11.9021 18.5355 10.9645C17.5979 10.0268 16.3261 9.5 15 9.5C13.6739 9.5 12.4021 10.0268 11.4645 10.9645C10.5268 11.9021 10 13.1739 10 14.5C9.99999 15.2057 10.1518 15.9032 10.4451 16.545C10.7384 17.1869 11.1664 17.7581 11.7 18.22C10.3001 18.8539 9.11247 19.8775 8.27898 21.1685C7.4455 22.4596 7.00147 23.9633 7 25.5C7 25.7652 7.10536 26.0196 7.29289 26.2071C7.48043 26.3946 7.73478 26.5 8 26.5C8.26522 26.5 8.51957 26.3946 8.70711 26.2071C8.89464 26.0196 9 25.7652 9 25.5C9 23.9087 9.63214 22.3826 10.7574 21.2574C11.8826 20.1321 13.4087 19.5 15 19.5C16.5913 19.5 18.1174 20.1321 19.2426 21.2574C20.3679 22.3826 21 23.9087 21 25.5C21 25.7652 21.1054 26.0196 21.2929 26.2071C21.4804 26.3946 21.7348 26.5 22 26.5C22.2652 26.5 22.5196 26.3946 22.7071 26.2071C22.8946 26.0196 23 25.7652 23 25.5C22.9985 23.9633 22.5545 22.4596 21.721 21.1685C20.8875 19.8775 19.6999 18.8539 18.3 18.22ZM15 17.5C14.4067 17.5 13.8266 17.3241 13.3333 16.9944C12.8399 16.6648 12.4554 16.1962 12.2284 15.6481C12.0013 15.0999 11.9419 14.4967 12.0576 13.9147C12.1734 13.3328 12.4591 12.7982 12.8787 12.3787C13.2982 11.9591 13.8328 11.6734 14.4147 11.5576C14.9967 11.4419 15.5999 11.5013 16.1481 11.7284C16.6962 11.9554 17.1648 12.3399 17.4944 12.8333C17.8241 13.3266 18 13.9067 18 14.5C18 15.2956 17.6839 16.0587 17.1213 16.6213C16.5587 17.1839 15.7956 17.5 15 17.5ZM24.74 17.82C25.38 17.0993 25.798 16.2091 25.9438 15.2563C26.0896 14.3036 25.9569 13.3291 25.5618 12.45C25.1666 11.5709 24.5258 10.8248 23.7165 10.3014C22.9071 9.77805 21.9638 9.49974 21 9.5C20.7348 9.5 20.4804 9.60536 20.2929 9.79289C20.1054 9.98043 20 10.2348 20 10.5C20 10.7652 20.1054 11.0196 20.2929 11.2071C20.4804 11.3946 20.7348 11.5 21 11.5C21.7956 11.5 22.5587 11.8161 23.1213 12.3787C23.6839 12.9413 24 13.7044 24 14.5C23.9986 15.0252 23.8593 15.5409 23.5961 15.9954C23.3328 16.4499 22.9549 16.8274 22.5 17.09C22.3517 17.1755 22.2279 17.2977 22.1404 17.4447C22.0528 17.5918 22.0045 17.7589 22 17.93C21.9958 18.0998 22.0349 18.2678 22.1137 18.4183C22.1924 18.5687 22.3081 18.6967 22.45 18.79L22.84 19.05L22.97 19.12C24.1754 19.6917 25.1923 20.596 25.901 21.7263C26.6096 22.8566 26.9805 24.1659 26.97 25.5C26.97 25.7652 27.0754 26.0196 27.2629 26.2071C27.4504 26.3946 27.7048 26.5 27.97 26.5C28.2352 26.5 28.4896 26.3946 28.6771 26.2071C28.8646 26.0196 28.97 25.7652 28.97 25.5C28.9782 23.9654 28.5938 22.4543 27.8535 21.1101C27.1131 19.7659 26.0413 18.6333 24.74 17.82Z" fill="#FB6B1A"/>
</svg>
