<svg width="36" height="36" viewBox="0 0 36 36" fill="none" xmlns="http://www.w3.org/2000/svg">
<circle cx="18" cy="18" r="18" fill="#FFF6F2"/>
<path d="M27.3393 15.3199L13.3393 8.31988C12.7868 8.04489 12.1629 7.94699 11.5527 8.03954C10.9425 8.13208 10.3757 8.41055 9.9296 8.837C9.48347 9.26345 9.17972 9.81711 9.05976 10.4225C8.9398 11.0279 9.00947 11.6555 9.25927 12.2199L11.6593 17.5899C11.7137 17.7197 11.7418 17.8591 11.7418 17.9999C11.7418 18.1407 11.7137 18.2801 11.6593 18.4099L9.25927 23.7799C9.05597 24.2366 8.97003 24.7369 9.00925 25.2353C9.04847 25.7336 9.21161 26.2143 9.48385 26.6336C9.75609 27.0529 10.1288 27.3975 10.5681 27.6361C11.0074 27.8747 11.4994 27.9998 11.9993 27.9999C12.4675 27.9952 12.9288 27.8859 13.3493 27.6799L27.3493 20.6799C27.8459 20.4301 28.2633 20.0472 28.555 19.574C28.8466 19.1007 29.0011 18.5558 29.0011 17.9999C29.0011 17.444 28.8466 16.899 28.555 16.4258C28.2633 15.9526 27.8459 15.5697 27.3493 15.3199H27.3393ZM26.4493 18.8899L12.4493 25.8899C12.2654 25.9782 12.059 26.0081 11.8577 25.9757C11.6563 25.9434 11.4697 25.8502 11.3228 25.7087C11.1759 25.5673 11.0758 25.3843 11.0358 25.1843C10.9959 24.9843 11.018 24.7769 11.0993 24.5899L13.4893 19.2199C13.5202 19.1482 13.5469 19.0747 13.5693 18.9999H20.4593C20.7245 18.9999 20.9788 18.8945 21.1664 18.707C21.3539 18.5195 21.4593 18.2651 21.4593 17.9999C21.4593 17.7347 21.3539 17.4803 21.1664 17.2928C20.9788 17.1052 20.7245 16.9999 20.4593 16.9999H13.5693C13.5469 16.9251 13.5202 16.8516 13.4893 16.7799L11.0993 11.4099C11.018 11.2228 10.9959 11.0154 11.0358 10.8155C11.0758 10.6155 11.1759 10.4325 11.3228 10.291C11.4697 10.1496 11.6563 10.0564 11.8577 10.024C12.059 9.99166 12.2654 10.0216 12.4493 10.1099L26.4493 17.1099C26.6131 17.1938 26.7505 17.3213 26.8465 17.4783C26.9425 17.6354 26.9933 17.8158 26.9933 17.9999C26.9933 18.1839 26.9425 18.3644 26.8465 18.5214C26.7505 18.6785 26.6131 18.806 26.4493 18.8899Z" fill="#FB6B1A"/>
</svg>
