<svg width="36" height="36" viewBox="0 0 36 36" fill="none" xmlns="http://www.w3.org/2000/svg">
<circle cx="18" cy="18" r="18" fill="#FFF6F2"/>
<path d="M20.58 18.3C21.0345 17.7319 21.2846 17.0275 21.29 16.3C21.29 15.4274 20.9434 14.5906 20.3264 13.9736C19.7094 13.3566 18.8726 13.01 18 13.01C17.1274 13.01 16.2906 13.3566 15.6736 13.9736C15.0566 14.5906 14.71 15.4274 14.71 16.3C14.7154 17.0275 14.9655 17.7319 15.42 18.3C14.5286 18.8424 13.8293 19.6502 13.42 20.61C13.3627 20.7318 13.3306 20.8639 13.3256 20.9983C13.3206 21.1328 13.3427 21.267 13.3908 21.3927C13.4388 21.5184 13.5118 21.6331 13.6052 21.73C13.6987 21.8268 13.8107 21.9038 13.9346 21.9563C14.0585 22.0089 14.1917 22.0358 14.3263 22.0356C14.4609 22.0354 14.5941 22.0081 14.7178 21.9552C14.8416 21.9023 14.9534 21.825 15.0465 21.7279C15.1397 21.6308 15.2123 21.5158 15.26 21.39C15.4898 20.8527 15.8716 20.3943 16.3583 20.071C16.8451 19.7477 17.4157 19.5735 18 19.57C18.586 19.5716 19.1588 19.7448 19.6475 20.0682C20.1362 20.3917 20.5195 20.8512 20.75 21.39C20.8266 21.5707 20.9546 21.725 21.1182 21.8334C21.2818 21.9419 21.4737 21.9998 21.67 22C21.8038 21.9975 21.936 21.9704 22.06 21.92C22.3039 21.8164 22.4966 21.6202 22.596 21.3746C22.6954 21.129 22.6932 20.854 22.59 20.61C22.1781 19.6487 21.4751 18.8408 20.58 18.3ZM18 17.57C17.7444 17.57 17.4946 17.4941 17.2823 17.3519C17.0699 17.2097 16.9046 17.0076 16.8073 16.7713C16.7099 16.535 16.685 16.2751 16.7356 16.0246C16.7862 15.7741 16.91 15.5443 17.0914 15.3643C17.2728 15.1843 17.5036 15.0622 17.7545 15.0136C18.0054 14.9649 18.2651 14.9919 18.5006 15.0911C18.7362 15.1902 18.9369 15.3571 19.0775 15.5706C19.218 15.784 19.292 16.0344 19.29 16.29C19.2874 16.6304 19.1503 16.9559 18.9087 17.1957C18.667 17.4355 18.3404 17.57 18 17.57Z" fill="#FB6B1A"/>
<path d="M27 23V11C27 9.89543 26.1046 9 25 9H11C9.89543 9 9 9.89543 9 11V23C9 24.1046 9.89543 25 11 25H13.8676C14.5701 25 15.2212 25.3686 15.5826 25.971L17.1425 28.5708C17.5309 29.2182 18.4691 29.2182 18.8575 28.5708L20.4174 25.971C20.7788 25.3686 21.4299 25 22.1324 25H25C26.1046 25 27 24.1046 27 23Z" stroke="#FB6B1A" stroke-width="2"/>
</svg>
