<svg width="17" height="187" viewBox="0 0 17 187" fill="none" xmlns="http://www.w3.org/2000/svg">
<path d="M16.3536 39.3536C16.5488 39.1583 16.5488 38.8417 16.3536 38.6464L13.1716 35.4645C12.9763 35.2692 12.6597 35.2692 12.4645 35.4645C12.2692 35.6597 12.2692 35.9763 12.4645 36.1716L15.2929 39L12.4645 41.8284C12.2692 42.0237 12.2692 42.3403 12.4645 42.5355C12.6597 42.7308 12.9763 42.7308 13.1716 42.5355L16.3536 39.3536ZM15.6234 0.670665C9.95625 7.14458 3.09451 16.7205 1.08284 24.7271C0.0756417 28.7359 0.256067 32.4719 2.5656 35.2037C4.86586 37.9245 9.15559 39.5 16 39.5V38.5C9.26131 38.5 5.34453 36.9418 3.32926 34.5581C1.32325 32.1853 1.07912 28.8457 2.0527 24.9708C4.0026 17.2101 10.7238 7.78598 16.3759 1.32934L15.6234 0.670665Z" fill="#B2BED2"/>
<path d="M16.3536 87.3536C16.5488 87.1583 16.5488 86.8417 16.3536 86.6464L13.1716 83.4645C12.9763 83.2692 12.6597 83.2692 12.4645 83.4645C12.2692 83.6597 12.2692 83.9763 12.4645 84.1716L15.2929 87L12.4645 89.8284C12.2692 90.0237 12.2692 90.3403 12.4645 90.5355C12.6597 90.7308 12.9763 90.7308 13.1716 90.5355L16.3536 87.3536ZM15.6234 48.6707C9.95625 55.1446 3.09451 64.7205 1.08284 72.7271C0.0756417 76.7359 0.256067 80.4719 2.5656 83.2037C4.86586 85.9245 9.15559 87.5 16 87.5V86.5C9.26131 86.5 5.34453 84.9418 3.32926 82.5581C1.32325 80.1853 1.07912 76.8457 2.0527 72.9708C4.0026 65.2101 10.7238 55.786 16.3759 49.3293L15.6234 48.6707Z" fill="#B2BED2"/>
<path d="M16.3536 135.354C16.5488 135.158 16.5488 134.842 16.3536 134.646L13.1716 131.464C12.9763 131.269 12.6597 131.269 12.4645 131.464C12.2692 131.66 12.2692 131.976 12.4645 132.172L15.2929 135L12.4645 137.828C12.2692 138.024 12.2692 138.34 12.4645 138.536C12.6597 138.731 12.9763 138.731 13.1716 138.536L16.3536 135.354ZM15.6234 96.6707C9.95625 103.145 3.09451 112.721 1.08284 120.727C0.0756417 124.736 0.256067 128.472 2.5656 131.204C4.86586 133.925 9.15559 135.5 16 135.5V134.5C9.26131 134.5 5.34453 132.942 3.32926 130.558C1.32325 128.185 1.07912 124.846 2.0527 120.971C4.0026 113.21 10.7238 103.786 16.3759 97.3293L15.6234 96.6707Z" fill="#B2BED2"/>
<path d="M16.3536 183.354C16.5488 183.158 16.5488 182.842 16.3536 182.646L13.1716 179.464C12.9763 179.269 12.6597 179.269 12.4645 179.464C12.2692 179.66 12.2692 179.976 12.4645 180.172L15.2929 183L12.4645 185.828C12.2692 186.024 12.2692 186.34 12.4645 186.536C12.6597 186.731 12.9763 186.731 13.1716 186.536L16.3536 183.354ZM15.6234 144.671C9.95625 151.145 3.09451 160.721 1.08284 168.727C0.0756417 172.736 0.256067 176.472 2.5656 179.204C4.86586 181.925 9.15559 183.5 16 183.5V182.5C9.26131 182.5 5.34453 180.942 3.32926 178.558C1.32325 176.185 1.07912 172.846 2.0527 168.971C4.0026 161.21 10.7238 151.786 16.3759 145.329L15.6234 144.671Z" fill="#B2BED2"/>
</svg>
