<svg width="141" height="50" viewBox="0 0 141 50" fill="none" xmlns="http://www.w3.org/2000/svg">
<path d="M58.3961 22.6405C58.2364 22.4648 58.0047 22.2811 57.7013 22.0894C57.3978 21.8818 57.0384 21.6901 56.623 21.5144C56.2077 21.3387 55.7605 21.1949 55.2813 21.0831C54.8021 20.9713 54.3069 20.9154 53.7957 20.9154C52.6776 20.9154 51.847 21.123 51.3039 21.5383C50.7608 21.9536 50.4892 22.5287 50.4892 23.2635C50.4892 23.8066 50.641 24.2379 50.9445 24.5573C51.248 24.8608 51.7112 25.1164 52.3342 25.324C52.9571 25.5317 53.7398 25.7553 54.6823 25.9949C55.8324 26.2665 56.8307 26.5939 57.6773 26.9773C58.5239 27.3447 59.1708 27.8399 59.6181 28.4628C60.0653 29.0858 60.289 29.9084 60.289 30.9307C60.289 31.7933 60.1292 32.5361 59.8097 33.159C59.4903 33.782 59.043 34.2931 58.468 34.6925C57.8929 35.0758 57.23 35.3634 56.4793 35.555C55.7285 35.7307 54.9219 35.8186 54.0593 35.8186C53.2127 35.8186 52.3661 35.7307 51.5195 35.555C50.6889 35.3793 49.8902 35.1238 49.1235 34.7883C48.3728 34.4369 47.6779 34.0136 47.039 33.5184L48.2609 31.2182C48.4686 31.4259 48.7641 31.6575 49.1475 31.9131C49.5468 32.1527 50.0021 32.3843 50.5132 32.6079C51.0403 32.8316 51.6074 33.0232 52.2144 33.183C52.8373 33.3267 53.4683 33.3986 54.1072 33.3986C55.1775 33.3986 55.9921 33.2149 56.5512 32.8475C57.1262 32.4642 57.4137 31.9211 57.4137 31.2182C57.4137 30.6432 57.23 30.188 56.8626 29.8525C56.4953 29.5011 55.9601 29.2056 55.2573 28.966C54.5545 28.7264 53.7159 28.4868 52.7415 28.2472C51.6234 27.9437 50.6889 27.6162 49.9382 27.2648C49.1874 26.8974 48.6204 26.4342 48.237 25.8751C47.8696 25.3001 47.6859 24.5733 47.6859 23.6948C47.6859 22.5766 47.9575 21.6342 48.5006 20.8675C49.0436 20.0848 49.7784 19.5017 50.7049 19.1184C51.6473 18.719 52.7016 18.5194 53.8676 18.5194C54.6344 18.5194 55.3611 18.6072 56.048 18.7829C56.7349 18.9427 57.3738 19.1663 57.9648 19.4538C58.5718 19.7413 59.1229 20.0688 59.6181 20.4362L58.3961 22.6405ZM77.2846 35.6509V23.527L72.2769 32.7277H70.6955L65.6639 23.527V35.6509H62.9804V18.6392H65.8556L71.4862 29.0379L77.1169 18.6392H79.9921V35.6509H77.2846ZM93.8918 22.6405C93.732 22.4648 93.5004 22.2811 93.1969 22.0894C92.8934 21.8818 92.534 21.6901 92.1187 21.5144C91.7034 21.3387 91.2562 21.1949 90.777 21.0831C90.2977 20.9713 89.8026 20.9154 89.2914 20.9154C88.1733 20.9154 87.3427 21.123 86.7996 21.5383C86.2565 21.9536 85.9849 22.5287 85.9849 23.2635C85.9849 23.8066 86.1367 24.2379 86.4402 24.5573C86.7437 24.8608 87.2069 25.1164 87.8299 25.324C88.4528 25.5317 89.2355 25.7553 90.1779 25.9949C91.328 26.2665 92.3264 26.5939 93.173 26.9773C94.0196 27.3447 94.6665 27.8399 95.1137 28.4628C95.561 29.0858 95.7846 29.9084 95.7846 30.9307C95.7846 31.7933 95.6249 32.5361 95.3054 33.159C94.986 33.782 94.5387 34.2931 93.9637 34.6925C93.3886 35.0758 92.7257 35.3634 91.975 35.555C91.2242 35.7307 90.4175 35.8186 89.555 35.8186C88.7084 35.8186 87.8618 35.7307 87.0152 35.555C86.1846 35.3793 85.3859 35.1238 84.6192 34.7883C83.8684 34.4369 83.1736 34.0136 82.5347 33.5184L83.7566 31.2182C83.9643 31.4259 84.2598 31.6575 84.6431 31.9131C85.0425 32.1527 85.4977 32.3843 86.0089 32.6079C86.536 32.8316 87.1031 33.0232 87.7101 33.183C88.333 33.3267 88.964 33.3986 89.6029 33.3986C90.6731 33.3986 91.4878 33.2149 92.0468 32.8475C92.6219 32.4642 92.9094 31.9211 92.9094 31.2182C92.9094 30.6432 92.7257 30.188 92.3583 29.8525C91.9909 29.5011 91.4558 29.2056 90.753 28.966C90.0502 28.7264 89.2116 28.4868 88.2372 28.2472C87.119 27.9437 86.1846 27.6162 85.4338 27.2648C84.6831 26.8974 84.116 26.4342 83.7327 25.8751C83.3653 25.3001 83.1816 24.5733 83.1816 23.6948C83.1816 22.5766 83.4531 21.6342 83.9962 20.8675C84.5393 20.0848 85.2741 19.5017 86.2006 19.1184C87.143 18.719 88.1972 18.5194 89.3633 18.5194C90.13 18.5194 90.8568 18.6072 91.5437 18.7829C92.2305 18.9427 92.8695 19.1663 93.4605 19.4538C94.0675 19.7413 94.6186 20.0688 95.1137 20.4362L93.8918 22.6405Z" fill="#0F2756"/>
<path d="M107.641 18.7903H110.181L116.794 35.802H113.967L112.17 31.1777H105.605L103.831 35.802H100.98L107.641 18.7903ZM111.642 29.189L108.911 21.7374L106.084 29.189H111.642Z" fill="#2A4F98"/>
<path d="M117.668 30.3647C117.668 29.323 117.877 28.3786 118.293 27.5314C118.724 26.6703 119.307 25.9898 120.043 25.4898C120.779 24.9759 121.627 24.719 122.585 24.719C123.418 24.719 124.168 24.9343 124.835 25.3648C125.515 25.7954 126.043 26.3301 126.418 26.9689V20.5941H128.71V33.2187C128.71 33.4826 128.758 33.6701 128.856 33.7812C128.953 33.8923 129.113 33.9548 129.335 33.9687V35.802C128.904 35.8714 128.571 35.9062 128.335 35.9062C127.904 35.9062 127.536 35.7812 127.231 35.5312C126.939 35.2812 126.786 34.9826 126.772 34.6354L126.751 33.8229C126.335 34.5173 125.772 35.059 125.064 35.4478C124.356 35.8228 123.62 36.0103 122.856 36.0103C122.106 36.0103 121.411 35.8645 120.772 35.5728C120.148 35.2812 119.599 34.8715 119.127 34.3437C118.668 33.816 118.307 33.2118 118.043 32.5313C117.793 31.8507 117.668 31.1285 117.668 30.3647ZM126.418 31.8855V29.0314C126.265 28.5869 126.015 28.1911 125.668 27.8439C125.335 27.4828 124.953 27.1981 124.522 26.9898C124.106 26.7814 123.689 26.6773 123.272 26.6773C122.786 26.6773 122.342 26.7814 121.939 26.9898C121.55 27.1981 121.21 27.4759 120.918 27.8231C120.641 28.1703 120.425 28.5661 120.272 29.0105C120.12 29.455 120.043 29.9202 120.043 30.4063C120.043 30.9063 120.127 31.3785 120.293 31.823C120.46 32.2535 120.696 32.6424 121.002 32.9896C121.321 33.3229 121.682 33.5868 122.085 33.7812C122.502 33.9618 122.953 34.0521 123.439 34.0521C123.745 34.0521 124.05 33.9965 124.356 33.8854C124.675 33.7743 124.974 33.6215 125.252 33.4271C125.543 33.2326 125.786 33.0035 125.981 32.7396C126.189 32.4757 126.335 32.191 126.418 31.8855ZM135.495 36.0103C134.579 36.0103 133.711 35.8645 132.891 35.5728C132.072 35.2673 131.37 34.8159 130.787 34.2187L131.641 32.6771C132.266 33.2326 132.891 33.6354 133.516 33.8854C134.155 34.1354 134.787 34.2604 135.412 34.2604C136.051 34.2604 136.572 34.1423 136.974 33.9062C137.377 33.6562 137.579 33.2951 137.579 32.8229C137.579 32.4757 137.474 32.2188 137.266 32.0521C137.058 31.8855 136.752 31.7396 136.349 31.6146C135.961 31.4896 135.488 31.3507 134.933 31.198C134.155 30.9619 133.502 30.7188 132.975 30.4688C132.447 30.205 132.051 29.8855 131.787 29.5105C131.523 29.1355 131.391 28.6564 131.391 28.0731C131.391 27.3648 131.572 26.7606 131.933 26.2606C132.294 25.7606 132.794 25.3787 133.433 25.1148C134.086 24.8509 134.836 24.719 135.683 24.719C136.474 24.719 137.204 24.844 137.87 25.094C138.551 25.3301 139.148 25.7051 139.662 26.219L138.683 27.7397C138.197 27.2953 137.697 26.9689 137.183 26.7606C136.683 26.5523 136.141 26.4481 135.558 26.4481C135.225 26.4481 134.905 26.4898 134.6 26.5731C134.294 26.6426 134.037 26.7814 133.829 26.9898C133.634 27.1842 133.537 27.462 133.537 27.8231C133.537 28.1147 133.62 28.3508 133.787 28.5314C133.954 28.7119 134.204 28.8647 134.537 28.9897C134.87 29.1147 135.28 29.2536 135.766 29.4064C136.613 29.6564 137.336 29.9063 137.933 30.1563C138.53 30.3924 138.988 30.7049 139.308 31.0938C139.641 31.4688 139.808 31.9896 139.808 32.6563C139.808 33.7118 139.412 34.5382 138.62 35.1354C137.842 35.7187 136.801 36.0103 135.495 36.0103Z" fill="#2A4F98"/>
<path d="M35.9598 10.2769C29.1196 7.31607 20.5853 9.23344 16.5557 12.1236C16.4387 12.2076 16.2832 12.2094 16.1631 12.1297C15.253 11.5257 11.4179 9.10415 8.4011 9.09018C6.56201 9.08166 2.23389 10.5862 0.620561 11.1715C0.363048 11.2649 0.12193 11.0306 0.245597 10.7862C1.68807 7.93504 7.49365 4.27137 12.3703 5.80896C12.5085 5.85253 12.6637 5.80351 12.7524 5.68897C20.1341 -3.83664 30.8232 0.471975 35.4954 5.11503C35.7477 5.36568 35.4619 5.73902 35.1333 5.60304C29.1693 3.13475 24.2675 4.28321 21.9411 5.4848C21.6789 5.62022 21.7492 5.92779 22.0442 5.92091C24.6545 5.86003 31.6196 4.94541 36.3481 9.77614C36.6003 10.0338 36.2907 10.4201 35.9598 10.2769Z" fill="#E4651D"/>
<path d="M20.4331 22.8591L19.0197 18.8367C18.9186 18.5491 19.0905 18.2376 19.3877 18.1698L28.3884 16.116C28.8494 16.0108 29.1933 16.5347 28.9134 16.9158L26.0018 20.88C25.9056 21.0109 25.7528 21.0882 25.5904 21.0882H21.9355C21.6536 21.0882 21.4251 21.3168 21.4251 21.5987V22.6899C21.4251 23.2642 20.6235 23.4009 20.4331 22.8591Z" fill="#E4651D"/>
<path d="M12.8637 22.8591L14.2772 18.8367C14.3782 18.5491 14.2064 18.2376 13.9092 18.1698L4.90843 16.116C4.44749 16.0108 4.10362 16.5347 4.38349 16.9158L7.2951 20.88C7.39127 21.0109 7.54403 21.0882 7.70648 21.0882H11.3613C11.6432 21.0882 11.8718 21.3168 11.8718 21.5987V22.6899C11.8718 23.2642 12.6733 23.4009 12.8637 22.8591Z" fill="#E4651D"/>
<path fill-rule="evenodd" clip-rule="evenodd" d="M21.1826 27.0461C21.4735 26.7283 21.1783 26.2258 20.7591 26.325L17.0086 27.2128C16.9406 27.2289 16.8697 27.2285 16.8019 27.2116L13.3494 26.3509C12.928 26.2459 12.6275 26.7526 12.9217 27.072L15.836 30.2354C15.9539 30.3633 15.9848 30.5488 15.9148 30.708L15.5775 31.4748C15.5421 31.5554 15.4832 31.6234 15.4085 31.6699L11.0277 34.4023C10.8434 34.5173 10.6025 34.4795 10.4622 34.3137L9.18286 32.8017C9.13022 32.7395 9.096 32.6638 9.08405 32.5832L8.52512 28.8104C8.52101 28.7827 8.51456 28.7554 8.50381 28.7295C8.42348 28.5359 8.20532 28.1862 7.90696 27.7742C7.6231 27.3822 7.0418 27.7299 7.14701 28.2023C7.62802 30.362 7.12482 31.7213 6.74457 32.7484C6.60515 33.125 6.48226 33.4569 6.43047 33.7673C6.40096 33.9442 6.51415 34.1038 6.6734 34.1863C8.74775 35.2611 11.0877 39.243 12.3042 41.3133C12.6369 41.8795 12.8856 42.3027 13.0219 42.4844C13.666 43.3432 17.6423 43.9828 20.8228 42.7657C20.9381 42.7216 21.0267 42.6279 21.0706 42.5126C22.0113 40.0416 23.5383 38.3138 24.1534 39.544C24.4236 40.0844 24.5923 40.3127 24.562 40.5104C24.518 40.7973 24.0552 41.02 22.8758 42.0385C22.5889 42.2863 22.7475 42.73 23.1253 42.6991C24.8376 42.5591 26.1018 41.6812 26.6072 41.278C26.6517 41.2425 26.6881 41.1976 26.7148 41.1473C28.9127 37.0052 28.0932 33.6116 27.0246 30.9198C26.8497 30.4794 26.1694 30.6443 26.193 31.1175C26.3217 33.7018 26.3255 35.8378 26.0865 37.6812C26.0217 38.1814 25.1062 38.1344 24.8952 37.6763C24.8594 37.5984 24.8221 37.521 24.7834 37.4437C24.3376 36.5521 23.2359 34.8408 22.142 34.0629L18.6577 31.6717C18.588 31.6239 18.5337 31.5569 18.5012 31.4789L18.1789 30.7035C18.1136 30.5464 18.1453 30.3657 18.2601 30.2402L21.1826 27.0461ZM16.7429 33.0735C16.8867 32.9831 17.0697 32.984 17.2125 33.0758L21.7698 36.0055C21.9503 36.1216 22.02 36.3515 21.9342 36.5483L20.9112 38.8954C20.8676 38.9954 20.7895 39.0758 20.6883 39.1165C19.4571 39.6108 16.549 40.2064 13.471 39.1018C13.3811 39.0695 13.3045 39.0073 13.2543 38.9261C12.8352 38.2492 12.4881 37.5806 12.2007 37.0269C12.1171 36.866 12.0386 36.7148 11.9649 36.5759C11.8546 36.3683 11.9195 36.1078 12.1186 35.9826L16.7429 33.0735Z" fill="#E4651D"/>
<path d="M35.4892 24.0372C35.3804 17.0717 33.3171 14.4813 28.6416 10.8882C28.4161 10.7148 28.5371 10.3606 28.821 10.3789C34.599 10.7526 38.9183 14.6986 40.2527 17.4318C40.3704 17.6729 40.1406 17.8489 39.9246 17.6898C39.4722 17.3561 38.8782 16.9732 37.9965 16.8816C37.7978 16.8609 37.6566 17.0614 37.7143 17.2526C41.6815 30.4006 35.9697 35.3418 34.6749 37.3284C33.2982 39.4406 31.6797 39.4933 29.2201 48.1701C29.1293 48.4902 28.6407 48.4526 28.6286 48.1201C28.5827 46.8557 28.6895 45.1079 29.4266 42.6148C30.1631 39.4494 31.7926 34.1848 29.2146 29.0158C29.086 28.758 29.3534 28.4628 29.6116 28.5905C31.092 29.3232 32.3726 30.3346 32.8708 33.17C32.9163 33.4293 33.2444 33.5151 33.3829 33.2914C35.4597 29.9379 33.7574 25.354 32.6698 22.7574C32.5464 22.4629 32.8944 22.2255 33.1236 22.4477C33.7402 23.0458 34.5057 23.7786 35.04 24.2519C35.2227 24.4138 35.493 24.2813 35.4892 24.0372Z" fill="#E4651D"/>
<path fill-rule="evenodd" clip-rule="evenodd" d="M19.9734 45.0068C20.3837 45.4959 20.6307 46.1265 20.6307 46.8148C20.6307 47.4696 20.4072 48.0721 20.0322 48.5503L22.7153 49.5683C23.265 49.7768 23.8534 49.3707 23.8534 48.7828V44.752C23.8534 44.1641 23.265 43.758 22.7153 43.9665L19.9734 45.0068ZM14.2324 45.0294C13.8333 45.5152 13.5938 46.137 13.5938 46.8148C13.5938 47.4592 13.8103 48.053 14.1745 48.5274L11.4311 49.5683C10.8814 49.7768 10.293 49.3707 10.293 48.7828V44.752C10.293 44.1641 10.8814 43.758 11.4311 43.9665L14.2324 45.0294Z" fill="#E4641D"/>
<rect x="14.8438" y="45" width="4.53747" height="3.62997" rx="1.81499" fill="#E4641D"/>
</svg>
