<svg width="151" height="50" viewBox="0 0 151 50" fill="none" xmlns="http://www.w3.org/2000/svg">
<g clip-path="url(#clip0_1351_978)">
<path d="M6.42747 15.6452C6.42747 15.6452 1.78804 25.0456 1.7029 25.7888C1.55985 27.0295 3.07306 32.5776 3.07306 32.5776C3.07306 32.5776 13.7732 38.7155 18.1237 43.1602C18.1237 43.1602 29.8115 34.0591 32.9163 32.5776C32.9163 32.5776 34.4421 26.366 34.4421 25.7888C34.4421 25.2111 29.6321 15.6452 29.6321 15.6452H6.42747Z" fill="#714018"/>
<path d="M11.5007 10.5674C11.5007 10.5674 8.46161 8.00041 7.64182 8.00041C6.82204 8.00041 5.09563 10.6076 5.16409 11.4567C5.2322 12.3054 7.18511 14.9126 7.18511 14.9126L11.1938 13.7389L11.5007 10.5674Z" fill="#462615"/>
<path d="M24.8262 10.5674C24.8262 10.5674 27.8656 8.00041 28.6853 8.00041C29.5051 8.00041 31.2312 10.6076 31.1627 11.4567C31.0946 12.3054 29.1417 14.9126 29.1417 14.9126L25.1331 13.7389L24.8262 10.5674Z" fill="#462615"/>
<path d="M18.0297 29.7864C18.6619 29.8195 28.7431 25.6606 29.0425 25.1616C29.3422 24.6628 29.8742 15.3311 29.5081 14.8985C29.1426 14.466 25.416 9.98227 24.9504 9.74965C24.4844 9.51668 18.0297 8.02697 18.0297 8.02697C18.0297 8.02697 11.5754 9.51668 11.1094 9.74965C10.6439 9.98227 6.91723 14.466 6.55178 14.8985C6.18565 15.3311 6.71764 24.6628 7.01735 25.1616C7.31673 25.6606 17.398 29.8195 18.0297 29.7864Z" fill="#573015"/>
<path d="M15.0583 15.6087C15.0583 15.9952 14.7449 16.3086 14.3584 16.3086C13.9718 16.3086 13.6582 15.9952 13.6582 15.6087C13.6582 15.2221 13.9718 14.9089 14.3584 14.9089C14.7449 14.9089 15.0583 15.2221 15.0583 15.6087Z" fill="#1C1613"/>
<path d="M22.6427 15.6087C22.6427 15.9952 22.3293 16.3086 21.9421 16.3086C21.5555 16.3086 21.2422 15.9952 21.2422 15.6087C21.2422 15.2221 21.5555 14.9089 21.9421 14.9089C22.3293 14.9089 22.6427 15.2221 22.6427 15.6087Z" fill="#1C1613"/>
<path d="M16.6877 14.8688C16.4255 15.0064 13.0469 21.378 13.0469 21.9383C13.0469 22.4985 15.4576 25.3278 15.6932 25.4582C15.9289 25.589 20.3507 25.5106 20.586 25.4582C20.8214 25.4057 23.277 22.4954 23.277 21.9383C23.277 21.381 19.7227 15.0523 19.4874 14.8688C19.2516 14.6855 17.2371 14.581 16.6877 14.8688Z" fill="#E0C68E"/>
<path d="M15.829 18.9586C15.7847 18.525 17.4754 17.6937 18.0751 17.6937C18.6755 17.6937 20.4725 18.4971 20.4956 18.9586C20.5198 19.4204 19.1806 21.2302 18.2192 21.2779C17.2577 21.3256 15.8767 19.4255 15.829 18.9586Z" fill="#36261C"/>
<path d="M16.2949 22.9234L18.1361 21.9392L20.0328 22.9234L19.5955 23.51L16.7394 23.5352L16.2949 22.9234Z" fill="#CB474C"/>
<path d="M10.3516 26.9884V35.3555L25.9741 26.9884V35.3555L10.3516 26.9884Z" fill="#291C16"/>
<path d="M45.0927 17.1852C45.0927 16.5187 45.5371 16.1376 46.1403 16.1376H50.903C56.1415 16.1376 58.9678 19.4716 58.9678 25.5356C58.9678 31.7268 55.9509 35.3778 50.8077 35.3778H46.1083C45.4738 35.3778 45.0927 35.0287 45.0927 34.2988V17.1852ZM42.0762 34.7433C42.0762 37.1563 43.0608 38.1406 45.3148 38.1406H50.9664C57.9194 38.1406 62.1103 33.4099 62.1103 25.504C62.1103 17.8524 57.9834 13.4075 50.9664 13.4075H45.3148C43.0608 13.4075 42.0762 14.3918 42.0762 16.8361V34.7433Z" fill="#040606"/>
<path d="M68.1911 27.5674C68.6031 24.4561 70.254 22.4242 73.3022 22.4242C76.2237 22.4242 77.5884 24.7419 77.9699 26.9958C77.9699 27.0596 77.9699 27.1229 77.9699 27.155C77.9699 27.4403 77.8421 27.5674 77.493 27.5674H68.1911ZM79.2709 29.885C80.2552 29.885 80.859 29.2822 80.859 28.1392C80.859 28.0438 80.859 27.9801 80.859 27.8848C80.5412 23.7259 77.9375 20.1066 73.3022 20.1066C68.127 20.1066 65.2695 23.9483 65.2695 29.4405C65.2695 34.9331 68.2854 38.6162 73.4929 38.6162C77.6201 38.6162 79.4616 36.5209 80.4776 34.4253C80.6043 34.235 80.6366 34.0442 80.6366 33.8542C80.6366 33.2824 80.1921 32.9016 79.6523 32.7428C79.4299 32.6788 79.2079 32.6154 78.9858 32.6154C78.5414 32.6154 78.1282 32.8379 77.8421 33.4097C77.0803 35.0922 75.8105 36.2352 73.5246 36.2352C70.0956 36.2352 68.1587 33.7905 68.0953 29.885H79.2709Z" fill="#040606"/>
<path d="M92.136 31.0915C91.7245 32.1711 91.1203 34.4254 90.8352 35.6001C90.5806 34.4575 89.9467 32.3298 89.5648 31.2505L85.8825 21.2493C85.6601 20.6145 85.1832 20.3604 84.6121 20.3604C84.4214 20.3604 84.1989 20.392 83.9769 20.4558C83.374 20.6145 82.9609 21.091 82.9609 21.6938C82.9609 21.8525 82.9926 22.0112 83.0563 22.2019L88.8978 37.0292C89.2797 38.0135 89.9467 38.3306 90.8029 38.3306C91.6286 38.3306 92.327 38.0452 92.7089 37.0609L98.5505 22.2019C98.6456 22.0112 98.677 21.8208 98.677 21.6621C98.677 21.059 98.2646 20.6458 97.629 20.4558C97.4066 20.392 97.2165 20.3604 97.0265 20.3604C96.4545 20.3604 96.0107 20.6458 95.7561 21.2809L92.136 31.0915Z" fill="#040606"/>
<path d="M103.656 20.5516H101.211C100.418 20.5516 100.068 21.0914 100.068 21.8213C100.068 22.5515 100.418 23.0593 101.179 23.0593H103.656V33.9494C103.656 37.2834 105.561 38.5854 108.165 38.5854C109.53 38.5854 110.387 38.331 111.309 37.8866C111.784 37.6328 111.975 37.188 111.975 36.7436C111.975 36.5215 111.943 36.2678 111.848 36.0454C111.658 35.5689 111.276 35.2198 110.8 35.2198C110.61 35.2198 110.419 35.2835 110.229 35.3782C109.689 35.6959 109.149 35.918 108.356 35.918C107.18 35.918 106.514 35.2515 106.514 33.6957V23.0593H110.578C111.34 23.0593 111.753 22.5515 111.753 21.8213C111.753 21.0594 111.372 20.5516 110.578 20.5516H106.514V16.7098C106.514 15.8842 105.911 15.4397 105.085 15.4397C104.196 15.4397 103.656 15.8842 103.656 16.7098V20.5516Z" fill="#040606"/>
<path d="M116.683 27.5674C117.095 24.4561 118.746 22.4242 121.794 22.4242C124.714 22.4242 126.081 24.7419 126.461 26.9958C126.461 27.0596 126.461 27.1229 126.461 27.155C126.461 27.4403 126.334 27.5674 125.986 27.5674H116.683ZM127.763 29.885C128.747 29.885 129.35 29.2822 129.35 28.1392C129.35 28.0438 129.35 27.9801 129.35 27.8848C129.034 23.7259 126.429 20.1066 121.794 20.1066C116.619 20.1066 113.762 23.9483 113.762 29.4405C113.762 34.9331 116.778 38.6162 121.985 38.6162C126.112 38.6162 127.954 36.5209 128.969 34.4253C129.097 34.235 129.129 34.0442 129.129 33.8542C129.129 33.2824 128.684 32.9016 128.144 32.7428C127.922 32.6788 127.7 32.6154 127.477 32.6154C127.034 32.6154 126.62 32.8379 126.334 33.4097C125.572 35.0922 124.303 36.2352 122.017 36.2352C118.588 36.2352 116.65 33.7905 116.588 29.885H127.763Z" fill="#040606"/>
<path d="M135.708 31.8857L138.121 29.568L144.027 37.8228C144.28 38.1719 144.694 38.3306 145.106 38.3306C145.423 38.3306 145.71 38.2672 145.964 38.1085C146.376 37.8548 146.694 37.3783 146.694 36.9018C146.694 36.6481 146.63 36.426 146.472 36.2033L140.154 27.7902L145.518 22.7734C145.804 22.4876 145.932 22.2019 145.932 21.8845C145.932 21.5354 145.742 21.1543 145.457 20.8365C145.202 20.5191 144.82 20.3604 144.408 20.3604C144.09 20.3604 143.741 20.4874 143.456 20.7732L135.708 28.4884V14.3917C135.708 13.5661 135.138 13.2166 134.311 13.2166C133.422 13.2166 132.852 13.6295 132.852 14.455V37.0609C132.852 37.9181 133.391 38.3306 134.28 38.3306C135.138 38.3306 135.708 37.9181 135.708 37.0609V31.8857Z" fill="#040606"/>
</g>
<defs>
<clipPath id="clip0_1351_978">
<rect width="145" height="35.1601" fill="white" transform="translate(1.69336 8)"/>
</clipPath>
</defs>
</svg>
