<svg width="104" height="50" viewBox="0 0 104 50" fill="none" xmlns="http://www.w3.org/2000/svg">
<path d="M52.702 14.4078L48.21 40.3618H43.1118L47.5861 14.4078H52.702ZM58.6914 25.4418L57.9249 29.7556H48.7269L49.4934 25.4418H58.6914ZM61.5613 14.4078L60.7948 18.7394H50.6521L51.4007 14.4078H61.5613ZM73.3974 31.7343L78.2995 31.663C78.1093 33.4693 77.6043 35.0617 76.7843 36.4402C75.9762 37.8187 74.877 38.8882 73.4866 39.6488C72.1081 40.4094 70.48 40.7659 68.6024 40.7183C67.0337 40.6827 65.7443 40.344 64.7342 39.7023C63.7241 39.0487 62.9457 38.193 62.3991 37.1354C61.8524 36.0659 61.5137 34.8834 61.383 33.5881C61.2523 32.2809 61.2701 30.9499 61.4365 29.5952L62.1139 25.1923C62.3278 23.7544 62.6902 22.364 63.2012 21.0211C63.7122 19.6664 64.3896 18.4602 65.2333 17.4025C66.0771 16.333 67.111 15.4952 68.335 14.8891C69.5709 14.2831 70.9969 13.9978 72.6131 14.0335C74.4789 14.0691 75.9524 14.5029 77.0338 15.3348C78.1271 16.1547 78.9115 17.254 79.3868 18.6325C79.8622 20.011 80.1058 21.538 80.1177 23.2136L75.0196 23.1958C75.0671 22.3877 75.0552 21.6212 74.9839 20.8963C74.9126 20.1595 74.6749 19.5594 74.2709 19.0959C73.8787 18.6206 73.1954 18.3651 72.221 18.3295C71.2703 18.2938 70.4859 18.4839 69.868 18.8999C69.2619 19.3158 68.7747 19.8684 68.4063 20.5576C68.0498 21.2469 67.7765 21.9956 67.5863 22.8037C67.4081 23.6118 67.2655 24.3961 67.1585 25.1566L66.5346 29.613C66.4514 30.231 66.3742 30.9202 66.3029 31.6808C66.2435 32.4413 66.2613 33.1781 66.3564 33.8911C66.4514 34.6042 66.695 35.1984 67.0872 35.6737C67.4794 36.149 68.1151 36.4105 68.9945 36.458C70.0284 36.4937 70.8365 36.3035 71.4188 35.8876C72.0011 35.4717 72.4349 34.9013 72.7201 34.1764C73.0172 33.4396 73.243 32.6255 73.3974 31.7343ZM102.293 14.4078L97.7828 40.3618H92.8094L88.2461 23.071L85.2514 40.3618H80.1533L84.6275 14.4078H89.6187L94.2177 31.7164L97.2124 14.4078H102.293Z" fill="#2F1C1C"/>
<path d="M23.6812 15.2041C19.1094 15.2674 16.7112 16.8388 14.7373 17.9497C13.2361 19.0311 12.1909 19.9897 10.6418 22.1044C8.91456 24.4622 8.22299 22.6669 7.15299 21.4434C6.34283 20.517 4.31064 16.1815 1.91388 16.5268C3.58289 19.5494 2.54036 24.2901 4.37364 26.0388C5.84026 27.4377 7.43683 28.3862 8.96396 28.6947C8.9856 28.972 9.80477 30.3603 9.26332 32.2369C7.61849 32.8296 6.77216 33.2969 6.80622 34.1301C6.85141 35.2356 7.66921 35.38 8.42213 35.513L8.43922 35.516C7.60715 35.8282 6.28525 37.1124 6.64661 39.2983C7.09831 42.0307 9.23375 42.098 10.8075 42.0336C13.5772 44.764 19.9126 43.4985 22.2662 42.5851C24.6698 41.6523 25.0627 40.6781 27.5833 36.557C30.3024 35.024 34.5403 32.8417 31.033 27.947C34.5735 29.8731 38.9803 30.3087 39.6996 29.7563C40.7484 28.9506 38.0431 25.5277 32.5031 22.3233C35.8393 20.7651 36.9785 18.6477 37.1086 17.0351C37.4163 13.2208 33.2787 10.2991 29.0045 7.81571C25.4797 5.76769 22.2977 5.5554 21.0184 0.724156C18.6098 3.04804 21.3287 8.31497 25.2119 11.0616C29.1513 13.8481 27.0163 15.158 23.6812 15.2041Z" fill="url(#paint0_linear_1351_957)"/>
<path d="M23.6812 15.2041C19.1094 15.2674 16.7112 16.8388 14.7373 17.9497C13.2361 19.0311 12.1909 19.9897 10.6418 22.1044C8.91456 24.4622 8.22299 22.6669 7.15299 21.4434C6.34283 20.517 4.31064 16.1815 1.91388 16.5268C3.58289 19.5494 2.54036 24.2901 4.37364 26.0388C5.84026 27.4377 7.43683 28.3862 8.96396 28.6947C8.9856 28.972 9.80477 30.3603 9.26332 32.2369C7.61849 32.8296 6.77216 33.2969 6.80622 34.1301C6.85141 35.2356 7.66921 35.38 8.42213 35.513L8.43922 35.516C7.60715 35.8282 6.04628 36.8038 5.95514 39.0175C5.86209 41.2776 7.27588 41.838 8.7155 42.2737C12.042 43.2804 15.5727 41.7517 16.6456 40.435C18.235 38.4846 19.9501 35.0763 24.0919 34.3197C26.8091 33.8234 27.2003 34.749 29.5945 34.342C33.3092 32.212 31.6752 29.7958 31.033 27.947C34.5735 29.8731 38.9803 30.3087 39.6996 29.7563C40.7484 28.9506 38.0431 25.5277 32.5031 22.3233C35.8393 20.7651 36.9785 18.6477 37.1086 17.0351C37.4163 13.2208 33.2787 10.2991 29.0045 7.81571C25.4797 5.76769 22.2977 5.5554 21.0184 0.724156C18.6098 3.04804 21.3287 8.31497 25.2119 11.0616C29.1513 13.8481 27.0163 15.158 23.6812 15.2041Z" fill="url(#paint1_linear_1351_957)"/>
<path d="M8.18001 23.9046C8.9761 24.4667 9.54655 24.0651 10.2657 23.5102C9.86521 24.2993 9.72354 24.6142 9.51832 25.6425C7.59004 25.3505 5.24287 23.1283 4.48833 21.3046C4.26049 23.2921 5.0654 24.8355 6.18518 26.5206C5.17253 25.9438 4.2965 24.9288 4.02247 23.5182C3.75791 22.1563 3.90699 19.9375 3 17.4092C4.99319 18.5331 6.93874 23.0281 8.18001 23.9046Z" fill="white"/>
<path d="M22.405 20.294C21.7872 18.4894 22.9355 17.1402 23.5868 16.6912C25.9243 16.4102 29.3115 15.3444 29.1634 13.9905C29.0153 12.6366 28.2554 12.9458 24.8382 9.50014C21.421 6.05445 20.6979 5.00221 20.8816 1.93476C21.6998 4.55944 22.6482 5.07702 25.1233 6.64489C27.622 8.22771 35.2075 10.6216 35.9749 15.7829C35.5466 14.3786 33.8455 12.8409 33.1736 12.2811C32.5016 11.7213 29.9083 10.2819 25.0503 7.88422C28.206 10.2279 33.1963 14.3511 32.9753 15.751C32.7986 16.8709 31.3955 17.1769 30.1775 17.6272C28.7363 18.16 25.1717 19.0187 22.405 20.294Z" fill="white"/>
<path d="M13.3527 20.3554C11.2584 22.2027 10.3509 25.578 10.3314 25.857C11.2463 26.4625 11.2112 27.9537 11.0011 28.6114L9.75246 32.866L8.10501 33.397C7.77064 33.5343 7.51786 33.7301 7.51824 34.1628C7.51863 34.5955 7.67553 34.7333 8.03468 34.698C8.55801 34.6466 8.80676 34.209 11.2219 34.0114C16.723 33.261 16.851 35.6358 15.2385 39.2871C18.683 35.839 17.1125 34.0178 15.9119 33.0778C15.049 32.4022 13.8155 32.4526 11.9949 32.5271C15.4171 24.3015 19.81 21.0702 21.4937 20.6717C21.0868 19.7919 20.8525 18.5961 22.4748 16.6753C16.1668 17.3659 15.4103 18.5404 13.3527 20.3554Z" fill="white"/>
<path d="M10.0438 39.1903C7.03054 39.3135 8.29172 37.1601 9.18967 36.4434C8.30239 36.6651 7.06332 37.2103 6.9316 38.6684C6.76065 40.5608 8.11062 41.047 9.38018 41.1028C14.1316 41.3116 15.2567 38.1735 13.263 36.2769C13.0999 39.0962 11.6482 39.1247 10.0438 39.1903Z" fill="white"/>
<path d="M25.5355 25.0496L25.0166 24.4526C27.1259 24.6384 29.0185 23.3 31.6608 22.9137C32.4119 23.6455 34.7466 25.6621 38.0763 27.875C35.2318 28.6095 32.5465 26.432 30.0771 24.2457C28.6596 25.1073 26.5651 25.2857 25.5355 25.0496Z" fill="white"/>
<path d="M19.9559 26.1583C19.6693 27.0107 17.7555 28.5355 16.8345 29.1913C16.9359 29.4035 17.6677 29.763 19.7836 29.5034C22.4284 29.1789 20.3141 25.0927 19.9559 26.1583Z" fill="white" stroke="#2F1C1C" stroke-width="0.0617655"/>
<path d="M18.932 31.3633C23.4863 31.6271 21.6785 25.6048 20.8799 24.5765C19.9566 23.3875 13.9644 25.7215 12.9032 26.788C11.8419 27.8545 13.4559 31.0461 18.932 31.3633Z" fill="#2F1C1C" stroke="#2F1C1C" stroke-width="0.185297"/>
<path d="M11.0447 28.1766C11.0823 28.0237 11.3806 27.6837 11.8029 27.5267C12.3309 27.3304 12.6459 27.5191 12.9685 27.6034" stroke="#2F1C1C" stroke-width="0.741186"/>
<path d="M8.38217 27.4707L8.04336 28.1574C8.01253 28.2199 8.07879 28.2858 8.14109 28.2545L8.77009 27.9394C8.78444 27.9322 8.79601 27.9204 8.80299 27.906L9.03455 27.4259C9.04242 27.4096 9.0561 27.3968 9.0729 27.39L14.5748 25.1778C14.5856 25.1735 14.5973 25.1718 14.6089 25.1729L15.5791 25.2662C15.5892 25.2672 15.5994 25.266 15.609 25.2628L16.4978 24.9673C16.564 24.9453 16.5642 24.8517 16.4981 24.8294L15.567 24.5153C15.5504 24.5097 15.5323 24.5103 15.5161 24.517L8.4197 27.4357C8.40334 27.4424 8.39 27.4549 8.38217 27.4707Z" fill="#2F1C1C" stroke="#2F1C1C" stroke-width="0.218019"/>
<path d="M7.32521 28.6996C8.18361 27.9227 8.82246 27.7729 9.68791 27.5212C13.0325 26.9208 10.9543 32.0368 9.26239 32.2367C8.94248 32.2745 8.05478 32.6879 7.65091 32.8899C7.11117 32.0362 6.46681 29.4765 7.32521 28.6996Z" fill="#2F1C1C" stroke="#2F1C1C" stroke-width="0.185297"/>
<path d="M33.0142 21.9626L19.7857 24.2387L20.482 24.6386L32.4393 22.2643L33.0142 21.9626Z" fill="#2F1C1C" stroke="#2F1C1C" stroke-width="0.185297"/>
<path d="M16.946 42.5107C18.8261 42.2236 20.703 41.32 21.8509 40.5471C22.5437 40.0805 23.6955 38.7625 24.733 37.4702C23.7953 36.891 21.7136 36.3612 20.8881 38.8755C20.0626 41.3898 18.6427 42.0209 16.946 42.5107Z" fill="white"/>
<path d="M20.217 25.0546C19.6316 24.7188 18.5484 24.9454 18.08 25.1006C16.285 25.6473 11.8254 26.915 13.7914 28.7076C13.7822 26.0455 18.7648 26.5995 21.2572 27.2092C21.1544 26.6309 20.8024 25.3903 20.217 25.0546Z" fill="white" stroke="white" stroke-width="0.185297"/>
<path d="M10.4404 27.7683C11.2611 27.8831 11.3705 28.5957 11.1244 29.3785C10.8321 28.2778 10.5458 28.0802 9.63112 28.3887C8.77746 28.6766 8.03607 29.443 7.28927 30.8335C7.17654 30.3435 7.12315 29.9439 7.32008 29.3177C7.56626 28.5349 9.41453 27.6248 10.4404 27.7683Z" fill="white" stroke="white" stroke-width="0.185297"/>
<defs>
<linearGradient id="paint0_linear_1351_957" x1="20.3404" y1="32.5259" x2="26.6215" y2="43.2725" gradientUnits="userSpaceOnUse">
<stop stop-color="#F83D31"/>
<stop offset="0.863051" stop-color="#A92820"/>
</linearGradient>
<linearGradient id="paint1_linear_1351_957" x1="10.1074" y1="6.76468" x2="27.6461" y2="35.0708" gradientUnits="userSpaceOnUse">
<stop stop-color="#F83D31"/>
<stop offset="1" stop-color="#A32B24"/>
</linearGradient>
</defs>
</svg>
