<svg width="64" height="64" viewBox="0 0 64 64" fill="none" xmlns="http://www.w3.org/2000/svg">
<rect width="64" height="64" rx="13.7143" fill="#7360F2"/>
<path d="M49.9974 11.7261C48.7569 10.5815 43.744 6.94245 32.5782 6.89301C32.5782 6.89301 19.4109 6.09898 12.992 11.9868C9.41885 15.5606 8.16189 20.79 8.0293 27.2733C7.89672 33.7566 7.72518 45.9067 19.4371 49.2012H19.4483L19.4408 54.2282C19.4408 54.2282 19.3659 56.2635 20.706 56.6785C22.327 57.1819 23.2784 55.635 24.826 53.9676C25.6754 53.0522 26.8485 51.7076 27.7324 50.6798C35.7423 51.354 41.9028 49.8132 42.6024 49.5854C44.2197 49.0611 53.3712 47.8888 54.8597 35.7394C56.396 23.217 54.1166 15.2962 49.9974 11.7261Z" fill="white"/>
<path d="M47.3932 14.2554C46.3445 13.3025 41.8178 10.4583 32.3726 10.4171C32.3726 10.4171 21.1881 9.68223 15.7587 14.6C12.7369 17.5835 11.7189 22.0204 11.6073 27.4347C11.4957 32.8491 10.9174 43.1924 20.821 45.9438C20.821 45.9438 20.7821 53.6226 20.7776 54.2976C20.7776 54.7695 20.8525 55.0923 21.1221 55.159C21.3161 55.2062 21.6068 55.1058 21.854 54.8594C23.4375 53.2691 28.5073 47.1528 28.5073 47.1528C35.3097 47.597 40.7219 46.2539 41.3039 46.0637C42.6762 45.6224 50.0989 44.985 51.3551 34.8379C52.6532 24.3785 50.8779 17.239 47.3932 14.2554Z" fill="#7360F2"/>
<path d="M37.1743 26.9901C37.0514 24.5136 35.7935 23.213 33.4004 23.0881" stroke="white" stroke-width="1.26295" stroke-linecap="round" stroke-linejoin="round"/>
<path d="M40.417 28.0762C40.467 25.769 39.7836 23.8414 38.3668 22.2933C36.9436 20.7397 34.9735 19.8842 32.4453 19.6992" stroke="white" stroke-width="1.26295" stroke-linecap="round" stroke-linejoin="round"/>
<path d="M43.7299 29.374C43.6995 25.3704 42.5032 22.2172 40.1411 19.9145C37.779 17.6119 34.8413 16.4483 31.3281 16.4238" stroke="white" stroke-width="1.26295" stroke-linecap="round" stroke-linejoin="round"/>
<path d="M33.5252 35.4481C33.5252 35.4481 34.4129 35.523 34.8908 34.9342L35.8227 33.7619C36.2721 33.1806 37.3568 32.8098 38.419 33.4016C39.215 33.8556 39.9878 34.3491 40.7344 34.8803C41.4393 35.3987 42.8828 36.6032 42.8873 36.6032C43.5749 37.1837 43.7337 38.0362 43.2656 38.9351C43.2656 38.9403 43.2618 38.9493 43.2618 38.9538C42.7462 39.8477 42.0915 40.6538 41.3224 41.3419C41.3134 41.3464 41.3134 41.3509 41.3052 41.3554C40.637 41.9137 39.9806 42.231 39.3359 42.3075C39.2409 42.3241 39.1445 42.3301 39.0482 42.3254C38.7639 42.3282 38.4811 42.2847 38.2107 42.1966L38.1898 42.1659C37.1965 41.8857 35.538 41.1846 32.7762 39.6609C31.1779 38.7896 29.6563 37.7845 28.2277 36.6564C27.5117 36.0912 26.8286 35.4855 26.182 34.8421L26.1131 34.7732L26.0442 34.7043L25.9752 34.6354C25.952 34.6129 25.9295 34.5897 25.9063 34.5664C25.2629 33.9198 24.6572 33.2368 24.0921 32.5207C22.9641 31.0922 21.959 29.5709 21.0875 27.973C19.5638 25.2104 18.8627 23.5534 18.5826 22.5587L18.5518 22.5377C18.464 22.2673 18.4208 21.9845 18.4237 21.7002C18.4185 21.604 18.4243 21.5075 18.441 21.4126C18.5214 20.7688 18.8392 20.1119 19.3946 19.4417C19.3991 19.4335 19.4035 19.4335 19.408 19.4245C20.0959 18.6554 20.9021 18.001 21.7961 17.4859C21.8006 17.4859 21.8096 17.4814 21.8148 17.4814C22.7137 17.0132 23.5662 17.172 24.146 17.8559C24.1505 17.8604 25.3528 19.3039 25.8689 20.0088C26.4001 20.7562 26.8937 21.5297 27.3476 22.3264C27.9393 23.3879 27.5685 24.4748 26.9873 24.9228L25.8149 25.8546C25.2232 26.3325 25.3011 27.2202 25.3011 27.2202C25.3011 27.2202 27.0374 33.7919 33.5252 35.4481Z" fill="white"/>
</svg>
