<svg width="64" height="64" viewBox="0 0 64 64" fill="none" xmlns="http://www.w3.org/2000/svg">
<rect width="64" height="64" rx="10.6667" fill="url(#paint0_linear_1091_3488)"/>
<path d="M28.0896 26.3994L26.1836 21.8727C26.0243 21.4942 25.6535 21.248 25.2428 21.248C24.0786 21.248 22.9621 21.7105 22.1389 22.5337L21.7356 22.937C21.2083 23.4644 20.8403 24.1296 20.6737 24.8565L20.572 25.3C20.3447 26.2921 20.3904 27.3273 20.7044 28.2955L21.0848 29.4682C21.5318 30.8466 22.2191 32.135 23.1149 33.2739L24.3952 34.9018C25.6185 36.4571 27.069 37.8194 28.6979 38.9428L29.9445 39.8025C31.1815 40.6556 32.5284 41.3372 33.9485 41.8288L35.3794 42.3241C36.3202 42.6498 37.3089 42.816 38.3046 42.816H38.4502C39.3335 42.816 40.1946 42.5391 40.9124 42.0242L40.9826 41.9738C42.1263 41.1534 42.9461 39.9579 43.2993 38.5954L43.4584 37.9818C43.5682 37.5582 43.3561 37.1173 42.9566 36.9388L38.7395 35.0546C38.0798 34.7599 37.3053 34.9245 36.8226 35.4621L35.212 37.2558C34.979 37.5152 34.6004 37.5852 34.2901 37.426L33.1867 36.8602C30.9723 35.7246 29.0337 34.1173 27.5076 32.1514L26.3629 30.6769C26.1792 30.4403 26.1843 30.1078 26.3751 29.8769L27.8389 28.1049C28.2334 27.6274 28.33 26.9702 28.0896 26.3994Z" fill="white"/>
<path fill-rule="evenodd" clip-rule="evenodd" d="M13.1857 31.8719C13.1857 36.0014 14.507 39.8222 16.7498 42.9348L15.5799 46.5866L14.696 49.5524L18.3067 48.6497L18.3193 48.658L21.7605 47.7286C24.7396 49.6807 28.3021 50.8159 32.1297 50.8159C42.5922 50.8159 51.0737 42.3344 51.0737 31.8719C51.0737 21.4094 42.5922 12.9279 32.1297 12.9279C21.6672 12.9279 13.1857 21.4094 13.1857 31.8719ZM21.2206 51.8794C24.4605 53.6496 28.1776 54.6559 32.1297 54.6559C44.713 54.6559 54.9137 44.4551 54.9137 31.8719C54.9137 19.2886 44.713 9.08789 32.1297 9.08789C19.5465 9.08789 9.3457 19.2886 9.3457 31.8719C9.3457 36.1013 10.4981 40.0616 12.5061 43.4558L10.3665 50.6347L9.0918 54.9116L13.4213 53.8292L21.2206 51.8794Z" fill="white"/>
<defs>
<linearGradient id="paint0_linear_1091_3488" x1="0" y1="0" x2="64" y2="64" gradientUnits="userSpaceOnUse">
<stop stop-color="#3CE963"/>
<stop offset="1" stop-color="#2AD149"/>
</linearGradient>
</defs>
</svg>
