<svg width="64" height="64" viewBox="0 0 64 64" fill="none" xmlns="http://www.w3.org/2000/svg">
<rect width="64" height="64" rx="13.7143" fill="url(#paint0_linear_1091_3507)"/>
<path d="M14.3714 43.8572V22.7222H11.0906V43.8572H14.3714ZM28.7315 43.8572L36.2745 22.7222H32.774L27.0032 40.1662H26.9153L21.1592 22.7222H17.6001L25.1431 43.8572H28.7315ZM42.7987 25.4757H47.427C49.9609 25.4757 51.5134 26.9111 51.5134 29.2692C51.5134 31.6859 50.0487 33.0773 47.5149 33.0773H42.7987V25.4757ZM42.7987 35.7283H47.427L51.7331 43.8572H55.5266L50.7811 35.2157C53.3589 34.3515 54.8821 32.0374 54.8821 29.1813C54.8821 25.2414 52.1725 22.7222 47.8225 22.7222H39.5178V43.8572H42.7987V35.7283Z" fill="white"/>
<defs>
<linearGradient id="paint0_linear_1091_3507" x1="0" y1="0" x2="64" y2="64" gradientUnits="userSpaceOnUse">
<stop stop-color="#70D6FE"/>
<stop offset="1" stop-color="#867DFD"/>
</linearGradient>
</defs>
</svg>
