<svg width="306" height="472" viewBox="0 0 306 472" fill="none" xmlns="http://www.w3.org/2000/svg">
<rect x="20" y="34" width="262" height="438" rx="131" fill="url(#paint0_linear_1149_60544)"/>
<path d="M50.1906 40H114.513C116.828 40 118.704 41.8762 118.704 44.1906V45.7037V84.8094C118.704 87.1238 116.828 89 114.513 89H50.1906C47.8762 89 46 87.1238 46 84.8094V45.7037V44.1906C46 41.8762 47.8762 40 50.1906 40Z" fill="white"/>
<path d="M46 45.7037V84.8094C46 87.1238 47.8762 89 50.1906 89H114.513C116.828 89 118.704 87.1238 118.704 84.8094V45.7037M46 45.7037V44.1906C46 41.8762 47.8762 40 50.1906 40H114.513C116.828 40 118.704 41.8762 118.704 44.1906V45.7037M46 45.7037L80.2528 63.8534C81.4757 64.5014 82.9397 64.5038 84.1647 63.8598L118.704 45.7037" stroke="#FB7022" stroke-width="2"/>
<path d="M190.191 40H254.513C256.828 40 258.704 41.8762 258.704 44.1906V45.7037V84.8094C258.704 87.1238 256.828 89 254.513 89H190.191C187.876 89 186 87.1238 186 84.8094V45.7037V44.1906C186 41.8762 187.876 40 190.191 40Z" fill="white"/>
<path d="M186 45.7037V84.8094C186 87.1238 187.876 89 190.191 89H254.513C256.828 89 258.704 87.1238 258.704 84.8094V45.7037M186 45.7037V44.1906C186 41.8762 187.876 40 190.191 40H254.513C256.828 40 258.704 41.8762 258.704 44.1906V45.7037M186 45.7037L220.253 63.8534C221.476 64.5014 222.94 64.5038 224.165 63.8598L258.704 45.7037" stroke="#FB7022" stroke-width="2"/>
<rect x="1" y="110" width="304" height="207.604" rx="10.2088" fill="white" stroke="#FB6B1A" stroke-width="2"/>
<path d="M1 295H305V309.791C305 315.429 300.429 320 294.791 320H11.2088C5.57065 320 1 315.429 1 309.791V295Z" fill="white"/>
<path d="M1 295H305V309.791C305 315.429 300.429 320 294.791 320H11.2088C5.57065 320 1 315.429 1 309.791V295Z" fill="white"/>
<path d="M1 295H305V309.791C305 315.429 300.429 320 294.791 320H11.2088C5.57065 320 1 315.429 1 309.791V295Z" stroke="#FB6B1A" stroke-width="2"/>
<rect x="14" y="123" width="278" height="156" rx="5" fill="url(#paint1_linear_1149_60544)"/>
<path d="M109.614 342L120.547 320H184.452L195.386 342H109.614Z" fill="white" stroke="#FB6B1A" stroke-width="2"/>
<rect x="1" y="-1" width="99" height="10" rx="5" transform="matrix(1 0 0 -1 102 348)" fill="white" stroke="#FB6B1A" stroke-width="2"/>
<path d="M39.4997 160.232C38.4176 160.232 37.4542 160.028 36.6096 159.619C35.7649 159.211 35.1024 158.653 34.6221 157.946C34.1418 157.234 33.9017 156.431 33.9017 155.537C33.9017 154.835 34.048 154.181 34.3406 153.574C34.6332 152.961 35.0362 152.448 35.5496 152.034C36.063 151.614 36.6399 151.341 37.2803 151.214V151.123C36.4467 150.88 35.776 150.402 35.2681 149.69C34.7602 148.972 34.509 148.158 34.5145 147.247C34.509 146.403 34.7243 145.646 35.1604 144.978C35.5965 144.31 36.19 143.783 36.9408 143.397C37.6972 143.005 38.5501 142.809 39.4997 142.809C40.4437 142.809 41.2911 143.005 42.0419 143.397C42.7927 143.783 43.3862 144.31 43.8223 144.978C44.264 145.646 44.4876 146.403 44.4931 147.247C44.4876 148.153 44.2309 148.967 43.723 149.69C43.2151 150.408 42.5471 150.885 41.719 151.123V151.214C42.3594 151.335 42.9335 151.606 43.4414 152.025C43.9493 152.445 44.3523 152.961 44.6504 153.574C44.9486 154.181 45.0976 154.835 45.0976 155.537C45.0976 156.431 44.8547 157.234 44.3689 157.946C43.8886 158.653 43.2261 159.211 42.3814 159.619C41.5423 160.028 40.5817 160.232 39.4997 160.232ZM39.4997 158.841C40.3057 158.841 41.0123 158.697 41.6196 158.41C42.2324 158.117 42.7099 157.717 43.0522 157.209C43.4 156.701 43.5739 156.119 43.5739 155.462C43.5739 154.783 43.3945 154.178 43.0356 153.648C42.6768 153.113 42.191 152.691 41.5782 152.381C40.9654 152.067 40.2726 151.909 39.4997 151.909C38.7268 151.909 38.0312 152.067 37.4128 152.381C36.8 152.691 36.3142 153.113 35.9554 153.648C35.6021 154.178 35.4254 154.783 35.4254 155.462C35.4254 156.119 35.5938 156.701 35.9305 157.209C36.2728 157.717 36.7504 158.117 37.3632 158.41C37.9815 158.697 38.6936 158.841 39.4997 158.841ZM39.4997 150.584C40.1621 150.584 40.7556 150.444 41.2801 150.162C41.8045 149.881 42.2186 149.497 42.5222 149.011C42.8314 148.52 42.9887 147.962 42.9942 147.338C42.9887 146.72 42.8341 146.173 42.5305 145.699C42.2269 145.218 41.8128 144.846 41.2884 144.581C40.7694 144.31 40.1732 144.175 39.4997 144.175C38.8261 144.175 38.2244 144.31 37.6944 144.581C37.1699 144.846 36.7559 145.218 36.4522 145.699C36.1541 146.173 36.0078 146.72 36.0134 147.338C36.0078 147.962 36.1569 148.52 36.4605 149.011C36.7697 149.497 37.1865 149.881 37.711 150.162C38.2409 150.444 38.8372 150.584 39.4997 150.584ZM60.196 142.809C60.9026 142.814 61.5872 142.958 62.2497 143.239C62.9177 143.515 63.5194 143.962 64.0549 144.581C64.5904 145.194 65.0155 146.011 65.3302 147.032C65.6449 148.048 65.8022 149.298 65.8022 150.783C65.8022 152.169 65.6808 153.439 65.4379 154.592C65.1949 155.746 64.8306 156.746 64.3448 157.59C63.8645 158.429 63.2572 159.081 62.5229 159.545C61.7942 160.003 60.9413 160.232 59.9641 160.232C59.0532 160.232 58.2444 160.041 57.5378 159.66C56.8366 159.28 56.268 158.752 55.8319 158.079C55.3957 157.4 55.1252 156.616 55.0203 155.727H56.544C56.6931 156.632 57.0575 157.378 57.6371 157.963C58.2223 158.548 58.998 158.841 59.9641 158.841C61.3498 158.841 62.4263 158.195 63.1937 156.903C63.9611 155.611 64.3448 153.773 64.3448 151.388H64.2371C63.9721 151.885 63.6243 152.318 63.1937 152.688C62.7686 153.058 62.2828 153.348 61.7362 153.557C61.1897 153.762 60.6128 153.864 60.0055 153.864C59.0615 153.864 58.1975 153.626 57.4136 153.152C56.6296 152.671 56.003 152.017 55.5338 151.189C55.0645 150.355 54.8299 149.406 54.8299 148.34C54.8299 147.336 55.0507 146.414 55.4924 145.574C55.9395 144.73 56.5634 144.056 57.3639 143.554C58.1699 143.046 59.1139 142.798 60.196 142.809ZM60.196 144.2C59.4617 144.2 58.802 144.388 58.2168 144.763C57.6371 145.133 57.1762 145.632 56.8339 146.262C56.4971 146.886 56.3287 147.578 56.3287 148.34C56.3287 149.108 56.4971 149.806 56.8339 150.435C57.1762 151.059 57.6371 151.556 58.2168 151.926C58.802 152.29 59.4617 152.473 60.196 152.473C60.7591 152.473 61.2835 152.359 61.7694 152.133C62.2552 151.901 62.6748 151.586 63.0281 151.189C63.3869 150.792 63.6574 150.342 63.8396 149.839C64.0273 149.331 64.1019 148.799 64.0632 148.241C63.997 147.468 63.7899 146.778 63.4421 146.171C63.0998 145.558 62.6472 145.078 62.084 144.73C61.5265 144.376 60.8971 144.2 60.196 144.2ZM74.812 160.232C73.7686 160.232 72.8356 160.044 72.013 159.669C71.1904 159.288 70.539 158.761 70.0587 158.087C69.5784 157.414 69.3244 156.638 69.2968 155.76H70.8619C70.8895 156.378 71.08 156.919 71.4333 157.383C71.7866 157.841 72.2559 158.2 72.8411 158.46C73.4263 158.714 74.0777 158.841 74.7954 158.841C75.5793 158.841 76.2694 158.694 76.8656 158.402C77.4674 158.109 77.9367 157.709 78.2734 157.201C78.6157 156.688 78.7868 156.108 78.7868 155.462C78.7868 154.777 78.6129 154.173 78.2651 153.648C77.9173 153.124 77.4177 152.715 76.7663 152.423C76.1204 152.13 75.3475 151.984 74.4476 151.984H73.4539V150.593H74.4476C75.1818 150.593 75.8305 150.46 76.3936 150.195C76.9623 149.925 77.4094 149.547 77.7352 149.061C78.0609 148.575 78.2237 148.004 78.2237 147.347C78.2237 146.723 78.083 146.173 77.8014 145.699C77.5198 145.224 77.1224 144.851 76.6089 144.581C76.101 144.31 75.5076 144.175 74.8285 144.175C74.1716 144.175 73.5698 144.302 73.0233 144.556C72.4767 144.81 72.0351 145.169 71.6983 145.632C71.3671 146.096 71.1904 146.645 71.1683 147.28H69.6695C69.6915 146.397 69.9344 145.621 70.3982 144.953C70.8674 144.28 71.4885 143.755 72.2614 143.38C73.0398 142.999 73.901 142.809 74.8451 142.809C75.8443 142.809 76.7083 143.013 77.437 143.421C78.1658 143.83 78.7289 144.374 79.1264 145.053C79.5294 145.726 79.7309 146.469 79.7309 147.28C79.7309 148.246 79.4686 149.075 78.9442 149.765C78.4197 150.449 77.7131 150.924 76.8242 151.189V151.297C77.9063 151.512 78.7565 151.992 79.3748 152.738C79.9986 153.477 80.3106 154.385 80.3106 155.462C80.3106 156.367 80.0732 157.182 79.5984 157.905C79.1236 158.623 78.4722 159.191 77.6441 159.611C76.8215 160.025 75.8774 160.232 74.812 160.232ZM84.4593 160L92.1855 144.539V144.432H83.2834V143.04H93.8086V144.498L86.0907 160H84.4593ZM108.911 160.232C107.829 160.232 106.866 160.028 106.021 159.619C105.176 159.211 104.514 158.653 104.034 157.946C103.553 157.234 103.313 156.431 103.313 155.537C103.313 154.835 103.459 154.181 103.752 153.574C104.045 152.961 104.448 152.448 104.961 152.034C105.474 151.614 106.051 151.341 106.692 151.214V151.123C105.858 150.88 105.187 150.402 104.679 149.69C104.172 148.972 103.92 148.158 103.926 147.247C103.92 146.403 104.136 145.646 104.572 144.978C105.008 144.31 105.601 143.783 106.352 143.397C107.109 143.005 107.962 142.809 108.911 142.809C109.855 142.809 110.703 143.005 111.453 143.397C112.204 143.783 112.798 144.31 113.234 144.978C113.675 145.646 113.899 146.403 113.905 147.247C113.899 148.153 113.642 148.967 113.134 149.69C112.627 150.408 111.959 150.885 111.13 151.123V151.214C111.771 151.335 112.345 151.606 112.853 152.025C113.361 152.445 113.764 152.961 114.062 153.574C114.36 154.181 114.509 154.835 114.509 155.537C114.509 156.431 114.266 157.234 113.78 157.946C113.3 158.653 112.638 159.211 111.793 159.619C110.954 160.028 109.993 160.232 108.911 160.232ZM108.911 158.841C109.717 158.841 110.424 158.697 111.031 158.41C111.644 158.117 112.121 157.717 112.464 157.209C112.811 156.701 112.985 156.119 112.985 155.462C112.985 154.783 112.806 154.178 112.447 153.648C112.088 153.113 111.602 152.691 110.99 152.381C110.377 152.067 109.684 151.909 108.911 151.909C108.138 151.909 107.443 152.067 106.824 152.381C106.211 152.691 105.726 153.113 105.367 153.648C105.013 154.178 104.837 154.783 104.837 155.462C104.837 156.119 105.005 156.701 105.342 157.209C105.684 157.717 106.162 158.117 106.775 158.41C107.393 158.697 108.105 158.841 108.911 158.841ZM108.911 150.584C109.574 150.584 110.167 150.444 110.692 150.162C111.216 149.881 111.63 149.497 111.934 149.011C112.243 148.52 112.4 147.962 112.406 147.338C112.4 146.72 112.246 146.173 111.942 145.699C111.638 145.218 111.224 144.846 110.7 144.581C110.181 144.31 109.585 144.175 108.911 144.175C108.238 144.175 107.636 144.31 107.106 144.581C106.581 144.846 106.167 145.218 105.864 145.699C105.566 146.173 105.419 146.72 105.425 147.338C105.419 147.962 105.568 148.52 105.872 149.011C106.181 149.497 106.598 149.881 107.122 150.162C107.652 150.444 108.249 150.584 108.911 150.584ZM117.542 156.356V155.098L125.103 143.04H126.03V145.152H125.343L119.273 154.857V154.965H129.185V156.356H117.542ZM125.459 160V155.959V155.379V143.04H126.933V160H125.459ZM132.545 160V158.866L138.085 152.638C138.808 151.821 139.391 151.123 139.832 150.543C140.274 149.963 140.594 149.428 140.793 148.937C140.997 148.445 141.099 147.935 141.099 147.405C141.099 146.759 140.948 146.196 140.644 145.715C140.346 145.229 139.935 144.851 139.41 144.581C138.886 144.31 138.295 144.175 137.638 144.175C136.942 144.175 136.332 144.324 135.808 144.622C135.289 144.92 134.886 145.329 134.599 145.848C134.312 146.367 134.168 146.963 134.168 147.636H132.686C132.686 146.698 132.901 145.867 133.332 145.144C133.768 144.415 134.361 143.844 135.112 143.43C135.869 143.016 136.724 142.809 137.679 142.809C138.623 142.809 139.463 143.013 140.197 143.421C140.931 143.824 141.508 144.374 141.927 145.069C142.347 145.765 142.557 146.543 142.557 147.405C142.557 148.028 142.446 148.633 142.226 149.218C142.01 149.803 141.638 150.455 141.108 151.172C140.578 151.89 139.843 152.768 138.905 153.806L134.698 158.501V158.609H143.087V160H132.545ZM153.701 150.825V152.216H146.646V150.825H153.701ZM156.517 143.04L161.212 150.402H161.32L166.015 143.04H167.845L162.388 151.52L167.845 160H166.015L161.32 152.721H161.212L156.517 160H154.686L160.226 151.52L154.686 143.04H156.517ZM171.046 143.04L175.741 150.402H175.849L180.544 143.04H182.374L176.917 151.52L182.374 160H180.544L175.849 152.721H175.741L171.046 160H169.215L174.755 151.52L169.215 143.04H171.046ZM190.274 150.825V152.216H183.219V150.825H190.274ZM193.09 143.04L197.785 150.402H197.893L202.588 143.04H204.418L198.961 151.52L204.418 160H202.588L197.893 152.721H197.785L193.09 160H191.26L196.8 151.52L191.26 143.04H193.09ZM207.619 143.04L212.314 150.402H212.422L217.117 143.04H218.947L213.49 151.52L218.947 160H217.117L212.422 152.721H212.314L207.619 160H205.789L211.329 151.52L205.789 143.04H207.619Z" fill="#FB6B1A"/>
<path d="M39.3744 192.271C38.2924 192.271 37.329 192.067 36.4843 191.658C35.6397 191.25 34.9772 190.692 34.4969 189.985C34.0166 189.273 33.7764 188.47 33.7764 187.576C33.7764 186.874 33.9227 186.22 34.2153 185.613C34.5079 185 34.9109 184.487 35.4244 184.073C35.9378 183.653 36.5147 183.38 37.1551 183.253V183.162C36.3215 182.919 35.6507 182.441 35.1428 181.729C34.6349 181.012 34.3837 180.197 34.3892 179.286C34.3837 178.442 34.599 177.685 35.0352 177.017C35.4713 176.349 36.0648 175.822 36.8156 175.436C37.5719 175.044 38.4249 174.848 39.3744 174.848C40.3184 174.848 41.1659 175.044 41.9167 175.436C42.6675 175.822 43.261 176.349 43.6971 177.017C44.1388 177.685 44.3623 178.442 44.3679 179.286C44.3623 180.192 44.1056 181.006 43.5977 181.729C43.0898 182.447 42.4218 182.924 41.5937 183.162V183.253C42.2341 183.374 42.8083 183.645 43.3162 184.064C43.8241 184.484 44.2271 185 44.5252 185.613C44.8233 186.22 44.9724 186.874 44.9724 187.576C44.9724 188.47 44.7295 189.273 44.2436 189.985C43.7633 190.692 43.1009 191.25 42.2562 191.658C41.4171 192.067 40.4565 192.271 39.3744 192.271ZM39.3744 190.88C40.1804 190.88 40.8871 190.736 41.4944 190.449C42.1071 190.157 42.5847 189.756 42.927 189.248C43.2748 188.74 43.4487 188.158 43.4487 187.501C43.4487 186.822 43.2692 186.218 42.9104 185.688C42.5516 185.152 42.0657 184.73 41.4529 184.421C40.8402 184.106 40.1473 183.949 39.3744 183.949C38.6015 183.949 37.9059 184.106 37.2876 184.421C36.6748 184.73 36.189 185.152 35.8301 185.688C35.4768 186.218 35.3002 186.822 35.3002 187.501C35.3002 188.158 35.4685 188.74 35.8053 189.248C36.1476 189.756 36.6251 190.157 37.2379 190.449C37.8562 190.736 38.5684 190.88 39.3744 190.88ZM39.3744 182.624C40.0369 182.624 40.6304 182.483 41.1548 182.201C41.6793 181.92 42.0933 181.536 42.397 181.05C42.7061 180.559 42.8635 180.001 42.869 179.377C42.8635 178.759 42.7089 178.213 42.4053 177.738C42.1016 177.257 41.6876 176.885 41.1631 176.62C40.6442 176.349 40.0479 176.214 39.3744 176.214C38.7009 176.214 38.0991 176.349 37.5692 176.62C37.0447 176.885 36.6306 177.257 36.327 177.738C36.0289 178.213 35.8826 178.759 35.8881 179.377C35.8826 180.001 36.0316 180.559 36.3353 181.05C36.6444 181.536 37.0612 181.92 37.5857 182.201C38.1157 182.483 38.7119 182.624 39.3744 182.624ZM60.0707 174.848C60.7774 174.853 61.4619 174.997 62.1244 175.278C62.7924 175.554 63.3942 176.002 63.9297 176.62C64.4652 177.233 64.8903 178.05 65.205 179.071C65.5196 180.087 65.677 181.337 65.677 182.822C65.677 184.208 65.5555 185.478 65.3126 186.632C65.0697 187.785 64.7053 188.785 64.2195 189.629C63.7392 190.468 63.1319 191.12 62.3977 191.584C61.669 192.042 60.816 192.271 59.8389 192.271C58.928 192.271 58.1192 192.08 57.4125 191.7C56.7114 191.319 56.1428 190.791 55.7066 190.118C55.2705 189.439 55 188.655 54.8951 187.766H56.4188C56.5679 188.671 56.9322 189.417 57.5119 190.002C58.0971 190.587 58.8727 190.88 59.8389 190.88C61.2246 190.88 62.3011 190.234 63.0685 188.942C63.8358 187.65 64.2195 185.812 64.2195 183.427H64.1119C63.8469 183.924 63.4991 184.357 63.0685 184.727C62.6434 185.097 62.1575 185.387 61.611 185.596C61.0645 185.801 60.4875 185.903 59.8803 185.903C58.9362 185.903 58.0722 185.665 57.2883 185.191C56.5044 184.71 55.8778 184.056 55.4085 183.228C54.9393 182.394 54.7046 181.445 54.7046 180.379C54.7046 179.375 54.9255 178.453 55.3671 177.614C55.8143 176.769 56.4381 176.095 57.2386 175.593C58.0446 175.085 58.9887 174.837 60.0707 174.848ZM60.0707 176.239C59.3365 176.239 58.6768 176.427 58.0916 176.802C57.5119 177.172 57.0509 177.672 56.7086 178.301C56.3719 178.925 56.2035 179.618 56.2035 180.379C56.2035 181.147 56.3719 181.845 56.7086 182.474C57.0509 183.098 57.5119 183.595 58.0916 183.965C58.6768 184.329 59.3365 184.512 60.0707 184.512C60.6338 184.512 61.1583 184.398 61.6441 184.172C62.1299 183.94 62.5495 183.626 62.9028 183.228C63.2617 182.831 63.5322 182.381 63.7144 181.878C63.9021 181.37 63.9766 180.838 63.938 180.28C63.8717 179.507 63.6647 178.817 63.3169 178.21C62.9746 177.597 62.5219 177.117 61.9588 176.769C61.4012 176.416 60.7719 176.239 60.0707 176.239ZM68.7741 188.395V187.137L76.3346 175.08H77.2621V177.191H76.5748L70.5048 186.897V187.004H80.4172V188.395H68.7741ZM76.6907 192.039V187.998V187.418V175.08H78.1647V192.039H76.6907ZM84.2658 192.039L91.992 176.578V176.471H83.0899V175.08H93.615V176.537L85.8971 192.039H84.2658ZM103.07 188.395V187.137L110.63 175.08H111.558V177.191H110.871L104.801 186.897V187.004H114.713V188.395H103.07ZM110.987 192.039V187.998V187.418V175.08H112.461V192.039H110.987ZM117.667 188.395V187.137L125.228 175.08H126.155V177.191H125.468L119.398 186.897V187.004H129.31V188.395H117.667ZM125.584 192.039V187.998V187.418V175.08H127.058V192.039H125.584ZM132.67 192.039V190.905L138.21 184.677C138.934 183.86 139.516 183.162 139.958 182.582C140.399 182.002 140.72 181.467 140.918 180.976C141.123 180.484 141.225 179.974 141.225 179.444C141.225 178.798 141.073 178.235 140.769 177.754C140.471 177.268 140.06 176.89 139.535 176.62C139.011 176.349 138.42 176.214 137.763 176.214C137.068 176.214 136.458 176.363 135.933 176.661C135.414 176.959 135.011 177.368 134.724 177.887C134.437 178.406 134.293 179.002 134.293 179.676H132.811C132.811 178.737 133.026 177.906 133.457 177.183C133.893 176.454 134.487 175.883 135.237 175.469C135.994 175.055 136.85 174.848 137.805 174.848C138.749 174.848 139.588 175.052 140.322 175.46C141.056 175.863 141.633 176.413 142.053 177.108C142.472 177.804 142.682 178.582 142.682 179.444C142.682 180.067 142.572 180.672 142.351 181.257C142.136 181.842 141.763 182.494 141.233 183.212C140.703 183.929 139.969 184.807 139.03 185.845L134.823 190.54V190.648H143.212V192.039H132.67ZM153.826 182.864V184.255H146.771V182.864H153.826ZM156.642 175.08L161.337 182.441H161.445L166.14 175.08H167.97L162.513 183.559L167.97 192.039H166.14L161.445 184.76H161.337L156.642 192.039H154.812L160.352 183.559L154.812 175.08H156.642ZM171.171 175.08L175.866 182.441H175.974L180.669 175.08H182.499L177.042 183.559L182.499 192.039H180.669L175.974 184.76H175.866L171.171 192.039H169.341L174.881 183.559L169.341 175.08H171.171ZM190.399 182.864V184.255H183.344V182.864H190.399ZM193.215 175.08L197.91 182.441H198.018L202.713 175.08H204.543L199.086 183.559L204.543 192.039H202.713L198.018 184.76H197.91L193.215 192.039H191.385L196.925 183.559L191.385 175.08H193.215ZM207.744 175.08L212.439 182.441H212.547L217.242 175.08H219.072L213.615 183.559L219.072 192.039H217.242L212.547 184.76H212.439L207.744 192.039H205.914L211.454 183.559L205.914 175.08H207.744Z" fill="#FB6B1A"/>
<path d="M39.4645 224.31C38.3824 224.31 37.4191 224.106 36.5744 223.697C35.7298 223.289 35.0673 222.731 34.587 222.024C34.1067 221.312 33.8665 220.509 33.8665 219.615C33.8665 218.914 34.0128 218.259 34.3054 217.652C34.598 217.039 35.001 216.526 35.5145 216.112C36.0279 215.692 36.6048 215.419 37.2452 215.292V215.201C36.4116 214.958 35.7408 214.48 35.2329 213.768C34.725 213.051 34.4738 212.236 34.4793 211.325C34.4738 210.481 34.6891 209.724 35.1252 209.056C35.5614 208.388 36.1549 207.861 36.9057 207.475C37.662 207.083 38.5149 206.887 39.4645 206.887C40.4085 206.887 41.256 207.083 42.0068 207.475C42.7576 207.861 43.3511 208.388 43.7872 209.056C44.2288 209.724 44.4524 210.481 44.4579 211.325C44.4524 212.231 44.1957 213.045 43.6878 213.768C43.1799 214.486 42.5119 214.963 41.6838 215.201V215.292C42.3242 215.413 42.8984 215.684 43.4063 216.104C43.9142 216.523 44.3172 217.039 44.6153 217.652C44.9134 218.259 45.0625 218.914 45.0625 219.615C45.0625 220.509 44.8196 221.312 44.3337 222.024C43.8534 222.731 43.191 223.289 42.3463 223.697C41.5071 224.106 40.5466 224.31 39.4645 224.31ZM39.4645 222.919C40.2705 222.919 40.9772 222.775 41.5844 222.488C42.1972 222.196 42.6748 221.795 43.0171 221.287C43.3649 220.78 43.5388 220.197 43.5388 219.54C43.5388 218.861 43.3593 218.257 43.0005 217.727C42.6416 217.191 42.1558 216.769 41.543 216.46C40.9302 216.145 40.2374 215.988 39.4645 215.988C38.6916 215.988 37.996 216.145 37.3777 216.46C36.7649 216.769 36.2791 217.191 35.9202 217.727C35.5669 218.257 35.3902 218.861 35.3902 219.54C35.3902 220.197 35.5586 220.78 35.8954 221.287C36.2377 221.795 36.7152 222.196 37.328 222.488C37.9463 222.775 38.6585 222.919 39.4645 222.919ZM39.4645 214.663C40.127 214.663 40.7205 214.522 41.2449 214.24C41.7694 213.959 42.1834 213.575 42.4871 213.089C42.7962 212.598 42.9536 212.04 42.9591 211.416C42.9536 210.798 42.799 210.252 42.4954 209.777C42.1917 209.297 41.7777 208.924 41.2532 208.659C40.7343 208.388 40.138 208.253 39.4645 208.253C38.791 208.253 38.1892 208.388 37.6592 208.659C37.1348 208.924 36.7207 209.297 36.4171 209.777C36.119 210.252 35.9727 210.798 35.9782 211.416C35.9727 212.04 36.1217 212.598 36.4254 213.089C36.7345 213.575 37.1513 213.959 37.6758 214.24C38.2058 214.522 38.802 214.663 39.4645 214.663ZM60.1608 206.887C60.8675 206.892 61.552 207.036 62.2145 207.317C62.8825 207.593 63.4843 208.041 64.0198 208.659C64.5553 209.272 64.9804 210.089 65.295 211.11C65.6097 212.126 65.7671 213.376 65.7671 214.861C65.7671 216.247 65.6456 217.517 65.4027 218.671C65.1598 219.824 64.7954 220.824 64.3096 221.668C63.8293 222.507 63.222 223.159 62.4878 223.623C61.7591 224.081 60.9061 224.31 59.929 224.31C59.018 224.31 58.2093 224.12 57.5026 223.739C56.8015 223.358 56.2329 222.83 55.7967 222.157C55.3606 221.478 55.0901 220.694 54.9852 219.805H56.5089C56.658 220.711 57.0223 221.456 57.602 222.041C58.1872 222.626 58.9628 222.919 59.929 222.919C61.3146 222.919 62.3912 222.273 63.1585 220.981C63.9259 219.689 64.3096 217.851 64.3096 215.466H64.202C63.937 215.963 63.5892 216.396 63.1585 216.766C62.7335 217.136 62.2476 217.426 61.7011 217.635C61.1545 217.84 60.5776 217.942 59.9704 217.942C59.0263 217.942 58.1623 217.705 57.3784 217.23C56.5945 216.749 55.9679 216.095 55.4986 215.267C55.0294 214.434 54.7947 213.484 54.7947 212.418C54.7947 211.414 55.0155 210.492 55.4572 209.653C55.9044 208.808 56.5282 208.134 57.3287 207.632C58.1347 207.124 59.0788 206.876 60.1608 206.887ZM60.1608 208.278C59.4266 208.278 58.7668 208.466 58.1817 208.841C57.602 209.211 57.141 209.711 56.7987 210.34C56.462 210.964 56.2936 211.657 56.2936 212.418C56.2936 213.186 56.462 213.884 56.7987 214.514C57.141 215.137 57.602 215.634 58.1817 216.004C58.7668 216.369 59.4266 216.551 60.1608 216.551C60.7239 216.551 61.2484 216.438 61.7342 216.211C62.22 215.979 62.6396 215.665 62.9929 215.267C63.3518 214.87 63.6223 214.42 63.8045 213.917C63.9922 213.409 64.0667 212.877 64.0281 212.319C63.9618 211.546 63.7548 210.856 63.407 210.249C63.0647 209.636 62.612 209.156 62.0489 208.808C61.4913 208.455 60.8619 208.278 60.1608 208.278ZM74.371 206.887C75.0777 206.892 75.7622 207.036 76.4247 207.317C77.0927 207.593 77.6945 208.041 78.23 208.659C78.7655 209.272 79.1906 210.089 79.5053 211.11C79.8199 212.126 79.9773 213.376 79.9773 214.861C79.9773 216.247 79.8558 217.517 79.6129 218.671C79.37 219.824 79.0056 220.824 78.5198 221.668C78.0395 222.507 77.4322 223.159 76.698 223.623C75.9693 224.081 75.1163 224.31 74.1392 224.31C73.2283 224.31 72.4195 224.12 71.7128 223.739C71.0117 223.358 70.4431 222.83 70.0069 222.157C69.5708 221.478 69.3003 220.694 69.1954 219.805H70.7191C70.8682 220.711 71.2325 221.456 71.8122 222.041C72.3974 222.626 73.173 222.919 74.1392 222.919C75.5249 222.919 76.6014 222.273 77.3688 220.981C78.1361 219.689 78.5198 217.851 78.5198 215.466H78.4122C78.1472 215.963 77.7994 216.396 77.3688 216.766C76.9437 217.136 76.4578 217.426 75.9113 217.635C75.3648 217.84 74.7878 217.942 74.1806 217.942C73.2365 217.942 72.3725 217.705 71.5886 217.23C70.8047 216.749 70.1781 216.095 69.7088 215.267C69.2396 214.434 69.0049 213.484 69.0049 212.418C69.0049 211.414 69.2258 210.492 69.6674 209.653C70.1146 208.808 70.7384 208.134 71.5389 207.632C72.3449 207.124 73.289 206.876 74.371 206.887ZM74.371 208.278C73.6368 208.278 72.9771 208.466 72.3919 208.841C71.8122 209.211 71.3512 209.711 71.0089 210.34C70.6722 210.964 70.5038 211.657 70.5038 212.418C70.5038 213.186 70.6722 213.884 71.0089 214.514C71.3512 215.137 71.8122 215.634 72.3919 216.004C72.9771 216.369 73.6368 216.551 74.371 216.551C74.9341 216.551 75.4586 216.438 75.9444 216.211C76.4302 215.979 76.8498 215.665 77.2031 215.267C77.562 214.87 77.8325 214.42 78.0147 213.917C78.2024 213.409 78.2769 212.877 78.2383 212.319C78.172 211.546 77.965 210.856 77.6172 210.249C77.2749 209.636 76.8222 209.156 76.2591 208.808C75.7015 208.455 75.0722 208.278 74.371 208.278ZM88.7469 224.31C87.5544 224.31 86.5358 223.968 85.6912 223.283C84.852 222.593 84.2061 221.597 83.7534 220.294C83.3062 218.991 83.0827 217.426 83.0827 215.598C83.0827 213.777 83.3062 212.217 83.7534 210.92C84.2061 209.617 84.8548 208.62 85.6995 207.93C86.5496 207.235 87.5654 206.887 88.7469 206.887C89.9283 206.887 90.9413 207.235 91.786 207.93C92.6362 208.62 93.2849 209.617 93.732 210.92C94.1847 212.217 94.4111 213.777 94.4111 215.598C94.4111 217.426 94.1847 218.991 93.732 220.294C93.2849 221.597 92.6389 222.593 91.7943 223.283C90.9551 223.968 89.9393 224.31 88.7469 224.31ZM88.7469 222.919C90.0553 222.919 91.0766 222.281 91.8108 221.006C92.5451 219.725 92.9122 217.923 92.9122 215.598C92.9122 214.053 92.7438 212.733 92.4071 211.64C92.0758 210.541 91.5983 209.702 90.9745 209.123C90.3561 208.543 89.6136 208.253 88.7469 208.253C87.4495 208.253 86.4309 208.899 85.6912 210.191C84.9514 211.477 84.5815 213.28 84.5815 215.598C84.5815 217.144 84.7471 218.464 85.0784 219.557C85.4151 220.65 85.8927 221.483 86.511 222.058C87.1348 222.632 87.8801 222.919 88.7469 222.919ZM109.681 224.31C108.98 224.304 108.296 224.164 107.628 223.888C106.96 223.606 106.358 223.156 105.822 222.538C105.287 221.914 104.862 221.091 104.547 220.07C104.232 219.049 104.075 217.793 104.075 216.302C104.075 214.922 104.196 213.658 104.439 212.51C104.682 211.361 105.047 210.368 105.532 209.528C106.018 208.689 106.626 208.041 107.354 207.582C108.083 207.119 108.936 206.887 109.913 206.887C110.83 206.887 111.638 207.077 112.339 207.458C113.041 207.834 113.609 208.358 114.045 209.032C114.481 209.705 114.755 210.481 114.865 211.358H113.341C113.187 210.464 112.82 209.727 112.24 209.147C111.66 208.568 110.885 208.278 109.913 208.278C108.522 208.278 107.445 208.924 106.684 210.216C105.922 211.502 105.538 213.329 105.532 215.698H105.64C105.911 215.195 106.258 214.762 106.684 214.398C107.114 214.028 107.603 213.741 108.149 213.536C108.696 213.327 109.27 213.222 109.872 213.222C110.816 213.222 111.68 213.462 112.464 213.942C113.248 214.417 113.874 215.071 114.343 215.905C114.813 216.733 115.047 217.68 115.047 218.745C115.047 219.755 114.824 220.686 114.377 221.536C113.935 222.386 113.311 223.062 112.505 223.565C111.705 224.067 110.763 224.316 109.681 224.31ZM109.681 222.919C110.421 222.919 111.081 222.731 111.66 222.356C112.246 221.98 112.707 221.478 113.043 220.849C113.38 220.214 113.548 219.513 113.548 218.745C113.548 217.978 113.38 217.282 113.043 216.658C112.707 216.035 112.246 215.538 111.66 215.168C111.081 214.798 110.421 214.613 109.681 214.613C109.118 214.613 108.594 214.729 108.108 214.961C107.622 215.187 107.2 215.499 106.841 215.896C106.488 216.288 106.217 216.738 106.029 217.246C105.847 217.754 105.778 218.287 105.822 218.845C105.883 219.623 106.085 220.321 106.427 220.94C106.775 221.552 107.227 222.035 107.785 222.389C108.348 222.742 108.98 222.919 109.681 222.919ZM118.144 220.434V219.176L125.705 207.119H126.632V209.23H125.945L119.875 218.936V219.043H129.788V220.434H118.144ZM126.061 224.078V220.037V219.457V207.119H127.535V224.078H126.061ZM138.654 224.31C137.611 224.31 136.678 224.122 135.855 223.747C135.033 223.366 134.381 222.839 133.901 222.165C133.421 221.492 133.167 220.716 133.139 219.838H134.704C134.732 220.457 134.922 220.998 135.276 221.461C135.629 221.92 136.098 222.278 136.684 222.538C137.269 222.792 137.92 222.919 138.638 222.919C139.422 222.919 140.112 222.772 140.708 222.48C141.31 222.187 141.779 221.787 142.116 221.279C142.458 220.766 142.629 220.186 142.629 219.54C142.629 218.856 142.455 218.251 142.108 217.727C141.76 217.202 141.26 216.794 140.609 216.501C139.963 216.208 139.19 216.062 138.29 216.062H137.296V214.671H138.29C139.024 214.671 139.673 214.538 140.236 214.273C140.805 214.003 141.252 213.625 141.578 213.139C141.903 212.653 142.066 212.082 142.066 211.425C142.066 210.801 141.925 210.252 141.644 209.777C141.362 209.302 140.965 208.929 140.451 208.659C139.944 208.388 139.35 208.253 138.671 208.253C138.014 208.253 137.412 208.38 136.866 208.634C136.319 208.888 135.878 209.247 135.541 209.711C135.21 210.174 135.033 210.724 135.011 211.358H133.512C133.534 210.475 133.777 209.7 134.241 209.032C134.71 208.358 135.331 207.834 136.104 207.458C136.882 207.077 137.744 206.887 138.688 206.887C139.687 206.887 140.551 207.091 141.28 207.5C142.008 207.908 142.571 208.452 142.969 209.131C143.372 209.804 143.573 210.547 143.573 211.358C143.573 212.325 143.311 213.153 142.787 213.843C142.262 214.527 141.556 215.002 140.667 215.267V215.375C141.749 215.59 142.599 216.07 143.217 216.816C143.841 217.555 144.153 218.464 144.153 219.54C144.153 220.446 143.916 221.26 143.441 221.983C142.966 222.701 142.315 223.269 141.487 223.689C140.664 224.103 139.72 224.31 138.654 224.31ZM154.736 214.903V216.294H147.681V214.903H154.736ZM157.552 207.119L162.247 214.48H162.355L167.05 207.119H168.88L163.423 215.598L168.88 224.078H167.05L162.355 216.799H162.247L157.552 224.078H155.722L161.262 215.598L155.722 207.119H157.552ZM172.081 207.119L176.776 214.48H176.884L181.579 207.119H183.409L177.952 215.598L183.409 224.078H181.579L176.884 216.799H176.776L172.081 224.078H170.251L175.791 215.598L170.251 207.119H172.081ZM191.309 214.903V216.294H184.254V214.903H191.309ZM194.125 207.119L198.82 214.48H198.928L203.623 207.119H205.453L199.996 215.598L205.453 224.078H203.623L198.928 216.799H198.82L194.125 224.078H192.295L197.835 215.598L192.295 207.119H194.125ZM208.654 207.119L213.349 214.48H213.457L218.152 207.119H219.982L214.525 215.598L219.982 224.078H218.152L213.457 216.799H213.349L208.654 224.078H206.824L212.364 215.598L206.824 207.119H208.654Z" fill="#FB6B1A"/>
<path d="M41.13 256.349C40.0479 256.349 39.0845 256.145 38.2399 255.736C37.3952 255.328 36.7327 254.77 36.2524 254.063C35.7721 253.351 35.532 252.548 35.532 251.654C35.532 250.953 35.6783 250.298 35.9709 249.691C36.2635 249.078 36.6665 248.565 37.1799 248.151C37.6933 247.731 38.2702 247.458 38.9106 247.331V247.24C38.077 246.997 37.4063 246.519 36.8984 245.807C36.3905 245.09 36.1393 244.275 36.1448 243.364C36.1393 242.52 36.3546 241.763 36.7907 241.095C37.2268 240.427 37.8203 239.9 38.5711 239.514C39.3275 239.122 40.1804 238.926 41.13 238.926C42.074 238.926 42.9214 239.122 43.6722 239.514C44.423 239.9 45.0165 240.427 45.4526 241.095C45.8943 241.763 46.1179 242.52 46.1234 243.364C46.1179 244.27 45.8612 245.084 45.3533 245.807C44.8454 246.525 44.1774 247.003 43.3493 247.24V247.331C43.9897 247.452 44.5638 247.723 45.0717 248.143C45.5796 248.562 45.9826 249.078 46.2807 249.691C46.5789 250.298 46.7279 250.953 46.7279 251.654C46.7279 252.548 46.485 253.351 45.9992 254.063C45.5189 254.77 44.8564 255.328 44.0117 255.736C43.1726 256.145 42.212 256.349 41.13 256.349ZM41.13 254.958C41.936 254.958 42.6426 254.814 43.2499 254.527C43.8627 254.235 44.3402 253.834 44.6825 253.326C45.0303 252.819 45.2042 252.236 45.2042 251.579C45.2042 250.9 45.0248 250.296 44.6659 249.766C44.3071 249.23 43.8213 248.808 43.2085 248.499C42.5957 248.184 41.9028 248.027 41.13 248.027C40.3571 248.027 39.6615 248.184 39.0431 248.499C38.4303 248.808 37.9445 249.23 37.5857 249.766C37.2324 250.296 37.0557 250.9 37.0557 251.579C37.0557 252.236 37.2241 252.819 37.5608 253.326C37.9031 253.834 38.3807 254.235 38.9935 254.527C39.6118 254.814 40.3239 254.958 41.13 254.958ZM41.13 246.702C41.7924 246.702 42.3859 246.561 42.9104 246.279C43.4348 245.998 43.8489 245.614 44.1525 245.128C44.4617 244.637 44.619 244.079 44.6245 243.456C44.619 242.837 44.4644 242.291 44.1608 241.816C43.8572 241.336 43.4431 240.963 42.9186 240.698C42.3997 240.427 41.8035 240.292 41.13 240.292C40.4564 240.292 39.8547 240.427 39.3247 240.698C38.8002 240.963 38.3862 241.336 38.0825 241.816C37.7844 242.291 37.6381 242.837 37.6436 243.456C37.6381 244.079 37.7872 244.637 38.0908 245.128C38.4 245.614 38.8168 245.998 39.3413 246.279C39.8712 246.561 40.4675 246.702 41.13 246.702ZM61.8263 238.926C62.5329 238.931 63.2175 239.075 63.88 239.356C64.548 239.632 65.1497 240.08 65.6852 240.698C66.2207 241.311 66.6458 242.128 66.9605 243.149C67.2752 244.165 67.4325 245.415 67.4325 246.9C67.4325 248.286 67.3111 249.556 67.0681 250.71C66.8252 251.864 66.4609 252.863 65.9751 253.707C65.4948 254.547 64.8875 255.198 64.1532 255.662C63.4245 256.12 62.5716 256.349 61.5944 256.349C60.6835 256.349 59.8747 256.159 59.1681 255.778C58.4669 255.397 57.8983 254.87 57.4622 254.196C57.026 253.517 56.7555 252.733 56.6506 251.844H58.1743C58.3234 252.75 58.6878 253.495 59.2674 254.08C59.8526 254.665 60.6283 254.958 61.5944 254.958C62.9801 254.958 64.0566 254.312 64.824 253.02C65.5914 251.728 65.9751 249.89 65.9751 247.505H65.8674C65.6024 248.002 65.2546 248.435 64.824 248.805C64.3989 249.175 63.9131 249.465 63.3665 249.675C62.82 249.879 62.2431 249.981 61.6358 249.981C60.6918 249.981 59.8278 249.744 59.0438 249.269C58.2599 248.788 57.6333 248.134 57.1641 247.306C56.6948 246.473 56.4602 245.523 56.4602 244.458C56.4602 243.453 56.681 242.531 57.1227 241.692C57.5698 240.847 58.1937 240.173 58.9942 239.671C59.8002 239.163 60.7442 238.915 61.8263 238.926ZM61.8263 240.317C61.092 240.317 60.4323 240.505 59.8471 240.88C59.2674 241.25 58.8065 241.75 58.4642 242.379C58.1274 243.003 57.959 243.696 57.959 244.458C57.959 245.225 58.1274 245.923 58.4642 246.553C58.8065 247.176 59.2674 247.673 59.8471 248.043C60.4323 248.408 61.092 248.59 61.8263 248.59C62.3894 248.59 62.9138 248.477 63.3997 248.25C63.8855 248.018 64.3051 247.704 64.6584 247.306C65.0172 246.909 65.2877 246.459 65.4699 245.956C65.6576 245.448 65.7321 244.916 65.6935 244.358C65.6273 243.585 65.4202 242.895 65.0724 242.288C64.7301 241.675 64.2774 241.195 63.7143 240.847C63.1568 240.494 62.5274 240.317 61.8263 240.317ZM76.2021 256.349C75.0096 256.349 73.9911 256.007 73.1464 255.322C72.3073 254.632 71.6613 253.636 71.2087 252.333C70.7615 251.03 70.5379 249.465 70.5379 247.637C70.5379 245.816 70.7615 244.256 71.2087 242.959C71.6613 241.656 72.31 240.659 73.1547 239.969C74.0049 239.274 75.0207 238.926 76.2021 238.926C77.3835 238.926 78.3966 239.274 79.2412 239.969C80.0914 240.659 80.7401 241.656 81.1873 242.959C81.64 244.256 81.8663 245.816 81.8663 247.637C81.8663 249.465 81.64 251.03 81.1873 252.333C80.7401 253.636 80.0942 254.632 79.2495 255.322C78.4104 256.007 77.3946 256.349 76.2021 256.349ZM76.2021 254.958C77.5105 254.958 78.5318 254.32 79.2661 253.045C80.0003 251.764 80.3675 249.962 80.3675 247.637C80.3675 246.092 80.1991 244.772 79.8623 243.679C79.5311 242.58 79.0535 241.741 78.4297 241.162C77.8114 240.582 77.0688 240.292 76.2021 240.292C74.9047 240.292 73.8862 240.938 73.1464 242.23C72.4066 243.516 72.0368 245.319 72.0368 247.637C72.0368 249.183 72.2024 250.503 72.5336 251.596C72.8704 252.689 73.3479 253.522 73.9662 254.097C74.5901 254.671 75.3354 254.958 76.2021 254.958ZM90.7436 256.349C89.7002 256.349 88.7672 256.161 87.9446 255.786C87.122 255.405 86.4706 254.878 85.9903 254.204C85.51 253.531 85.256 252.755 85.2284 251.877H86.7935C86.8211 252.496 87.0116 253.037 87.3649 253.5C87.7182 253.959 88.1875 254.317 88.7727 254.577C89.3579 254.831 90.0093 254.958 90.727 254.958C91.5109 254.958 92.201 254.812 92.7973 254.519C93.399 254.226 93.8683 253.826 94.205 253.318C94.5473 252.805 94.7184 252.225 94.7184 251.579C94.7184 250.895 94.5445 250.29 94.1967 249.766C93.8489 249.241 93.3493 248.833 92.6979 248.54C92.052 248.247 91.2791 248.101 90.3792 248.101H89.3855V246.71H90.3792C91.1134 246.71 91.7621 246.577 92.3252 246.312C92.8939 246.042 93.341 245.664 93.6668 245.178C93.9925 244.692 94.1553 244.121 94.1553 243.464C94.1553 242.84 94.0146 242.291 93.733 241.816C93.4515 241.341 93.054 240.968 92.5405 240.698C92.0326 240.427 91.4392 240.292 90.7601 240.292C90.1032 240.292 89.5014 240.419 88.9549 240.673C88.4083 240.927 87.9667 241.286 87.6299 241.75C87.2987 242.213 87.122 242.763 87.0999 243.398H85.6011C85.6231 242.514 85.866 241.739 86.3298 241.071C86.799 240.397 87.4201 239.873 88.193 239.497C88.9714 239.116 89.8326 238.926 90.7767 238.926C91.7759 238.926 92.6399 239.13 93.3686 239.539C94.0974 239.947 94.6605 240.491 95.058 241.17C95.461 241.843 95.6625 242.586 95.6625 243.398C95.6625 244.364 95.4002 245.192 94.8758 245.882C94.3513 246.566 93.6447 247.041 92.7558 247.306V247.414C93.8379 247.629 94.6881 248.109 95.3064 248.855C95.9302 249.595 96.2422 250.503 96.2422 251.579C96.2422 252.485 96.0048 253.299 95.53 254.022C95.0552 254.74 94.4038 255.308 93.5757 255.728C92.7531 256.142 91.8091 256.349 90.7436 256.349ZM111.968 256.349C110.924 256.349 109.991 256.161 109.169 255.786C108.346 255.405 107.695 254.878 107.214 254.204C106.734 253.531 106.48 252.755 106.453 251.877H108.018C108.045 252.496 108.236 253.037 108.589 253.5C108.942 253.959 109.412 254.317 109.997 254.577C110.582 254.831 111.234 254.958 111.951 254.958C112.735 254.958 113.425 254.812 114.021 254.519C114.623 254.226 115.092 253.826 115.429 253.318C115.772 252.805 115.943 252.225 115.943 251.579C115.943 250.895 115.769 250.29 115.421 249.766C115.073 249.241 114.574 248.833 113.922 248.54C113.276 248.247 112.503 248.101 111.603 248.101H110.61V246.71H111.603C112.338 246.71 112.986 246.577 113.549 246.312C114.118 246.042 114.565 245.664 114.891 245.178C115.217 244.692 115.38 244.121 115.38 243.464C115.38 242.84 115.239 242.291 114.957 241.816C114.676 241.341 114.278 240.968 113.765 240.698C113.257 240.427 112.663 240.292 111.984 240.292C111.327 240.292 110.726 240.419 110.179 240.673C109.633 240.927 109.191 241.286 108.854 241.75C108.523 242.213 108.346 242.763 108.324 243.398H106.825C106.847 242.514 107.09 241.739 107.554 241.071C108.023 240.397 108.644 239.873 109.417 239.497C110.196 239.116 111.057 238.926 112.001 238.926C113 238.926 113.864 239.13 114.593 239.539C115.322 239.947 115.885 240.491 116.282 241.17C116.685 241.843 116.887 242.586 116.887 243.398C116.887 244.364 116.624 245.192 116.1 245.882C115.576 246.566 114.869 247.041 113.98 247.306V247.414C115.062 247.629 115.912 248.109 116.531 248.855C117.154 249.595 117.466 250.503 117.466 251.579C117.466 252.485 117.229 253.299 116.754 254.022C116.279 254.74 115.628 255.308 114.8 255.728C113.977 256.142 113.033 256.349 111.968 256.349ZM126.393 256.349C125.201 256.349 124.182 256.007 123.338 255.322C122.498 254.632 121.853 253.636 121.4 252.333C120.953 251.03 120.729 249.465 120.729 247.637C120.729 245.816 120.953 244.256 121.4 242.959C121.853 241.656 122.501 240.659 123.346 239.969C124.196 239.274 125.212 238.926 126.393 238.926C127.575 238.926 128.588 239.274 129.432 239.969C130.283 240.659 130.931 241.656 131.378 242.959C131.831 244.256 132.058 245.816 132.058 247.637C132.058 249.465 131.831 251.03 131.378 252.333C130.931 253.636 130.285 254.632 129.441 255.322C128.602 256.007 127.586 256.349 126.393 256.349ZM126.393 254.958C127.702 254.958 128.723 254.32 129.457 253.045C130.192 251.764 130.559 249.962 130.559 247.637C130.559 246.092 130.39 244.772 130.054 243.679C129.722 242.58 129.245 241.741 128.621 241.162C128.003 240.582 127.26 240.292 126.393 240.292C125.096 240.292 124.077 240.938 123.338 242.23C122.598 243.516 122.228 245.319 122.228 247.637C122.228 249.183 122.394 250.503 122.725 251.596C123.062 252.689 123.539 253.522 124.157 254.097C124.781 254.671 125.527 254.958 126.393 254.958ZM140.661 239.158V256.117H139.113V240.781H139.014L135.039 243.422V241.816L139.047 239.158H140.661ZM152.735 246.942V248.333H145.68V246.942H152.735ZM155.551 239.158L160.246 246.519H160.354L165.049 239.158H166.879L161.422 247.637L166.879 256.117H165.049L160.354 248.838H160.246L155.551 256.117H153.721L159.261 247.637L153.721 239.158H155.551ZM170.08 239.158L174.775 246.519H174.883L179.578 239.158H181.408L175.951 247.637L181.408 256.117H179.578L174.883 248.838H174.775L170.08 256.117H168.25L173.79 247.637L168.25 239.158H170.08ZM189.308 246.942V248.333H182.253V246.942H189.308ZM192.124 239.158L196.819 246.519H196.927L201.622 239.158H203.452L197.995 247.637L203.452 256.117H201.622L196.927 248.838H196.819L192.124 256.117H190.294L195.834 247.637L190.294 239.158H192.124ZM206.653 239.158L211.348 246.519H211.456L216.151 239.158H217.981L212.524 247.637L217.981 256.117H216.151L211.456 248.838H211.348L206.653 256.117H204.823L210.363 247.637L204.823 239.158H206.653Z" fill="#FB6B1A"/>
<rect x="272" y="143" width="6" height="142" rx="3" fill="url(#paint2_linear_1149_60544)"/>
<path d="M39.2977 288.388C38.2157 288.388 37.2523 288.184 36.4076 287.775C35.563 287.367 34.9005 286.809 34.4202 286.103C33.9399 285.39 33.6997 284.587 33.6997 283.693C33.6997 282.992 33.846 282.337 34.1386 281.73C34.4312 281.117 34.8342 280.604 35.3477 280.19C35.8611 279.77 36.438 279.497 37.0784 279.37V279.279C36.2448 279.036 35.574 278.559 35.0661 277.846C34.5582 277.129 34.307 276.314 34.3125 275.403C34.307 274.559 34.5223 273.802 34.9585 273.134C35.3946 272.466 35.9881 271.939 36.7389 271.553C37.4952 271.161 38.3482 270.965 39.2977 270.965C40.2417 270.965 41.0892 271.161 41.84 271.553C42.5908 271.939 43.1843 272.466 43.6204 273.134C44.062 273.802 44.2856 274.559 44.2912 275.403C44.2856 276.309 44.0289 277.123 43.521 277.846C43.0131 278.564 42.3451 279.042 41.517 279.279V279.37C42.1574 279.492 42.7316 279.762 43.2395 280.182C43.7474 280.601 44.1504 281.117 44.4485 281.73C44.7466 282.337 44.8957 282.992 44.8957 283.693C44.8957 284.587 44.6528 285.39 44.1669 286.103C43.6866 286.809 43.0242 287.367 42.1795 287.775C41.3404 288.184 40.3798 288.388 39.2977 288.388ZM39.2977 286.997C40.1037 286.997 40.8104 286.853 41.4176 286.566C42.0304 286.274 42.508 285.873 42.8503 285.366C43.1981 284.858 43.372 284.275 43.372 283.618C43.372 282.939 43.1925 282.335 42.8337 281.805C42.4749 281.269 41.989 280.847 41.3762 280.538C40.7634 280.223 40.0706 280.066 39.2977 280.066C38.5248 280.066 37.8292 280.223 37.2109 280.538C36.5981 280.847 36.1123 281.269 35.7534 281.805C35.4001 282.335 35.2234 282.939 35.2234 283.618C35.2234 284.275 35.3918 284.858 35.7286 285.366C36.0709 285.873 36.5484 286.274 37.1612 286.566C37.7795 286.853 38.4917 286.997 39.2977 286.997ZM39.2977 278.741C39.9602 278.741 40.5537 278.6 41.0781 278.318C41.6026 278.037 42.0166 277.653 42.3203 277.167C42.6294 276.676 42.7868 276.118 42.7923 275.495C42.7868 274.876 42.6322 274.33 42.3286 273.855C42.0249 273.375 41.6109 273.002 41.0864 272.737C40.5675 272.466 39.9712 272.331 39.2977 272.331C38.6242 272.331 38.0224 272.466 37.4924 272.737C36.968 273.002 36.5539 273.375 36.2503 273.855C35.9522 274.33 35.8059 274.876 35.8114 275.495C35.8059 276.118 35.9549 276.676 36.2586 277.167C36.5677 277.653 36.9845 278.037 37.509 278.318C38.039 278.6 38.6352 278.741 39.2977 278.741ZM59.994 270.965C60.7007 270.97 61.3852 271.114 62.0477 271.395C62.7157 271.672 63.3175 272.119 63.853 272.737C64.3885 273.35 64.8136 274.167 65.1283 275.188C65.4429 276.204 65.6003 277.454 65.6003 278.939C65.6003 280.325 65.4788 281.595 65.2359 282.749C64.993 283.903 64.6286 284.902 64.1428 285.746C63.6625 286.586 63.0552 287.237 62.321 287.701C61.5923 288.159 60.7393 288.388 59.7622 288.388C58.8512 288.388 58.0425 288.198 57.3358 287.817C56.6347 287.436 56.0661 286.909 55.6299 286.235C55.1938 285.556 54.9233 284.772 54.8184 283.883H56.3421C56.4912 284.789 56.8555 285.534 57.4352 286.119C58.0204 286.704 58.796 286.997 59.7622 286.997C61.1478 286.997 62.2244 286.351 62.9918 285.059C63.7591 283.767 64.1428 281.929 64.1428 279.544H64.0352C63.7702 280.041 63.4224 280.474 62.9918 280.844C62.5667 281.214 62.0808 281.504 61.5343 281.714C60.9877 281.918 60.4108 282.02 59.8036 282.02C58.8595 282.02 57.9955 281.783 57.2116 281.308C56.4277 280.828 55.8011 280.173 55.3318 279.345C54.8626 278.512 54.6279 277.562 54.6279 276.497C54.6279 275.492 54.8488 274.57 55.2904 273.731C55.7376 272.886 56.3614 272.213 57.1619 271.71C57.9679 271.202 58.912 270.954 59.994 270.965ZM59.994 272.356C59.2598 272.356 58.6001 272.544 58.0149 272.919C57.4352 273.289 56.9742 273.789 56.6319 274.418C56.2952 275.042 56.1268 275.735 56.1268 276.497C56.1268 277.264 56.2952 277.962 56.6319 278.592C56.9742 279.216 57.4352 279.712 58.0149 280.082C58.6001 280.447 59.2598 280.629 59.994 280.629C60.5571 280.629 61.0816 280.516 61.5674 280.289C62.0532 280.057 62.4728 279.743 62.8261 279.345C63.185 278.948 63.4555 278.498 63.6377 277.995C63.8254 277.488 63.8999 276.955 63.8613 276.397C63.795 275.624 63.588 274.934 63.2402 274.327C62.8979 273.714 62.4452 273.234 61.8821 272.886C61.3245 272.533 60.6951 272.356 59.994 272.356ZM74.3699 288.388C73.1774 288.388 72.1588 288.046 71.3142 287.361C70.475 286.671 69.8291 285.675 69.3764 284.372C68.9292 283.069 68.7056 281.504 68.7056 279.676C68.7056 277.855 68.9292 276.295 69.3764 274.998C69.8291 273.695 70.4778 272.698 71.3224 272.008C72.1726 271.313 73.1884 270.965 74.3699 270.965C75.5513 270.965 76.5643 271.313 77.409 272.008C78.2592 272.698 78.9079 273.695 79.355 274.998C79.8077 276.295 80.0341 277.855 80.0341 279.676C80.0341 281.504 79.8077 283.069 79.355 284.372C78.9079 285.675 78.2619 286.671 77.4173 287.361C76.5781 288.046 75.5623 288.388 74.3699 288.388ZM74.3699 286.997C75.6783 286.997 76.6996 286.359 77.4338 285.084C78.1681 283.803 78.5352 282.001 78.5352 279.676C78.5352 278.131 78.3668 276.811 78.0301 275.718C77.6988 274.62 77.2213 273.78 76.5975 273.201C75.9791 272.621 75.2366 272.331 74.3699 272.331C73.0725 272.331 72.0539 272.977 71.3142 274.269C70.5744 275.555 70.2045 277.358 70.2045 279.676C70.2045 281.222 70.3701 282.542 70.7014 283.635C71.0381 284.728 71.5157 285.562 72.134 286.136C72.7578 286.71 73.5031 286.997 74.3699 286.997ZM88.9113 288.388C87.8679 288.388 86.9349 288.2 86.1123 287.825C85.2898 287.444 84.6383 286.917 84.158 286.243C83.6777 285.57 83.4238 284.794 83.3962 283.916H84.9613C84.9889 284.535 85.1793 285.076 85.5327 285.539C85.886 285.998 86.3552 286.357 86.9404 286.616C87.5256 286.87 88.1771 286.997 88.8948 286.997C89.6787 286.997 90.3688 286.851 90.965 286.558C91.5668 286.265 92.036 285.865 92.3728 285.357C92.7151 284.844 92.8862 284.264 92.8862 283.618C92.8862 282.934 92.7123 282.329 92.3645 281.805C92.0167 281.28 91.5171 280.872 90.8656 280.579C90.2197 280.287 89.4468 280.14 88.547 280.14H87.5532V278.749H88.547C89.2812 278.749 89.9299 278.617 90.493 278.352C91.0616 278.081 91.5088 277.703 91.8345 277.217C92.1602 276.731 92.3231 276.16 92.3231 275.503C92.3231 274.879 92.1823 274.33 91.9008 273.855C91.6192 273.38 91.2217 273.008 90.7083 272.737C90.2004 272.466 89.6069 272.331 88.9279 272.331C88.2709 272.331 87.6692 272.458 87.1226 272.712C86.5761 272.966 86.1344 273.325 85.7977 273.789C85.4664 274.252 85.2898 274.802 85.2677 275.437H83.7688C83.7909 274.553 84.0338 273.778 84.4975 273.11C84.9668 272.436 85.5879 271.912 86.3608 271.536C87.1392 271.155 88.0004 270.965 88.9444 270.965C89.9437 270.965 90.8077 271.169 91.5364 271.578C92.2651 271.986 92.8282 272.53 93.2257 273.209C93.6287 273.883 93.8302 274.625 93.8302 275.437C93.8302 276.403 93.568 277.231 93.0435 277.921C92.5191 278.605 91.8124 279.08 90.9236 279.345V279.453C92.0057 279.668 92.8558 280.149 93.4742 280.894C94.098 281.634 94.4099 282.542 94.4099 283.618C94.4099 284.524 94.1725 285.338 93.6977 286.061C93.223 286.779 92.5715 287.347 91.7434 287.767C90.9208 288.181 89.9768 288.388 88.9113 288.388ZM110.136 288.388C109.092 288.388 108.159 288.2 107.337 287.825C106.514 287.444 105.863 286.917 105.382 286.243C104.902 285.57 104.648 284.794 104.62 283.916H106.186C106.213 284.535 106.404 285.076 106.757 285.539C107.11 285.998 107.579 286.357 108.165 286.616C108.75 286.87 109.401 286.997 110.119 286.997C110.903 286.997 111.593 286.851 112.189 286.558C112.791 286.265 113.26 285.865 113.597 285.357C113.939 284.844 114.11 284.264 114.11 283.618C114.11 282.934 113.937 282.329 113.589 281.805C113.241 281.28 112.741 280.872 112.09 280.579C111.444 280.287 110.671 280.14 109.771 280.14H108.777V278.749H109.771C110.505 278.749 111.154 278.617 111.717 278.352C112.286 278.081 112.733 277.703 113.059 277.217C113.384 276.731 113.547 276.16 113.547 275.503C113.547 274.879 113.407 274.33 113.125 273.855C112.843 273.38 112.446 273.008 111.933 272.737C111.425 272.466 110.831 272.331 110.152 272.331C109.495 272.331 108.893 272.458 108.347 272.712C107.8 272.966 107.359 273.325 107.022 273.789C106.691 274.252 106.514 274.802 106.492 275.437H104.993C105.015 274.553 105.258 273.778 105.722 273.11C106.191 272.436 106.812 271.912 107.585 271.536C108.363 271.155 109.225 270.965 110.169 270.965C111.168 270.965 112.032 271.169 112.761 271.578C113.489 271.986 114.052 272.53 114.45 273.209C114.853 273.883 115.054 274.625 115.054 275.437C115.054 276.403 114.792 277.231 114.268 277.921C113.743 278.605 113.037 279.08 112.148 279.345V279.453C113.23 279.668 114.08 280.149 114.698 280.894C115.322 281.634 115.634 282.542 115.634 283.618C115.634 284.524 115.397 285.338 114.922 286.061C114.447 286.779 113.796 287.347 112.968 287.767C112.145 288.181 111.201 288.388 110.136 288.388ZM124.561 288.388C123.369 288.388 122.35 288.046 121.505 287.361C120.666 286.671 120.02 285.675 119.568 284.372C119.12 283.069 118.897 281.504 118.897 279.676C118.897 277.855 119.12 276.295 119.568 274.998C120.02 273.695 120.669 272.698 121.514 272.008C122.364 271.313 123.38 270.965 124.561 270.965C125.742 270.965 126.756 271.313 127.6 272.008C128.45 272.698 129.099 273.695 129.546 274.998C129.999 276.295 130.225 277.855 130.225 279.676C130.225 281.504 129.999 283.069 129.546 284.372C129.099 285.675 128.453 286.671 127.608 287.361C126.769 288.046 125.754 288.388 124.561 288.388ZM124.561 286.997C125.869 286.997 126.891 286.359 127.625 285.084C128.359 283.803 128.726 282.001 128.726 279.676C128.726 278.131 128.558 276.811 128.221 275.718C127.89 274.62 127.413 273.78 126.789 273.201C126.17 272.621 125.428 272.331 124.561 272.331C123.264 272.331 122.245 272.977 121.505 274.269C120.766 275.555 120.396 277.358 120.396 279.676C120.396 281.222 120.561 282.542 120.893 283.635C121.229 284.728 121.707 285.562 122.325 286.136C122.949 286.71 123.694 286.997 124.561 286.997ZM138.829 271.197V288.156H137.281V272.82H137.181L133.206 275.461V273.855L137.214 271.197H138.829ZM150.903 278.981V280.372H143.848V278.981H150.903ZM153.719 271.197L158.414 278.559H158.521L163.217 271.197H165.047L159.59 279.676L165.047 288.156H163.217L158.521 280.877H158.414L153.719 288.156H151.888L157.428 279.676L151.888 271.197H153.719ZM168.248 271.197L172.943 278.559H173.051L177.746 271.197H179.576L174.119 279.676L179.576 288.156H177.746L173.051 280.877H172.943L168.248 288.156H166.417L171.957 279.676L166.417 271.197H168.248ZM187.476 278.981V280.372H180.421V278.981H187.476ZM190.292 271.197L194.987 278.559H195.095L199.79 271.197H201.62L196.163 279.676L201.62 288.156H199.79L195.095 280.877H194.987L190.292 288.156H188.461L194.001 279.676L188.461 271.197H190.292ZM204.821 271.197L209.516 278.559H209.624L214.319 271.197H216.149L210.692 279.676L216.149 288.156H214.319L209.624 280.877H209.516L204.821 288.156H202.991L208.531 279.676L202.991 271.197H204.821Z" fill="#FB6B1A"/>
<rect x="11" y="279" width="283" height="14" fill="white"/>
<path d="M106.072 1H199.274C202.628 1 205.346 3.71855 205.346 7.07204V9.26455V65.928C205.346 69.2815 202.628 72 199.274 72H106.072C102.719 72 100 69.2815 100 65.928V9.26455V7.07204C100 3.71854 102.719 1 106.072 1Z" fill="white"/>
<path d="M100 9.26455V65.928C100 69.2815 102.719 72 106.072 72H199.274C202.628 72 205.346 69.2815 205.346 65.928V9.26455M100 9.26455V7.07204C100 3.71854 102.719 1 106.072 1H199.274C202.628 1 205.346 3.71855 205.346 7.07204V9.26455M100 9.26455L149.632 35.5631C151.404 36.502 153.525 36.5055 155.3 35.5724L205.346 9.26455" stroke="#FB7022" stroke-width="2"/>
<circle cx="102.509" cy="391.081" r="25.5088" fill="#FF8E4E"/>
<circle cx="150.933" cy="426.534" r="25.5088" fill="#FF8E4E"/>
<circle cx="198.491" cy="387.622" r="25.5088" fill="#FF8E4E"/>
<path d="M201.728 390.188L186.749 389.141L186.928 386.568L201.908 387.615C203.419 387.721 204.715 387.524 205.797 387.025C206.878 386.526 207.724 385.796 208.335 384.833C208.947 383.86 209.299 382.725 209.389 381.428C209.48 380.131 209.29 378.964 208.818 377.925C208.348 376.877 207.612 376.03 206.61 375.385C205.61 374.73 204.354 374.35 202.843 374.244L195.338 373.72L193.324 402.514L190.46 402.314L192.653 370.946L203.022 371.671C205.167 371.821 206.935 372.361 208.327 373.289C209.729 374.218 210.754 375.408 211.402 376.859C212.06 378.311 212.328 379.9 212.207 381.625C212.087 383.351 211.6 384.887 210.746 386.233C209.903 387.579 208.722 388.615 207.205 389.34C205.697 390.056 203.872 390.338 201.728 390.188ZM201.404 393.059L201.224 395.632L186.367 394.594L186.547 392.02L201.404 393.059Z" fill="white"/>
<path d="M153.304 429.965L138.325 428.917L138.505 426.344L153.484 427.392C154.995 427.497 156.291 427.301 157.373 426.802C158.454 426.303 159.3 425.572 159.912 424.609C160.523 423.636 160.875 422.501 160.965 421.204C161.056 419.908 160.866 418.74 160.395 417.702C159.924 416.653 159.188 415.806 158.187 415.162C157.186 414.507 155.93 414.127 154.419 414.021L146.914 413.496L144.9 442.29L142.036 442.09L144.23 410.723L154.599 411.448C156.743 411.598 158.511 412.137 159.903 413.065C161.305 413.995 162.33 415.185 162.978 416.636C163.636 418.087 163.904 419.676 163.784 421.402C163.663 423.127 163.176 424.663 162.322 426.009C161.479 427.356 160.299 428.392 158.781 429.117C157.274 429.832 155.448 430.115 153.304 429.965ZM152.98 432.836L152.8 435.409L137.943 434.37L138.123 431.797L152.98 432.836Z" fill="white"/>
<path d="M105.745 394.512L90.7661 393.465L90.946 390.892L105.925 391.939C107.436 392.045 108.733 391.848 109.814 391.349C110.896 390.85 111.742 390.119 112.353 389.156C112.965 388.183 113.316 387.049 113.407 385.752C113.497 384.455 113.307 383.287 112.836 382.249C112.366 381.2 111.63 380.354 110.628 379.709C109.627 379.054 108.371 378.674 106.86 378.568L99.3552 378.043L97.3418 406.838L94.4777 406.637L96.6711 375.27L107.04 375.995C109.184 376.145 110.952 376.684 112.345 377.613C113.747 378.542 114.772 379.732 115.419 381.183C116.077 382.635 116.346 384.223 116.225 385.949C116.104 387.675 115.617 389.21 114.764 390.556C113.921 391.903 112.74 392.939 111.222 393.664C109.715 394.379 107.889 394.662 105.745 394.512ZM105.421 397.383L105.241 399.956L90.3848 398.917L90.5647 396.344L105.421 397.383Z" fill="white"/>
<rect x="272" y="143" width="6" height="49" rx="3" fill="url(#paint3_linear_1149_60544)"/>
<path d="M154 72C154 71.4477 153.552 71 153 71C152.448 71 152 71.4477 152 72L154 72ZM152.293 101.707C152.683 102.098 153.317 102.098 153.707 101.707L160.071 95.3431C160.462 94.9526 160.462 94.3195 160.071 93.9289C159.681 93.5384 159.047 93.5384 158.657 93.9289L153 99.5858L147.343 93.9289C146.953 93.5384 146.319 93.5384 145.929 93.9289C145.538 94.3195 145.538 94.9526 145.929 95.3431L152.293 101.707ZM152 72L152 101L154 101L154 72L152 72Z" fill="#FB6B1A"/>
<circle cx="153" cy="72" r="7" fill="white" stroke="#FB6B1A" stroke-width="2"/>
<defs>
<linearGradient id="paint0_linear_1149_60544" x1="151" y1="-112" x2="151" y2="472" gradientUnits="userSpaceOnUse">
<stop stop-color="#FFF8F5" stop-opacity="0"/>
<stop offset="1" stop-color="#FFF1EC"/>
</linearGradient>
<linearGradient id="paint1_linear_1149_60544" x1="153" y1="123" x2="153" y2="279" gradientUnits="userSpaceOnUse">
<stop stop-color="#FFF5F1" stop-opacity="0"/>
<stop offset="1" stop-color="#FFF5F1"/>
</linearGradient>
<linearGradient id="paint2_linear_1149_60544" x1="275" y1="143" x2="275" y2="285" gradientUnits="userSpaceOnUse">
<stop stop-color="#FFDCCF"/>
<stop offset="1" stop-color="#FFDCCF" stop-opacity="0.13"/>
</linearGradient>
<linearGradient id="paint3_linear_1149_60544" x1="275" y1="143" x2="275" y2="192" gradientUnits="userSpaceOnUse">
<stop stop-color="#FFDCCF" stop-opacity="0"/>
<stop offset="1" stop-color="#FFD3C4"/>
</linearGradient>
</defs>
</svg>
