<svg width="188" height="34" viewBox="0 0 188 34" fill="none" xmlns="http://www.w3.org/2000/svg">
<path d="M18.73 0.432739V17.6182C18.73 18.4218 18.1118 18.9782 17.37 18.9782H15.33C15.2063 18.9782 15.1445 19.1018 15.1445 19.1636V33.5673C15.6391 33.5673 16.1336 33.6909 16.69 33.6909C25.9009 33.6909 33.3809 26.2109 33.3809 17C33.3809 8.53092 27.0136 1.42183 18.73 0.432739ZM18.3591 26.1491C17.1845 26.1491 16.3191 25.16 16.3191 24.1091C16.3191 22.9346 17.3082 22.0691 18.3591 22.0691C19.5336 22.0691 20.3991 23.0582 20.3991 24.1091C20.5227 25.2218 19.5336 26.1491 18.3591 26.1491ZM23.2427 26.1491C22.0682 26.1491 21.2027 25.16 21.2027 24.1091C21.2027 22.9346 22.1918 22.0691 23.2427 22.0691C24.4173 22.0691 25.2827 23.0582 25.2827 24.1091C25.2827 25.16 24.4791 26.1491 23.2427 26.1491ZM28.1882 26.1491C27.0136 26.1491 26.1482 25.16 26.1482 24.1091C26.1482 22.9346 27.1373 22.0691 28.1882 22.0691C29.3627 22.0691 30.2282 23.0582 30.2282 24.1091C30.2282 25.16 29.3627 26.1491 28.1882 26.1491Z" fill="#00B956"/>
<path d="M16.6909 0.37085C7.48 0.37085 0 7.85085 0 17.0618C0 25.1599 5.62545 31.7745 13.1673 33.3199V18.2981C13.1673 17.6181 13.7855 17.0618 14.4036 16.9381H15.0836H16.4436C16.5673 16.9381 16.6291 16.8145 16.6291 16.7527L16.6909 0.37085ZM13.4764 14.0945C12.3018 14.0945 11.4364 13.1054 11.4364 12.0545C11.4364 10.8799 12.4255 10.0145 13.4764 10.0145C14.6509 10.0145 15.5164 11.0036 15.5164 12.0545C15.5164 13.1054 14.5891 14.0945 13.4764 14.0945Z" fill="#00B956"/>
<path d="M183.782 9.45819V15.7636H175.375V9.45819H171.109V26.1491H175.375V19.4109H183.782V26.1491H187.924V9.45819H183.782Z" fill="#00B956"/>
<path d="M114.3 11.3745C113.62 9.89086 112.26 9.08722 110.9 9.08722C109.54 9.08722 108.118 9.89086 107.5 11.3745L100.762 26.2109H105.213L106.696 22.6872H115.351L116.834 26.2109H121.285L114.3 11.3745ZM107.871 19.349L110.405 13.229C110.529 13.0436 110.591 13.0436 110.714 13.0436C110.838 13.0436 111.024 13.0436 111.024 13.229L113.558 19.349H107.871Z" fill="#00B956"/>
<path d="M64.598 6.4909C62.6198 6.4909 61.3835 7.5418 60.4562 9.64362L55.078 22.1927L49.638 9.5818C48.7726 7.5418 47.4744 6.42908 45.4962 6.42908C43.6417 6.42908 41.7871 7.66544 41.7871 10.5709V26.0873H45.9289V11.1273L51.4307 23.5527C52.1107 25.3454 53.4089 26.3963 55.078 26.3963C56.8707 26.3963 58.0453 25.3454 58.7253 23.5527L64.2271 11.1273V26.2727H68.3689V10.7564C68.3071 7.8509 66.4526 6.4909 64.598 6.4909Z" fill="#00B956"/>
<path d="M75.6631 22.6254C75.4777 22.6254 75.2304 22.44 75.2304 22.1927V19.2254H85.6158V15.8254H75.2304V13.2909C75.2304 13.1054 75.4158 12.8582 75.6631 12.8582H85.9868V9.33453H73.6231C72.1395 9.33453 71.1504 10.5091 71.1504 11.8073V23.4909C71.1504 24.7273 72.2013 25.9636 73.6231 25.9636H85.9868V22.44H75.6631V22.6254Z" fill="#00B956"/>
<path d="M92.9706 26.1491V13.4146C92.9706 13.2291 93.1561 12.9818 93.4033 12.9818H103.727V9.45819H91.3634C89.8797 9.45819 88.8906 10.6327 88.8906 11.9309V26.0873L92.9706 26.1491Z" fill="#00B956"/>
<path d="M168.392 17.8654C168.392 12.0545 165.858 9.33453 159.552 9.33453H158.069C151.763 9.33453 149.229 12.1164 149.229 17.8654C149.229 23.5527 151.763 26.3964 158.069 26.3964H159.429C165.858 26.2727 168.392 23.5527 168.392 17.8654ZM159.429 22.8727H158.069C154.669 22.8727 153.247 21.3273 153.247 17.8654C153.247 14.5273 154.421 12.8582 158.069 12.8582H159.429C162.952 12.8582 164.25 14.5273 164.25 17.8654C164.25 21.2654 162.952 22.8727 159.429 22.8727Z" fill="#00B956"/>
<path d="M137.667 6.86182H129.383C123.201 6.86182 120.729 10.0145 120.729 15.3927C120.729 16.2582 120.852 17.0618 120.914 17.7418C121.594 21.5745 123.881 23.9236 129.63 23.9236H131.485V26.0873H135.627V23.9236H137.419C143.23 23.9236 145.518 21.5745 146.136 17.7418C146.259 17.0618 146.321 16.2582 146.321 15.3927C146.259 10.0145 143.725 6.86182 137.667 6.86182ZM131.361 20.4618H129.507C126.663 20.4618 125.674 19.4109 125.056 17.68C124.87 17.0618 124.87 16.1964 124.87 15.3309C124.87 11.8073 126.539 10.3236 128.889 10.3236H131.423V20.4618H131.361ZM141.994 17.8655C141.376 19.5345 140.325 20.6473 137.543 20.6473H135.689V10.4473H138.223C140.572 10.4473 142.241 11.9309 142.241 15.4545C142.179 16.3818 142.179 17.1236 141.994 17.8655Z" fill="#00B956"/>
</svg>
