<svg width="550" height="550" viewBox="0 0 550 550" fill="none" xmlns="http://www.w3.org/2000/svg">
<path d="M0 550H550V6.10352e-05H0V550Z" fill="white"/>
<circle opacity="0.5" cx="275.5" cy="275.5" r="261.5" fill="url(#paint0_linear_1091_8927)" stroke="url(#paint1_linear_1091_8927)" stroke-width="4"/>
<circle cx="275.5" cy="275.5" r="219.5" fill="white"/>
<path d="M408.398 432.978L387.986 446.176C386.523 447.122 384.122 447.171 382.622 446.286L264.431 376.541C262.931 375.655 262.901 374.172 264.364 373.226L284.776 360.028C286.239 359.083 288.64 359.034 290.139 359.919L408.331 429.664C409.831 430.549 409.86 432.033 408.398 432.978Z" fill="#E6EDF5"/>
<path d="M273.052 90.1213L272.363 332.983C272.321 348.078 282.975 366.524 296.105 374.104L379.152 422.052C392.281 429.632 402.999 423.524 403.042 408.43L403.729 165.57C403.773 150.474 393.125 132.031 379.995 124.451L296.948 76.5039C293.119 74.2932 289.497 73.246 286.282 73.2465C278.474 73.2465 273.082 79.4285 273.052 90.1213Z" fill="url(#paint2_linear_1091_8927)"/>
<path d="M397.696 405.346L398.385 162.485C398.418 150.777 390.155 136.473 379.974 130.597L296.927 82.648C286.738 76.7663 278.429 81.5019 278.396 93.2089L277.707 336.069C277.675 347.776 285.931 362.077 296.118 367.959L379.165 415.907C389.346 421.784 397.663 417.051 397.696 405.346Z" fill="black"/>
<path d="M380.189 136.407C387.661 140.721 393.704 151.18 393.679 159.766L392.991 402.627C392.967 411.212 386.883 414.68 379.411 410.365L296.372 362.422C288.893 358.103 282.856 347.641 282.881 339.053L283.568 96.1933C283.593 87.607 289.669 84.1445 297.148 88.4628L308.814 95.1981L310.075 102.169C310.582 105.009 312.558 107.954 314.832 109.267L362.437 136.751C364.719 138.069 366.696 137.407 367.226 135.165L368.523 129.672L380.189 136.407Z" fill="#2C251D"/>
<path d="M292.341 67.8332L280.201 74.7459C280.245 74.7244 280.298 74.7038 280.342 74.6821C280.536 74.5652 280.729 74.4684 280.934 74.3804C281.235 74.2407 281.537 74.112 281.849 74.0045C282.162 73.8752 282.485 73.7782 282.818 73.6924C283.033 73.6286 283.259 73.5736 283.475 73.5406C283.691 73.4765 283.905 73.4435 284.131 73.4127C284.142 73.4127 284.153 73.402 284.175 73.4127C285.607 73.1864 287.145 73.1864 288.761 73.4435C288.966 73.4765 289.169 73.5098 289.375 73.5532C289.784 73.6286 290.193 73.7251 290.614 73.8315C290.818 73.886 291.033 73.9407 291.238 74.0045C293.067 74.5429 294.984 75.3712 296.943 76.5018L379.319 124.07C379.546 124.197 379.772 124.329 379.999 124.457C393.122 132.037 403.772 150.48 403.728 165.575L403.039 408.429C403.039 408.794 403.028 409.151 403.017 409.494C403.006 409.688 403.006 409.871 402.985 410.044C402.975 410.335 402.953 410.603 402.931 410.883C402.887 411.336 402.845 411.787 402.781 412.218C402.748 412.456 402.716 412.681 402.673 412.907C402.63 413.187 402.586 413.446 402.522 413.704C402.372 414.469 402.178 415.2 401.952 415.9C401.866 416.181 401.769 416.45 401.672 416.718C401.628 416.837 401.575 416.956 401.532 417.075C401.327 417.591 401.09 418.098 400.843 418.571C400.766 418.721 400.691 418.862 400.606 419.002C400.293 419.572 399.939 420.11 399.551 420.606C399.366 420.841 399.184 421.068 399.002 421.284C398.625 421.715 398.215 422.113 397.795 422.468C397.688 422.565 397.569 422.662 397.45 422.759C397.063 423.071 396.665 423.352 396.245 423.587C396.191 423.632 396.136 423.663 396.084 423.696L408.417 416.674C412.692 414.188 415.35 408.912 415.372 401.407L416.061 158.543C416.105 143.449 405.457 125.005 392.332 117.425L309.277 69.4813C305.451 67.2719 301.825 66.2242 298.608 66.2245C296.276 66.2245 294.16 66.7753 292.341 67.8332Z" fill="url(#paint3_linear_1091_8927)"/>
<path d="M413.916 192.825L413.756 248.643C413.747 249.542 413.028 250.261 412.129 250.261H411.08C411.98 250.261 412.699 249.542 412.708 248.643L412.858 192.825C412.867 191.927 412.139 191.198 411.241 191.198H412.29C413.188 191.198 413.916 191.927 413.916 192.825Z" fill="#A7B6CC"/>
<path d="M408.68 191.198C407.786 191.198 407.063 191.921 407.06 192.812L406.902 248.636C406.899 249.533 407.626 250.261 408.52 250.261H411.088C411.98 250.261 412.705 249.539 412.706 248.646L412.866 192.822C412.869 191.926 412.142 191.198 411.246 191.198H408.68Z" fill="url(#paint4_linear_1091_8927)"/>
<path d="M407.854 248.636L408.013 192.812C408.015 191.921 408.739 191.197 409.631 191.197H408.68C407.786 191.197 407.064 191.921 407.06 192.812L406.902 248.636C406.899 249.533 407.626 250.261 408.52 250.261H409.473C408.577 250.261 407.852 249.533 407.854 248.636Z" fill="white"/>
<path d="M399.447 197.557L399.439 197.552C399.439 197.555 399.444 197.555 399.447 197.558" fill="url(#paint5_radial_1091_8927)"/>
<path d="M373.725 182.602V182.612C364.089 177.241 350.845 178.135 336.223 186.577L288.211 214.296L312.268 228.248L360.301 200.516C374.465 192.339 387.338 191.244 396.888 196.066L373.725 182.602Z" fill="#EC8F3D"/>
<path d="M263.127 228.776V266.557L287.204 252.655V242.716L312.264 228.247L288.207 214.295L263.127 228.776Z" fill="url(#paint6_radial_1091_8927)"/>
<path d="M263.127 228.776L287.204 242.717L312.264 228.248L288.207 214.296L263.127 228.776Z" fill="url(#paint7_linear_1091_8927)"/>
<path d="M287.217 242.717L312.276 228.247L287.217 242.717Z" fill="url(#paint8_linear_1091_8927)"/>
<path d="M360.305 200.517L312.271 228.248L312.489 228.373V265.904L360.305 238.298C371.56 231.799 380.718 237.02 380.718 249.936C380.718 250.098 380.709 250.265 380.707 250.429L413.629 231.558C413.63 231.35 413.642 231.136 413.642 230.927C413.642 197.124 389.762 183.509 360.305 200.517Z" fill="#E85A17"/>
<path d="M287.217 242.717V252.656V280.497L312.494 265.904V228.374L312.276 228.248L287.217 242.717Z" fill="url(#paint9_linear_1091_8927)"/>
<path d="M287.217 242.717V252.656V280.497L312.494 265.904V228.374L312.276 228.248L287.217 242.717Z" fill="url(#paint10_linear_1091_8927)"/>
<path d="M360.306 285.143L287.213 327.344V365.124L360.306 322.926C389.581 306.023 413.337 265.24 413.63 231.557L380.708 250.428C380.481 263.25 371.418 278.727 360.306 285.143Z" fill="#4C45B5"/>
<path d="M287.217 327.344V365.124L312.494 350.531V312.772L312.475 312.762L287.217 327.344Z" fill="url(#paint11_linear_1091_8927)"/>
<path d="M287.217 327.344V365.124L312.494 350.531V312.772L312.475 312.762L287.217 327.344Z" fill="url(#paint12_linear_1091_8927)"/>
<path d="M263.127 351.184L274.42 344.664L263.127 338.075V351.184Z" fill="url(#paint13_radial_1091_8927)"/>
<path d="M380.705 250.445C380.708 250.275 380.716 250.102 380.716 249.935C380.716 237.019 371.558 231.798 360.303 238.297L359.604 238.699L380.668 250.409L380.705 250.445Z" fill="#4C45B5"/>
<path d="M356.263 240.627C354.457 252.479 346.159 265.466 336.219 271.205L263.127 313.405V338.076L274.42 344.666L287.204 337.283V327.345L360.297 285.144C371.405 278.73 380.464 263.264 380.699 250.446L380.662 250.41L359.597 238.7L356.263 240.627Z" fill="url(#paint14_radial_1091_8927)"/>
<path d="M380.669 250.41L359.604 238.7L356.27 240.626C354.464 252.478 346.165 265.466 336.226 271.204L288.412 298.81L312.469 312.762L360.304 285.144C371.413 278.73 380.471 263.264 380.706 250.445L380.669 250.41Z" fill="#655CF1"/>
<path d="M263.127 313.405V338.076L274.42 344.666L287.204 337.283V327.345L312.462 312.763L288.405 298.81L263.127 313.405Z" fill="url(#paint15_linear_1091_8927)"/>
<path d="M263.127 313.404L287.204 327.345L312.462 312.763L288.405 298.81L263.127 313.404Z" fill="url(#paint16_linear_1091_8927)"/>
<path d="M263.096 350.929L287.211 365.058V327.278L263.096 313.291V350.929Z" fill="url(#paint17_linear_1091_8927)"/>
<path d="M263.096 266.368L287.211 280.497V242.717L263.096 228.73V266.368Z" fill="url(#paint18_linear_1091_8927)"/>
<path d="M263.096 228.73L287.432 241.518L350.03 206.564L288.047 243.059L287.211 280.496L286.663 242.596L263.096 228.73Z" fill="white"/>
<path d="M263.096 313.576L287.432 326.366L350.03 291.41L288.047 327.905L287.211 365.343L286.663 327.444L263.096 313.576Z" fill="white"/>
<g opacity="0.300003">
<path d="M396.583 195.925C396.684 195.974 396.79 196.015 396.891 196.065L373.728 182.601V182.611C364.092 177.24 350.847 178.134 336.226 186.576L324.967 193.076L350.029 206.564V244.227L360.303 238.297L359.604 238.699L356.27 240.626C354.464 252.478 346.165 265.465 336.226 271.204L325.158 277.474L350.029 291.873V328.857L360.303 322.924C389.579 306.023 413.334 265.241 413.628 231.557C413.629 231.349 413.641 231.135 413.641 230.926C413.641 213.206 407.071 201.046 396.583 195.925Z" fill="#4C45B5"/>
</g>
<path d="M377.391 378.853C376.502 379.359 375.063 378.528 374.175 376.996C373.287 375.465 373.287 373.814 374.175 373.308C375.063 372.801 376.502 373.632 377.391 375.163C378.279 376.696 378.279 378.347 377.391 378.853ZM370.002 374.587C369.114 375.093 367.673 374.262 366.786 372.73C365.898 371.199 365.898 369.548 366.786 369.041C367.673 368.535 369.114 369.366 370.002 370.896C370.889 372.429 370.889 374.081 370.002 374.587ZM362.612 370.321C361.724 370.827 360.284 369.996 359.396 368.464C358.509 366.933 358.509 365.281 359.396 364.775C360.284 364.269 361.724 365.099 362.612 366.63C363.5 368.163 363.5 369.814 362.612 370.321ZM368.393 355.141C360.317 350.478 353.771 354.211 353.771 363.478C353.771 372.33 359.749 383.015 367.324 388.019V396.266L373.657 390.6C379.128 391.332 383.016 387.498 383.016 380.362C383.016 371.095 376.469 359.803 368.393 355.141Z" fill="#EDF0F5"/>
<path d="M321.217 140.501C321.217 138.819 321.452 137.514 321.92 136.586C322.389 135.657 323.229 134.814 324.44 134.055C325.632 133.286 326.458 132.518 326.917 131.753C327.376 130.986 327.606 130.043 327.606 128.922C327.606 127.913 327.464 127.131 327.181 126.575C326.897 126.019 326.482 125.583 325.936 125.267C324.822 124.624 324.265 125.076 324.265 126.623V129.145L321.217 127.385V125.099C321.217 123.193 321.627 121.968 322.448 121.421C323.269 120.875 324.46 121.052 326.024 121.955C327.586 122.858 328.778 124.055 329.599 125.549C330.42 127.043 330.83 128.743 330.83 130.648C330.83 132.083 330.531 133.313 329.935 134.336C329.34 135.359 328.31 136.334 326.844 137.258C325.886 137.872 325.242 138.447 324.91 138.983C324.577 139.52 324.411 140.204 324.411 141.033V141.537L330.536 145.073V148.437L321.217 143.056V140.501Z" fill="#EDF0F5"/>
<path d="M332.994 146.293L336.102 148.086V151.651L332.994 149.858V146.293Z" fill="#EDF0F5"/>
<path d="M343.017 137.687L339.646 135.741V133.118C340.565 133.648 341.302 133.984 341.859 134.127C342.416 134.269 342.861 134.228 343.193 134.005C343.525 133.782 343.817 133.351 344.072 132.713L346.24 133.966V157.505L343.017 155.644V137.687Z" fill="#EDF0F5"/>
<path d="M350.227 136.266L353.45 138.127V148.047L357.552 140.496L360.776 142.357L356.936 148.783L360.835 165.93L357.465 163.985L354.739 151.919L353.45 154.168V161.667L350.227 159.806V136.266Z" fill="#EDF0F5"/>
<path d="M314.311 129.889C314.127 129.945 313.94 129.996 313.751 130.043C313.651 130.069 313.549 130.092 313.447 130.114C313.411 130.122 313.375 130.129 313.338 130.137C313.35 130.134 313.202 130.163 313.182 130.167C312.361 130.313 311.49 130.364 310.575 130.305C311.366 129.731 311.835 128.714 311.835 127.316C311.835 125.916 311.364 124.354 310.572 122.867C310.714 123.021 310.854 123.177 310.994 123.334C311.55 123.959 312.085 124.608 312.605 125.269C312.838 125.566 313.066 125.866 313.292 126.168C313.296 126.174 313.3 126.179 313.304 126.184C313.313 126.197 313.324 126.212 313.342 126.236C313.394 126.307 313.446 126.379 313.499 126.451C313.617 126.613 313.733 126.776 313.849 126.94C314.213 127.453 314.566 127.973 314.909 128.498C315.113 128.809 315.313 129.122 315.508 129.437C315.421 129.476 315.332 129.515 315.244 129.552C314.942 129.679 314.63 129.79 314.311 129.889ZM298.846 122.308C298.613 122.012 298.384 121.712 298.159 121.409C298.154 121.403 298.15 121.399 298.147 121.393C298.138 121.381 298.126 121.365 298.109 121.342C298.056 121.27 298.004 121.198 297.952 121.126C297.834 120.964 297.717 120.801 297.601 120.638C297.237 120.124 296.884 119.604 296.541 119.08C296.339 118.771 296.144 118.463 295.954 118.152C296.042 118.111 296.131 118.071 296.22 118.033C296.522 117.906 296.828 117.791 297.147 117.693C297.33 117.636 297.514 117.583 297.702 117.536C297.803 117.511 297.903 117.487 298.005 117.464C298.042 117.456 298.079 117.448 298.116 117.44C298.14 117.436 298.252 117.414 298.269 117.411C299.089 117.265 299.96 117.214 300.875 117.273C300.085 117.846 299.615 118.863 299.615 120.261C299.615 121.661 300.086 123.223 300.878 124.711C300.737 124.556 300.596 124.4 300.456 124.243C299.901 123.619 299.365 122.97 298.846 122.308ZM317.192 129.831C316.298 128.253 315.214 126.709 314.116 125.234C311.947 122.319 309.41 119.622 306.669 117.756C303.826 115.822 301.002 115.238 298.638 115.382C297.093 115.476 295.647 115.849 294.418 116.502C294.364 116.53 294.31 116.559 294.259 116.591C293.953 116.778 293.953 117.206 294.259 117.746C295.153 119.325 296.236 120.869 297.335 122.344C299.503 125.259 302.04 127.956 304.781 129.821C307.624 131.756 310.448 132.339 312.813 132.195C314.358 132.101 315.804 131.728 317.032 131.076C317.086 131.047 317.14 131.018 317.192 130.987C317.36 130.915 317.431 130.752 317.425 130.543C317.431 130.342 317.36 130.096 317.192 129.831Z" fill="#EDF0F5"/>
<path d="M183.19 120.946C183.949 120.922 184.558 121.035 184.556 121.031C184.555 121.027 184.956 121.1 185.452 121.194C185.949 121.288 186.971 121.403 187.699 121.621C191.197 122.667 193.873 126.552 194.297 131.933C194.878 139.324 190.989 146.728 185.612 148.47C184.835 148.722 184.071 148.838 183.329 148.833C182.57 148.828 181.357 148.584 180.609 148.452C179.827 148.315 178.847 148.142 178.065 148.004C177.317 147.871 177.318 147.87 178.066 148.002L178.713 148.116C179.461 148.247 179.45 148.278 178.736 148.021C175.417 146.824 172.91 143.03 172.501 137.839C171.92 130.448 175.809 123.044 181.188 121.301C181.868 121.081 182.537 120.967 183.19 120.946Z" fill="#00BA2C"/>
<path d="M174.823 138.245C175.403 145.635 180.234 150.214 185.613 148.471C190.99 146.728 194.88 139.324 194.298 131.933C193.718 124.543 188.886 119.964 183.509 121.707C178.13 123.45 174.242 130.854 174.823 138.245Z" fill="#31EC63"/>
<path d="M178.911 135.664C179.193 135.147 179.944 135.052 180.589 135.453L182.705 136.766C183.35 137.166 184.165 136.949 184.524 136.28L187.86 130.075C188.219 129.406 188.902 129.108 189.385 129.41C189.867 129.712 189.972 130.502 189.618 131.173L185.343 139.284C184.989 139.956 184.179 140.177 183.533 139.777L179.57 137.324C178.924 136.925 178.629 136.181 178.911 135.664Z" fill="white"/>
<path d="M444.058 114.23C443.298 114.253 442.692 114.36 442.694 114.355C442.697 114.349 442.114 114.455 441.393 114.592C440.672 114.728 439.47 114.882 438.73 115.052C433.353 116.293 429.177 122.072 428.539 130.198C427.695 140.938 433.346 151.697 441.162 154.23C442.509 154.666 443.83 154.821 445.101 154.733C445.858 154.681 447.069 154.442 447.817 154.311C449.206 154.068 451.353 153.688 452.741 153.443C453.489 153.31 453.489 153.309 452.741 153.441L450.571 153.822C449.823 153.953 449.83 153.982 450.559 153.769C455.675 152.279 459.595 146.63 460.213 138.779C461.057 128.039 455.406 117.28 447.59 114.747C446.385 114.356 445.203 114.196 444.058 114.23Z" fill="#00BA2C"/>
<path d="M456.842 139.369C455.998 150.11 448.977 156.763 441.162 154.23C433.346 151.698 427.695 140.938 428.539 130.198C429.383 119.458 436.403 112.804 444.219 115.337C452.034 117.87 457.686 128.63 456.842 139.369Z" fill="#31EC63"/>
<path d="M433.959 132.407L434.248 132.211C434.876 131.784 435.702 131.966 436.092 132.618L438.594 136.789C438.985 137.441 439.809 137.62 440.434 137.189L449.898 130.681C450.524 130.251 451.346 130.431 451.734 131.084L451.86 131.296C452.248 131.949 452.058 132.831 451.436 133.266L439.499 141.621C438.876 142.056 438.055 141.882 437.663 141.231L433.531 134.359C433.14 133.708 433.332 132.834 433.959 132.407Z" fill="white"/>
<path d="M493.742 252.208L461.479 232.127C461.235 231.975 460.935 231.995 460.676 232.116L460.672 232.107L460.634 232.127C460.629 232.13 460.624 232.132 460.62 232.135L458.305 233.381L459.835 234.429L459.685 235.381L475.142 256.197L491.02 256.577L491.277 258.011L493.882 256.644L494.358 253.652C494.452 253.054 494.218 252.503 493.742 252.208Z" fill="#4C45B5"/>
<path d="M459.319 237.691L456.713 239.059L457.543 242.915L458.416 243.36L456.238 257.057C456.142 257.655 456.378 258.205 456.854 258.502L486.83 277.159L486.58 277.933L487.275 279.839L489.671 278.547L489.766 278.495C490.147 278.353 490.48 278.035 490.55 277.599L493.516 258.955L474.776 258.507L459.319 237.691Z" fill="#4C45B5"/>
<path d="M457.481 234.226L457.08 236.749L472.538 257.565L491.277 258.011L491.754 255.019C491.848 254.422 491.614 253.871 491.137 253.574L458.873 233.494C458.356 233.172 457.585 233.578 457.481 234.226Z" fill="#655CF1"/>
<path d="M472.173 259.875L456.714 239.059L453.634 258.426C453.539 259.022 453.774 259.573 454.251 259.869L486.312 279.826C486.919 280.203 487.825 279.727 487.946 278.966L490.912 260.323L472.173 259.875Z" fill="#655CF1"/>
<g opacity="0.300003">
<path d="M474.773 258.507L472.168 259.875L490.907 260.323L493.512 258.954L474.773 258.507Z" fill="url(#paint19_linear_1091_8927)"/>
</g>
<path d="M248.626 176.882L225.759 162.649C225.586 162.541 225.375 162.555 225.19 162.641L225.188 162.634L225.161 162.649C225.157 162.651 225.154 162.653 225.15 162.655L223.51 163.538L224.595 164.281L224.487 164.955L235.444 179.709L246.697 179.978L246.88 180.996L248.726 180.026L249.063 177.905C249.131 177.482 248.964 177.092 248.626 176.882Z" fill="#4C45B5"/>
<path d="M224.229 166.593L222.384 167.563L222.971 170.296L223.591 170.611L222.046 180.32C221.978 180.743 222.145 181.133 222.483 181.343L243.729 194.567L243.552 195.116L244.044 196.467L245.743 195.551L245.81 195.514C246.08 195.414 246.317 195.189 246.366 194.879L248.468 181.665L235.186 181.347L224.229 166.593Z" fill="#4C45B5"/>
<path d="M222.927 164.137L222.643 165.925L233.599 180.679L246.881 180.996L247.219 178.875C247.286 178.452 247.119 178.062 246.781 177.851L223.914 163.619C223.548 163.391 223 163.678 222.927 164.137Z" fill="#655CF1"/>
<path d="M233.338 182.316L222.382 167.563L220.198 181.289C220.131 181.712 220.297 182.102 220.636 182.312L243.361 196.456C243.79 196.724 244.433 196.387 244.517 195.848L246.62 182.633L233.338 182.316Z" fill="#655CF1"/>
<g opacity="0.300003">
<path d="M235.182 181.347L233.336 182.316L246.618 182.633L248.464 181.664L235.182 181.347Z" fill="url(#paint20_linear_1091_8927)"/>
</g>
<path d="M479.498 203.027C478.262 200.842 476.763 198.705 475.243 196.664C472.239 192.629 468.729 188.897 464.936 186.315C461.002 183.638 457.093 182.829 453.82 183.028C451.682 183.16 449.681 183.675 447.982 184.578C447.906 184.618 447.832 184.659 447.76 184.702C447.655 184.767 447.575 184.852 447.522 184.956C447.363 185.266 445.012 188.007 444.958 188.11C444.8 188.421 444.879 188.894 445.197 189.455C446.434 191.641 447.934 193.777 449.453 195.819C452.455 199.853 455.966 203.585 459.76 206.167C463.694 208.845 467.603 209.652 470.875 209.453C473.013 209.323 475.014 208.807 476.715 207.903C476.789 207.864 476.864 207.824 476.935 207.78C477.168 207.682 479.427 204.668 479.498 204.624C479.731 204.528 479.831 204.301 479.821 204.011C479.831 203.733 479.731 203.394 479.498 203.027Z" fill="#A7B6CC"/>
<path d="M475.344 205.346C474.231 203.38 472.883 201.456 471.514 199.619C468.811 195.988 465.653 192.628 462.238 190.306C458.697 187.895 455.18 187.168 452.234 187.347C450.31 187.466 448.509 187.929 446.979 188.742C446.912 188.777 446.844 188.815 446.781 188.854C446.399 189.086 446.399 189.619 446.781 190.291C447.893 192.259 449.244 194.181 450.612 196.02C453.313 199.649 456.472 203.009 459.886 205.332C463.427 207.742 466.946 208.47 469.891 208.29C471.814 208.173 473.616 207.708 475.147 206.895C475.213 206.86 475.28 206.823 475.344 206.784C475.554 206.697 475.644 206.493 475.635 206.232C475.644 205.981 475.554 205.676 475.344 205.346Z" fill="white"/>
<path d="M451.265 186.184C449.127 186.314 447.126 186.83 445.425 187.733C445.35 187.772 445.276 187.813 445.204 187.856C444.781 188.115 444.781 188.707 445.204 189.455C446.442 191.64 447.941 193.777 449.461 195.818C452.463 199.852 455.974 203.585 459.767 206.166C463.702 208.844 467.611 209.652 470.883 209.453C473.021 209.322 475.022 208.806 476.723 207.903C476.797 207.864 476.872 207.823 476.943 207.78C477.176 207.681 477.275 207.455 477.266 207.167C477.275 206.888 477.176 206.548 476.943 206.181C475.706 203.996 474.207 201.86 472.687 199.818C469.684 195.784 466.174 192.051 462.38 189.47C458.82 187.046 455.281 186.155 452.215 186.155C451.893 186.155 451.576 186.165 451.265 186.184ZM453.782 198.447C453.013 197.583 452.272 196.684 451.552 195.769C451.23 195.359 450.914 194.944 450.602 194.525C450.595 194.516 450.591 194.511 450.585 194.503C450.573 194.486 450.557 194.464 450.532 194.431C450.46 194.332 450.388 194.233 450.316 194.134C450.152 193.909 449.99 193.684 449.83 193.457C449.326 192.747 448.838 192.027 448.363 191.301C448.083 190.874 447.814 190.447 447.55 190.017C447.672 189.96 447.795 189.905 447.919 189.853C448.337 189.677 448.76 189.518 449.201 189.381C449.455 189.303 449.709 189.23 449.971 189.165C450.11 189.13 450.248 189.096 450.389 189.065C450.441 189.054 450.492 189.043 450.543 189.032C450.576 189.026 450.73 188.996 450.755 188.992C451.89 188.789 453.095 188.718 454.361 188.8C453.268 189.594 452.618 191.001 452.618 192.936C452.618 194.873 453.27 197.035 454.366 199.094C454.17 198.88 453.975 198.665 453.782 198.447ZM467.786 206.836C468.88 206.043 469.53 204.635 469.53 202.701C469.53 200.763 468.878 198.601 467.782 196.542C467.978 196.756 468.172 196.971 468.366 197.189C469.135 198.053 469.877 198.952 470.595 199.867C470.917 200.278 471.234 200.693 471.546 201.111C471.552 201.12 471.557 201.126 471.563 201.134C471.575 201.151 471.591 201.172 471.616 201.205C471.688 201.304 471.76 201.403 471.833 201.503C471.996 201.727 472.157 201.953 472.318 202.179C472.821 202.889 473.31 203.609 473.785 204.335C474.066 204.766 474.344 205.199 474.613 205.635C474.492 205.69 474.37 205.743 474.247 205.795C473.829 205.971 473.397 206.124 472.956 206.26C472.702 206.339 472.444 206.409 472.182 206.475C472.043 206.51 471.902 206.541 471.76 206.573C471.711 206.584 471.661 206.594 471.61 206.604C471.626 206.6 471.421 206.64 471.393 206.645C470.569 206.792 469.707 206.87 468.812 206.87C468.475 206.87 468.133 206.859 467.786 206.836Z" fill="url(#paint21_linear_1091_8927)"/>
<path d="M214.593 105.056C216.317 102.009 218.407 99.0279 220.527 96.1817C224.716 90.5552 229.61 85.3494 234.902 81.7497C240.388 78.0152 245.838 76.8877 250.403 77.1654C253.384 77.3497 256.175 78.0675 258.546 79.327C258.65 79.382 258.755 79.4397 258.854 79.5002C259.001 79.5901 259.113 79.7095 259.186 79.8536C259.408 80.2864 262.688 84.1089 262.761 84.253C262.983 84.6864 262.872 85.3464 262.43 86.1291C260.704 89.1763 258.612 92.1557 256.493 95.0033C252.307 100.629 247.41 105.835 242.12 109.435C236.633 113.169 231.182 114.296 226.618 114.017C223.636 113.836 220.846 113.116 218.473 111.857C218.37 111.801 218.266 111.745 218.166 111.685C217.842 111.548 214.692 107.344 214.593 107.283C214.268 107.149 214.128 106.832 214.142 106.428C214.128 106.04 214.268 105.567 214.593 105.056Z" fill="#A7B6CC"/>
<path d="M220.38 108.289C221.931 105.547 223.812 102.864 225.721 100.302C229.49 95.2386 233.895 90.5535 238.657 87.3137C243.595 83.9526 248.501 82.9379 252.609 83.1879C255.292 83.3537 257.804 83.9997 259.938 85.1332C260.031 85.1827 260.125 85.2347 260.214 85.2891C260.747 85.6134 260.747 86.3559 260.214 87.2939C258.663 90.0387 256.779 92.7191 254.871 95.2832C251.105 100.345 246.698 105.03 241.937 108.269C236.999 111.631 232.091 112.645 227.985 112.395C225.302 112.232 222.79 111.584 220.654 110.45C220.563 110.4 220.469 110.348 220.38 110.294C220.088 110.173 219.961 109.888 219.973 109.524C219.961 109.175 220.088 108.75 220.38 108.289Z" fill="white"/>
<path d="M238.469 86.149C233.179 89.7493 228.283 94.955 224.096 100.581C221.976 103.428 219.885 106.408 218.16 109.455C217.835 109.967 217.697 110.441 217.71 110.829C217.697 111.232 217.835 111.547 218.16 111.684C218.259 111.745 218.363 111.801 218.467 111.857C220.839 113.116 223.629 113.836 226.612 114.018C231.175 114.295 236.626 113.169 242.113 109.435C247.403 105.835 252.3 100.629 256.486 95.0032C258.606 92.1558 260.697 89.1762 262.423 86.1289C263.013 85.0858 263.013 84.2606 262.423 83.8995C262.323 83.8384 262.22 83.7824 262.115 83.7274C259.743 82.4676 256.953 81.7484 253.971 81.5664C253.536 81.54 253.094 81.5262 252.644 81.5262C248.369 81.526 243.435 82.7698 238.469 86.149ZM252.084 90.9832C252.084 88.2852 251.177 86.3228 249.653 85.2159C251.419 85.101 253.099 85.2005 254.682 85.4824C254.716 85.4887 254.932 85.5308 254.977 85.5393C255.049 85.5544 255.12 85.5693 255.192 85.5852C255.389 85.6287 255.582 85.6749 255.776 85.7239C256.141 85.8152 256.495 85.9166 256.849 86.0261C257.464 86.2164 258.054 86.4378 258.636 86.6833C258.81 86.7565 258.981 86.8335 259.151 86.9124C258.784 87.5119 258.408 88.1073 258.018 88.7029C257.356 89.7155 256.675 90.7192 255.972 91.7098C255.748 92.0255 255.523 92.3406 255.295 92.6538C255.194 92.7922 255.094 92.9308 254.992 93.0686C254.958 93.1142 254.936 93.1444 254.919 93.1681C254.911 93.1788 254.905 93.1871 254.895 93.1997C254.46 93.783 254.019 94.3621 253.57 94.9341C252.566 96.211 251.533 97.4636 250.46 98.6692C250.191 98.9725 249.92 99.2731 249.645 99.5715C251.174 96.7002 252.084 93.6857 252.084 90.9832ZM225.387 110.001C225.191 109.957 224.994 109.913 224.8 109.864C224.435 109.773 224.075 109.675 223.72 109.565C223.105 109.375 222.502 109.161 221.92 108.916C221.749 108.844 221.578 108.769 221.409 108.693C221.785 108.085 222.172 107.481 222.565 106.881C223.227 105.869 223.908 104.864 224.61 103.874C224.834 103.558 225.059 103.243 225.287 102.93C225.388 102.792 225.489 102.653 225.59 102.515C225.624 102.47 225.646 102.439 225.663 102.416C225.672 102.405 225.678 102.397 225.687 102.384C226.122 101.801 226.564 101.222 227.013 100.65C228.016 99.3729 229.05 98.1203 230.122 96.9144C230.392 96.6111 230.663 96.3105 230.937 96.0124C229.408 98.8834 228.498 101.898 228.498 104.601C228.498 107.299 229.405 109.262 230.93 110.369C229.164 110.484 227.483 110.384 225.9 110.102C225.86 110.095 225.575 110.039 225.597 110.045C225.527 110.03 225.456 110.016 225.387 110.001Z" fill="url(#paint22_linear_1091_8927)"/>
<path d="M205.05 271.14C191.241 278.635 179.757 295.739 179.399 309.341C179.295 313.303 180.147 316.53 181.747 318.931C182.855 320.591 187.449 323.625 190.997 325.517C191.345 323.469 191.879 321.465 192.48 319.61C195.878 309.121 201.874 299.309 208.7 290.707C212.138 286.374 216.029 282.312 221.146 279.977C225.318 278.072 229.833 277.299 234.132 278.127C232.152 274.381 223.89 269.363 222.484 268.733C220.878 268.014 219.038 267.643 217.017 267.643C213.494 267.643 209.418 268.768 205.05 271.14Z" fill="url(#paint23_linear_1091_8927)"/>
<path d="M211.091 274.714C197.282 282.21 185.798 299.313 185.44 312.916C185.083 326.518 195.987 331.468 209.796 323.973C223.604 316.477 235.088 299.374 235.446 285.771C235.691 276.472 230.673 271.216 223.06 271.217C219.538 271.217 215.459 272.343 211.091 274.714Z" fill="url(#paint24_linear_1091_8927)"/>
<path d="M207.915 300.277L212.149 297.978C214.896 296.487 216.3 294.556 216.363 292.183C216.392 291.055 216.067 290.335 215.388 290.021C214.709 289.707 213.753 289.879 212.522 290.537L208.108 292.933L207.915 300.277ZM212.876 306.505L207.677 309.327L207.594 312.452L202.69 315.114L202.772 311.99L199.453 313.792L199.556 309.878L202.875 308.076L202.907 306.852L199.588 308.654L199.691 304.74L203.01 302.939L203.306 291.666L212.56 286.643C214.347 285.673 215.908 285.137 217.243 285.037C218.578 284.937 219.604 285.272 220.32 286.042C221.035 286.813 221.373 287.949 221.333 289.452C221.273 291.772 220.426 294.036 218.794 296.244C217.162 298.453 214.924 300.33 212.079 301.874L207.812 304.19L207.78 305.414L212.978 302.592L212.876 306.505Z" fill="#A7B6CC"/>
<path d="M46.0867 372.446C45.826 375.024 46.1906 377.773 47.2593 380.605C52.1686 393.614 70.0738 403.444 87.2517 402.56C94.3148 402.196 100.154 400.078 104.242 396.804C107.247 394.397 111.153 385.79 112.413 382.347C102.386 386.866 91.1146 389.318 80.4573 386.651C66.8442 383.244 57.5833 372.087 50.2375 360.765C48.5776 364.275 46.2918 370.418 46.0867 372.446Z" fill="url(#paint25_linear_1091_8927)"/>
<path d="M71.956 349.121C54.7778 350.005 44.8325 361.269 49.742 374.279C54.6513 387.289 72.5566 397.118 89.7345 396.234C106.913 395.349 116.858 384.086 111.949 371.075C107.245 358.61 90.612 349.065 74.1178 349.065C73.397 349.065 72.6751 349.084 71.956 349.121Z" fill="url(#paint26_linear_1091_8927)"/>
<path d="M77.4959 372.41L82.7632 372.139C86.1801 371.963 87.4602 370.74 86.6039 368.471C86.1972 367.392 85.4349 366.544 84.317 365.927C83.1994 365.309 81.8725 365.035 80.3366 365.103L74.8452 365.386L77.4959 372.41ZM87.2298 380.734L80.7626 381.067L81.8901 384.055L75.7887 384.369L74.6609 381.381L70.5323 381.594L69.1199 377.85L73.2485 377.638L72.8066 376.467L68.678 376.68L67.2656 372.937L71.3945 372.724L67.3253 361.942L78.8368 361.349C81.0602 361.234 83.1271 361.437 85.0372 361.956C86.9468 362.476 88.5787 363.273 89.9317 364.35C91.2847 365.427 92.2326 366.684 92.7754 368.121C93.612 370.34 93.2795 372.142 91.7777 373.527C90.2754 374.914 87.7556 375.697 84.2163 375.88L78.9083 376.153L79.3499 377.324L85.8174 376.991L87.2298 380.734Z" fill="#A7B6CC"/>
<path d="M177.395 412.602C175.03 424.551 178.039 435.42 184.45 441.465C185.848 442.784 190.988 445.569 195.389 447.467C193.151 440.17 192.124 432.493 192.495 425.066C192.933 416.306 195.398 407.352 201.298 400.65C206.932 394.251 214.842 391.114 223.109 390.26C219.456 387.841 210.668 383.616 207.657 383.333C207.073 383.279 206.488 383.252 205.904 383.252C193.215 383.251 180.688 395.96 177.395 412.602Z" fill="url(#paint27_linear_1091_8927)"/>
<path d="M183.443 415.626C179.998 433.035 187.961 448.155 201.229 449.399C214.496 450.643 228.045 437.539 231.491 420.131C234.936 402.722 226.973 387.602 213.706 386.358C213.121 386.303 212.537 386.276 211.952 386.276C199.265 386.277 186.737 398.985 183.443 415.626Z" fill="url(#paint28_linear_1091_8927)"/>
<path d="M205.132 417.072L209.2 417.453C211.839 417.701 213.459 416.306 214.06 413.269C214.346 411.826 214.241 410.631 213.746 409.681C213.252 408.733 212.413 408.196 211.233 408.071L206.992 407.673L205.132 417.072ZM207.834 429.124L202.839 428.655L202.048 432.654L197.335 432.212L198.126 428.213L194.938 427.915L195.929 422.906L199.117 423.205L199.428 421.638L196.239 421.339L197.23 416.331L200.419 416.63L203.275 402.203L212.166 403.036C213.883 403.197 215.311 403.744 216.449 404.676C217.587 405.609 218.366 406.861 218.786 408.432C219.205 410.005 219.225 411.752 218.844 413.676C218.257 416.644 217.025 418.915 215.152 420.489C213.278 422.062 210.974 422.721 208.24 422.464L204.14 422.08L203.83 423.647L208.826 424.115L207.834 429.124Z" fill="#A7B6CC"/>
<path d="M123.155 324.422C118.399 330.409 118.506 342.063 124.322 354.974C132.422 372.955 148.523 386.563 160.286 385.37C163.43 385.051 172.551 379.624 174.136 377.628C175.272 376.199 176.127 374.443 176.697 372.426C168.427 371.926 160.207 368.541 153.438 364.066C144.621 358.236 136.951 350.092 132.878 340.238C129.998 333.269 129.431 325.722 131.615 318.767C128.048 320.609 124.142 323.18 123.155 324.422Z" fill="url(#paint29_linear_1091_8927)"/>
<path d="M137.003 316.68C125.24 317.873 122.27 333.417 130.37 351.398C138.469 369.379 154.571 382.988 166.333 381.794C178.096 380.601 181.066 365.057 172.966 347.076C165.198 329.831 150.069 316.607 138.467 316.607C137.972 316.607 137.484 316.631 137.003 316.68Z" fill="url(#paint30_linear_1091_8927)"/>
<path d="M149.221 348.862L152.828 348.496C155.167 348.258 155.631 346.572 154.218 343.435C153.547 341.945 152.708 340.772 151.701 339.917C150.695 339.062 149.663 338.68 148.608 338.773L144.848 339.154L149.221 348.862ZM159.039 360.377L154.61 360.826L156.47 364.956L152.292 365.38L150.432 361.25L147.605 361.537L145.275 356.363L148.102 356.077L147.373 354.459L144.546 354.745L142.216 349.572L145.043 349.286L138.33 334.384L146.213 333.584C147.735 333.429 149.261 333.712 150.789 334.433C152.318 335.154 153.75 336.259 155.086 337.748C156.422 339.238 157.537 340.976 158.432 342.962C159.814 346.028 160.223 348.517 159.662 350.429C159.101 352.341 157.609 353.42 155.186 353.666L151.551 354.035L152.28 355.653L156.709 355.204L159.039 360.377Z" fill="#A7B6CC"/>
<path d="M65.3774 263.837C61.4149 272.737 61.638 280.751 65.1984 286.353C66.1287 287.818 70.0131 291.366 73.5864 294.134C74.0666 284.468 79.0944 275.486 85.7656 268.515C93.541 260.391 103.483 254.285 114.032 250.474C119.942 248.339 126.341 246.787 132.729 246.541C132.692 246.477 132.657 246.413 132.62 246.35C131.112 243.837 122.294 236.302 119.521 235.07C116.749 233.838 113.456 233.165 109.706 233.165C92.766 233.165 72.9196 246.897 65.3774 263.837Z" fill="url(#paint31_linear_1091_8927)"/>
<path d="M70.876 268.512C63.3338 285.451 70.9521 299.184 87.8921 299.184C104.832 299.184 124.679 285.451 132.221 268.512C139.763 251.572 132.145 237.839 115.205 237.839C98.2646 237.839 78.4178 251.572 70.876 268.512Z" fill="url(#paint32_linear_1091_8927)"/>
<path d="M98.6657 267.95H103.86C107.23 267.95 109.572 266.473 110.888 263.518C111.513 262.114 111.59 260.981 111.118 260.118C110.646 259.256 109.657 258.818 108.153 258.804H102.738L98.6657 267.95ZM100.025 279.222H93.6472L91.915 283.113H85.898L87.6302 279.222H83.5586L85.7286 274.348H89.8003L90.479 272.824H86.4073L88.5773 267.95H92.6487L98.8995 253.911H110.251C112.444 253.911 114.194 254.305 115.501 255.094C116.807 255.883 117.593 257.01 117.857 258.473C118.121 259.938 117.837 261.606 117.003 263.477C115.717 266.366 113.722 268.645 111.02 270.316C108.317 271.988 105.22 272.824 101.731 272.824H96.496L95.8173 274.348H102.195L100.025 279.222Z" fill="#A7B6CC"/>
<path d="M144.113 212.574L139.012 209.608L138.061 215.555C136.071 227.996 151.371 240.786 172.232 244.123C193.095 247.46 211.62 240.079 213.61 227.637L214.561 221.69L208.789 222.917C203.223 215.321 191.937 209.014 178.198 206.817C174.817 206.277 171.501 206.018 168.306 206.019C158.52 206.019 149.886 208.441 144.113 212.574Z" fill="url(#paint33_linear_1091_8927)"/>
<path d="M163.941 234.259L161.607 241.469C163.059 241.972 164.557 242.428 166.098 242.832L168.029 235.451C166.63 235.085 165.254 234.684 163.941 234.259Z" fill="#A7B6CC"/>
<path d="M156.144 231.142L152.975 237.621C154.319 238.375 155.736 239.083 157.217 239.74L159.968 232.83C158.645 232.303 157.358 231.735 156.144 231.142Z" fill="#A7B6CC"/>
<path d="M176.266 237.18C175.974 237.133 175.68 237.087 175.385 237.036C174.312 236.849 173.241 236.647 172.205 236.43L170.654 243.849C171.176 243.945 171.7 244.037 172.229 244.122C173.251 244.285 174.266 244.422 175.275 244.534L176.423 237.205L176.266 237.18Z" fill="#A7B6CC"/>
<path d="M180.587 237.716L179.988 244.884C181.599 244.942 183.183 244.935 184.733 244.866L184.727 237.892C183.388 237.892 181.995 237.834 180.587 237.716Z" fill="#A7B6CC"/>
<path d="M188.811 237.696L189.473 244.453C191.094 244.239 192.665 243.954 194.174 243.603L192.8 237.087C191.517 237.357 190.176 237.562 188.811 237.696Z" fill="#A7B6CC"/>
<path d="M196.641 236.031L198.78 242.253C200.348 241.691 201.824 241.047 203.191 240.325L200.275 234.507C199.117 235.087 197.894 235.6 196.641 236.031Z" fill="#A7B6CC"/>
<path d="M203.648 232.512L207.24 237.716C208.55 236.68 209.689 235.548 210.633 234.328L206.707 230.066C205.746 230.952 204.716 231.775 203.648 232.512Z" fill="#A7B6CC"/>
<path d="M209.406 227.209L212.986 230.14C213.276 229.332 213.521 228.503 213.658 227.645L214.016 225.408L211.73 224.005C211.038 225.123 210.239 226.198 209.406 227.209Z" fill="#A7B6CC"/>
<path d="M143.501 221.399L139.486 224.507C140.139 225.888 140.98 227.242 141.996 228.554L146.111 224.302C145.149 223.37 144.27 222.393 143.501 221.399Z" fill="#A7B6CC"/>
<path d="M149.15 226.893L145.234 232.07C146.361 233.116 147.602 234.122 148.946 235.078L152.519 229.169C151.329 228.45 150.196 227.685 149.15 226.893Z" fill="#A7B6CC"/>
<path d="M140.226 215.199L140.237 215.257L138.047 215.636C137.823 217.095 137.837 218.558 138.068 220.01L141.44 218.228C140.48 216.411 140.229 215.21 140.226 215.199Z" fill="#A7B6CC"/>
<path d="M138.939 210.067C137.101 222.531 152.555 235.133 173.456 238.216C194.357 241.298 212.791 233.694 214.63 221.23C216.467 208.766 201.013 196.164 180.113 193.082C176.971 192.618 173.882 192.396 170.899 192.396C154.042 192.396 140.501 199.478 138.939 210.067Z" fill="url(#paint34_linear_1091_8927)"/>
<path d="M179.785 197.054C161.275 194.094 144.862 200.155 143.197 210.565C141.532 220.975 155.236 231.853 173.746 234.813C192.256 237.773 208.669 231.712 210.334 221.302C211.999 210.892 198.295 200.014 179.785 197.054ZM173.54 236.102C154.32 233.028 140.13 221.479 141.908 210.359C143.687 199.238 160.771 192.692 179.991 195.766C199.212 198.84 213.401 210.388 211.623 221.508C209.844 232.629 192.761 239.176 173.54 236.102Z" fill="#A7B6CC"/>
<path d="M173.999 214.801L179.9 215.058C183.728 215.225 185.23 214.229 184.404 212.069C184.012 211.042 183.209 210.193 181.996 209.52C180.783 208.847 179.317 208.469 177.596 208.384L171.445 208.115L173.999 214.801ZM184.393 223.356L177.148 223.04L178.235 225.884L171.4 225.586L170.313 222.742L165.687 222.54L164.327 218.977L168.952 219.179L168.526 218.065L163.9 217.863L162.539 214.3L167.165 214.502L163.243 204.239L176.138 204.803C178.629 204.911 180.926 205.295 183.03 205.953C185.133 206.612 186.91 207.5 188.36 208.615C189.809 209.731 190.796 210.974 191.319 212.342C192.125 214.453 191.649 216.071 189.892 217.195C188.133 218.32 185.272 218.796 181.307 218.623L175.361 218.364L175.787 219.477L183.032 219.794L184.393 223.356Z" fill="#A7B6CC"/>
<path d="M221.174 276.192C218.226 276.192 214.833 277.188 211.361 279.073C199.854 285.319 190.25 299.596 189.953 310.899C189.853 314.725 190.843 317.819 192.817 319.846C194.505 321.578 196.893 322.494 199.725 322.494C202.673 322.494 206.066 321.498 209.539 319.613C221.046 313.367 230.649 299.09 230.946 287.787C231.047 283.961 230.056 280.867 228.082 278.84C226.394 277.108 224.006 276.192 221.174 276.192ZM199.725 324.007C196.476 324.007 193.713 322.933 191.734 320.901C189.468 318.575 188.329 315.103 188.441 310.859C188.751 299.075 198.709 284.22 210.639 277.744C214.332 275.739 217.975 274.68 221.174 274.68C224.423 274.68 227.187 275.753 229.166 277.785C231.431 280.111 232.57 283.583 232.458 287.826C232.148 299.611 222.19 314.467 210.26 320.943C206.567 322.947 202.924 324.007 199.725 324.007Z" fill="#A7B6CC"/>
<path d="M75.1167 353.362C74.5158 353.362 73.9108 353.378 73.3177 353.408C65.5385 353.809 59.2814 356.784 56.1505 361.571C53.8067 365.154 53.4448 369.373 55.1047 373.771C58.9602 383.988 72.7743 391.991 86.5542 391.991C87.1543 391.991 87.7593 391.975 88.3519 391.945C96.1314 391.544 102.389 388.569 105.52 383.782C107.863 380.199 108.225 375.98 106.565 371.582C102.71 361.366 88.8959 353.362 75.1167 353.362ZM86.5542 393.503C79.6207 393.503 72.4412 391.556 66.3384 388.02C60.1707 384.447 55.6786 379.576 53.6895 374.305C51.8787 369.506 52.303 364.689 54.8847 360.743C58.2829 355.547 64.9731 352.324 73.2398 351.898C73.8589 351.866 74.4903 351.85 75.1167 351.85C82.05 351.85 89.2294 353.797 95.332 357.333C101.499 360.906 105.991 365.777 107.98 371.048C109.791 375.847 109.367 380.663 106.785 384.61C103.387 389.805 96.6971 393.029 88.4297 393.455C87.8113 393.487 87.1804 393.503 86.5542 393.503Z" fill="#A7B6CC"/>
<path d="M211.274 391.773C200.803 391.773 190.484 402.463 187.783 416.111C186.141 424.41 187.523 432.284 191.575 437.716C194.305 441.376 197.989 443.521 202.229 443.918C202.697 443.962 203.175 443.985 203.649 443.985C214.12 443.985 224.439 433.294 227.14 419.646C228.782 411.348 227.4 403.473 223.348 398.041C220.618 394.381 216.934 392.237 212.694 391.839C212.225 391.795 211.748 391.773 211.274 391.773ZM203.649 445.497C203.128 445.497 202.603 445.472 202.088 445.424C197.41 444.986 193.356 442.633 190.362 438.62C186.055 432.847 184.574 424.535 186.3 415.817C187.677 408.857 190.988 402.407 195.622 397.658C200.276 392.888 205.835 390.26 211.274 390.26C211.795 390.26 212.32 390.285 212.835 390.333C217.512 390.772 221.567 393.124 224.56 397.137C228.868 402.911 230.349 411.222 228.623 419.94C227.246 426.901 223.935 433.35 219.301 438.1C214.646 442.87 209.088 445.497 203.649 445.497Z" fill="#A7B6CC"/>
<path d="M140.443 322.257C140.048 322.257 139.655 322.276 139.275 322.315C136.245 322.622 133.842 324.175 132.325 326.805C129.254 332.129 129.992 341.309 134.25 350.763C140.68 365.036 153.258 376.216 162.886 376.216C163.281 376.216 163.674 376.197 164.054 376.158C167.083 375.851 169.486 374.298 171.003 371.668C174.074 366.344 173.337 357.165 169.078 347.711C162.649 333.437 150.071 322.257 140.443 322.257ZM162.886 377.728C157.917 377.728 152.098 375.015 146.502 370.088C140.939 365.191 136.099 358.548 132.871 351.384C128.349 341.345 127.655 331.874 131.015 326.05C132.785 322.981 135.589 321.169 139.122 320.81C139.553 320.767 139.997 320.744 140.443 320.744C145.412 320.744 151.231 323.458 156.827 328.386C162.39 333.283 167.23 339.925 170.457 347.089C174.979 357.129 175.674 366.599 172.314 372.424C170.543 375.493 167.74 377.304 164.206 377.663C163.776 377.706 163.332 377.728 162.886 377.728Z" fill="#A7B6CC"/>
<path d="M113.151 243.196C99.046 243.196 82.4534 254.69 76.163 268.818C73.0165 275.886 72.9667 282.641 76.0263 287.353C78.737 291.527 83.6771 293.826 89.9358 293.826C104.041 293.826 120.634 282.332 126.924 268.203C130.071 261.136 130.121 254.381 127.061 249.669C124.35 245.495 119.41 243.196 113.151 243.196ZM89.9358 295.339C83.1475 295.339 77.7572 292.795 74.7578 288.177C71.4138 283.027 71.4223 275.747 74.7811 268.203C81.2918 253.58 98.5046 241.683 113.151 241.683C119.94 241.683 125.33 244.227 128.329 248.845C131.673 253.995 131.665 261.275 128.306 268.818C121.796 283.442 104.583 295.339 89.9358 295.339Z" fill="#A7B6CC"/>
<path d="M142.583 369.631L137.988 374.684C138.852 375.529 139.728 376.333 140.614 377.093L144.8 371.84C144.051 371.134 143.311 370.397 142.583 369.631Z" fill="#A7B6CC"/>
<path d="M146.477 381.18L149.637 375.882C148.802 375.272 147.972 374.62 147.148 373.931L143.467 379.242C144.444 379.919 145.457 380.571 146.477 381.18Z" fill="#A7B6CC"/>
<path d="M134.921 359.807L129.135 363.795C129.771 364.777 130.43 365.735 131.107 366.669L136.661 362.401C136.064 361.556 135.484 360.69 134.921 359.807Z" fill="#A7B6CC"/>
<path d="M152.274 377.663L149.617 382.908C150.665 383.439 151.744 383.94 152.825 384.398C152.84 384.403 152.854 384.407 152.869 384.412L155.06 379.23C154.134 378.764 153.203 378.24 152.274 377.663Z" fill="#A7B6CC"/>
<path d="M138.517 364.906L133.236 369.451C133.984 370.375 134.749 371.268 135.53 372.129L140.488 367.318C139.818 366.538 139.16 365.732 138.517 364.906Z" fill="#A7B6CC"/>
<path d="M166.33 381.794C165.652 381.862 164.959 381.88 164.255 381.852L163.785 384.198C164.927 383.681 166.176 383.036 167.405 382.343L167.501 381.615C167.12 381.689 166.732 381.753 166.33 381.794Z" fill="#A7B6CC"/>
<path d="M157.993 380.515L156.361 385.254C157.607 385.438 158.822 385.487 159.997 385.391L161.067 381.431C160.056 381.207 159.03 380.9 157.993 380.515Z" fill="#A7B6CC"/>
<path d="M126.11 337.067L119.789 337.607C119.841 338.742 119.95 339.914 120.123 341.12L126.621 340.09C126.408 339.061 126.24 338.053 126.11 337.067Z" fill="#A7B6CC"/>
<path d="M128.76 321.44C128.974 320.809 129.158 320.338 129.28 320.045C128.36 320.577 127.465 321.127 126.65 321.662L128.286 322.165C128.437 321.916 128.595 321.675 128.76 321.44Z" fill="#A7B6CC"/>
<path d="M125.851 330.932L120.34 330.594C120.09 331.69 119.92 332.855 119.83 334.081L125.838 334.007C125.79 332.947 125.795 331.92 125.851 330.932Z" fill="#A7B6CC"/>
<path d="M131.834 354.437L125.645 357.74C126.175 358.783 126.731 359.809 127.312 360.815L133.309 357.15C132.798 356.261 132.306 355.356 131.834 354.437Z" fill="#A7B6CC"/>
<path d="M126.996 324.922L123.398 324.142C123.303 324.24 123.216 324.335 123.147 324.421C122.487 325.251 121.925 326.194 121.455 327.23L126.209 327.881C126.402 326.834 126.667 325.847 126.996 324.922Z" fill="#A7B6CC"/>
<path d="M130.368 351.398C129.983 350.544 129.625 349.697 129.29 348.856L122.812 351.325C123.215 352.397 123.66 353.482 124.143 354.575L130.494 351.672C130.452 351.58 130.409 351.489 130.368 351.398Z" fill="#A7B6CC"/>
<path d="M127.342 343.065L120.773 344.589C121.028 345.704 121.33 346.84 121.681 347.995L128.235 345.987C127.902 345 127.606 344.026 127.342 343.065Z" fill="#A7B6CC"/>
<path d="M48.5383 369.092L46.7764 369.637C46.4046 370.827 46.1477 371.828 46.0853 372.445C46.0553 372.741 46.0347 373.038 46.0215 373.338L49.0586 372.155C48.7907 371.117 48.6202 370.095 48.5383 369.092Z" fill="#A7B6CC"/>
<path d="M50.059 375.083L46.248 376.899C46.4359 378.015 46.7359 379.152 47.1509 380.302L51.4439 377.842C50.9178 376.942 50.4555 376.021 50.059 375.083Z" fill="#A7B6CC"/>
<path d="M103.371 393.63L104.204 396.833C104.216 396.822 104.23 396.813 104.242 396.803C105.011 396.188 105.838 395.165 106.665 393.929L106.285 392.773C105.332 393.087 104.352 393.375 103.371 393.63Z" fill="#A7B6CC"/>
<path d="M55.3409 391.717L59.5473 386.816C58.747 386.196 57.9792 385.552 57.2477 384.885L52.7754 389.235C53.5743 390.094 54.4314 390.922 55.3409 391.717Z" fill="#A7B6CC"/>
<path d="M94.8221 401.392L94.376 395.715C93.3753 395.89 92.3405 396.025 91.2773 396.121L91.4256 402.116C92.6015 401.925 93.7353 401.684 94.8221 401.392Z" fill="#A7B6CC"/>
<path d="M50.5026 386.498L55.0995 382.749C54.401 381.988 53.7495 381.204 53.147 380.4L48.5996 383.514C49.1565 384.535 49.7931 385.531 50.5026 386.498Z" fill="#A7B6CC"/>
<path d="M74.2537 401.283L75.6344 394.677C74.6475 394.412 73.6715 394.115 72.709 393.789L70.8379 400.314C71.9604 400.678 73.1003 401.002 74.2537 401.283Z" fill="#A7B6CC"/>
<path d="M48.1566 365.71C48.1065 365.84 48.057 365.97 48.0078 366.101L48.2328 366.049C48.2061 365.933 48.1808 365.82 48.1566 365.71Z" fill="#A7B6CC"/>
<path d="M101.276 398.793L100.4 394.306C99.9386 394.396 99.4711 394.479 99.0014 394.557C98.4841 394.729 97.9547 394.888 97.4141 395.036L98.1252 400.299C99.2409 399.854 100.291 399.35 101.276 398.793Z" fill="#A7B6CC"/>
<path d="M81.0641 402.426L81.8437 395.913C80.7951 395.777 79.7521 395.605 78.717 395.398L77.6406 401.982C78.7747 402.172 79.9176 402.32 81.0641 402.426Z" fill="#A7B6CC"/>
<path d="M87.2497 402.559C87.4958 402.546 87.7367 402.526 87.9795 402.509L88.1418 396.285C87.091 396.299 86.0394 396.274 84.9895 396.212L84.5156 402.608C85.4278 402.62 86.3397 402.606 87.2497 402.559Z" fill="#A7B6CC"/>
<path d="M61.1202 395.908L64.5046 390.117C63.6353 389.622 62.79 389.101 61.9708 388.557L58.1367 393.941C59.0915 394.631 60.0884 395.287 61.1202 395.908Z" fill="#A7B6CC"/>
<path d="M67.4972 399.094L69.8773 392.73C68.9478 392.349 68.0348 391.941 67.1416 391.506L64.25 397.625C65.306 398.152 66.3895 398.643 67.4972 399.094Z" fill="#A7B6CC"/>
<path d="M214 385.484L214.023 386.397C215.046 386.511 216.036 386.71 216.992 386.986L216.999 386.881C216.004 386.394 214.989 385.919 214 385.484Z" fill="#A7B6CC"/>
<path d="M177.966 430.479L183.106 429.535C182.941 428.529 182.819 427.498 182.74 426.447L177.158 427.089C177.371 428.255 177.641 429.386 177.966 430.479Z" fill="#A7B6CC"/>
<path d="M200.4 384.032L202.37 388.637C203.273 388.191 204.189 387.802 205.116 387.477L203.83 383.364C202.679 383.487 201.534 383.713 200.4 384.032Z" fill="#A7B6CC"/>
<path d="M180.733 436.825L184.714 435.571C184.35 434.613 184.031 433.617 183.759 432.589L179.148 433.741C179.618 434.824 180.147 435.854 180.733 436.825Z" fill="#A7B6CC"/>
<path d="M176.707 423.615L182.642 423.357C182.649 422.348 182.694 421.325 182.782 420.288L176.591 420.101C176.575 421.295 176.615 422.468 176.707 423.615Z" fill="#A7B6CC"/>
<path d="M207.648 383.333C207.534 383.322 207.419 383.315 207.305 383.307L208.008 386.679C209 386.478 209.998 386.352 210.999 386.302L210.756 384.173C209.48 383.712 208.389 383.402 207.648 383.333Z" fill="#A7B6CC"/>
<path d="M176.795 416.577L183.15 417.259C183.236 416.717 183.329 416.173 183.437 415.626C183.527 415.175 183.624 414.727 183.727 414.282L177.3 413.077C177.08 414.256 176.912 415.424 176.795 416.577Z" fill="#A7B6CC"/>
<path d="M183.924 396.845L189.572 400.474C190.117 399.639 190.689 398.832 191.283 398.056L186.047 394.005C185.305 394.907 184.597 395.855 183.924 396.845Z" fill="#A7B6CC"/>
<path d="M178.086 409.627L184.506 411.365C184.801 410.396 185.126 409.445 185.482 408.513L179.148 406.253C178.752 407.353 178.397 408.479 178.086 409.627Z" fill="#A7B6CC"/>
<path d="M188.584 444.138C189.026 444.381 189.486 444.628 189.961 444.877C189.76 444.5 189.56 444.121 189.368 443.741L188.584 444.138Z" fill="#A7B6CC"/>
<path d="M193.977 386.924L197.41 391.792C198.189 391.179 198.986 390.61 199.799 390.091L197.097 385.244C196.037 385.724 194.995 386.287 193.977 386.924Z" fill="#A7B6CC"/>
<path d="M188.432 391.37L193.157 395.794C193.816 395.06 194.497 394.362 195.197 393.702L191.079 388.99C190.169 389.723 189.285 390.518 188.432 391.37Z" fill="#A7B6CC"/>
<path d="M184.444 441.465C184.656 441.664 184.954 441.898 185.322 442.157L187.627 441.14C187.035 440.29 186.489 439.391 185.995 438.44L182.754 439.666C183.287 440.304 183.851 440.905 184.444 441.465Z" fill="#A7B6CC"/>
<path d="M180.479 402.984L186.653 405.737C187.081 404.814 187.539 403.914 188.023 403.04L182.064 399.849C181.498 400.86 180.969 401.907 180.479 402.984Z" fill="#A7B6CC"/>
<path d="M88.1 247.828L84.575 241.761C83.609 242.413 82.6588 243.095 81.7285 243.806L85.6396 249.74C86.4439 249.081 87.2643 248.443 88.1 247.828Z" fill="#A7B6CC"/>
<path d="M78.9719 255.785L73.9314 250.959C73.1372 251.834 72.3733 252.73 71.6426 253.647L77.0144 258.004C77.6299 257.246 78.2885 256.499 78.9719 255.785Z" fill="#A7B6CC"/>
<path d="M75.2511 260.373L69.5338 256.481C68.859 257.457 68.2229 258.451 67.6289 259.461L73.6971 262.878C74.1778 262.025 74.7005 261.182 75.2511 260.373Z" fill="#A7B6CC"/>
<path d="M82.2324 252.761C82.5978 252.411 82.9683 252.066 83.3431 251.726L78.9882 246.035C78.0961 246.804 77.2276 247.601 76.3848 248.421L81.1109 253.723C81.475 253.398 81.8496 253.077 82.2324 252.761Z" fill="#A7B6CC"/>
<path d="M93.4697 244.311L90.4736 238.271C89.46 238.79 88.4562 239.345 87.4648 239.933L90.7431 245.993C91.6399 245.405 92.5493 244.844 93.4697 244.311Z" fill="#A7B6CC"/>
<path d="M62.7305 272.658L68.9592 273.846C69.2158 272.897 69.5235 271.931 69.8818 270.953L63.4521 269.2C63.1358 270.377 62.8944 271.532 62.7305 272.658Z" fill="#A7B6CC"/>
<path d="M111.17 238.087L110.831 233.186C110.458 233.172 110.082 233.164 109.7 233.164C108.884 233.164 108.062 233.196 107.234 233.258L108.109 238.587C109.133 238.378 110.155 238.209 111.17 238.087Z" fill="#A7B6CC"/>
<path d="M65.3674 263.836C65.0685 264.507 64.7965 265.173 64.5449 265.833L71.0231 268.171C71.4326 267.273 71.8756 266.384 72.3516 265.507L65.9535 262.582C65.7513 262.998 65.5544 263.416 65.3674 263.836Z" fill="#A7B6CC"/>
<path d="M115.199 237.839C115.94 237.839 116.66 237.868 117.365 237.92L117.879 234.429C116.79 234.056 115.632 233.762 114.41 233.551L114.258 237.854C114.572 237.845 114.886 237.839 115.199 237.839Z" fill="#A7B6CC"/>
<path d="M123.521 239.154L123.926 238.077C122.89 237.261 121.912 236.536 121.086 235.986L120.471 238.329C121.54 238.54 122.558 238.816 123.521 239.154Z" fill="#A7B6CC"/>
<path d="M127.577 241.136C127.233 240.832 126.884 240.528 126.532 240.226L126.426 240.447C126.822 240.665 127.206 240.894 127.577 241.136Z" fill="#A7B6CC"/>
<path d="M65.1931 286.353C65.1945 286.355 65.1964 286.357 65.1978 286.359L68.5066 285.776C68.2899 284.863 68.137 283.915 68.0501 282.934L63.6094 283.121C64.0279 284.269 64.5562 285.35 65.1931 286.353Z" fill="#A7B6CC"/>
<path d="M99.1541 241.446L96.8538 235.517C95.7664 235.9 94.6824 236.325 93.6055 236.792L96.2782 242.792C97.2297 242.312 98.1892 241.863 99.1541 241.446Z" fill="#A7B6CC"/>
<path d="M105.077 239.327L103.683 233.709C102.53 233.911 101.373 234.168 100.215 234.477L102.089 240.284C103.083 239.928 104.08 239.609 105.077 239.327Z" fill="#A7B6CC"/>
<path d="M62.7223 279.686L67.9863 279.883C68.0314 278.891 68.1387 277.874 68.3092 276.834L62.4613 276.172C62.4547 277.387 62.5424 278.56 62.7223 279.686Z" fill="#A7B6CC"/>
<path d="M201.629 273.221L205.311 278.506C206.146 277.863 206.995 277.251 207.857 276.675L204.597 271.389C203.594 271.951 202.603 272.563 201.629 273.221Z" fill="#A7B6CC"/>
<path d="M207.736 269.821L210.513 275.039C210.707 274.929 210.903 274.82 211.098 274.714C211.831 274.316 212.555 273.956 213.271 273.627L211.044 268.594C209.969 268.918 208.865 269.326 207.736 269.821Z" fill="#A7B6CC"/>
<path d="M191.305 282.524L196.435 287.198C197.074 286.414 197.736 285.646 198.415 284.898L193.681 279.921C192.864 280.762 192.071 281.631 191.305 282.524Z" fill="#A7B6CC"/>
<path d="M214.506 267.824L216.121 272.482C217.122 272.139 218.099 271.866 219.049 271.664L218.075 267.68C216.946 267.604 215.753 267.651 214.506 267.824Z" fill="#A7B6CC"/>
<path d="M222.482 268.733C222.206 268.61 221.924 268.497 221.635 268.394L222.018 271.252C223.044 271.189 224.028 271.217 224.964 271.334L224.947 270.146C223.787 269.419 222.871 268.907 222.482 268.733Z" fill="#A7B6CC"/>
<path d="M196.197 277.495L200.565 282.66C201.318 281.917 202.09 281.199 202.879 280.507L198.83 275.267C197.933 275.975 197.055 276.719 196.197 277.495Z" fill="#A7B6CC"/>
<path d="M179.94 314.753L185.473 314.773C185.441 314.173 185.43 313.555 185.446 312.915C185.457 312.507 185.479 312.095 185.509 311.681L179.426 311.264C179.496 312.512 179.669 313.677 179.94 314.753Z" fill="#A7B6CC"/>
<path d="M187.051 288.143L192.891 292.035C193.436 291.204 194.004 290.384 194.596 289.577L189.094 285.268C188.381 286.209 187.7 287.168 187.051 288.143Z" fill="#A7B6CC"/>
<path d="M179.488 307.747L185.9 308.624C186.078 307.635 186.305 306.636 186.579 305.631L180.003 304.257C179.761 305.436 179.588 306.601 179.488 307.747Z" fill="#A7B6CC"/>
<path d="M181.744 318.93C182.146 319.533 183.009 320.317 184.113 321.161L186.69 320.845C186.668 320.661 186.652 320.475 186.631 320.29C186.322 319.532 186.07 318.718 185.879 317.848L181.254 318.122C181.409 318.4 181.571 318.671 181.744 318.93Z" fill="#A7B6CC"/>
<path d="M183.521 294.261L189.892 297.196C190.34 296.315 190.817 295.439 191.322 294.571L185.187 291.142C184.592 292.173 184.036 293.214 183.521 294.261Z" fill="#A7B6CC"/>
<path d="M180.887 300.83L187.497 302.724C187.831 301.787 188.203 300.848 188.61 299.911L182.075 297.494C181.627 298.607 181.229 299.721 180.887 300.83Z" fill="#A7B6CC"/>
<path d="M438.963 307.376C439.722 307.352 440.332 307.465 440.33 307.461C440.328 307.457 440.729 307.53 441.226 307.624C441.722 307.718 442.745 307.833 443.472 308.051C446.971 309.097 449.647 312.982 450.07 318.363C450.651 325.754 446.762 333.158 441.385 334.9C440.608 335.152 439.844 335.268 439.102 335.263C438.343 335.258 437.131 335.014 436.383 334.882C435.6 334.745 434.62 334.572 433.839 334.434C433.091 334.301 433.091 334.3 433.839 334.431L434.487 334.545C435.234 334.677 435.223 334.709 434.509 334.451C431.19 333.254 428.683 329.461 428.274 324.269C427.694 316.878 431.582 309.474 436.961 307.731C437.641 307.511 438.31 307.397 438.963 307.376Z" fill="#00BA2C"/>
<path d="M430.595 324.674C431.175 332.065 436.006 336.643 441.385 334.9C446.762 333.158 450.651 325.754 450.07 318.363C449.49 310.972 444.658 306.393 439.28 308.137C433.902 309.879 430.013 317.283 430.595 324.674Z" fill="#31EC63"/>
<path d="M435.05 323.054C435.252 322.491 435.992 322.306 436.704 322.641L439.037 323.743C439.748 324.078 440.533 323.76 440.789 323.032L443.165 316.273C443.421 315.544 444.061 315.159 444.593 315.412C445.126 315.666 445.355 316.464 445.105 317.195L442.085 326.02C441.835 326.751 441.055 327.072 440.343 326.737L435.974 324.682C435.262 324.347 434.849 323.618 435.05 323.054Z" fill="white"/>
<path d="M509.817 307.11L486.95 292.877C486.778 292.769 486.566 292.783 486.381 292.869L486.379 292.862L486.352 292.877C486.348 292.879 486.345 292.881 486.341 292.883L484.701 293.766L485.786 294.509L485.678 295.183L496.635 309.937L507.889 310.206L508.071 311.224L509.917 310.255L510.254 308.133C510.322 307.71 510.155 307.32 509.817 307.11Z" fill="#4C45B5"/>
<path d="M485.417 296.821L483.571 297.79L484.159 300.524L484.778 300.839L483.234 310.547C483.166 310.97 483.333 311.36 483.67 311.571L504.916 324.794L504.74 325.343L505.232 326.694L506.93 325.778L506.998 325.741C507.268 325.641 507.504 325.416 507.553 325.106L509.655 311.892L496.373 311.574L485.417 296.821Z" fill="#4C45B5"/>
<path d="M484.117 294.364L483.832 296.153L494.788 310.906L508.071 311.224L508.408 309.102C508.476 308.68 508.308 308.289 507.971 308.079L485.103 293.846C484.737 293.618 484.19 293.905 484.117 294.364Z" fill="#655CF1"/>
<path d="M494.526 312.544L483.569 297.791L481.386 311.517C481.318 311.94 481.485 312.33 481.823 312.54L504.548 326.684C504.978 326.952 505.62 326.615 505.705 326.076L507.808 312.861L494.526 312.544Z" fill="#655CF1"/>
<g opacity="0.300003">
<path d="M496.377 311.574L494.531 312.543L507.814 312.861L509.659 311.892L496.377 311.574Z" fill="url(#paint35_linear_1091_8927)"/>
</g>
<path d="M205.05 271.14C191.241 278.635 179.757 295.739 179.399 309.341C179.295 313.303 180.147 316.53 181.747 318.931C182.855 320.591 187.449 323.625 190.997 325.517C191.345 323.469 191.879 321.465 192.48 319.61C195.878 309.121 201.874 299.309 208.7 290.707C212.138 286.374 216.029 282.312 221.146 279.977C225.318 278.072 229.833 277.299 234.132 278.127C232.152 274.381 223.89 269.363 222.484 268.733C220.878 268.014 219.038 267.643 217.017 267.643C213.494 267.643 209.418 268.768 205.05 271.14Z" fill="url(#paint36_linear_1091_8927)"/>
<path d="M211.091 274.714C197.282 282.21 185.798 299.313 185.44 312.916C185.083 326.518 195.987 331.468 209.796 323.973C223.604 316.477 235.088 299.374 235.446 285.771C235.691 276.472 230.673 271.216 223.06 271.217C219.538 271.217 215.459 272.343 211.091 274.714Z" fill="url(#paint37_linear_1091_8927)"/>
<g opacity="0.699997">
<path d="M207.913 300.276L212.147 297.978C214.894 296.487 216.298 294.556 216.361 292.182C216.39 291.055 216.065 290.335 215.386 290.02C214.707 289.707 213.751 289.879 212.52 290.536L208.106 292.933L207.913 300.276ZM212.874 306.505L207.675 309.327L207.593 312.451L202.688 315.114L202.77 311.989L199.451 313.791L199.554 309.877L202.873 308.076L202.905 306.852L199.586 308.654L199.689 304.74L203.008 302.939L203.304 291.665L212.558 286.643C214.345 285.672 215.906 285.137 217.241 285.037C218.576 284.937 219.602 285.272 220.318 286.042C221.033 286.813 221.371 287.949 221.332 289.452C221.271 291.771 220.424 294.036 218.792 296.244C217.16 298.453 214.922 300.329 212.077 301.873L207.81 304.189L207.778 305.414L212.976 302.592L212.874 306.505Z" fill="#E85A17"/>
</g>
<path d="M46.0867 372.446C45.826 375.024 46.1906 377.773 47.2593 380.605C52.1686 393.614 70.0738 403.444 87.2517 402.56C94.3148 402.196 100.154 400.078 104.242 396.804C107.247 394.397 111.153 385.79 112.413 382.347C102.386 386.866 91.1146 389.318 80.4573 386.651C66.8442 383.244 57.5833 372.087 50.2375 360.765C48.5776 364.275 46.2918 370.418 46.0867 372.446Z" fill="url(#paint38_linear_1091_8927)"/>
<path d="M71.956 349.121C54.7778 350.005 44.8325 361.269 49.742 374.279C54.6513 387.289 72.5566 397.118 89.7345 396.234C106.913 395.349 116.858 384.086 111.949 371.075C107.245 358.61 90.612 349.065 74.1178 349.065C73.397 349.065 72.6751 349.084 71.956 349.121Z" fill="url(#paint39_linear_1091_8927)"/>
<g opacity="0.699997">
<path d="M77.49 372.41L82.7574 372.139C86.1743 371.963 87.4544 370.74 86.598 368.47C86.1913 367.392 85.429 366.544 84.3111 365.926C83.1935 365.309 81.8667 365.035 80.3308 365.103L74.8393 365.385L77.49 372.41ZM87.2239 380.733L80.7568 381.066L81.8843 384.055L75.7828 384.369L74.6551 381.381L70.5265 381.594L69.1141 377.85L73.2427 377.637L72.8007 376.467L68.6722 376.68L67.2598 372.937L71.3886 372.724L67.3194 361.941L78.8309 361.348C81.0543 361.234 83.1212 361.437 85.0314 361.956C86.941 362.476 88.5728 363.273 89.9258 364.35C91.2788 365.426 92.2267 366.684 92.7696 368.121C93.6061 370.339 93.2737 372.141 91.7719 373.527C90.2696 374.913 87.7497 375.697 84.2105 375.879L78.9024 376.153L79.3441 377.323L85.8115 376.99L87.2239 380.733Z" fill="#E85A17"/>
</g>
<path d="M177.395 412.602C175.03 424.551 178.039 435.42 184.45 441.465C185.848 442.784 190.988 445.569 195.389 447.467C193.151 440.17 192.124 432.493 192.495 425.066C192.933 416.306 195.398 407.352 201.298 400.65C206.932 394.251 214.842 391.114 223.109 390.26C219.456 387.841 210.668 383.616 207.657 383.333C207.073 383.279 206.488 383.252 205.904 383.252C193.215 383.251 180.688 395.96 177.395 412.602Z" fill="url(#paint40_linear_1091_8927)"/>
<path d="M183.443 415.626C179.998 433.035 187.961 448.155 201.229 449.399C214.496 450.643 228.045 437.539 231.491 420.131C234.936 402.722 226.973 387.602 213.706 386.358C213.121 386.303 212.537 386.276 211.952 386.276C199.265 386.277 186.737 398.985 183.443 415.626Z" fill="url(#paint41_linear_1091_8927)"/>
<g opacity="0.699997">
<path d="M205.138 417.072L209.206 417.454C211.845 417.701 213.465 416.307 214.066 413.27C214.352 411.827 214.247 410.631 213.752 409.682C213.258 408.733 212.419 408.196 211.239 408.071L206.998 407.673L205.138 417.072ZM207.84 429.124L202.845 428.656L202.054 432.654L197.341 432.212L198.132 428.214L194.943 427.915L195.935 422.906L199.123 423.205L199.434 421.638L196.245 421.34L197.236 416.331L200.425 416.63L203.281 402.203L212.172 403.036C213.889 403.197 215.317 403.744 216.455 404.676C217.593 405.609 218.372 406.861 218.792 408.432C219.211 410.005 219.231 411.752 218.85 413.676C218.263 416.644 217.031 418.915 215.158 420.489C213.283 422.062 210.98 422.721 208.246 422.464L204.146 422.08L203.836 423.647L208.832 424.115L207.84 429.124Z" fill="#E85A17"/>
</g>
<path d="M123.155 324.422C118.399 330.409 118.506 342.063 124.322 354.974C132.422 372.955 148.523 386.563 160.286 385.37C163.43 385.051 172.551 379.624 174.136 377.628C175.272 376.199 176.127 374.443 176.697 372.426C168.427 371.926 160.207 368.541 153.438 364.066C144.621 358.236 136.951 350.092 132.878 340.238C129.998 333.269 129.431 325.722 131.615 318.767C128.048 320.609 124.142 323.18 123.155 324.422Z" fill="url(#paint42_linear_1091_8927)"/>
<path d="M137.003 316.68C125.24 317.873 122.27 333.417 130.37 351.398C138.469 369.379 154.571 382.988 166.333 381.794C178.096 380.601 181.066 365.057 172.966 347.076C165.198 329.831 150.069 316.607 138.467 316.607C137.972 316.607 137.484 316.631 137.003 316.68Z" fill="url(#paint43_linear_1091_8927)"/>
<g opacity="0.699997">
<path d="M149.217 348.862L152.824 348.496C155.163 348.259 155.627 346.572 154.214 343.435C153.543 341.945 152.704 340.773 151.697 339.917C150.691 339.062 149.659 338.681 148.604 338.773L144.844 339.154L149.217 348.862ZM159.035 360.377L154.606 360.826L156.466 364.956L152.288 365.38L150.428 361.25L147.601 361.537L145.271 356.364L148.098 356.077L147.369 354.459L144.542 354.746L142.212 349.573L145.039 349.286L138.326 334.384L146.209 333.584C147.731 333.43 149.257 333.713 150.785 334.433C152.314 335.154 153.746 336.259 155.082 337.748C156.418 339.238 157.534 340.976 158.428 342.963C159.81 346.029 160.219 348.518 159.658 350.429C159.097 352.342 157.605 353.42 155.182 353.666L151.547 354.035L152.276 355.653L156.705 355.204L159.035 360.377Z" fill="#E85A17"/>
</g>
<path d="M65.3774 263.837C61.4149 272.737 61.638 280.751 65.1984 286.353C66.1287 287.818 70.0131 291.366 73.5864 294.134C74.0666 284.468 79.0944 275.486 85.7656 268.515C93.541 260.391 103.483 254.285 114.032 250.474C119.942 248.339 126.341 246.787 132.729 246.541C132.692 246.477 132.657 246.413 132.62 246.35C131.112 243.837 122.294 236.302 119.521 235.07C116.749 233.838 113.456 233.165 109.706 233.165C92.766 233.165 72.9196 246.897 65.3774 263.837Z" fill="url(#paint44_linear_1091_8927)"/>
<path d="M70.876 268.512C63.3338 285.451 70.9521 299.184 87.8921 299.184C104.832 299.184 124.679 285.451 132.221 268.512C139.763 251.572 132.145 237.839 115.205 237.839C98.2646 237.839 78.4178 251.572 70.876 268.512Z" fill="url(#paint45_linear_1091_8927)"/>
<g opacity="0.699997">
<path d="M98.6677 267.95H103.862C107.232 267.95 109.574 266.473 110.89 263.518C111.515 262.114 111.592 260.981 111.12 260.118C110.648 259.256 109.659 258.818 108.155 258.804H102.74L98.6677 267.95ZM100.027 279.222H93.6492L91.917 283.113H85.9L87.6322 279.222H83.5605L85.7306 274.349H89.8022L90.4809 272.824H86.4093L88.5793 267.95H92.6507L98.9014 253.911H110.253C112.446 253.911 114.196 254.305 115.503 255.094C116.809 255.883 117.595 257.01 117.859 258.473C118.123 259.938 117.838 261.606 117.005 263.477C115.719 266.366 113.724 268.646 111.022 270.317C108.319 271.988 105.222 272.824 101.733 272.824H96.4979L95.8192 274.349H102.197L100.027 279.222Z" fill="#E85A17"/>
</g>
<path d="M144.113 212.574L139.012 209.608L138.061 215.555C136.071 227.996 151.371 240.786 172.232 244.123C193.095 247.46 211.62 240.079 213.61 227.637L214.561 221.69L208.789 222.917C203.223 215.321 191.937 209.014 178.198 206.817C174.817 206.277 171.501 206.018 168.306 206.019C158.52 206.019 149.886 208.441 144.113 212.574Z" fill="url(#paint46_linear_1091_8927)"/>
<path d="M163.941 234.259L161.607 241.469C163.059 241.972 164.557 242.428 166.098 242.832L168.029 235.451C166.63 235.085 165.254 234.684 163.941 234.259Z" fill="#E85A17"/>
<path d="M156.144 231.142L152.975 237.621C154.319 238.375 155.736 239.083 157.217 239.74L159.968 232.83C158.645 232.303 157.358 231.735 156.144 231.142Z" fill="#E85A17"/>
<path d="M176.266 237.18C175.974 237.133 175.68 237.087 175.385 237.036C174.312 236.849 173.241 236.647 172.205 236.43L170.654 243.849C171.176 243.945 171.7 244.037 172.229 244.122C173.251 244.285 174.266 244.422 175.275 244.534L176.423 237.205L176.266 237.18Z" fill="#E85A17"/>
<path d="M180.587 237.716L179.988 244.884C181.599 244.942 183.183 244.935 184.733 244.866L184.727 237.892C183.388 237.892 181.995 237.834 180.587 237.716Z" fill="#E85A17"/>
<path d="M188.811 237.696L189.473 244.453C191.094 244.239 192.665 243.954 194.174 243.603L192.8 237.087C191.517 237.357 190.176 237.562 188.811 237.696Z" fill="#E85A17"/>
<path d="M196.641 236.031L198.78 242.253C200.348 241.691 201.824 241.047 203.191 240.325L200.275 234.507C199.117 235.087 197.894 235.6 196.641 236.031Z" fill="#E85A17"/>
<path d="M203.648 232.512L207.24 237.716C208.55 236.68 209.689 235.548 210.633 234.328L206.707 230.066C205.746 230.952 204.716 231.775 203.648 232.512Z" fill="#E85A17"/>
<path d="M209.406 227.209L212.986 230.14C213.276 229.332 213.521 228.503 213.658 227.645L214.016 225.408L211.73 224.005C211.038 225.123 210.239 226.198 209.406 227.209Z" fill="#E85A17"/>
<path d="M143.501 221.399L139.486 224.507C140.139 225.888 140.98 227.242 141.996 228.554L146.111 224.302C145.149 223.37 144.27 222.393 143.501 221.399Z" fill="#E85A17"/>
<path d="M149.15 226.893L145.234 232.07C146.361 233.116 147.602 234.122 148.946 235.078L152.519 229.169C151.329 228.45 150.196 227.685 149.15 226.893Z" fill="#E85A17"/>
<path d="M140.226 215.199L140.237 215.257L138.047 215.636C137.823 217.095 137.837 218.558 138.068 220.01L141.44 218.228C140.48 216.411 140.229 215.21 140.226 215.199Z" fill="#E85A17"/>
<path d="M138.939 210.067C137.101 222.531 152.555 235.133 173.456 238.216C194.357 241.298 212.791 233.694 214.63 221.23C216.467 208.766 201.013 196.164 180.113 193.082C176.971 192.618 173.882 192.396 170.899 192.396C154.042 192.396 140.501 199.478 138.939 210.067Z" fill="url(#paint47_linear_1091_8927)"/>
<g opacity="0.699997">
<path d="M179.783 197.053C161.273 194.093 144.86 200.154 143.195 210.564C141.53 220.975 155.234 231.852 173.744 234.813C192.254 237.773 208.667 231.712 210.332 221.302C211.997 210.891 198.293 200.014 179.783 197.053ZM173.538 236.102C154.318 233.028 140.128 221.479 141.906 210.358C143.685 199.238 160.769 192.692 179.989 195.766C199.21 198.84 213.399 210.387 211.621 221.508C209.842 232.629 192.759 239.175 173.538 236.102Z" fill="#E85A17"/>
</g>
<g opacity="0.699997">
<path d="M174.003 214.801L179.904 215.058C183.732 215.225 185.233 214.229 184.408 212.069C184.016 211.043 183.213 210.193 182 209.52C180.787 208.848 179.32 208.469 177.599 208.384L171.449 208.115L174.003 214.801ZM184.397 223.357L177.152 223.041L178.239 225.885L171.404 225.587L170.317 222.743L165.691 222.54L164.33 218.978L168.956 219.18L168.53 218.065L163.904 217.863L162.543 214.301L167.168 214.503L163.246 204.24L176.142 204.803C178.633 204.911 180.93 205.295 183.034 205.954C185.137 206.613 186.914 207.5 188.364 208.616C189.813 209.732 190.8 210.974 191.323 212.342C192.129 214.454 191.653 216.071 189.896 217.196C188.137 218.32 185.276 218.796 181.311 218.623L175.365 218.364L175.791 219.478L183.036 219.794L184.397 223.357Z" fill="#E85A17"/>
</g>
<g opacity="0.699997">
<path d="M221.168 276.192C218.22 276.192 214.827 277.188 211.355 279.073C199.848 285.319 190.244 299.596 189.947 310.899C189.847 314.725 190.837 317.819 192.811 319.845C194.499 321.578 196.888 322.494 199.719 322.494C202.667 322.494 206.061 321.497 209.533 319.613C221.04 313.367 230.643 299.089 230.94 287.786C231.041 283.96 230.05 280.867 228.076 278.84C226.389 277.107 224 276.192 221.168 276.192ZM199.719 324.006C196.47 324.006 193.707 322.932 191.728 320.901C189.462 318.575 188.324 315.102 188.435 310.859C188.745 299.075 198.703 284.219 210.633 277.743C214.326 275.739 217.969 274.679 221.168 274.679C224.417 274.679 227.181 275.753 229.16 277.784C231.425 280.11 232.564 283.582 232.452 287.826C232.142 299.61 222.184 314.466 210.254 320.942C206.561 322.947 202.918 324.006 199.719 324.006Z" fill="#E85A17"/>
<path d="M75.1109 353.362C74.51 353.362 73.905 353.378 73.3118 353.408C65.5326 353.809 59.2755 356.784 56.1447 361.57C53.8008 365.153 53.4389 369.373 55.0988 373.771C58.9543 383.987 72.7684 391.99 86.5484 391.99C87.1484 391.99 87.7534 391.975 88.3461 391.945C96.1255 391.544 102.383 388.568 105.514 383.782C107.858 380.198 108.219 375.98 106.559 371.582C102.704 361.365 88.89 353.362 75.1109 353.362ZM86.5484 393.503C79.6148 393.503 72.4354 391.556 66.3326 388.02C60.1649 384.446 55.6728 379.576 53.6837 374.305C51.8728 369.506 52.2971 364.689 54.8788 360.742C58.277 355.547 64.9672 352.323 73.234 351.898C73.853 351.866 74.4844 351.85 75.1109 351.85C82.0442 351.85 89.2236 353.797 95.3261 357.332C101.494 360.906 105.985 365.777 107.974 371.048C109.785 375.847 109.361 380.663 106.78 384.61C103.381 389.805 96.6912 393.029 88.4239 393.455C87.8054 393.487 87.1746 393.503 86.5484 393.503Z" fill="#E85A17"/>
<path d="M211.266 391.772C200.795 391.772 190.477 402.463 187.775 416.11C186.133 424.409 187.515 432.284 191.567 437.715C194.297 441.375 197.982 443.52 202.222 443.918C202.69 443.962 203.167 443.984 203.641 443.984C214.113 443.984 224.431 433.293 227.132 419.646C228.774 411.347 227.393 403.472 223.34 398.041C220.61 394.38 216.926 392.236 212.686 391.838C212.217 391.794 211.74 391.772 211.266 391.772ZM203.641 445.496C203.12 445.496 202.595 445.472 202.08 445.424C197.403 444.985 193.348 442.632 190.354 438.619C186.047 432.846 184.567 424.535 186.292 415.817C187.669 408.856 190.98 402.407 195.614 397.657C200.268 392.887 205.827 390.26 211.266 390.26C211.787 390.26 212.312 390.284 212.827 390.332C217.505 390.771 221.559 393.124 224.553 397.136C228.86 402.91 230.341 411.221 228.615 419.939C227.238 426.9 223.927 433.349 219.293 438.099C214.639 442.869 209.08 445.496 203.641 445.496Z" fill="#E85A17"/>
<path d="M140.437 322.256C140.042 322.256 139.649 322.276 139.269 322.315C136.24 322.622 133.836 324.175 132.319 326.805C129.248 332.129 129.986 341.308 134.244 350.762C140.674 365.035 153.252 376.215 162.88 376.215C163.275 376.215 163.668 376.196 164.048 376.157C167.077 375.85 169.48 374.297 170.998 371.667C174.069 366.344 173.331 357.164 169.072 347.71C162.643 333.437 150.065 322.256 140.437 322.256ZM162.88 377.728C157.911 377.728 152.092 375.014 146.496 370.087C140.933 365.19 136.093 358.548 132.866 351.384C128.343 341.344 127.649 331.874 131.009 326.049C132.779 322.98 135.583 321.169 139.117 320.81C139.547 320.766 139.991 320.744 140.437 320.744C145.406 320.744 151.225 323.458 156.821 328.385C162.384 333.283 167.224 339.925 170.451 347.089C174.974 357.128 175.668 366.599 172.308 372.423C170.538 375.492 167.734 377.304 164.2 377.662C163.77 377.706 163.326 377.728 162.88 377.728Z" fill="#E85A17"/>
<path d="M113.147 243.195C99.0421 243.195 82.4494 254.69 76.1591 268.818C73.0125 275.886 72.9628 282.641 76.0224 287.352C78.7331 291.527 83.6732 293.826 89.9319 293.826C104.037 293.826 120.63 282.331 126.92 268.203C130.067 261.136 130.117 254.38 127.057 249.669C124.346 245.494 119.406 243.195 113.147 243.195ZM89.9319 295.338C83.1436 295.338 77.7533 292.795 74.7538 288.176C71.4098 283.027 71.4184 275.747 74.7772 268.203C81.2878 253.58 98.5006 241.683 113.147 241.683C119.936 241.683 125.326 244.227 128.326 248.845C131.67 253.994 131.661 261.274 128.302 268.818C121.792 283.442 104.579 295.338 89.9319 295.338Z" fill="#E85A17"/>
</g>
<path d="M142.583 369.631L137.988 374.684C138.852 375.529 139.728 376.333 140.614 377.093L144.8 371.839C144.051 371.133 143.311 370.396 142.583 369.631Z" fill="#E85A17"/>
<path d="M146.477 381.18L149.637 375.882C148.802 375.272 147.972 374.62 147.148 373.931L143.467 379.242C144.444 379.919 145.457 380.571 146.477 381.18Z" fill="#E85A17"/>
<path d="M134.921 359.807L129.135 363.795C129.771 364.776 130.43 365.735 131.107 366.669L136.661 362.401C136.064 361.555 135.484 360.69 134.921 359.807Z" fill="#E85A17"/>
<path d="M152.274 377.663L149.617 382.908C150.665 383.439 151.744 383.94 152.825 384.398C152.84 384.403 152.854 384.407 152.869 384.412L155.06 379.23C154.134 378.764 153.203 378.24 152.274 377.663Z" fill="#E85A17"/>
<path d="M138.517 364.905L133.236 369.45C133.984 370.374 134.749 371.268 135.53 372.129L140.488 367.318C139.818 366.538 139.16 365.732 138.517 364.905Z" fill="#E85A17"/>
<path d="M166.33 381.794C165.652 381.862 164.959 381.88 164.255 381.852L163.785 384.198C164.927 383.681 166.176 383.036 167.405 382.343L167.501 381.615C167.12 381.689 166.732 381.753 166.33 381.794Z" fill="#E85A17"/>
<path d="M157.993 380.515L156.361 385.254C157.607 385.438 158.822 385.487 159.997 385.391L161.067 381.431C160.056 381.207 159.03 380.9 157.993 380.515Z" fill="#E85A17"/>
<path d="M126.11 337.067L119.789 337.607C119.841 338.742 119.95 339.914 120.123 341.12L126.621 340.09C126.408 339.061 126.24 338.053 126.11 337.067Z" fill="#E85A17"/>
<path d="M128.76 321.44C128.974 320.809 129.158 320.338 129.28 320.045C128.36 320.577 127.465 321.127 126.65 321.662L128.286 322.165C128.437 321.916 128.595 321.675 128.76 321.44Z" fill="#E85A17"/>
<path d="M125.851 330.932L120.34 330.594C120.09 331.69 119.92 332.855 119.83 334.081L125.838 334.007C125.79 332.947 125.795 331.92 125.851 330.932Z" fill="#E85A17"/>
<path d="M131.834 354.437L125.645 357.74C126.175 358.783 126.731 359.809 127.312 360.815L133.309 357.15C132.798 356.261 132.306 355.356 131.834 354.437Z" fill="#E85A17"/>
<path d="M126.996 324.922L123.398 324.141C123.303 324.24 123.216 324.334 123.147 324.421C122.487 325.251 121.925 326.194 121.455 327.23L126.209 327.881C126.402 326.834 126.667 325.847 126.996 324.922Z" fill="#E85A17"/>
<path d="M130.368 351.398C129.983 350.544 129.625 349.697 129.29 348.856L122.812 351.325C123.215 352.397 123.66 353.482 124.143 354.575L130.494 351.672C130.452 351.58 130.409 351.489 130.368 351.398Z" fill="#E85A17"/>
<path d="M127.342 343.064L120.773 344.589C121.028 345.703 121.33 346.84 121.681 347.994L128.235 345.987C127.902 345 127.606 344.026 127.342 343.064Z" fill="#E85A17"/>
<path d="M48.5383 369.091L46.7764 369.636C46.4046 370.827 46.1477 371.828 46.0853 372.445C46.0553 372.74 46.0347 373.038 46.0215 373.338L49.0586 372.154C48.7907 371.117 48.6202 370.095 48.5383 369.091Z" fill="#E85A17"/>
<path d="M50.059 375.083L46.248 376.899C46.4359 378.015 46.7359 379.152 47.1509 380.302L51.4439 377.842C50.9178 376.942 50.4555 376.021 50.059 375.083Z" fill="#E85A17"/>
<path d="M103.371 393.63L104.204 396.833C104.216 396.822 104.23 396.813 104.242 396.803C105.011 396.188 105.838 395.165 106.665 393.929L106.285 392.773C105.332 393.087 104.352 393.375 103.371 393.63Z" fill="#E85A17"/>
<path d="M55.3409 391.717L59.5473 386.816C58.747 386.196 57.9792 385.552 57.2477 384.885L52.7754 389.235C53.5743 390.094 54.4314 390.922 55.3409 391.717Z" fill="#E85A17"/>
<path d="M94.8221 401.392L94.376 395.715C93.3753 395.89 92.3405 396.025 91.2773 396.121L91.4256 402.116C92.6015 401.925 93.7353 401.684 94.8221 401.392Z" fill="#E85A17"/>
<path d="M50.5026 386.498L55.0995 382.749C54.401 381.988 53.7495 381.204 53.147 380.4L48.5996 383.514C49.1565 384.535 49.7931 385.531 50.5026 386.498Z" fill="#E85A17"/>
<path d="M74.2537 401.283L75.6344 394.677C74.6475 394.412 73.6715 394.115 72.709 393.789L70.8379 400.314C71.9604 400.678 73.1003 401.002 74.2537 401.283Z" fill="#E85A17"/>
<path d="M48.1566 365.71C48.1065 365.84 48.057 365.97 48.0078 366.101L48.2328 366.049C48.2061 365.933 48.1808 365.82 48.1566 365.71Z" fill="#E85A17"/>
<path d="M101.276 398.793L100.4 394.306C99.9386 394.396 99.4711 394.479 99.0014 394.557C98.4841 394.729 97.9547 394.888 97.4141 395.036L98.1252 400.299C99.2409 399.854 100.291 399.35 101.276 398.793Z" fill="#E85A17"/>
<path d="M81.0641 402.426L81.8437 395.913C80.7951 395.777 79.7521 395.605 78.717 395.398L77.6406 401.982C78.7747 402.172 79.9176 402.32 81.0641 402.426Z" fill="#E85A17"/>
<path d="M87.2497 402.559C87.4958 402.546 87.7367 402.526 87.9795 402.509L88.1418 396.285C87.091 396.299 86.0394 396.274 84.9895 396.212L84.5156 402.609C85.4278 402.621 86.3397 402.606 87.2497 402.559Z" fill="#E85A17"/>
<path d="M61.1202 395.908L64.5046 390.117C63.6353 389.621 62.79 389.101 61.9708 388.556L58.1367 393.941C59.0915 394.631 60.0884 395.287 61.1202 395.908Z" fill="#E85A17"/>
<path d="M67.4972 399.095L69.8773 392.73C68.9478 392.349 68.0348 391.941 67.1416 391.507L64.25 397.625C65.306 398.152 66.3895 398.643 67.4972 399.095Z" fill="#E85A17"/>
<path d="M214 385.484L214.023 386.397C215.046 386.511 216.036 386.71 216.992 386.986L216.999 386.881C216.004 386.394 214.989 385.919 214 385.484Z" fill="#E85A17"/>
<path d="M177.966 430.479L183.106 429.535C182.941 428.529 182.819 427.499 182.74 426.447L177.158 427.089C177.371 428.255 177.641 429.387 177.966 430.479Z" fill="#E85A17"/>
<path d="M200.4 384.032L202.37 388.637C203.273 388.19 204.189 387.802 205.116 387.477L203.83 383.364C202.679 383.487 201.534 383.712 200.4 384.032Z" fill="#E85A17"/>
<path d="M180.733 436.825L184.714 435.571C184.35 434.613 184.031 433.617 183.759 432.589L179.148 433.741C179.618 434.824 180.147 435.854 180.733 436.825Z" fill="#E85A17"/>
<path d="M176.707 423.616L182.642 423.357C182.649 422.348 182.694 421.325 182.782 420.288L176.591 420.101C176.575 421.295 176.615 422.468 176.707 423.616Z" fill="#E85A17"/>
<path d="M207.648 383.333C207.534 383.322 207.419 383.315 207.305 383.307L208.008 386.679C209 386.478 209.998 386.352 210.999 386.302L210.756 384.173C209.48 383.712 208.389 383.402 207.648 383.333Z" fill="#E85A17"/>
<path d="M176.795 416.577L183.15 417.259C183.236 416.717 183.329 416.173 183.437 415.626C183.527 415.175 183.624 414.727 183.727 414.282L177.3 413.077C177.08 414.256 176.912 415.424 176.795 416.577Z" fill="#E85A17"/>
<path d="M183.924 396.845L189.572 400.474C190.117 399.639 190.689 398.832 191.283 398.056L186.047 394.005C185.305 394.907 184.597 395.855 183.924 396.845Z" fill="#E85A17"/>
<path d="M178.086 409.627L184.506 411.365C184.801 410.396 185.126 409.445 185.482 408.514L179.148 406.254C178.752 407.353 178.397 408.479 178.086 409.627Z" fill="#E85A17"/>
<path d="M188.584 444.138C189.026 444.382 189.486 444.629 189.961 444.877C189.76 444.5 189.56 444.121 189.368 443.742L188.584 444.138Z" fill="#E85A17"/>
<path d="M193.977 386.924L197.41 391.792C198.189 391.18 198.986 390.611 199.799 390.091L197.097 385.244C196.037 385.725 194.995 386.287 193.977 386.924Z" fill="#E85A17"/>
<path d="M188.432 391.37L193.157 395.793C193.816 395.06 194.497 394.362 195.197 393.701L191.079 388.989C190.169 389.723 189.285 390.518 188.432 391.37Z" fill="#E85A17"/>
<path d="M184.444 441.465C184.656 441.664 184.954 441.898 185.322 442.157L187.627 441.14C187.035 440.29 186.489 439.391 185.995 438.44L182.754 439.666C183.287 440.304 183.851 440.905 184.444 441.465Z" fill="#E85A17"/>
<path d="M180.479 402.984L186.653 405.737C187.081 404.814 187.539 403.914 188.023 403.04L182.064 399.849C181.498 400.86 180.969 401.907 180.479 402.984Z" fill="#E85A17"/>
<path d="M88.1 247.828L84.575 241.761C83.609 242.413 82.6588 243.095 81.7285 243.806L85.6396 249.74C86.4439 249.081 87.2643 248.443 88.1 247.828Z" fill="#E85A17"/>
<path d="M78.9719 255.785L73.9314 250.959C73.1372 251.834 72.3733 252.73 71.6426 253.647L77.0144 258.004C77.6299 257.246 78.2885 256.499 78.9719 255.785Z" fill="#E85A17"/>
<path d="M75.2511 260.373L69.5338 256.481C68.859 257.457 68.2229 258.451 67.6289 259.461L73.6971 262.878C74.1778 262.025 74.7005 261.182 75.2511 260.373Z" fill="#E85A17"/>
<path d="M82.2324 252.761C82.5978 252.411 82.9683 252.066 83.3431 251.726L78.9882 246.035C78.0961 246.804 77.2276 247.601 76.3848 248.421L81.1109 253.723C81.475 253.398 81.8496 253.077 82.2324 252.761Z" fill="#E85A17"/>
<path d="M93.4697 244.311L90.4736 238.27C89.46 238.79 88.4562 239.345 87.4648 239.932L90.7431 245.993C91.6399 245.405 92.5493 244.843 93.4697 244.311Z" fill="#E85A17"/>
<path d="M62.7305 272.658L68.9592 273.846C69.2158 272.897 69.5235 271.931 69.8818 270.953L63.4521 269.2C63.1358 270.377 62.8944 271.532 62.7305 272.658Z" fill="#E85A17"/>
<path d="M111.17 238.087L110.831 233.186C110.458 233.172 110.082 233.164 109.7 233.164C108.884 233.164 108.062 233.196 107.234 233.258L108.109 238.587C109.133 238.378 110.155 238.209 111.17 238.087Z" fill="#E85A17"/>
<path d="M65.3674 263.836C65.0685 264.507 64.7965 265.173 64.5449 265.833L71.0231 268.171C71.4326 267.273 71.8756 266.384 72.3516 265.507L65.9535 262.582C65.7513 262.998 65.5544 263.416 65.3674 263.836Z" fill="#E85A17"/>
<path d="M115.199 237.839C115.94 237.839 116.66 237.868 117.365 237.92L117.879 234.429C116.79 234.056 115.632 233.762 114.41 233.551L114.258 237.854C114.572 237.845 114.886 237.839 115.199 237.839Z" fill="#E85A17"/>
<path d="M123.521 239.154L123.926 238.077C122.89 237.261 121.912 236.536 121.086 235.986L120.471 238.329C121.54 238.54 122.558 238.816 123.521 239.154Z" fill="#E85A17"/>
<path d="M127.577 241.136C127.233 240.832 126.884 240.528 126.532 240.226L126.426 240.447C126.822 240.665 127.206 240.894 127.577 241.136Z" fill="#E85A17"/>
<path d="M65.1931 286.353C65.1945 286.355 65.1964 286.357 65.1978 286.359L68.5066 285.776C68.2899 284.863 68.137 283.915 68.0501 282.934L63.6094 283.121C64.0279 284.269 64.5562 285.35 65.1931 286.353Z" fill="#E85A17"/>
<path d="M99.1541 241.446L96.8538 235.517C95.7664 235.9 94.6824 236.325 93.6055 236.792L96.2782 242.792C97.2297 242.312 98.1892 241.863 99.1541 241.446Z" fill="#E85A17"/>
<path d="M105.077 239.327L103.683 233.708C102.53 233.911 101.373 234.167 100.215 234.476L102.089 240.284C103.083 239.928 104.08 239.609 105.077 239.327Z" fill="#E85A17"/>
<path d="M62.7223 279.686L67.9863 279.883C68.0314 278.891 68.1387 277.874 68.3092 276.834L62.4613 276.172C62.4547 277.387 62.5424 278.56 62.7223 279.686Z" fill="#E85A17"/>
<path d="M201.629 273.221L205.311 278.506C206.146 277.863 206.995 277.251 207.857 276.675L204.597 271.389C203.594 271.951 202.603 272.563 201.629 273.221Z" fill="#E85A17"/>
<path d="M207.736 269.821L210.513 275.039C210.707 274.929 210.903 274.82 211.098 274.714C211.831 274.316 212.555 273.956 213.271 273.627L211.044 268.594C209.969 268.918 208.865 269.326 207.736 269.821Z" fill="#E85A17"/>
<path d="M191.305 282.524L196.435 287.198C197.074 286.414 197.736 285.646 198.415 284.898L193.681 279.921C192.864 280.762 192.071 281.631 191.305 282.524Z" fill="#E85A17"/>
<path d="M214.506 267.824L216.121 272.482C217.122 272.138 218.099 271.866 219.049 271.664L218.075 267.68C216.946 267.604 215.753 267.65 214.506 267.824Z" fill="#E85A17"/>
<path d="M222.482 268.733C222.206 268.609 221.924 268.496 221.635 268.393L222.018 271.251C223.044 271.189 224.028 271.217 224.964 271.334L224.947 270.145C223.787 269.419 222.871 268.907 222.482 268.733Z" fill="#E85A17"/>
<path d="M196.197 277.495L200.565 282.66C201.318 281.917 202.09 281.199 202.879 280.507L198.83 275.267C197.933 275.974 197.055 276.719 196.197 277.495Z" fill="#E85A17"/>
<path d="M179.94 314.753L185.473 314.773C185.441 314.173 185.43 313.555 185.446 312.915C185.457 312.507 185.479 312.095 185.509 311.681L179.426 311.264C179.496 312.512 179.669 313.677 179.94 314.753Z" fill="#E85A17"/>
<path d="M187.051 288.142L192.891 292.034C193.436 291.204 194.004 290.384 194.596 289.576L189.094 285.268C188.381 286.208 187.7 287.168 187.051 288.142Z" fill="#E85A17"/>
<path d="M179.488 307.747L185.9 308.624C186.078 307.635 186.305 306.636 186.579 305.631L180.003 304.257C179.761 305.436 179.588 306.601 179.488 307.747Z" fill="#E85A17"/>
<path d="M181.744 318.93C182.146 319.533 183.009 320.317 184.113 321.161L186.69 320.845C186.668 320.661 186.652 320.475 186.631 320.29C186.322 319.532 186.07 318.718 185.879 317.848L181.254 318.122C181.409 318.4 181.571 318.671 181.744 318.93Z" fill="#E85A17"/>
<path d="M183.521 294.261L189.892 297.196C190.34 296.315 190.817 295.439 191.322 294.571L185.187 291.142C184.592 292.173 184.036 293.214 183.521 294.261Z" fill="#E85A17"/>
<path d="M180.887 300.83L187.497 302.724C187.831 301.787 188.203 300.848 188.61 299.911L182.075 297.494C181.627 298.607 181.229 299.721 180.887 300.83Z" fill="#E85A17"/>
<defs>
<linearGradient id="paint0_linear_1091_8927" x1="12" y1="12" x2="550.307" y2="23.8147" gradientUnits="userSpaceOnUse">
<stop stop-color="#F4F8FF"/>
<stop offset="0.916667" stop-color="#E1E9FB"/>
<stop offset="1" stop-color="#F4F8FF"/>
</linearGradient>
<linearGradient id="paint1_linear_1091_8927" x1="12" y1="12" x2="539" y2="539" gradientUnits="userSpaceOnUse">
<stop stop-color="white" stop-opacity="0"/>
<stop offset="0.713542" stop-color="#D7E0F8"/>
</linearGradient>
<linearGradient id="paint2_linear_1091_8927" x1="355.95" y1="162.345" x2="285.772" y2="503.096" gradientUnits="userSpaceOnUse">
<stop stop-color="#EDF0F5"/>
<stop offset="0.999487" stop-color="#A7B6CC"/>
<stop offset="1" stop-color="#A7B6CC"/>
</linearGradient>
<linearGradient id="paint3_linear_1091_8927" x1="471.149" y1="489.765" x2="287.52" y2="-71.7672" gradientUnits="userSpaceOnUse">
<stop stop-color="#EDF0F5"/>
<stop offset="0.999487" stop-color="#A7B6CC"/>
<stop offset="1" stop-color="#A7B6CC"/>
</linearGradient>
<linearGradient id="paint4_linear_1091_8927" x1="412.38" y1="273.15" x2="408.742" y2="196.731" gradientUnits="userSpaceOnUse">
<stop stop-color="#D6DDE8"/>
<stop offset="0.999487" stop-color="#A7B6CC"/>
<stop offset="1" stop-color="#A7B6CC"/>
</linearGradient>
<radialGradient id="paint5_radial_1091_8927" cx="0" cy="0" r="1" gradientUnits="userSpaceOnUse" gradientTransform="translate(399.443 197.554) scale(0.00309875)">
<stop stop-color="#271273"/>
<stop offset="0.479609"/>
<stop offset="1"/>
</radialGradient>
<radialGradient id="paint6_radial_1091_8927" cx="0" cy="0" r="1" gradientUnits="userSpaceOnUse" gradientTransform="translate(330.004 222.905) scale(56.4731 56.4731)">
<stop stop-color="#271273"/>
<stop offset="0.479609"/>
<stop offset="1"/>
</radialGradient>
<linearGradient id="paint7_linear_1091_8927" x1="312.098" y1="182.006" x2="284.242" y2="235.093" gradientUnits="userSpaceOnUse">
<stop stop-color="#EDF0F5"/>
<stop offset="1" stop-color="#C9D2E0"/>
</linearGradient>
<linearGradient id="paint8_linear_1091_8927" x1="187.066" y1="235.482" x2="312.493" y2="235.482" gradientUnits="userSpaceOnUse">
<stop stop-color="#EDF0F5"/>
<stop offset="1" stop-color="#C9D2E0"/>
</linearGradient>
<linearGradient id="paint9_linear_1091_8927" x1="187.062" y1="254.372" x2="312.494" y2="254.372" gradientUnits="userSpaceOnUse">
<stop stop-color="#EDF0F5"/>
<stop offset="1" stop-color="#C9D2E0"/>
</linearGradient>
<linearGradient id="paint10_linear_1091_8927" x1="290.693" y1="262.749" x2="363.099" y2="240.506" gradientUnits="userSpaceOnUse">
<stop stop-color="#EDF0F5"/>
<stop offset="1" stop-color="#C9D2E0"/>
</linearGradient>
<linearGradient id="paint11_linear_1091_8927" x1="187.062" y1="338.943" x2="312.494" y2="338.943" gradientUnits="userSpaceOnUse">
<stop stop-color="#EDF0F5"/>
<stop offset="1" stop-color="#C9D2E0"/>
</linearGradient>
<linearGradient id="paint12_linear_1091_8927" x1="289.189" y1="342.134" x2="361.315" y2="320.537" gradientUnits="userSpaceOnUse">
<stop stop-color="#EDF0F5"/>
<stop offset="1" stop-color="#C9D2E0"/>
</linearGradient>
<radialGradient id="paint13_radial_1091_8927" cx="0" cy="0" r="1" gradientUnits="userSpaceOnUse" gradientTransform="translate(321.916 293.347) scale(58.3143 58.3143)">
<stop stop-color="#271273"/>
<stop offset="0.479609"/>
<stop offset="1"/>
</radialGradient>
<radialGradient id="paint14_radial_1091_8927" cx="0" cy="0" r="1" gradientUnits="userSpaceOnUse" gradientTransform="translate(321.913 293.344) scale(58.322 58.322)">
<stop stop-color="#271273"/>
<stop offset="0.479609"/>
<stop offset="1"/>
</radialGradient>
<linearGradient id="paint15_linear_1091_8927" x1="187.054" y1="321.738" x2="312.481" y2="321.738" gradientUnits="userSpaceOnUse">
<stop stop-color="#EDF0F5"/>
<stop offset="1" stop-color="#C9D2E0"/>
</linearGradient>
<linearGradient id="paint16_linear_1091_8927" x1="312.381" y1="266.227" x2="284.316" y2="319.713" gradientUnits="userSpaceOnUse">
<stop stop-color="#EDF0F5"/>
<stop offset="1" stop-color="#C9D2E0"/>
</linearGradient>
<linearGradient id="paint17_linear_1091_8927" x1="230.297" y1="349.23" x2="322.032" y2="328.666" gradientUnits="userSpaceOnUse">
<stop stop-color="#EDF0F5"/>
<stop offset="1" stop-color="#C9D2E0"/>
</linearGradient>
<linearGradient id="paint18_linear_1091_8927" x1="230.297" y1="264.669" x2="322.031" y2="244.105" gradientUnits="userSpaceOnUse">
<stop stop-color="#EDF0F5"/>
<stop offset="1" stop-color="#C9D2E0"/>
</linearGradient>
<linearGradient id="paint19_linear_1091_8927" x1="472.168" y1="259.415" x2="493.512" y2="259.415" gradientUnits="userSpaceOnUse">
<stop stop-color="#CECBFF"/>
<stop offset="0.473931" stop-color="#6E60D2"/>
<stop offset="1" stop-color="#6E60D2"/>
</linearGradient>
<linearGradient id="paint20_linear_1091_8927" x1="233.336" y1="181.99" x2="248.464" y2="181.99" gradientUnits="userSpaceOnUse">
<stop stop-color="#CECBFF"/>
<stop offset="0.473931" stop-color="#6E60D2"/>
<stop offset="1" stop-color="#6E60D2"/>
</linearGradient>
<linearGradient id="paint21_linear_1091_8927" x1="453.252" y1="165.551" x2="487.081" y2="304.99" gradientUnits="userSpaceOnUse">
<stop stop-color="#EDF0F5"/>
<stop offset="0.999487" stop-color="#A7B6CC"/>
<stop offset="1" stop-color="#A7B6CC"/>
</linearGradient>
<linearGradient id="paint22_linear_1091_8927" x1="301.261" y1="50.1251" x2="165.122" y2="156.561" gradientUnits="userSpaceOnUse">
<stop stop-color="#EDF0F5"/>
<stop offset="0.999487" stop-color="#A7B6CC"/>
<stop offset="1" stop-color="#A7B6CC"/>
</linearGradient>
<linearGradient id="paint23_linear_1091_8927" x1="179.391" y1="296.58" x2="234.132" y2="296.58" gradientUnits="userSpaceOnUse">
<stop stop-color="#CFD7E4"/>
<stop offset="0.999487" stop-color="#A7B6CC"/>
<stop offset="1" stop-color="#A7B6CC"/>
</linearGradient>
<linearGradient id="paint24_linear_1091_8927" x1="247.906" y1="294.271" x2="89.4903" y2="315.723" gradientUnits="userSpaceOnUse">
<stop stop-color="#EDF0F5"/>
<stop offset="0.999487" stop-color="#A7B6CC"/>
<stop offset="1" stop-color="#A7B6CC"/>
</linearGradient>
<linearGradient id="paint25_linear_1091_8927" x1="46.0058" y1="381.69" x2="112.413" y2="381.69" gradientUnits="userSpaceOnUse">
<stop stop-color="#CFD7E4"/>
<stop offset="0.999487" stop-color="#A7B6CC"/>
<stop offset="1" stop-color="#A7B6CC"/>
</linearGradient>
<linearGradient id="paint26_linear_1091_8927" x1="87.6626" y1="386.157" x2="160.27" y2="529.721" gradientUnits="userSpaceOnUse">
<stop stop-color="#EDF0F5"/>
<stop offset="0.999487" stop-color="#A7B6CC"/>
<stop offset="1" stop-color="#A7B6CC"/>
</linearGradient>
<linearGradient id="paint27_linear_1091_8927" x1="176.592" y1="415.359" x2="223.109" y2="415.359" gradientUnits="userSpaceOnUse">
<stop stop-color="#CFD7E4"/>
<stop offset="0.999487" stop-color="#A7B6CC"/>
<stop offset="1" stop-color="#A7B6CC"/>
</linearGradient>
<linearGradient id="paint28_linear_1091_8927" x1="214.92" y1="413.182" x2="116.735" y2="475.063" gradientUnits="userSpaceOnUse">
<stop stop-color="#EDF0F5"/>
<stop offset="0.999487" stop-color="#A7B6CC"/>
<stop offset="1" stop-color="#A7B6CC"/>
</linearGradient>
<linearGradient id="paint29_linear_1091_8927" x1="119.76" y1="352.105" x2="176.697" y2="352.105" gradientUnits="userSpaceOnUse">
<stop stop-color="#CFD7E4"/>
<stop offset="0.999487" stop-color="#A7B6CC"/>
<stop offset="1" stop-color="#A7B6CC"/>
</linearGradient>
<linearGradient id="paint30_linear_1091_8927" x1="156.937" y1="340.817" x2="76.9039" y2="468.705" gradientUnits="userSpaceOnUse">
<stop stop-color="#EDF0F5"/>
<stop offset="0.999487" stop-color="#A7B6CC"/>
<stop offset="1" stop-color="#A7B6CC"/>
</linearGradient>
<linearGradient id="paint31_linear_1091_8927" x1="62.4666" y1="263.649" x2="132.729" y2="263.649" gradientUnits="userSpaceOnUse">
<stop stop-color="#CFD7E4"/>
<stop offset="0.999487" stop-color="#A7B6CC"/>
<stop offset="1" stop-color="#A7B6CC"/>
</linearGradient>
<linearGradient id="paint32_linear_1091_8927" x1="74.608" y1="224.155" x2="156.291" y2="358.644" gradientUnits="userSpaceOnUse">
<stop stop-color="#EDF0F5"/>
<stop offset="0.999487" stop-color="#A7B6CC"/>
<stop offset="1" stop-color="#A7B6CC"/>
</linearGradient>
<linearGradient id="paint33_linear_1091_8927" x1="137.441" y1="219.429" x2="212.99" y2="231.511" gradientUnits="userSpaceOnUse">
<stop stop-color="#D5DCE7"/>
<stop offset="0.999487" stop-color="#A7B6CC"/>
<stop offset="1" stop-color="#A7B6CC"/>
</linearGradient>
<linearGradient id="paint34_linear_1091_8927" x1="365.279" y1="395.921" x2="515.439" y2="539.531" gradientUnits="userSpaceOnUse">
<stop stop-color="#EDF0F5"/>
<stop offset="0.999487" stop-color="#A7B6CC"/>
<stop offset="1" stop-color="#A7B6CC"/>
</linearGradient>
<linearGradient id="paint35_linear_1091_8927" x1="494.531" y1="312.218" x2="509.659" y2="312.218" gradientUnits="userSpaceOnUse">
<stop stop-color="#CECBFF"/>
<stop offset="0.473931" stop-color="#6E60D2"/>
<stop offset="1" stop-color="#6E60D2"/>
</linearGradient>
<linearGradient id="paint36_linear_1091_8927" x1="179.391" y1="296.58" x2="234.132" y2="296.58" gradientUnits="userSpaceOnUse">
<stop stop-color="#EC8F3D"/>
<stop offset="0.00051308" stop-color="#EC8F3D"/>
<stop offset="1" stop-color="#F7C11F"/>
</linearGradient>
<linearGradient id="paint37_linear_1091_8927" x1="251.849" y1="338.339" x2="147.899" y2="240.439" gradientUnits="userSpaceOnUse">
<stop stop-color="#EC8F3D"/>
<stop offset="0.00051308" stop-color="#EC8F3D"/>
<stop offset="1" stop-color="#FFE608"/>
</linearGradient>
<linearGradient id="paint38_linear_1091_8927" x1="46.0058" y1="381.69" x2="112.413" y2="381.69" gradientUnits="userSpaceOnUse">
<stop stop-color="#EC8F3D"/>
<stop offset="0.00051308" stop-color="#EC8F3D"/>
<stop offset="1" stop-color="#F7C11F"/>
</linearGradient>
<linearGradient id="paint39_linear_1091_8927" x1="128.337" y1="453.787" x2="54.9157" y2="328.393" gradientUnits="userSpaceOnUse">
<stop stop-color="#EC8F3D"/>
<stop offset="0.00051308" stop-color="#EC8F3D"/>
<stop offset="1" stop-color="#FFE608"/>
</linearGradient>
<linearGradient id="paint40_linear_1091_8927" x1="176.592" y1="415.359" x2="223.109" y2="415.359" gradientUnits="userSpaceOnUse">
<stop stop-color="#EC8F3D"/>
<stop offset="0.00051308" stop-color="#EC8F3D"/>
<stop offset="1" stop-color="#F7C11F"/>
</linearGradient>
<linearGradient id="paint41_linear_1091_8927" x1="274.135" y1="409.226" x2="80.2694" y2="434.387" gradientUnits="userSpaceOnUse">
<stop stop-color="#EC8F3D"/>
<stop offset="0.00051308" stop-color="#EC8F3D"/>
<stop offset="1" stop-color="#FFE608"/>
</linearGradient>
<linearGradient id="paint42_linear_1091_8927" x1="119.76" y1="352.105" x2="176.697" y2="352.105" gradientUnits="userSpaceOnUse">
<stop stop-color="#EC8F3D"/>
<stop offset="0.00051308" stop-color="#EC8F3D"/>
<stop offset="1" stop-color="#F7C11F"/>
</linearGradient>
<linearGradient id="paint43_linear_1091_8927" x1="128.039" y1="408.176" x2="164.75" y2="316.605" gradientUnits="userSpaceOnUse">
<stop stop-color="#EC8F3D"/>
<stop offset="0.00051308" stop-color="#EC8F3D"/>
<stop offset="1" stop-color="#FFE608"/>
</linearGradient>
<linearGradient id="paint44_linear_1091_8927" x1="62.4666" y1="263.649" x2="132.729" y2="263.649" gradientUnits="userSpaceOnUse">
<stop stop-color="#EC8F3D"/>
<stop offset="0.00051308" stop-color="#EC8F3D"/>
<stop offset="1" stop-color="#F7C11F"/>
</linearGradient>
<linearGradient id="paint45_linear_1091_8927" x1="127.814" y1="349.592" x2="64.5638" y2="154.342" gradientUnits="userSpaceOnUse">
<stop stop-color="#EC8F3D"/>
<stop offset="0.00051308" stop-color="#EC8F3D"/>
<stop offset="0.433993" stop-color="#FACD17"/>
<stop offset="1" stop-color="#FFE608"/>
</linearGradient>
<linearGradient id="paint46_linear_1091_8927" x1="137.441" y1="219.429" x2="212.99" y2="231.511" gradientUnits="userSpaceOnUse">
<stop stop-color="#EC8F3D"/>
<stop offset="0.00051308" stop-color="#EC8F3D"/>
<stop offset="1" stop-color="#F7C11F"/>
</linearGradient>
<linearGradient id="paint47_linear_1091_8927" x1="217.569" y1="279.878" x2="148.685" y2="171.396" gradientUnits="userSpaceOnUse">
<stop stop-color="#EC8F3D"/>
<stop offset="0.00051308" stop-color="#EC8F3D"/>
<stop offset="1" stop-color="#FFE608"/>
</linearGradient>
</defs>
</svg>
