<svg width="137" height="34" viewBox="0 0 137 34" fill="none" xmlns="http://www.w3.org/2000/svg">
<path fill-rule="evenodd" clip-rule="evenodd" d="M12.1461 0.0010376C9.61168 0.0010376 6.60684 2.43758 4.12831 6.53389C1.54501 10.7763 0.00390625 16.0282 0.00390625 20.5891C0.00390625 27.2659 3.75084 33.9993 12.1468 33.9993C20.5326 33.9993 24.2896 27.2659 24.2896 20.5891C24.2896 16.0282 22.7492 10.7763 20.1784 6.53389C17.6766 2.43758 14.6721 0.0010376 12.1461 0.0010376ZM77.7144 10.0185H86.2144V32.1786H95.3215V10.0185H103.818V1.82142H77.7144V10.0175V10.0185ZM123.247 10.0185H136.604V1.82142H123.247C110.975 1.82142 104.422 7.92269 104.422 16.999C104.422 26.0752 110.975 32.1786 123.247 32.1786H136.604V23.9818H123.247C117.567 23.9818 113.834 21.9519 113.834 17C113.834 12.0481 117.567 10.0185 123.247 10.0185ZM59.1913 1.82142L54.3376 19.9403L49.484 1.82142H33.3964V32.1786H42.5001V7.48693L49.1162 32.1786H59.5591L66.1787 7.47202V32.1786H75.2858V1.82142H59.1913Z" fill="#E30613"/>
</svg>
