<svg width="32" height="32" viewBox="0 0 32 32" fill="none" xmlns="http://www.w3.org/2000/svg">
<path d="M4 15C3.44772 15 3 15.4477 3 16C3 16.5523 3.44772 17 4 17L4 15ZM28.7071 16.7071C29.0976 16.3166 29.0976 15.6834 28.7071 15.2929L22.3431 8.92893C21.9526 8.53841 21.3195 8.53841 20.9289 8.92893C20.5384 9.31946 20.5384 9.95262 20.9289 10.3431L26.5858 16L20.9289 21.6569C20.5384 22.0474 20.5384 22.6805 20.9289 23.0711C21.3195 23.4616 21.9526 23.4616 22.3431 23.0711L28.7071 16.7071ZM4 17L28 17V15L4 15L4 17Z" fill="#0F2756"/>
</svg>
