<svg width="19" height="22" viewBox="0 0 19 22" fill="currentColor" xmlns="http://www.w3.org/2000/svg">
<path fill-rule="evenodd" clip-rule="evenodd" d="M19 19.75C19 20.716 18.216 21.5 17.25 21.5L11.75 21.5C11.5511 21.5 11.3603 21.421 11.2197 21.2803C11.079 21.1397 11 20.9489 11 20.75C11 20.5511 11.079 20.3603 11.2197 20.2197C11.3603 20.079 11.5511 20 11.75 20L17.25 20C17.3163 20 17.3799 19.9737 17.4268 19.9268C17.4737 19.8799 17.5 19.8163 17.5 19.75L17.5 2.25C17.5 2.112 17.388 2 17.25 2L11.75 2C11.5511 2 11.3603 1.92098 11.2197 1.78033C11.079 1.63968 11 1.44891 11 1.25C11 1.05109 11.079 0.86032 11.2197 0.719669C11.3603 0.579017 11.5511 0.499999 11.75 0.499999L17.25 0.5C17.7141 0.5 18.1592 0.684376 18.4874 1.01256C18.8156 1.34075 19 1.78587 19 2.25L19 19.75ZM9.006 10.25L5.706 6.766C5.57457 6.62077 5.50516 6.42989 5.51262 6.23416C5.52009 6.03843 5.60383 5.85338 5.74594 5.71858C5.88805 5.58378 6.07726 5.50993 6.27311 5.51281C6.46896 5.51569 6.65591 5.59508 6.794 5.734L11.294 10.484C11.4261 10.6233 11.4997 10.808 11.4997 11C11.4997 11.192 11.4261 11.3767 11.294 11.516L6.794 16.266C6.65591 16.4049 6.46896 16.4843 6.27311 16.4872C6.07726 16.4901 5.88805 16.4162 5.74594 16.2814C5.60382 16.1466 5.52009 15.9616 5.51262 15.7658C5.50516 15.5701 5.57456 15.3792 5.706 15.234L9.006 11.75L0.750001 11.75C0.551089 11.75 0.360322 11.671 0.21967 11.5303C0.0790185 11.3897 9.0055e-07 11.1989 9.17939e-07 11C9.35329e-07 10.8011 0.0790186 10.6103 0.21967 10.4697C0.360322 10.329 0.551089 10.25 0.750001 10.25L9.006 10.25Z" fill="white"/>
</svg>

