<svg width="44" height="44" viewBox="0 0 44 44" fill="none" xmlns="http://www.w3.org/2000/svg">
<rect width="44" height="44" rx="22" fill="url(#paint0_linear_1091_3287)"/>
<rect x="7" y="23" width="2" height="21" transform="rotate(-90 7 23)" fill="#4E9FFF"/>
<path d="M12.8758 31.6301C14.7988 33.5531 17.2414 34.8729 19.9038 35.4276C22.5661 35.9822 25.3325 35.7476 27.8634 34.7525C30.3944 33.7574 32.5798 32.0451 34.1515 29.8257C35.7231 27.6063 36.6127 24.9764 36.7111 22.2586C36.8095 19.5409 36.1123 16.8535 34.7052 14.5263C33.298 12.1991 31.2422 10.3333 28.7898 9.15783C26.3374 7.98237 23.5952 7.54838 20.8997 7.90912C18.2042 8.26986 15.6726 9.40964 13.6157 11.1886L14.9078 12.6827C16.6739 11.1553 18.8474 10.1767 21.1617 9.86701C23.476 9.55729 25.8304 9.9299 27.936 10.9391C30.0415 11.9484 31.8067 13.5503 33.0148 15.5484C34.2229 17.5465 34.8215 19.8538 34.737 22.1872C34.6526 24.5206 33.8888 26.7786 32.5394 28.6841C31.19 30.5896 29.3136 32.0598 27.1406 32.9141C24.9676 33.7685 22.5925 33.9699 20.3066 33.4937C18.0208 33.0175 15.9237 31.8844 14.2726 30.2333L12.8758 31.6301Z" fill="#4E9FFF"/>
<defs>
<linearGradient id="paint0_linear_1091_3287" x1="22" y1="0" x2="22" y2="44" gradientUnits="userSpaceOnUse">
<stop stop-color="#E2F8FF"/>
<stop offset="1" stop-color="#E2F8FF" stop-opacity="0"/>
</linearGradient>
</defs>
</svg>
