<svg width="44" height="44" viewBox="0 0 44 44" fill="none" xmlns="http://www.w3.org/2000/svg">
<rect width="44" height="44" rx="22" fill="url(#paint0_linear_1091_3295)"/>
<path fill-rule="evenodd" clip-rule="evenodd" d="M17 7H24.5H25V7.01247C26.0767 7.06623 27.1371 7.29331 28.1355 7.68508C29.2881 8.13738 30.3354 8.80031 31.2175 9.63604C32.0997 10.4718 32.7994 11.4639 33.2769 12.5558C33.7543 13.6478 34 14.8181 34 16C34 17.1819 33.7543 18.3522 33.2769 19.4442C32.7994 20.5361 32.0997 21.5282 31.2175 22.364C30.3354 23.1997 29.2881 23.8626 28.1355 24.3149C27.1371 24.7067 26.0767 24.9338 25 24.9875V25H24.5H18V23H24.9015C25.736 22.957 26.5578 22.7804 27.3318 22.4767C28.2296 22.1244 29.0453 21.608 29.7324 20.957C30.4196 20.3061 30.9646 19.5333 31.3365 18.6827C31.7084 17.8322 31.8998 16.9206 31.8998 16C31.8998 15.0794 31.7084 14.1678 31.3365 13.3173C30.9646 12.4667 30.4196 11.6939 29.7324 11.043C29.0453 10.392 28.2296 9.8756 27.3318 9.5233C26.5579 9.21961 25.736 9.04296 24.9015 9H17V7Z" fill="#4E9FFF"/>
<path fill-rule="evenodd" clip-rule="evenodd" d="M15 7H17V23H18V25H17V29H29V31H17V37H15V31H11V29H15V25H11V23H15V7Z" fill="#4E9FFF"/>
<defs>
<linearGradient id="paint0_linear_1091_3295" x1="22" y1="0" x2="22" y2="44" gradientUnits="userSpaceOnUse">
<stop stop-color="#E2F8FF"/>
<stop offset="1" stop-color="#E2F8FF" stop-opacity="0"/>
</linearGradient>
</defs>
</svg>
