<svg width="36" height="36" viewBox="0 0 36 36" fill="none" xmlns="http://www.w3.org/2000/svg">
<circle cx="18" cy="18" r="18" fill="#FFF6F2"/>
<path d="M27 26H26V11C26 10.7348 25.8946 10.4804 25.7071 10.2929C25.5196 10.1054 25.2652 10 25 10C24.7348 10 24.4804 10.1054 24.2929 10.2929C24.1054 10.4804 24 10.7348 24 11V26H22V19C22 18.7348 21.8946 18.4804 21.7071 18.2929C21.5196 18.1054 21.2652 18 21 18C20.7348 18 20.4804 18.1054 20.2929 18.2929C20.1054 18.4804 20 18.7348 20 19V26H18V15C18 14.7348 17.8946 14.4804 17.7071 14.2929C17.5196 14.1054 17.2652 14 17 14C16.7348 14 16.4804 14.1054 16.2929 14.2929C16.1054 14.4804 16 14.7348 16 15V26H14V23C14 22.7348 13.8946 22.4804 13.7071 22.2929C13.5196 22.1054 13.2652 22 13 22C12.7348 22 12.4804 22.1054 12.2929 22.2929C12.1054 22.4804 12 22.7348 12 23V26H10V9C10 8.73478 9.89464 8.48043 9.70711 8.29289C9.51957 8.10536 9.26522 8 9 8C8.73478 8 8.48043 8.10536 8.29289 8.29289C8.10536 8.48043 8 8.73478 8 9V27C8 27.2652 8.10536 27.5196 8.29289 27.7071C8.48043 27.8946 8.73478 28 9 28H27C27.2652 28 27.5196 27.8946 27.7071 27.7071C27.8946 27.5196 28 27.2652 28 27C28 26.7348 27.8946 26.4804 27.7071 26.2929C27.5196 26.1054 27.2652 26 27 26Z" fill="#FB6B1A"/>
</svg>
