<svg width="89" height="34" viewBox="0 0 89 34" fill="none" xmlns="http://www.w3.org/2000/svg">
<path d="M0.0371094 11.8888V16.7549L13.0558 15.3107V10.0436L0.0371094 11.8888ZM75.9402 0.317673C69.4312 1.71482 66.2352 6.5445 66.6035 14.4244L73.5441 13.8033C73.2282 9.35153 74.5777 8.29561 75.9439 7.71513L75.9402 0.317673ZM66.312 26.8072L66.3151 33.7267H88.7188V26.1258L66.312 26.8072ZM85.6971 2.46653C83.6169 0.484245 80.5654 -0.329182 77.2283 0.154533V7.41827C78.5792 7.34247 79.6748 7.84873 80.163 8.86601C80.9331 10.4713 80.1387 12.8803 78.2636 15.1118C75.3696 18.5548 67.674 25.6032 67.674 25.6032L78.7211 25.2371C85.4707 18.5877 87.8952 14.551 88.329 9.51359C88.5585 6.84827 87.5991 4.28053 85.6971 2.46653ZM36.7309 27.7135V33.7272H45.0354V27.461L36.7309 27.7135ZM29.9422 7.65042V33.7273H35.6633V6.83936L29.9422 7.65042ZM54.5922 27.1684V33.727H64.187V26.8767L54.5922 27.1684ZM54.5922 15.6231V22.293L60.8805 21.9468V15.0798L54.5922 15.6231ZM54.5922 4.14853V10.6973L64.187 9.6331V2.78853L54.5922 4.14853ZM46.7781 5.25596V33.727H53.3617V4.32282L46.7781 5.25596ZM20.7716 28.199V33.727H28.0235V27.9782L20.7716 28.199ZM20.7716 18.5529V24.1592L25.5326 23.897V18.14L20.7716 18.5529ZM20.7716 8.95007V14.4548L28.0235 13.6507V7.92227L20.7716 8.95007ZM14.8135 9.79459V33.727H19.8359V9.08321L14.8135 9.79459ZM4.19105 17.0512V33.7267H8.95734V16.5604L4.19105 17.0512Z" fill="black"/>
</svg>
