<svg width="50" height="50" viewBox="0 0 50 50" fill="none" xmlns="http://www.w3.org/2000/svg">
<path d="M49 25C49 38.2548 38.2548 49 25 49C11.7452 49 1 38.2548 1 25C1 11.7452 11.7452 1 25 1C38.2548 1 49 11.7452 49 25Z" fill="white" stroke="#2AABEE" stroke-width="2"/>
<path fill-rule="evenodd" clip-rule="evenodd" d="M11.3156 24.7359C18.6036 21.5606 23.4635 19.4673 25.8951 18.4559C32.8378 15.5682 34.2805 15.0665 35.2208 15.05C35.4276 15.0463 35.89 15.0976 36.1895 15.3406C36.4425 15.5459 36.512 15.8231 36.5453 16.0177C36.5786 16.2122 36.6201 16.6555 36.5871 17.0018C36.2109 20.9549 34.583 30.548 33.7548 34.9756C33.4043 36.849 32.7143 37.4772 32.0462 37.5386C30.5945 37.6722 29.492 36.5792 28.0859 35.6575C25.8856 34.2151 24.6425 33.3173 22.5067 31.9098C20.0384 30.2832 21.6385 29.3892 23.0452 27.9282C23.4133 27.5459 29.81 21.7276 29.9338 21.1998C29.9493 21.1338 29.9636 20.8878 29.8175 20.7578C29.6713 20.6279 29.4555 20.6723 29.2998 20.7077C29.0792 20.7577 25.5641 23.0811 18.7547 27.6776C17.757 28.3627 16.8532 28.6965 16.0435 28.679C15.1509 28.6598 13.4339 28.1743 12.1574 27.7594C10.5918 27.2505 9.34744 26.9814 9.4558 26.1171C9.51223 25.6669 10.1322 25.2065 11.3156 24.7359Z" fill="#2AABEE"/>
</svg>
