<svg width="497" height="180" viewBox="0 0 497 180" fill="none" xmlns="http://www.w3.org/2000/svg">
<rect x="0.552358" y="0.657753" width="66.6196" height="68.9592" rx="13.9253" transform="matrix(0.995951 0.0898927 -0.08364 0.996496 371.717 -26.3135)" fill="white"/>
<path d="M384.853 -1.8142L383.115 18.8985L381.639 18.7653L383.378 -1.9474L384.853 -1.8142ZM391.027 -1.25701L396.131 18.1372L396.283 18.1509L404.541 -0.0372109L406.108 0.104202L396.879 20.1409L395.222 19.9913L389.47 -1.39751L391.027 -1.25701ZM408.976 21.2327L410.715 0.519982L417.194 1.10479C418.562 1.22826 419.703 1.59276 420.616 2.1983C421.529 2.80383 422.2 3.58789 422.629 4.55048C423.057 5.51306 423.221 6.59443 423.12 7.79458C423.02 8.98799 422.679 10.017 422.097 10.8816C421.516 11.7395 420.725 12.3814 419.725 12.8075C418.725 13.2336 417.548 13.3855 416.194 13.2632L410.483 12.7477L410.598 11.3723L416.269 11.8841C417.34 11.9808 418.263 11.8705 419.036 11.553C419.81 11.2356 420.418 10.747 420.86 10.0872C421.31 9.42128 421.575 8.61298 421.654 7.66229C421.735 6.70487 421.609 5.85454 421.278 5.11131C420.954 4.36195 420.434 3.75798 419.719 3.2994C419.011 2.8347 418.118 2.55368 417.04 2.45637L412.077 2.00841L410.452 21.3659L408.976 21.2327ZM418.476 12.6438L422.784 22.479L421.076 22.3248L416.808 12.4933L418.476 12.6438Z" fill="#FF6F1D"/>
<rect x="0.552358" y="0.657753" width="66.6196" height="68.9592" rx="13.9253" transform="matrix(0.995951 0.0898927 -0.08364 0.996496 371.717 -26.3135)" stroke="#FF6E1D" stroke-width="1.2109"/>
<rect x="0.552358" y="0.657753" width="66.6196" height="68.9592" rx="13.9253" transform="matrix(0.995951 0.0898927 -0.08364 0.996496 285.217 119.597)" fill="white"/>
<path d="M298.355 144.096L296.617 164.809L295.141 164.675L296.88 143.963L298.355 144.096ZM304.529 144.653L309.633 164.047L309.785 164.061L318.043 145.873L319.61 146.014L310.381 166.051L308.724 165.901L302.972 144.513L304.529 144.653ZM322.478 167.143L324.217 146.43L330.696 147.015C332.064 147.138 333.205 147.503 334.118 148.108C335.031 148.714 335.702 149.498 336.13 150.461C336.559 151.423 336.723 152.505 336.622 153.705C336.522 154.898 336.181 155.927 335.599 156.792C335.018 157.65 334.227 158.292 333.227 158.718C332.227 159.144 331.05 159.296 329.696 159.173L323.985 158.658L324.1 157.282L329.771 157.794C330.842 157.891 331.765 157.781 332.538 157.463C333.312 157.146 333.92 156.657 334.362 155.997C334.812 155.331 335.077 154.523 335.156 153.572C335.237 152.615 335.111 151.765 334.78 151.021C334.456 150.272 333.936 149.668 333.221 149.21C332.513 148.745 331.62 148.464 330.542 148.367L325.579 147.919L323.954 167.276L322.478 167.143ZM331.978 158.554L336.286 168.389L334.577 168.235L330.31 158.403L331.978 158.554Z" fill="#FF6F1D"/>
<rect x="0.552358" y="0.657753" width="66.6196" height="68.9592" rx="13.9253" transform="matrix(0.995951 0.0898927 -0.08364 0.996496 285.217 119.597)" stroke="#FF6E1D" stroke-width="1.2109"/>
<rect x="0.483313" y="0.575534" width="66.771" height="69.1105" rx="14.001" transform="matrix(0.995951 0.0898927 -0.08364 0.996496 445.411 -19.6554)" fill="white"/>
<path d="M461.071 32.0747L461.54 32.3238L461.766 31.8948L461.357 31.6301L461.071 32.0747ZM456.328 37.9101L455.966 37.5216L454.902 38.5153L456.359 38.4395L456.328 37.9101ZM466.745 34.8687L466.92 34.3697L466.706 34.2929L466.503 34.3954L466.745 34.8687ZM499.986 18.1428C499.066 29.0921 487.572 37.159 474.113 35.9442L474.024 37C487.873 38.2499 500.058 29.9468 501.041 18.238L499.986 18.1428ZM477.468 -4.02629C490.927 -2.81146 500.905 7.19342 499.986 18.1428L501.041 18.238C502.024 6.52915 491.405 -3.83215 477.556 -5.08211L477.468 -4.02629ZM451.595 13.7751C452.514 2.82578 464.008 -5.24111 477.468 -4.02629L477.556 -5.08211C463.708 -6.33207 451.522 1.97102 450.54 13.6799L451.595 13.7751ZM461.357 31.6301C454.902 27.4498 451.004 20.817 451.595 13.7751L450.54 13.6799C449.909 21.1954 454.076 28.1739 460.786 32.5192L461.357 31.6301ZM456.691 38.2987C459.335 35.8286 460.771 33.7875 461.54 32.3238L460.602 31.8255C459.896 33.1688 458.538 35.1184 455.966 37.5216L456.691 38.2987ZM466.503 34.3954C463.753 35.7881 459.437 37.2174 456.297 37.3808L456.359 38.4395C459.691 38.266 464.154 36.7765 466.986 35.3419L466.503 34.3954ZM474.113 35.9442C471.579 35.7154 469.164 35.1731 466.92 34.3697L466.569 35.3676C468.898 36.2015 471.401 36.7632 474.024 37L474.113 35.9442Z" fill="#FF6F1D"/>
<rect x="0.483313" y="0.575534" width="66.771" height="69.1105" rx="14.001" transform="matrix(0.995951 0.0898927 -0.08364 0.996496 445.411 -19.6554)" stroke="#FF6E1D" stroke-width="1.05954"/>
<rect x="0.483313" y="0.575534" width="66.771" height="69.1105" rx="14.001" transform="matrix(0.995951 0.0898927 -0.08364 0.996496 358.902 126.254)" fill="white"/>
<path d="M374.563 177.986L375.032 178.235L375.258 177.806L374.849 177.541L374.563 177.986ZM369.82 183.821L369.458 183.433L368.394 184.426L369.851 184.351L369.82 183.821ZM380.237 180.78L380.412 180.281L380.198 180.204L379.996 180.307L380.237 180.78ZM413.478 164.054C412.559 175.003 401.064 183.07 387.605 181.855L387.516 182.911C401.365 184.161 413.55 175.858 414.533 164.149L413.478 164.054ZM390.96 141.885C404.419 143.1 414.397 153.105 413.478 164.054L414.533 164.149C415.516 152.44 404.897 142.079 391.048 140.829L390.96 141.885ZM365.087 159.686C366.006 148.737 377.5 140.67 390.96 141.885L391.048 140.829C377.2 139.579 365.015 147.882 364.032 159.591L365.087 159.686ZM374.849 177.541C368.394 173.361 364.496 166.728 365.087 159.686L364.032 159.591C363.401 167.107 367.568 174.085 374.278 178.43L374.849 177.541ZM370.183 184.21C372.827 181.74 374.263 179.699 375.032 178.235L374.095 177.737C373.388 179.08 372.03 181.03 369.458 183.433L370.183 184.21ZM379.996 180.307C377.246 181.699 372.929 183.128 369.79 183.292L369.851 184.351C373.183 184.177 377.646 182.688 380.478 181.253L379.996 180.307ZM387.605 181.855C385.071 181.627 382.656 181.084 380.412 180.281L380.061 181.279C382.39 182.113 384.893 182.674 387.516 182.911L387.605 181.855Z" fill="#FF6F1D"/>
<rect x="0.483313" y="0.575534" width="66.771" height="69.1105" rx="14.001" transform="matrix(0.995951 0.0898927 -0.08364 0.996496 358.902 126.254)" stroke="#FF6E1D" stroke-width="1.05954"/>
<rect x="0.483313" y="0.575534" width="66.771" height="69.1105" rx="14.001" transform="matrix(0.995951 0.0898927 -0.08364 0.996496 291.609 43.3219)" fill="white"/>
<path d="M331.978 101.597C331.218 101.779 324.574 102.876 316.181 101.376C315.154 102.415 313.792 103.772 312.812 104.691L331.978 101.597ZM331.978 101.597C332.134 101.56 332.355 101.523 332.629 101.476M331.978 101.597L332.629 101.476M332.629 101.476C335.421 101.004 343.74 99.5967 346.186 87.6374L332.629 101.476ZM342.859 61.287L342.864 61.2932L342.87 61.2993C346.704 65.3924 348.429 74.0303 345.667 87.5279L345.667 87.528C344.353 93.9541 341.325 97.2117 338.459 98.9296C336.097 100.345 333.847 100.729 332.569 100.947C332.275 100.997 332.033 101.039 331.852 101.082L331.851 101.082C331.156 101.249 324.585 102.34 316.271 100.854L315.998 100.806L315.804 101.002C314.777 102.04 313.421 103.392 312.449 104.303C312.148 104.585 311.861 104.869 311.592 105.135C311.457 105.268 311.328 105.396 311.204 105.517C310.821 105.889 310.481 106.201 310.155 106.438C309.829 106.675 309.543 106.817 309.273 106.873C309.014 106.927 308.739 106.909 308.418 106.773L308.417 106.773C307.99 106.592 307.762 106.134 307.665 105.559C307.619 105.287 307.61 105.026 307.613 104.83C307.614 104.733 307.619 104.655 307.623 104.602C307.625 104.576 307.627 104.556 307.628 104.543L307.629 104.53L307.629 104.53L307.629 104.529L307.629 104.529L307.629 104.529L307.629 104.528L307.63 104.521L307.631 104.512L308.1 99.0199L308.145 98.4912L307.681 98.4493C301.901 96.1633 299.321 91.8561 298.263 87.2165C297.194 82.5265 297.688 77.5284 298.056 73.984C298.786 66.9578 300.571 61.5365 304.51 58.1058C308.033 55.3077 313.172 54.3899 317.511 54.1941C319.67 54.0968 321.605 54.1791 323 54.2859C323.697 54.3392 324.258 54.3986 324.644 54.4445C324.837 54.4674 324.986 54.487 325.086 54.5007C325.136 54.5076 325.174 54.513 325.199 54.5166L325.227 54.5207L325.233 54.5217L325.234 54.5219L325.235 54.5219L325.235 54.5219L325.25 54.5242L325.265 54.5257C336.92 55.6315 341.75 60.0264 342.859 61.287Z" stroke="#FF6F1D" stroke-width="1.05954"/>
<path d="M328.325 76.3932C328.422 73.6758 327.214 72.1349 324.699 71.7705" stroke="#FF6F1D" stroke-width="1.06339" stroke-linecap="round" stroke-linejoin="round"/>
<path d="M331.648 77.8892C331.913 75.3732 331.368 73.202 330.015 71.3756C328.655 69.5426 326.654 68.4203 324.002 67.9773" stroke="#FF6F1D" stroke-width="1.06339" stroke-linecap="round" stroke-linejoin="round"/>
<path d="M335.024 79.6224C335.359 75.2453 334.386 71.6863 332.104 68.9455C329.821 66.2046 326.827 64.6534 323.121 64.292" stroke="#FF6F1D" stroke-width="1.06339" stroke-linecap="round" stroke-linejoin="round"/>
<path d="M323.563 85.8011L323.521 85.7856C320.01 84.5129 317.941 81.952 316.757 79.7384C316.165 78.6309 315.789 77.6029 315.562 76.8508C315.448 76.4743 315.37 76.1656 315.321 75.9492C315.297 75.8409 315.279 75.7555 315.267 75.6962C315.262 75.6665 315.257 75.6432 315.254 75.6269L315.251 75.6075L315.25 75.6018L315.25 75.5999L315.249 75.5993C315.249 75.599 315.249 75.5988 315.772 75.5143M323.563 85.8011L310.655 66.7984C310.655 66.7983 310.655 66.7981 310.655 66.798C311.38 66.0973 312.203 65.5156 313.095 65.0725L313.196 65.0292C313.604 64.8538 313.951 64.8343 314.23 64.9089C314.506 64.9828 314.763 65.1615 314.975 65.4709L314.977 65.4742M323.563 85.8011L323.608 85.8091M323.563 85.8011L323.608 85.8091M315.772 75.5143C315.242 75.5114 315.242 75.5112 315.242 75.5111L315.242 75.5107L315.242 75.5098L315.242 75.5079L315.242 75.5028L315.242 75.4884C315.243 75.477 315.243 75.4619 315.244 75.4435C315.246 75.4067 315.249 75.3564 315.255 75.2957C315.268 75.1752 315.293 75.009 315.344 74.8235C315.443 74.4632 315.658 73.9676 316.135 73.6356L316.138 73.6332L316.138 73.6332L317.461 72.7268L317.468 72.7223L317.468 72.7223C317.9 72.4358 318.324 71.563 317.896 70.5731C317.498 69.6773 317.057 68.8026 316.574 67.9524C316.341 67.5557 315.945 66.9402 315.601 66.4149C315.43 66.1533 315.273 65.9168 315.159 65.7455C315.102 65.6599 315.055 65.5906 315.023 65.5427L314.986 65.4878L314.977 65.4748L314.977 65.4742M315.772 75.5143L315.249 75.5988L315.242 75.5554L315.242 75.5114L315.772 75.5143ZM314.977 65.4742C314.976 65.473 314.976 65.4724 314.976 65.4723M314.977 65.4742L314.976 65.4729L314.976 65.4723M314.976 65.4723C314.976 65.4723 314.976 65.4723 314.976 65.4723L314.976 65.4723ZM323.608 85.8091L323.698 85.2873M323.608 85.8091L323.698 85.2873M323.698 85.2873C323.608 85.8091 323.608 85.8091 323.608 85.8092L323.609 85.8092L323.61 85.8094L323.612 85.8097L323.617 85.8106L323.631 85.8129C323.642 85.8147 323.657 85.8168 323.675 85.8191C323.712 85.8237 323.761 85.829 323.821 85.8329C323.94 85.8407 324.105 85.8434 324.294 85.8227C324.662 85.7824 325.176 85.6456 325.574 85.2193L325.574 85.2194M323.698 85.2873L325.574 85.2194M325.574 85.2194L325.578 85.2154M325.574 85.2194L325.578 85.2154M325.578 85.2154L326.669 84.0234L326.669 84.0234M325.578 85.2154L326.669 84.0234M326.669 84.0234L326.674 84.0181M326.669 84.0234L326.674 84.0181M326.674 84.0181C327.023 83.6262 327.901 83.3581 328.747 83.9498C329.529 84.5098 330.284 85.1099 331.008 85.7479C331.345 86.0549 331.862 86.5659 332.303 87.0081C332.522 87.2284 332.72 87.4291 332.864 87.575L333.035 87.7487L333.084 87.7978L333.1 87.8144L333.101 87.8155C333.354 88.0818 333.484 88.3769 333.508 88.682C333.532 88.9931 333.449 89.3543 333.208 89.7451L333.143 89.8511M326.674 84.0181L333.143 89.8511M333.143 89.8511C332.567 90.6816 331.873 91.4166 331.086 92.0314L331.08 92.0352C331.08 92.0358 331.079 92.0363 331.078 92.0369C331.072 92.0412 331.066 92.0455 331.06 92.0496L331.057 92.0521C330.356 92.5586 329.733 92.7878 329.182 92.8054L329.167 92.8059L329.152 92.8073C329.091 92.8128 329.029 92.8112 328.968 92.8026L328.952 92.8004L328.936 92.7991C328.753 92.7844 328.572 92.7462 328.397 92.6854L328.377 92.6489L328.196 92.5779C327.233 92.2005 325.588 91.3055 322.821 89.3839L322.819 89.3823C321.237 88.2954 319.746 87.0716 318.364 85.724L318.363 85.7239C317.674 85.0527 317.023 84.341 316.412 83.5924C316.412 83.5922 316.412 83.5921 316.412 83.5919L316.346 83.5111L316.28 83.4292L316.213 83.3474L316.213 83.3473L316.208 83.3407C316.196 83.3269 316.187 83.3159 316.176 83.3013C316.168 83.2917 316.159 83.2806 316.147 83.2661C315.54 82.5142 314.976 81.7269 314.456 80.9079L314.456 80.9078C313.412 79.2647 312.504 77.533 311.742 75.7313L311.741 75.729C310.39 72.5753 309.821 70.7421 309.628 69.6884L309.593 69.5009L309.562 69.4741C309.532 69.2783 309.527 69.079 309.545 68.8811L309.547 68.8645L309.547 68.8479C309.55 68.7813 309.559 68.7152 309.576 68.6509L309.579 68.6385L309.581 68.626C309.7 68.0535 310.033 67.4509 310.634 66.8202L310.635 66.819L333.143 89.8511ZM333.158 89.8559L333.158 89.8559L333.158 89.8559Z" stroke="#FF6F1D" stroke-width="1.05954"/>
<rect x="0.483313" y="0.575534" width="66.771" height="69.1105" rx="14.001" transform="matrix(0.995951 0.0898927 -0.08364 0.996496 291.609 43.3219)" stroke="#FF6E1D" stroke-width="1.05954"/>
<rect x="0.483313" y="0.575534" width="66.771" height="69.1105" rx="10.7719" transform="matrix(0.995951 0.0898927 -0.08364 0.996496 365.306 49.9735)" fill="white"/>
<path d="M392.558 80.5632L390.948 75.6024C390.813 75.1875 390.444 74.8923 390.01 74.8532C388.782 74.7423 387.563 75.1243 386.621 75.915L386.16 76.3024C385.556 76.809 385.109 77.4763 384.869 78.2279L384.722 78.6865C384.395 79.7123 384.351 80.8097 384.597 81.8619L384.894 83.1362C385.244 84.6341 385.855 86.0599 386.699 87.3477L387.906 89.1884C389.059 90.947 390.469 92.5235 392.088 93.8648L393.327 94.8912C394.557 95.9098 395.918 96.7577 397.373 97.412L398.839 98.0712C399.803 98.5047 400.832 98.7744 401.882 98.8693L402.036 98.8831C402.968 98.9673 403.901 98.7569 404.704 98.2816L404.783 98.2351C406.062 97.4778 407.034 96.2936 407.527 94.8887L407.749 94.256C407.903 93.8193 407.718 93.3335 407.312 93.107L403.029 90.716C402.359 90.342 401.527 90.442 400.97 90.9636L399.112 92.704C398.843 92.9558 398.437 92.9936 398.124 92.796L397.01 92.0935C394.773 90.6836 392.87 88.8019 391.434 86.5809L390.357 84.9151C390.184 84.6478 390.219 84.2972 390.44 84.0716L392.142 82.3401C392.601 81.8735 392.761 81.1889 392.558 80.5632Z" stroke="#FF6F1D" stroke-width="1.05954"/>
<mask id="path-17-inside-1_1091_2927" fill="white">
<path fill-rule="evenodd" clip-rule="evenodd" d="M376.35 84.9222C375.984 89.2804 377.039 93.4388 379.128 96.9379L377.673 100.434L376.379 103.733L380.266 103.125L380.277 103.134L383.993 102.48C386.963 104.825 390.622 106.363 394.662 106.728C405.702 107.725 415.404 99.5774 416.331 88.5308C417.258 77.4843 409.06 67.7215 398.019 66.725C386.979 65.7285 377.277 73.8757 376.35 84.9222ZM383.056 106.812C386.318 108.99 390.151 110.406 394.322 110.782C407.6 111.981 419.268 102.182 420.383 88.8966C421.499 75.6109 411.638 63.8691 398.36 62.6706C385.081 61.4722 373.413 71.2708 372.298 84.5565C371.923 89.0228 372.789 93.3145 374.607 97.09L371.714 104.464L369.99 108.858L374.655 108.128L383.056 106.812Z"/>
</mask>
<path d="M379.128 96.9379L380.106 97.3507L380.311 96.8583L380.036 96.3981L379.128 96.9379ZM377.673 100.434L376.695 100.021L376.691 100.031L376.687 100.041L377.673 100.434ZM376.379 103.733L375.393 103.341L374.715 105.068L376.549 104.781L376.379 103.733ZM380.266 103.125L380.921 102.296L380.555 102.005L380.096 102.077L380.266 103.125ZM380.277 103.134L379.622 103.963L379.997 104.261L380.467 104.178L380.277 103.134ZM383.993 102.48L384.645 101.649L384.271 101.354L383.803 101.436L383.993 102.48ZM383.056 106.812L383.64 105.931L383.295 105.701L382.886 105.765L383.056 106.812ZM374.607 97.09L375.593 97.4828L375.762 97.0525L375.561 96.6343L374.607 97.09ZM371.714 104.464L372.7 104.857L372.7 104.857L371.714 104.464ZM369.99 108.858L369.004 108.465L368.326 110.193L370.16 109.905L369.99 108.858ZM374.655 108.128L374.825 109.175L374.825 109.175L374.655 108.128ZM380.036 96.3981C378.057 93.0841 377.059 89.1469 377.405 85.0175L375.295 84.827C374.91 89.4139 376.02 93.7935 378.22 97.4776L380.036 96.3981ZM378.651 100.846L380.106 97.3507L378.15 96.525L376.695 100.021L378.651 100.846ZM377.365 104.126L378.659 100.826L376.687 100.041L375.393 103.341L377.365 104.126ZM380.096 102.077L376.209 102.686L376.549 104.781L380.435 104.172L380.096 102.077ZM380.933 102.305L380.921 102.296L379.61 103.953L379.622 103.963L380.933 102.305ZM383.803 101.436L380.088 102.09L380.467 104.178L384.182 103.524L383.803 101.436ZM394.75 105.672C390.923 105.327 387.458 103.87 384.645 101.649L383.34 103.311C386.468 105.781 390.322 107.4 394.573 107.784L394.75 105.672ZM415.276 88.4356C414.398 98.899 405.208 106.616 394.75 105.672L394.573 107.784C406.197 108.833 416.41 100.256 417.386 88.6261L415.276 88.4356ZM397.931 67.7808C408.389 68.7247 416.154 77.9722 415.276 88.4356L417.386 88.6261C418.363 76.9964 409.731 66.7183 398.108 65.6692L397.931 67.7808ZM377.405 85.0175C378.284 74.554 387.473 66.8369 397.931 67.7808L398.108 65.6692C386.485 64.6201 376.271 73.1973 375.295 84.827L377.405 85.0175ZM382.472 107.693C385.879 109.967 389.881 111.445 394.233 111.838L394.41 109.727C390.421 109.367 386.757 108.012 383.64 105.931L382.472 107.693ZM394.233 111.838C408.094 113.089 420.275 102.861 421.439 88.9918L419.328 88.8013C418.262 101.504 407.106 110.872 394.41 109.727L394.233 111.838ZM421.439 88.9918C422.603 75.123 412.31 62.8659 398.448 61.6148L398.271 63.7265C410.967 64.8724 420.394 76.0988 419.328 88.8013L421.439 88.9918ZM398.448 61.6148C384.587 60.3637 372.407 70.5924 371.243 84.4612L373.353 84.6517C374.419 71.9491 385.576 62.5806 398.271 63.7265L398.448 61.6148ZM371.243 84.4612C370.852 89.1218 371.755 93.6035 373.654 97.5456L375.561 96.6343C373.822 93.0256 372.995 88.9237 373.353 84.6517L371.243 84.4612ZM373.621 96.6971L370.728 104.071L372.7 104.857L375.593 97.4828L373.621 96.6971ZM370.728 104.071L369.004 108.465L370.976 109.251L372.7 104.857L370.728 104.071ZM370.16 109.905L374.825 109.175L374.485 107.08L369.82 107.811L370.16 109.905ZM374.825 109.175L383.226 107.859L382.886 105.765L374.485 107.08L374.825 109.175Z" fill="#FF6F1D" mask="url(#path-17-inside-1_1091_2927)"/>
<rect x="0.483313" y="0.575534" width="66.771" height="69.1105" rx="10.7719" transform="matrix(0.995951 0.0898927 -0.08364 0.996496 365.306 49.9735)" stroke="#FF6E1D" stroke-width="1.05954"/>
<rect x="0.483313" y="0.575534" width="66.771" height="69.1105" rx="10.7719" transform="matrix(0.995951 0.0898927 -0.08364 0.996496 432.603 132.906)" fill="white"/>
<path d="M459.851 163.496L458.241 158.535C458.106 158.12 457.737 157.825 457.303 157.786C456.075 157.675 454.856 158.057 453.914 158.848L453.453 159.235C452.849 159.742 452.402 160.409 452.162 161.161L452.015 161.619C451.688 162.645 451.644 163.743 451.89 164.795L452.187 166.069C452.537 167.567 453.148 168.993 453.992 170.281L455.199 172.121C456.352 173.88 457.762 175.456 459.381 176.798L460.62 177.824C461.85 178.843 463.211 179.691 464.666 180.345L466.132 181.004C467.096 181.438 468.125 181.707 469.175 181.802L469.329 181.816C470.261 181.9 471.194 181.69 471.997 181.214L472.076 181.168C473.355 180.411 474.326 179.226 474.82 177.822L475.042 177.189C475.196 176.752 475.011 176.266 474.605 176.04L470.322 173.649C469.652 173.275 468.82 173.375 468.263 173.897L466.405 175.637C466.136 175.889 465.73 175.926 465.417 175.729L464.302 175.026C462.066 173.616 460.163 171.735 458.727 169.514L457.65 167.848C457.477 167.581 457.512 167.23 457.733 167.004L459.435 165.273C459.894 164.806 460.054 164.122 459.851 163.496Z" stroke="#FF6F1D" stroke-width="1.05954"/>
<mask id="path-21-inside-2_1091_2927" fill="white">
<path fill-rule="evenodd" clip-rule="evenodd" d="M443.647 167.854C443.281 172.212 444.336 176.371 446.425 179.87L444.938 183.444L443.674 186.666L447.56 186.057L447.572 186.066L451.289 185.412C454.26 187.757 457.919 189.295 461.959 189.66C472.999 190.656 482.701 182.509 483.628 171.463C484.555 160.416 476.357 150.653 465.316 149.657C454.276 148.66 444.574 156.807 443.647 167.854ZM450.353 189.744C453.615 191.921 457.448 193.338 461.618 193.714C474.897 194.913 486.565 185.114 487.68 171.828C488.795 158.543 478.935 146.801 465.657 145.602C452.378 144.404 440.71 154.203 439.595 167.488C439.22 171.954 440.085 176.245 441.903 180.02L439.009 187.396L437.285 191.79L441.949 191.06L450.353 189.744Z"/>
</mask>
<path d="M446.425 179.87L447.403 180.283L447.608 179.79L447.333 179.33L446.425 179.87ZM444.938 183.444L443.96 183.031L443.956 183.041L443.952 183.051L444.938 183.444ZM443.674 186.666L442.688 186.273L442.01 188L443.843 187.713L443.674 186.666ZM447.56 186.057L448.216 185.228L447.85 184.937L447.39 185.009L447.56 186.057ZM447.572 186.066L446.917 186.895L447.292 187.193L447.762 187.11L447.572 186.066ZM451.289 185.412L451.942 184.581L451.568 184.286L451.1 184.368L451.289 185.412ZM450.353 189.744L450.937 188.863L450.591 188.632L450.183 188.696L450.353 189.744ZM441.903 180.02L442.889 180.413L443.058 179.982L442.856 179.564L441.903 180.02ZM439.009 187.396L439.995 187.789L439.995 187.789L439.009 187.396ZM437.285 191.79L436.299 191.397L435.621 193.125L437.455 192.838L437.285 191.79ZM441.949 191.06L442.119 192.107L442.119 192.107L441.949 191.06ZM447.333 179.33C445.354 176.016 444.356 172.079 444.702 167.949L442.592 167.759C442.207 172.346 443.317 176.725 445.517 180.409L447.333 179.33ZM445.916 183.856L447.403 180.283L445.447 179.457L443.96 183.031L445.916 183.856ZM444.66 187.058L445.924 183.836L443.952 183.051L442.688 186.273L444.66 187.058ZM447.39 185.009L443.504 185.618L443.843 187.713L447.73 187.104L447.39 185.009ZM448.228 185.238L448.216 185.228L446.905 186.885L446.917 186.895L448.228 185.238ZM451.1 184.368L447.383 185.022L447.762 187.11L451.479 186.456L451.1 184.368ZM462.047 188.604C458.22 188.259 454.755 186.802 451.942 184.581L450.637 186.243C453.765 188.712 457.619 190.332 461.87 190.716L462.047 188.604ZM482.573 171.367C481.695 181.831 472.505 189.548 462.047 188.604L461.87 190.716C473.493 191.765 483.707 183.188 484.683 171.558L482.573 171.367ZM465.228 150.713C475.685 151.657 483.451 160.904 482.573 171.367L484.683 171.558C485.659 159.928 477.028 149.65 465.405 148.601L465.228 150.713ZM444.702 167.949C445.58 157.486 454.77 149.769 465.228 150.713L465.405 148.601C453.782 147.552 443.568 156.129 442.592 167.759L444.702 167.949ZM449.769 190.625C453.175 192.899 457.178 194.377 461.53 194.77L461.707 192.658C457.718 192.298 454.054 190.944 450.937 188.863L449.769 190.625ZM461.53 194.77C475.391 196.021 487.571 185.792 488.735 171.924L486.625 171.733C485.559 184.436 474.403 193.804 461.707 192.658L461.53 194.77ZM488.735 171.924C489.9 158.055 479.606 145.798 465.745 144.547L465.568 146.658C478.264 147.804 487.691 159.031 486.625 171.733L488.735 171.924ZM465.745 144.547C451.884 143.296 439.704 153.524 438.54 167.393L440.65 167.584C441.716 154.881 452.872 145.512 465.568 146.658L465.745 144.547ZM438.54 167.393C438.148 172.053 439.051 176.534 440.95 180.475L442.856 179.564C441.119 175.956 440.292 171.855 440.65 167.584L438.54 167.393ZM440.917 179.627L438.023 187.003L439.995 187.789L442.889 180.413L440.917 179.627ZM438.023 187.003L436.299 191.397L438.271 192.183L439.995 187.789L438.023 187.003ZM437.455 192.838L442.119 192.107L441.779 190.012L437.115 190.743L437.455 192.838ZM442.119 192.107L450.523 190.791L450.183 188.696L441.779 190.012L442.119 192.107Z" fill="#FF6F1D" mask="url(#path-21-inside-2_1091_2927)"/>
<rect x="0.483313" y="0.575534" width="66.771" height="69.1105" rx="10.7719" transform="matrix(0.995951 0.0898927 -0.08364 0.996496 432.603 132.906)" stroke="#FF6E1D" stroke-width="1.05954"/>
<rect x="0.483313" y="0.575534" width="66.771" height="69.1105" rx="10.7719" transform="matrix(0.995951 0.0898927 -0.08364 0.996496 211.507 112.951)" fill="white"/>
<path d="M238.759 143.541L237.149 138.58C237.014 138.165 236.645 137.87 236.211 137.831C234.983 137.72 233.764 138.102 232.822 138.893L232.361 139.28C231.758 139.787 231.31 140.454 231.07 141.206L230.924 141.664C230.596 142.69 230.552 143.787 230.798 144.84L231.095 146.114C231.445 147.612 232.056 149.038 232.9 150.326L234.107 152.166C235.26 153.925 236.67 155.501 238.289 156.843L239.529 157.869C240.758 158.888 242.119 159.736 243.574 160.39L245.04 161.049C246.004 161.482 247.033 161.752 248.084 161.847L248.237 161.861C249.169 161.945 250.103 161.735 250.906 161.259L250.984 161.213C252.264 160.456 253.235 159.271 253.728 157.866L253.95 157.234C254.104 156.797 253.919 156.311 253.513 156.085L249.23 153.694C248.56 153.32 247.728 153.42 247.171 153.941L245.313 155.682C245.044 155.934 244.638 155.971 244.325 155.774L243.211 155.071C240.975 153.661 239.071 151.78 237.635 149.559L236.558 147.893C236.385 147.626 236.42 147.275 236.642 147.049L238.343 145.318C238.802 144.851 238.962 144.167 238.759 143.541Z" stroke="#FF6F1D" stroke-width="1.05954"/>
<mask id="path-25-inside-3_1091_2927" fill="white">
<path fill-rule="evenodd" clip-rule="evenodd" d="M222.547 147.899C222.182 152.257 223.236 156.416 225.325 159.915L223.838 163.488L222.574 166.71L226.461 166.102L226.472 166.111L230.19 165.457C233.161 167.802 236.82 169.34 240.859 169.705C251.9 170.701 261.601 162.554 262.528 151.508C263.456 140.461 255.257 130.698 244.217 129.702C233.176 128.705 223.474 136.852 222.547 147.899ZM229.253 169.789C232.515 171.966 236.348 173.383 240.519 173.759C253.797 174.958 265.466 165.159 266.581 151.873C267.696 138.588 257.835 126.846 244.557 125.647C231.279 124.449 219.61 134.248 218.495 147.533C218.12 151.999 218.985 156.29 220.803 160.065L217.909 167.441L216.185 171.835L220.85 171.105L229.253 169.789Z"/>
</mask>
<path d="M225.325 159.915L226.303 160.327L226.508 159.835L226.233 159.375L225.325 159.915ZM223.838 163.488L222.86 163.076L222.856 163.086L222.852 163.096L223.838 163.488ZM222.574 166.71L221.588 166.318L220.91 168.045L222.744 167.758L222.574 166.71ZM226.461 166.102L227.116 165.273L226.75 164.982L226.291 165.054L226.461 166.102ZM226.472 166.111L225.817 166.94L226.192 167.238L226.662 167.155L226.472 166.111ZM230.19 165.457L230.842 164.626L230.468 164.331L230 164.413L230.19 165.457ZM229.253 169.789L229.837 168.908L229.492 168.677L229.083 168.741L229.253 169.789ZM220.803 160.065L221.789 160.457L221.958 160.027L221.757 159.609L220.803 160.065ZM217.909 167.441L218.895 167.834L218.895 167.834L217.909 167.441ZM216.185 171.835L215.199 171.442L214.521 173.17L216.355 172.882L216.185 171.835ZM220.85 171.105L221.02 172.152L221.02 172.152L220.85 171.105ZM226.233 159.375C224.255 156.061 223.256 152.124 223.603 147.994L221.492 147.804C221.107 152.391 222.218 156.77 224.417 160.454L226.233 159.375ZM224.816 163.901L226.303 160.327L224.347 159.502L222.86 163.076L224.816 163.901ZM223.56 167.103L224.824 163.881L222.852 163.096L221.588 166.318L223.56 167.103ZM226.291 165.054L222.404 165.663L222.744 167.758L226.631 167.149L226.291 165.054ZM227.128 165.283L227.116 165.273L225.805 166.93L225.817 166.94L227.128 165.283ZM230 164.413L226.283 165.067L226.662 167.155L230.379 166.501L230 164.413ZM240.948 168.649C237.12 168.303 233.656 166.847 230.842 164.626L229.537 166.288C232.666 168.757 236.519 170.377 240.77 170.761L240.948 168.649ZM261.473 151.412C260.595 161.876 251.405 169.593 240.948 168.649L240.77 170.761C252.394 171.81 262.608 163.232 263.584 151.603L261.473 151.412ZM244.128 130.758C254.586 131.701 262.351 140.949 261.473 151.412L263.584 151.603C264.56 139.973 255.929 129.695 244.305 128.646L244.128 130.758ZM223.603 147.994C224.481 137.531 233.67 129.814 244.128 130.758L244.305 128.646C232.682 127.597 222.468 136.174 221.492 147.804L223.603 147.994ZM228.67 170.67C232.076 172.944 236.079 174.422 240.43 174.815L240.607 172.703C236.618 172.343 232.955 170.989 229.837 168.908L228.67 170.67ZM240.43 174.815C254.291 176.066 266.472 165.837 267.636 151.969L265.525 151.778C264.459 164.481 253.303 173.849 240.607 172.703L240.43 174.815ZM267.636 151.969C268.8 138.1 258.507 125.843 244.646 124.592L244.468 126.703C257.164 127.849 266.592 139.075 265.525 151.778L267.636 151.969ZM244.646 124.592C230.784 123.34 218.604 133.569 217.44 147.438L219.55 147.628C220.617 134.926 231.773 125.557 244.468 126.703L244.646 124.592ZM217.44 147.438C217.049 152.098 217.952 156.579 219.85 160.52L221.757 159.609C220.019 156.001 219.192 151.9 219.55 147.628L217.44 147.438ZM219.817 159.672L216.923 167.048L218.895 167.834L221.789 160.457L219.817 159.672ZM216.923 167.048L215.199 171.442L217.171 172.228L218.895 167.834L216.923 167.048ZM216.355 172.882L221.02 172.152L220.68 170.057L216.015 170.788L216.355 172.882ZM221.02 172.152L229.423 170.836L229.083 168.741L220.68 170.057L221.02 172.152Z" fill="#FF6F1D" mask="url(#path-25-inside-3_1091_2927)"/>
<rect x="0.483313" y="0.575534" width="66.771" height="69.1105" rx="10.7719" transform="matrix(0.995951 0.0898927 -0.08364 0.996496 211.507 112.951)" stroke="#FF6E1D" stroke-width="1.05954"/>
<rect x="0.483313" y="0.575534" width="66.771" height="69.1105" rx="14.001" transform="matrix(0.995951 0.0898927 -0.08364 0.996496 439.007 56.6251)" fill="white"/>
<path d="M479.378 114.9C478.619 115.082 471.975 116.179 463.582 114.679C462.554 115.718 461.193 117.075 460.212 117.994L479.378 114.9ZM479.378 114.9C479.535 114.863 479.756 114.825 480.029 114.779M479.378 114.9L480.029 114.779M480.029 114.779C482.821 114.307 491.141 112.899 493.586 100.94L480.029 114.779ZM490.259 74.5897L490.265 74.5959L490.271 74.602C494.104 78.6951 495.83 87.333 493.067 100.831L493.067 100.831C491.753 107.257 488.726 110.514 485.859 112.232C483.497 113.648 481.247 114.032 479.969 114.25C479.675 114.3 479.433 114.341 479.252 114.384L479.252 114.384C478.556 114.551 471.986 115.643 463.671 114.157L463.398 114.108L463.204 114.305C462.177 115.343 460.822 116.694 459.849 117.606C459.549 117.888 459.261 118.172 458.992 118.438C458.858 118.571 458.728 118.699 458.604 118.82C458.222 119.192 457.882 119.504 457.555 119.741C457.23 119.977 456.943 120.119 456.673 120.176C456.414 120.23 456.14 120.211 455.818 120.075L455.818 120.075C455.39 119.895 455.162 119.437 455.065 118.862C455.019 118.59 455.01 118.328 455.013 118.133C455.015 118.036 455.019 117.958 455.023 117.905C455.025 117.878 455.027 117.859 455.028 117.846L455.029 117.833L455.03 117.832L455.03 117.832L455.03 117.832L455.03 117.831L455.03 117.831L455.031 117.823L455.031 117.814L455.5 112.323L455.545 111.794L455.081 111.752C449.301 109.466 446.722 105.159 445.664 100.519C444.594 95.8292 445.089 90.8311 445.457 87.2867C446.187 80.2606 447.971 74.8392 451.91 71.4086C455.433 68.6105 460.572 67.6926 464.912 67.4969C467.071 67.3995 469.005 67.4818 470.4 67.5886C471.097 67.642 471.659 67.7014 472.044 67.7472C472.237 67.7702 472.386 67.7897 472.486 67.8034C472.536 67.8103 472.574 67.8157 472.599 67.8193L472.627 67.8234L472.633 67.8244L472.635 67.8246L472.635 67.8246L472.635 67.8246L472.65 67.827L472.665 67.8284C484.32 68.9342 489.15 73.3291 490.259 74.5897Z" stroke="#FF6F1D" stroke-width="1.05954"/>
<path d="M475.719 89.6962C475.817 86.9788 474.608 85.4379 472.094 85.0735" stroke="#FF6F1D" stroke-width="1.06339" stroke-linecap="round" stroke-linejoin="round"/>
<path d="M479.045 91.1922C479.309 88.6762 478.765 86.505 477.411 84.6786C476.051 82.8456 474.05 81.7233 471.398 81.2803" stroke="#FF6F1D" stroke-width="1.06339" stroke-linecap="round" stroke-linejoin="round"/>
<path d="M482.423 92.9256C482.758 88.5485 481.784 84.9896 479.502 82.2487C477.22 79.5078 474.226 77.9567 470.52 77.5952" stroke="#FF6F1D" stroke-width="1.06339" stroke-linecap="round" stroke-linejoin="round"/>
<path d="M470.956 99.1033L470.913 99.0878C467.402 97.8151 465.334 95.2543 464.15 93.0406C463.557 91.9332 463.182 90.9052 462.954 90.153C462.84 89.7765 462.763 89.4679 462.714 89.2514C462.689 89.1431 462.672 89.0578 462.66 88.9984C462.654 88.9687 462.65 88.9455 462.647 88.9291L462.643 88.9098L462.642 88.9041L462.642 88.9022L462.642 88.9015C462.642 88.9012 462.642 88.901 463.164 88.8165M470.956 99.1033L458.048 80.1007C458.048 80.1005 458.048 80.1004 458.048 80.1002C458.773 79.3995 459.595 78.8178 460.488 78.3747L460.588 78.3314C460.997 78.156 461.344 78.1366 461.623 78.2111C461.899 78.285 462.156 78.4638 462.367 78.7732L462.37 78.7765M470.956 99.1033L471.001 99.1113M470.956 99.1033L471.001 99.1113M463.164 88.8165C462.635 88.8137 462.635 88.8135 462.635 88.8133L462.635 88.8129L462.635 88.8121L462.635 88.8101L462.635 88.805L462.635 88.7907C462.635 88.7792 462.636 88.7641 462.636 88.7457C462.638 88.709 462.641 88.6587 462.648 88.598C462.66 88.4775 462.686 88.3112 462.737 88.1258C462.836 87.7654 463.051 87.2699 463.527 86.9378L463.531 86.9355L463.531 86.9355L464.854 86.0291L464.86 86.0245L464.86 86.0246C465.293 85.738 465.717 84.8652 465.288 83.8754C464.89 82.9795 464.449 82.1048 463.967 81.2546C463.734 80.8579 463.338 80.2425 462.994 79.7171C462.822 79.4555 462.665 79.2191 462.551 79.0478C462.494 78.9621 462.448 78.8929 462.416 78.845L462.379 78.79L462.37 78.777L462.37 78.7765M463.164 88.8165L462.642 88.901L462.635 88.8576L462.635 88.8137L463.164 88.8165ZM462.37 78.7765C462.369 78.7752 462.368 78.7746 462.368 78.7745M462.37 78.7765L462.369 78.7751L462.368 78.7745M462.368 78.7745C462.368 78.7745 462.368 78.7745 462.368 78.7745L462.368 78.7745ZM471.001 99.1113L471.091 98.5896M471.001 99.1113L471.091 98.5896M471.091 98.5896C471.001 99.1113 471.001 99.1114 471.001 99.1114L471.001 99.1115L471.002 99.1116L471.004 99.112L471.009 99.1129L471.024 99.1152C471.035 99.1169 471.05 99.1191 471.068 99.1214C471.104 99.126 471.154 99.1313 471.214 99.1352C471.333 99.1429 471.498 99.1456 471.686 99.125C472.055 99.0846 472.569 98.9478 472.967 98.5216L472.967 98.5216M471.091 98.5896L472.967 98.5216M472.967 98.5216L472.971 98.5177M472.967 98.5216L472.971 98.5177M472.971 98.5177L474.062 97.3256L474.062 97.3256M472.971 98.5177L474.062 97.3256M474.062 97.3256L474.066 97.3204M474.062 97.3256L474.066 97.3204M474.066 97.3204C474.416 96.9284 475.294 96.6603 476.14 97.2521C476.922 97.8121 477.677 98.4122 478.401 99.0502C478.738 99.3571 479.255 99.8681 479.695 100.31C479.915 100.531 480.113 100.731 480.257 100.877L480.428 101.051L480.476 101.1L480.493 101.117L480.494 101.118C480.747 101.384 480.876 101.679 480.9 101.984C480.924 102.295 480.841 102.657 480.601 103.047L480.536 103.153M474.066 97.3204L480.536 103.153M480.536 103.153C479.96 103.984 479.266 104.719 478.478 105.334L478.473 105.337C478.472 105.338 478.471 105.339 478.471 105.339C478.464 105.343 478.459 105.348 478.453 105.352L478.45 105.354C477.748 105.861 477.126 106.09 476.575 106.108L476.56 106.108L476.545 106.11C476.483 106.115 476.422 106.113 476.361 106.105L476.345 106.103L476.329 106.101C476.145 106.087 475.964 106.048 475.79 105.988L475.77 105.951L475.589 105.88C474.625 105.503 472.98 104.608 470.214 102.686L470.211 102.685C468.629 101.598 467.139 100.374 465.756 99.0263L465.756 99.0262C465.067 98.3549 464.415 97.6433 463.805 96.8947C463.805 96.8945 463.804 96.8943 463.804 96.8942L463.739 96.8133L463.672 96.7315L463.606 96.6496L463.606 96.6496L463.6 96.6429C463.589 96.6291 463.58 96.6182 463.568 96.6035C463.561 96.594 463.552 96.5828 463.54 96.5684C462.933 95.8165 462.368 95.0291 461.848 94.2101L461.848 94.21C460.804 92.5669 459.897 90.8353 459.135 89.0335L459.134 89.0312C457.783 85.8775 457.214 84.0444 457.02 82.9907L456.986 82.8031L456.954 82.7763C456.925 82.5805 456.919 82.3813 456.938 82.1833L456.94 82.1668L456.94 82.1501C456.942 82.0835 456.952 82.0174 456.968 81.9531L456.971 81.9408L456.974 81.9283C457.092 81.3557 457.426 80.7531 458.027 80.1225L458.028 80.1213L480.536 103.153ZM480.55 103.158L480.55 103.158L480.55 103.158Z" stroke="#FF6F1D" stroke-width="1.05954"/>
<rect x="0.483313" y="0.575534" width="66.771" height="69.1105" rx="14.001" transform="matrix(0.995951 0.0898927 -0.08364 0.996496 439.007 56.6251)" stroke="#FF6E1D" stroke-width="1.05954"/>
<rect x="0.483313" y="0.575534" width="66.771" height="69.1105" rx="10.7719" transform="matrix(0.995951 0.0898927 -0.08364 0.996496 7.07353 21.1417)" fill="white"/>
<path d="M34.3254 51.7315L32.7153 46.7706C32.5807 46.3557 32.2113 46.0605 31.7779 46.0214C30.5494 45.9105 29.3302 46.2925 28.3886 47.0832L27.9272 47.4707C27.324 47.9772 26.8767 48.6445 26.6365 49.3961L26.49 49.8547C26.1621 50.8805 26.1187 51.9779 26.3642 53.0301L26.6616 54.3045C27.0112 55.8023 27.6223 57.2281 28.4667 58.5159L29.6735 60.3566C30.8265 62.1153 32.2364 63.6917 33.8558 65.033L35.095 66.0594C36.3248 67.078 37.6857 67.9259 39.1406 68.5802L40.6067 69.2394C41.5707 69.6729 42.5992 69.9426 43.6499 70.0375L43.8035 70.0513C44.7357 70.1355 45.6689 69.9251 46.4719 69.4498L46.5505 69.4033C47.8301 68.646 48.8011 67.4618 49.2946 66.0569L49.5168 65.4242C49.6702 64.9875 49.4855 64.5018 49.0797 64.2753L44.7967 61.8842C44.1267 61.5102 43.2948 61.6102 42.7377 62.1319L40.8792 63.8722C40.6103 64.124 40.2046 64.1618 39.8913 63.9642L38.7771 63.2617C36.5409 61.8518 34.6377 59.9701 33.2015 57.7492L32.1243 56.0833C31.9514 55.816 31.9862 55.4655 32.208 55.2398L33.9097 53.5083C34.3683 53.0417 34.5285 52.3571 34.3254 51.7315Z" stroke="#FF6F1D" stroke-width="1.05954"/>
<mask id="path-35-inside-4_1091_2927" fill="white">
<path fill-rule="evenodd" clip-rule="evenodd" d="M18.1177 56.0904C17.7519 60.4486 18.8065 64.607 20.8957 68.1061L19.4409 71.6019L18.1462 74.9017L22.0331 74.293L22.0447 74.3022L25.7602 73.6485C28.731 75.9936 32.39 77.5317 36.4294 77.8963C47.4699 78.8928 57.1717 70.7456 58.0988 59.6991C59.026 48.6525 50.8275 38.8897 39.7871 37.8932C28.7466 36.8967 19.0448 45.0439 18.1177 56.0904ZM24.8237 77.9803C28.0856 80.1578 31.9188 81.5742 36.0891 81.9506C49.3676 83.1491 61.0359 73.3505 62.151 60.0648C63.2661 46.7791 53.4058 35.0373 40.1274 33.8389C26.8489 32.6404 15.1806 42.439 14.0655 55.7247C13.6906 60.191 14.5561 64.4828 16.3748 68.2582L13.4816 75.6321L11.7575 80.0263L16.4221 79.2959L24.8237 77.9803Z"/>
</mask>
<path d="M20.8957 68.1061L21.8736 68.5189L22.0786 68.0265L21.8038 67.5663L20.8957 68.1061ZM19.4409 71.6019L18.463 71.189L18.4589 71.199L18.455 71.209L19.4409 71.6019ZM18.1462 74.9017L17.1602 74.5088L16.4825 76.2362L18.3162 75.9491L18.1462 74.9017ZM22.0331 74.293L22.6885 73.4645L22.3228 73.1737L21.8631 73.2456L22.0331 74.293ZM22.0447 74.3022L21.3892 75.1308L21.7644 75.4291L22.2342 75.3464L22.0447 74.3022ZM25.7602 73.6485L26.4127 72.8176L26.0383 72.522L25.5706 72.6043L25.7602 73.6485ZM24.8237 77.9803L25.4074 77.0994L25.0622 76.8689L24.6537 76.9329L24.8237 77.9803ZM16.3748 68.2582L17.3608 68.651L17.5296 68.2208L17.3281 67.8025L16.3748 68.2582ZM13.4816 75.6321L14.4676 76.025L14.4676 76.025L13.4816 75.6321ZM11.7575 80.0263L10.7715 79.6335L10.0938 81.3608L11.9275 81.0737L11.7575 80.0263ZM16.4221 79.2959L16.5921 80.3433L16.5921 80.3433L16.4221 79.2959ZM21.8038 67.5663C19.825 64.2523 18.8263 60.3151 19.1729 56.1857L17.0624 55.9952C16.6774 60.5821 17.788 64.9618 19.9877 68.6458L21.8038 67.5663ZM20.4188 72.0147L21.8736 68.5189L19.9178 67.6932L18.463 71.189L20.4188 72.0147ZM19.1322 75.2945L20.4269 71.9947L18.455 71.209L17.1602 74.5088L19.1322 75.2945ZM21.8631 73.2456L17.9763 73.8543L18.3162 75.9491L22.203 75.3404L21.8631 73.2456ZM22.7001 73.4737L22.6885 73.4645L21.3776 75.1216L21.3892 75.1308L22.7001 73.4737ZM25.5706 72.6043L21.8551 73.2581L22.2342 75.3464L25.9498 74.6926L25.5706 72.6043ZM36.5181 76.8404C32.6903 76.495 29.2261 75.0384 26.4127 72.8176L25.1077 74.4794C28.2359 76.9487 32.0897 78.5684 36.3408 78.9521L36.5181 76.8404ZM57.0436 59.6038C56.1653 70.0672 46.9758 77.7843 36.5181 76.8404L36.3408 78.9521C47.9641 80.0012 58.178 71.4239 59.1541 59.7943L57.0436 59.6038ZM39.6984 38.949C50.1561 39.8929 57.9218 49.1404 57.0436 59.6038L59.1541 59.7943C60.1302 48.1647 51.499 37.8865 39.8757 36.8374L39.6984 38.949ZM19.1729 56.1857C20.0511 45.7223 29.2407 38.0052 39.6984 38.949L39.8757 36.8374C28.2524 35.7883 18.0385 44.3655 17.0624 55.9952L19.1729 56.1857ZM24.24 78.8611C27.6462 81.135 31.649 82.6137 36.0005 83.0064L36.1778 80.8948C32.1886 80.5347 28.525 79.1806 25.4074 77.0994L24.24 78.8611ZM36.0005 83.0064C49.8617 84.2575 62.0422 74.0288 63.2062 60.16L61.0957 59.9695C60.0296 72.6721 48.8734 82.0407 36.1778 80.8948L36.0005 83.0064ZM63.2062 60.16C64.3703 46.2912 54.0772 34.0341 40.216 32.783L40.0387 34.8947C52.7344 36.0406 62.1619 47.267 61.0957 59.9695L63.2062 60.16ZM40.216 32.783C26.3547 31.5319 14.1743 41.7606 13.0103 55.6294L15.1208 55.8199C16.1869 43.1174 27.3431 33.7488 40.0387 34.8947L40.216 32.783ZM13.0103 55.6294C12.6191 60.29 13.5225 64.7717 15.4215 68.7139L17.3281 67.8025C15.5898 64.1938 14.7622 60.0919 15.1208 55.8199L13.0103 55.6294ZM15.3889 67.8653L12.4956 75.2393L14.4676 76.025L17.3608 68.651L15.3889 67.8653ZM12.4956 75.2393L10.7715 79.6335L12.7435 80.4191L14.4676 76.025L12.4956 75.2393ZM11.9275 81.0737L16.5921 80.3433L16.2522 78.2485L11.5875 78.9789L11.9275 81.0737ZM16.5921 80.3433L24.9937 79.0277L24.6537 76.9329L16.2522 78.2485L16.5921 80.3433Z" fill="#FF6F1D" mask="url(#path-35-inside-4_1091_2927)"/>
<rect x="0.483313" y="0.575534" width="66.771" height="69.1105" rx="10.7719" transform="matrix(0.995951 0.0898927 -0.08364 0.996496 7.07353 21.1417)" stroke="#FF6E1D" stroke-width="1.05954"/>
<rect x="0.483313" y="0.575534" width="66.771" height="69.1105" rx="14.001" transform="matrix(0.995951 0.0898927 -0.08364 0.996496 74.4329 97.828)" fill="white"/>
<path d="M90.0947 149.559L90.5636 149.808L90.7891 149.379L90.3803 149.115L90.0947 149.559ZM85.3516 155.394L84.9891 155.006L83.9255 156L85.3824 155.924L85.3516 155.394ZM95.7681 152.353L95.9437 151.854L95.7292 151.777L95.5268 151.88L95.7681 152.353ZM129.009 135.627C128.09 146.576 116.596 154.643 103.136 153.429L103.048 154.484C116.896 155.734 129.081 147.431 130.064 135.722L129.009 135.627ZM106.491 113.458C119.951 114.673 129.928 124.678 129.009 135.627L130.064 135.722C131.047 124.014 120.428 113.652 106.58 112.402L106.491 113.458ZM80.6184 131.259C81.5374 120.31 93.0317 112.243 106.491 113.458L106.58 112.402C92.731 111.152 80.5459 119.455 79.5631 131.164L80.6184 131.259ZM90.3803 149.115C83.9252 144.934 80.0273 138.301 80.6184 131.259L79.5631 131.164C78.9323 138.68 83.0992 145.658 89.809 150.004L90.3803 149.115ZM85.7142 155.783C88.3579 153.313 89.794 151.272 90.5636 149.808L89.6258 149.31C88.9195 150.653 87.5613 152.603 84.9891 155.006L85.7142 155.783ZM95.5268 151.88C92.7769 153.272 88.4601 154.702 85.3209 154.865L85.3824 155.924C88.7143 155.75 93.177 154.261 96.0095 152.826L95.5268 151.88ZM103.136 153.429C100.602 153.2 98.1873 152.658 95.9437 151.854L95.5925 152.852C97.9212 153.686 100.424 154.248 103.048 154.484L103.136 153.429Z" fill="#FF6F1D"/>
<rect x="0.483313" y="0.575534" width="66.771" height="69.1105" rx="14.001" transform="matrix(0.995951 0.0898927 -0.08364 0.996496 74.4329 97.828)" stroke="#FF6E1D" stroke-width="1.05954"/>
<rect x="0.552358" y="0.657753" width="66.6196" height="68.9592" rx="13.9253" transform="matrix(0.995951 0.0898927 -0.08364 0.996496 149.13 31.4727)" fill="white"/>
<path d="M162.268 55.9719L160.529 76.6846L159.053 76.5514L160.792 55.8387L162.268 55.9719ZM168.441 56.5291L173.545 75.9233L173.697 75.937L181.955 57.7489L183.522 57.8903L174.294 77.927L172.636 77.7774L166.884 56.3886L168.441 56.5291ZM186.39 79.0188L188.129 58.3061L194.608 58.8909C195.976 59.0144 197.117 59.3789 198.03 59.9844C198.943 60.59 199.614 61.374 200.043 62.3366C200.471 63.2992 200.635 64.3806 200.534 65.5807C200.434 66.7741 200.093 67.8031 199.511 68.6677C198.93 69.5256 198.139 70.1676 197.139 70.5936C196.14 71.0197 194.962 71.1716 193.608 71.0493L187.897 70.5339L188.012 69.1584L193.683 69.6702C194.754 69.7669 195.677 69.6566 196.45 69.3392C197.224 69.0218 197.832 68.5332 198.274 67.8734C198.724 67.2074 198.989 66.3991 199.068 65.4484C199.149 64.491 199.023 63.6407 198.692 62.8974C198.368 62.1481 197.848 61.5441 197.133 61.0855C196.425 60.6208 195.532 60.3398 194.454 60.2425L189.491 59.7945L187.866 79.152L186.39 79.0188ZM195.89 70.4299L200.198 80.2651L198.49 80.1109L194.222 70.2794L195.89 70.4299Z" fill="#FF6F1D"/>
<rect x="0.552358" y="0.657753" width="66.6196" height="68.9592" rx="13.9253" transform="matrix(0.995951 0.0898927 -0.08364 0.996496 149.13 31.4727)" stroke="#FF6E1D" stroke-width="1.2109"/>
<rect x="0.483313" y="0.575534" width="66.771" height="69.1105" rx="14.001" transform="matrix(0.995951 0.0898927 -0.08364 0.996496 229.804 -36.8989)" fill="white"/>
<path d="M270.175 21.3761C269.416 21.5582 262.772 22.6548 254.378 21.1551C253.351 22.1937 251.99 23.551 251.009 24.4702L270.175 21.3761ZM270.175 21.3761C270.332 21.3387 270.552 21.3014 270.826 21.255M270.175 21.3761L270.826 21.255M270.826 21.255C273.618 20.7828 281.938 19.3756 284.383 7.41618L270.826 21.255ZM281.056 -18.9342L281.062 -18.928L281.067 -18.9219C284.901 -14.8288 286.627 -6.19092 283.864 7.30671L283.864 7.3068C282.55 13.7329 279.523 16.9905 276.656 18.7084C274.294 20.1239 272.044 20.5078 270.766 20.7258C270.472 20.776 270.23 20.8173 270.049 20.8604L270.049 20.8606C269.353 21.0274 262.783 22.1189 254.468 20.6333L254.195 20.5845L254.001 20.781C252.974 21.8192 251.619 23.1704 250.646 24.0823C250.346 24.3637 250.058 24.6482 249.789 24.9141C249.655 25.0469 249.525 25.1751 249.401 25.296C249.019 25.668 248.679 25.9803 248.352 26.2171C248.027 26.4534 247.74 26.5955 247.47 26.6518C247.211 26.7059 246.937 26.6875 246.615 26.5515L246.615 26.5514C246.187 26.3707 245.959 25.9126 245.862 25.3378C245.816 25.0656 245.807 24.8044 245.81 24.609C245.812 24.5122 245.816 24.4337 245.82 24.3808C245.822 24.3544 245.824 24.3346 245.825 24.3222L245.826 24.3093L245.826 24.3083L245.826 24.308L245.827 24.3078L245.827 24.3074L245.827 24.3073L245.828 24.2994L245.828 24.2904L246.297 18.7987L246.342 18.2701L245.878 18.2281C240.098 15.9422 237.519 11.6349 236.46 6.99536C235.391 2.30527 235.886 -2.69282 236.254 -6.23724C236.984 -13.2634 238.768 -18.6847 242.707 -22.1154C246.23 -24.9135 251.369 -25.8313 255.708 -26.0271C257.867 -26.1244 259.802 -26.0421 261.197 -25.9353C261.894 -25.882 262.455 -25.8226 262.841 -25.7767C263.034 -25.7537 263.183 -25.7342 263.283 -25.7205C263.333 -25.7136 263.371 -25.7082 263.396 -25.7046L263.424 -25.7005L263.43 -25.6995L263.432 -25.6993L263.432 -25.6993L263.432 -25.6993L263.447 -25.697L263.462 -25.6955C275.117 -24.5897 279.947 -20.1948 281.056 -18.9342Z" stroke="#FF6F1D" stroke-width="1.05954"/>
<path d="M261.753 5.57942L261.71 5.56391C258.199 4.29118 256.131 1.73036 254.947 -0.483279C254.354 -1.59076 253.979 -2.61874 253.751 -3.3709C253.637 -3.74742 253.56 -4.05604 253.511 -4.27253C253.486 -4.38081 253.468 -4.46615 253.457 -4.52553C253.451 -4.55522 253.447 -4.57843 253.444 -4.59479L253.44 -4.61414L253.439 -4.61987L253.439 -4.62173L253.439 -4.62241C253.439 -4.62268 253.439 -4.62292 253.961 -4.70742M261.753 5.57942L248.844 -13.4232C248.845 -13.4234 248.845 -13.4235 248.845 -13.4237C249.569 -14.1244 250.392 -14.7061 251.284 -15.1492L251.385 -15.1925C251.794 -15.3679 252.141 -15.3874 252.419 -15.3128C252.696 -15.2389 252.952 -15.0601 253.164 -14.7508L253.167 -14.7474M261.753 5.57942L261.798 5.58742M261.753 5.57942L261.798 5.58742M253.961 -4.70742C253.431 -4.71025 253.431 -4.71043 253.431 -4.71061L253.431 -4.711L253.431 -4.71185L253.431 -4.71383L253.432 -4.71888L253.432 -4.73325C253.432 -4.74468 253.432 -4.75979 253.433 -4.7782C253.435 -4.81496 253.438 -4.86524 253.445 -4.92594C253.457 -5.04647 253.483 -5.21272 253.534 -5.39813C253.633 -5.7585 253.848 -6.25406 254.324 -6.58611L254.328 -6.58846L254.328 -6.58845L255.651 -7.49488L255.657 -7.4994L255.657 -7.49935C256.089 -7.78589 256.513 -8.65868 256.085 -9.64854C255.687 -10.5444 255.246 -11.4191 254.764 -12.2693C254.531 -12.666 254.135 -13.2814 253.79 -13.8068C253.619 -14.0684 253.462 -14.3048 253.348 -14.4761C253.291 -14.5618 253.245 -14.631 253.213 -14.6789L253.176 -14.7339L253.167 -14.7469L253.167 -14.7474M253.961 -4.70742L253.439 -4.62292L253.432 -4.66631L253.431 -4.71025L253.961 -4.70742ZM253.167 -14.7474C253.166 -14.7487 253.165 -14.7493 253.165 -14.7494M253.167 -14.7474L253.166 -14.7488L253.165 -14.7494M253.165 -14.7494C253.165 -14.7494 253.165 -14.7494 253.165 -14.7494L253.165 -14.7494ZM261.798 5.58742L261.888 5.06565M261.798 5.58742L261.888 5.06565M261.888 5.06565C261.798 5.58742 261.798 5.58746 261.798 5.58749L261.798 5.58756L261.799 5.58772L261.801 5.58807L261.806 5.58893L261.821 5.59122C261.832 5.59297 261.847 5.59512 261.865 5.59744C261.901 5.60204 261.95 5.60733 262.01 5.61125C262.129 5.61902 262.295 5.62169 262.483 5.60106C262.852 5.56067 263.366 5.4239 263.764 4.99766L263.764 4.99768M261.888 5.06565L263.764 4.99768M263.764 4.99768L263.767 4.99373M263.764 4.99768L263.767 4.99373M263.767 4.99373L264.859 3.80169L264.859 3.80172M263.767 4.99373L264.859 3.80172M264.859 3.80172L264.863 3.79647M264.859 3.80172L264.863 3.79647M264.863 3.79647C265.213 3.40448 266.091 3.13641 266.937 3.72813C267.719 4.28815 268.473 4.88826 269.198 5.52623C269.535 5.83318 270.052 6.34422 270.492 6.78641C270.712 7.00668 270.91 7.2074 271.053 7.35333L271.224 7.52698L271.273 7.57615L271.29 7.59273L271.291 7.59381C271.544 7.86013 271.673 8.15527 271.697 8.46031C271.721 8.77142 271.638 9.13258 271.398 9.52346L271.333 9.62941M264.863 3.79647L271.333 9.62941M271.333 9.62941C270.757 10.4599 270.063 11.195 269.275 11.8097L269.27 11.8135C269.269 11.8141 269.268 11.8146 269.267 11.8152C269.261 11.8195 269.255 11.8238 269.25 11.828L269.247 11.8304C268.545 12.3369 267.923 12.5661 267.372 12.5837L267.357 12.5842L267.342 12.5856C267.28 12.5911 267.218 12.5895 267.157 12.5809L267.142 12.5787L267.126 12.5774C266.942 12.5627 266.761 12.5245 266.587 12.4637L266.567 12.4273L266.386 12.3562C265.422 11.9788 263.777 11.0838 261.011 9.16219L261.008 9.16066C259.426 8.07371 257.936 6.84992 256.553 5.50235L256.553 5.50225C255.864 4.83102 255.212 4.11936 254.602 3.37073C254.601 3.37057 254.601 3.3704 254.601 3.37023L254.536 3.28941L254.469 3.20755L254.403 3.12569L254.403 3.12565L254.397 3.11897C254.386 3.1052 254.377 3.09424 254.365 3.07959C254.357 3.07003 254.349 3.05891 254.337 3.04443C253.73 2.29256 253.165 1.5052 252.645 0.686196L252.645 0.68608C251.601 -0.956984 250.694 -2.68865 249.932 -4.49043L249.931 -4.49268C248.58 -7.6464 248.011 -9.47954 247.817 -10.5333L247.783 -10.7208L247.751 -10.7476C247.722 -10.9434 247.716 -11.1426 247.735 -11.3406L247.736 -11.3572L247.737 -11.3738C247.739 -11.4404 247.748 -11.5065 247.765 -11.5708L247.768 -11.5832L247.771 -11.5957C247.889 -12.1682 248.222 -12.7708 248.824 -13.4014L248.825 -13.4026L271.333 9.62941ZM271.347 9.63419L271.347 9.63423L271.347 9.63419Z" stroke="#FF6F1D" stroke-width="1.05954"/>
<rect x="0.483313" y="0.575534" width="66.771" height="69.1105" rx="14.001" transform="matrix(0.995951 0.0898927 -0.08364 0.996496 229.804 -36.8989)" stroke="#FF6E1D" stroke-width="1.05954"/>
</svg>
